<svg xmlns="http://www.w3.org/2000/svg" xmlns:xlink="http://www.w3.org/1999/xlink" width="836" height="669" viewBox="0 0 303.735 999.93">
  <defs>
    <linearGradient id="linear-gradient" x1="0.489" y1="-0.351" x2="0.505" y2="1.625" gradientUnits="objectBoundingBox">
      <stop offset="0.01"/>
      <stop offset="1" stop-opacity="0"/>
    </linearGradient>
    <linearGradient id="linear-gradient-2" x1="0.495" y1="-25.663" x2="0.506" y2="33.034" xlink:href="#linear-gradient"/>
    <linearGradient id="linear-gradient-3" x1="0.489" y1="-0.344" x2="0.505" y2="1.625" xlink:href="#linear-gradient"/>
    <linearGradient id="linear-gradient-4" x1="0.495" y1="-25.478" x2="0.506" y2="33.219" xlink:href="#linear-gradient"/>
    <linearGradient id="linear-gradient-5" x1="0.498" y1="-0.654" x2="0.502" y2="1.942" xlink:href="#linear-gradient"/>
    <linearGradient id="linear-gradient-6" x1="0.689" y1="0.116" x2="0.204" y2="0.952" xlink:href="#linear-gradient"/>
    <linearGradient id="linear-gradient-7" x1="0.557" y1="-0.586" x2="0.428" y2="1.322" xlink:href="#linear-gradient"/>
    <linearGradient id="linear-gradient-8" x1="0.49" y1="-0.077" x2="0.509" y2="1.231" xlink:href="#linear-gradient"/>
    <linearGradient id="linear-gradient-9" x1="-1" y1="0.622" x2="0.794" y2="0.479" xlink:href="#linear-gradient"/>
    <linearGradient id="linear-gradient-10" x1="-0.036" y1="0.35" x2="0.814" y2="0.576" xlink:href="#linear-gradient"/>
    <linearGradient id="linear-gradient-11" x1="0.995" y1="-0.183" x2="0.224" y2="0.827" xlink:href="#linear-gradient"/>
    <linearGradient id="linear-gradient-12" x1="-0.892" y1="0.547" x2="0.945" y2="0.484" xlink:href="#linear-gradient"/>
    <linearGradient id="linear-gradient-13" x1="1.673" y1="0.535" x2="-0.177" y2="0.484" xlink:href="#linear-gradient"/>
    <linearGradient id="linear-gradient-14" x1="1.779" y1="0.493" x2="-0.069" y2="0.508" xlink:href="#linear-gradient"/>
    <linearGradient id="linear-gradient-15" x1="-0.468" y1="0.508" x2="0.831" y2="0.493" xlink:href="#linear-gradient"/>
    <linearGradient id="linear-gradient-16" x1="0" y1="0.5" x2="1.002" y2="0.5" xlink:href="#linear-gradient"/>
    <linearGradient id="linear-gradient-17" x1="0" y1="0.499" x2="1" y2="0.499" xlink:href="#linear-gradient"/>
    <linearGradient id="linear-gradient-18" x1="0" y1="0.499" x2="1" y2="0.499" xlink:href="#linear-gradient"/>
    <linearGradient id="linear-gradient-19" x1="0.33" y1="1.521" x2="0.733" y2="-0.194" xlink:href="#linear-gradient"/>
    <linearGradient id="linear-gradient-20" x1="0.671" y1="1.078" x2="0.453" y2="0.776" xlink:href="#linear-gradient"/>
    <linearGradient id="linear-gradient-21" x1="1.456" y1="2.166" x2="0.332" y2="-0.072" xlink:href="#linear-gradient"/>
    <filter id="Retângulo_5" x="582.135" y="0" width="187" height="185" filterUnits="userSpaceOnUse">
      <feOffset dy="3" input="SourceAlpha"/>
      <feGaussianBlur stdDeviation="17.5" result="blur"/>
      <feFlood flood-color="#086c7b" flood-opacity="0.4"/>
      <feComposite operator="in" in2="blur"/>
      <feComposite in="SourceGraphic"/>
    </filter>
    <linearGradient id="linear-gradient-22" x1="1" x2="0" y2="1" gradientUnits="objectBoundingBox">
      <stop offset="0" stop-color="#53b67f"/>
      <stop offset="1" stop-color="#086c7b"/>
    </linearGradient>
    <filter id="Retângulo_6" x="9.135" y="199" width="176" height="173" filterUnits="userSpaceOnUse">
      <feOffset dy="3" input="SourceAlpha"/>
      <feGaussianBlur stdDeviation="17.5" result="blur-2"/>
      <feFlood flood-color="#086c7b" flood-opacity="0.4"/>
      <feComposite operator="in" in2="blur-2"/>
      <feComposite in="SourceGraphic"/>
    </filter>
    <filter id="Retângulo_7" x="64.135" y="596" width="182" height="179" filterUnits="userSpaceOnUse">
      <feOffset dy="3" input="SourceAlpha"/>
      <feGaussianBlur stdDeviation="17.5" result="blur-3"/>
      <feFlood flood-color="#086c7b" flood-opacity="0.4"/>
      <feComposite operator="in" in2="blur-3"/>
      <feComposite in="SourceGraphic"/>
    </filter>
    <linearGradient id="linear-gradient-30" x1="0.477" y1="-3.118" x2="0.607" y2="16.815" gradientUnits="objectBoundingBox">
      <stop offset="0" stop-color="#010101" stop-opacity="0"/>
      <stop offset="0.95" stop-color="#010101"/>
    </linearGradient>
    <linearGradient id="linear-gradient-31" x1="0.452" y1="1.017" x2="0.668" y2="-0.669" gradientUnits="objectBoundingBox">
      <stop offset="0" stop-color="#010101" stop-opacity="0"/>
      <stop offset="1" stop-color="#010101"/>
    </linearGradient>
    <linearGradient id="linear-gradient-32" x1="0.116" y1="1.183" x2="0.75" y2="-0.036" xlink:href="#linear-gradient-31"/>
    <linearGradient id="linear-gradient-33" y1="0.5" x2="1" y2="0.5" gradientUnits="objectBoundingBox">
      <stop offset="0" stop-color="#e4c5d5"/>
      <stop offset="0.42" stop-color="#e9d3cf"/>
      <stop offset="1" stop-color="#efe8ca"/>
    </linearGradient>
    <linearGradient id="linear-gradient-34" x1="-0.001" y1="0.499" x2="1.001" y2="0.499" xlink:href="#linear-gradient-33"/>
    <linearGradient id="linear-gradient-35" x1="56.966" y1="0.499" x2="57.969" y2="0.499" xlink:href="#linear-gradient-33"/>
    <linearGradient id="linear-gradient-36" x1="0.506" y1="1.176" x2="0.485" y2="0.043" gradientUnits="objectBoundingBox">
      <stop offset="0" stop-color="#fff" stop-opacity="0"/>
      <stop offset="0.95" stop-color="#fff"/>
    </linearGradient>
    <linearGradient id="linear-gradient-37" x1="0.466" y1="0.254" x2="0.629" y2="1.448" xlink:href="#linear-gradient-31"/>
    <linearGradient id="linear-gradient-38" x1="0.464" y1="0.241" x2="0.628" y2="1.435" xlink:href="#linear-gradient-31"/>
    <linearGradient id="linear-gradient-39" x1="0.467" y1="1.136" x2="0.588" y2="-1.22" xlink:href="#linear-gradient-31"/>
    <linearGradient id="linear-gradient-40" x1="-0.001" y1="0.501" x2="1" y2="0.501" xlink:href="#linear-gradient-33"/>
    <linearGradient id="linear-gradient-41" x1="0.001" y1="0.501" x2="1.001" y2="0.501" xlink:href="#linear-gradient-33"/>
    <linearGradient id="linear-gradient-42" x1="0.766" y1="0.561" x2="-0.581" y2="0.27" xlink:href="#linear-gradient-31"/>
    <linearGradient id="linear-gradient-43" x1="118.633" y1="0.561" x2="117.289" y2="0.269" xlink:href="#linear-gradient-31"/>
    <linearGradient id="linear-gradient-44" x1="0" y1="0.502" x2="1.001" y2="0.502" xlink:href="#linear-gradient-33"/>
    <linearGradient id="linear-gradient-45" x1="-0.306" y1="0.07" x2="1.622" y2="0.955" xlink:href="#linear-gradient-31"/>
    <linearGradient id="linear-gradient-46" x1="0.385" y1="0.161" x2="0.719" y2="1.147" xlink:href="#linear-gradient-31"/>
    <linearGradient id="linear-gradient-47" x1="0.493" y1="0.891" x2="0.509" y2="-0.008" xlink:href="#linear-gradient-36"/>
    <linearGradient id="linear-gradient-48" x1="0.501" y1="-3.673" x2="0.498" y2="8.561" xlink:href="#linear-gradient-31"/>
    <linearGradient id="linear-gradient-49" x1="0.497" y1="-5.464" x2="0.51" y2="19.354" xlink:href="#linear-gradient-31"/>
    <linearGradient id="linear-gradient-50" x1="0.501" y1="-3.682" x2="0.498" y2="8.561" xlink:href="#linear-gradient-31"/>
    <linearGradient id="linear-gradient-53" x1="0.497" y1="-5.455" x2="0.51" y2="19.354" xlink:href="#linear-gradient-31"/>
    <linearGradient id="linear-gradient-57" x1="0.497" y1="-5.455" x2="0.51" y2="19.364" xlink:href="#linear-gradient-31"/>
    <linearGradient id="linear-gradient-90" x1="-0.51" y1="0.171" x2="1.978" y2="1.013" xlink:href="#linear-gradient-31"/>
    <linearGradient id="linear-gradient-91" x1="0.398" y1="-1.374" x2="0.726" y2="4.633" xlink:href="#linear-gradient-31"/>
    <linearGradient id="linear-gradient-92" x1="0.403" y1="0.886" x2="0.614" y2="-0.588" xlink:href="#linear-gradient-31"/>
    <linearGradient id="linear-gradient-93" x1="0.586" y1="0.213" x2="0.251" y2="1.147" xlink:href="#linear-gradient-31"/>
    <linearGradient id="linear-gradient-94" x1="0.273" y1="0.359" x2="1.216" y2="0.651" xlink:href="#linear-gradient-31"/>
    <linearGradient id="linear-gradient-95" x1="0.157" y1="0.186" x2="1.754" y2="1.372" xlink:href="#linear-gradient-31"/>
    <linearGradient id="linear-gradient-96" x1="0.51" y1="-0.075" x2="0.464" y2="1.536" xlink:href="#linear-gradient-31"/>
    <linearGradient id="linear-gradient-97" x1="-0.019" y1="0.493" x2="1.834" y2="0.532" xlink:href="#linear-gradient-31"/>
    <linearGradient id="linear-gradient-98" x1="1.701" y1="0.462" x2="-1.771" y2="0.581" xlink:href="#linear-gradient-31"/>
    <linearGradient id="linear-gradient-99" x1="0" y1="0.503" x2="0.999" y2="0.503" xlink:href="#linear-gradient-33"/>
    <linearGradient id="linear-gradient-100" x1="0.168" y1="0.739" x2="1.676" y2="-0.542" xlink:href="#linear-gradient-31"/>
    <linearGradient id="linear-gradient-101" x1="0.499" y1="0.323" x2="0.503" y2="1.15" xlink:href="#linear-gradient-31"/>
    <linearGradient id="linear-gradient-102" x1="-0.001" y1="0.5" x2="1" y2="0.5" xlink:href="#linear-gradient-33"/>
    <linearGradient id="linear-gradient-103" x1="0.001" y1="0.501" x2="1" y2="0.501" xlink:href="#linear-gradient-31"/>
    <linearGradient id="linear-gradient-104" x1="0" y1="0.499" x2="1" y2="0.499" xlink:href="#linear-gradient-33"/>
    <linearGradient id="linear-gradient-105" x1="0.003" y1="0.5" x2="0.995" y2="0.5" xlink:href="#linear-gradient-31"/>
    <linearGradient id="linear-gradient-106" x1="0.998" y1="0.474" x2="0.28" y2="0.511" xlink:href="#linear-gradient-31"/>
    <linearGradient id="linear-gradient-107" x1="-0.684" y1="0.31" x2="2.521" y2="0.811" xlink:href="#linear-gradient-31"/>
    <linearGradient id="linear-gradient-108" x1="-1.954" y1="0.475" x2="7.031" y2="0.562" xlink:href="#linear-gradient-31"/>
    <linearGradient id="linear-gradient-109" x1="-0.524" y1="-0.627" x2="3.352" y2="3.828" xlink:href="#linear-gradient-31"/>
    <linearGradient id="linear-gradient-110" x1="0" y1="0.5" x2="1.001" y2="0.5" xlink:href="#linear-gradient-31"/>
    <linearGradient id="linear-gradient-111" x1="-0.001" y1="0.5" x2="1" y2="0.5" xlink:href="#linear-gradient-31"/>
    <linearGradient id="linear-gradient-112" x1="0.098" y1="0.562" x2="1.654" y2="0.265" xlink:href="#linear-gradient-31"/>
    <linearGradient id="linear-gradient-113" x1="0.079" y1="0.402" x2="1.251" y2="0.649" xlink:href="#linear-gradient-31"/>
    <linearGradient id="linear-gradient-114" x1="46.469" y1="0.5" x2="47.47" y2="0.5" xlink:href="#linear-gradient-33"/>
    <linearGradient id="linear-gradient-115" x1="0.539" y1="-25.594" x2="0.345" y2="-14.103" xlink:href="#linear-gradient-30"/>
  </defs>
  <g id="Illustration" transform="translate(-924.365 -152.5)">
    <g id="lawyer" transform="translate(959.998 202.003)">
      <path id="Caminho_442" data-name="Caminho 442" d="M215.555,702.576c-31.032-12.324-55.415-36.663-77.182-62.065A667.95,667.95,0,0,1,55.937,519.729C25.57,462.807,3.382,395.112,25.215,334.332c8.866-24.649,24.383-46.283,40.564-66.919,25.048-31.9,53.021-63.151,89.329-81.482,26.6-13.477,56.5-19.329,83.632-31.742C292.36,129.7,331.35,81.817,380.381,49.1c84.386-56.28,201.29-62.264,288.158-9.93,32.806,19.772,60.757,46.7,85.938,75.542,52.157,59.848,94.449,130.779,106.53,209.2,11.881,77.226-7.337,159-53.331,222.17S689.309,652.858,611.728,662.833C581.8,666.69,548.8,666.69,525.68,686.107c-9.753,8.2-16.758,19.174-25.535,28.417-25.8,27.22-65.235,37.416-102.739,37.948C335.65,753.359,272.145,725.075,215.555,702.576Z" transform="translate(-6.44 -10.19)" fill="#086c7b" opacity="0.18"/>
      <path id="Caminho_443" data-name="Caminho 443" d="M380.75,176.879l-27.109-103.8-34.2,103.936-4.9-.089,39.345-117.1,31.454,117.1Z" transform="translate(382.667 72.781)" fill="#086c7b"/>
      <rect id="Retângulo_110" data-name="Retângulo 110" width="110.83" height="3.946" transform="translate(731.578 249.967) rotate(-88.5)" fill="#086c7b"/>
      <path id="Caminho_444" data-name="Caminho 444" d="M318.955,177.455,288.5,73.075,254.186,176.391l-3.746-1.241,38.3-115.33,34,116.549Z" transform="translate(304.683 72.781)" fill="#086c7b"/>
      <rect id="Retângulo_111" data-name="Retângulo 111" width="110.83" height="3.946" transform="translate(590.708 250.509) rotate(-88.282)" fill="#086c7b"/>
      <path id="Caminho_445" data-name="Caminho 445" d="M380.75,176.879l-27.109-103.8-34.2,103.936-4.9-.089,39.345-117.1,31.454,117.1Z" transform="translate(382.667 72.781)" fill="url(#linear-gradient)"/>
      <rect id="Retângulo_112" data-name="Retângulo 112" width="110.83" height="3.946" transform="translate(731.578 249.967) rotate(-88.5)" fill="url(#linear-gradient-2)"/>
      <path id="Caminho_446" data-name="Caminho 446" d="M318.955,177.455,288.5,73.075,254.186,176.391l-3.746-1.241,38.3-115.33,34,116.549Z" transform="translate(304.683 72.781)" fill="url(#linear-gradient-3)"/>
      <rect id="Retângulo_113" data-name="Retângulo 113" width="110.83" height="3.946" transform="translate(590.708 250.509) rotate(-88.282)" fill="url(#linear-gradient-4)"/>
      <path id="Caminho_447" data-name="Caminho 447" d="M325.081,81.44c-7.536,0-13.787-3.17-20.26-6.45-2.217-1.086-4.433-2.217-6.65-3.258-10.263-4.633-14.9,3.657-15.383,4.611a3.132,3.132,0,1,1-5.608-2.793c2.571-5.12,10.75-13.3,23.5-7.492,2.483,1.108,4.766,2.217,6.96,3.391,9.709,4.921,16.713,8.49,28.461,3.081,3.879-1.773,6.916-3.281,9.576-4.588,8.135-4.034,12.214-6.051,21.08-6.051a27.574,27.574,0,0,1,14.607,4.677,30.257,30.257,0,0,0,12.879,4.744c7.492.776,26.333,1.707,39.012-6.428a15.849,15.849,0,0,1,11.925-1.175,20.57,20.57,0,0,1,12.989,8.556,3.111,3.111,0,0,1-5.342,3.192,14.7,14.7,0,0,0-9.066-5.7,10.285,10.285,0,0,0-7.137.355c-13.832,8.866-32.894,8.445-43.024,7.381a36.286,36.286,0,0,1-15.317-5.519,21.878,21.878,0,0,0-11.549-3.946c-7.426,0-10.4,1.463-18.309,5.386-2.593,1.263-5.785,2.859-9.753,4.677a32.318,32.318,0,0,1-13.588,3.347Z" transform="translate(300.375 68.229)" fill="#086c7b"/>
      <path id="Caminho_448" data-name="Caminho 448" d="M325.081,81.44c-7.536,0-13.787-3.17-20.26-6.45-2.217-1.086-4.433-2.217-6.65-3.258-10.263-4.633-14.9,3.657-15.383,4.611a3.132,3.132,0,1,1-5.608-2.793c2.571-5.12,10.75-13.3,23.5-7.492,2.483,1.108,4.766,2.217,6.96,3.391,9.709,4.921,16.713,8.49,28.461,3.081,3.879-1.773,6.916-3.281,9.576-4.588,8.135-4.034,12.214-6.051,21.08-6.051a27.574,27.574,0,0,1,14.607,4.677,30.257,30.257,0,0,0,12.879,4.744c7.492.776,26.333,1.707,39.012-6.428a15.849,15.849,0,0,1,11.925-1.175,20.57,20.57,0,0,1,12.989,8.556,3.111,3.111,0,0,1-5.342,3.192,14.7,14.7,0,0,0-9.066-5.7,10.285,10.285,0,0,0-7.137.355c-13.832,8.866-32.894,8.445-43.024,7.381a36.286,36.286,0,0,1-15.317-5.519,21.878,21.878,0,0,0-11.549-3.946c-7.426,0-10.4,1.463-18.309,5.386-2.593,1.263-5.785,2.859-9.753,4.677a32.318,32.318,0,0,1-13.588,3.347Z" transform="translate(300.375 68.229)" fill="url(#linear-gradient-5)"/>
      <path id="Caminho_449" data-name="Caminho 449" d="M338.516,148.951a16.647,16.647,0,0,1,8.29,4.433,17.045,17.045,0,0,1,2.97,8.866C364.65,269.158,373.6,373.67,336.233,474.925a22.587,22.587,0,0,1-5.187,9.132,21.745,21.745,0,0,1-8.866,4.234c-34.2,9.975-70.488,9.42-106.109,8.623-15.937-.377-32.3-.842-47.1-6.783-5.009-2.017-10.152-5.032-12.058-10.086a26.356,26.356,0,0,1-.865-9.8c.687-26.821-8.667-52.777-12.7-79.31-3.946-25.89-2.793-52.267-1.618-78.423q1.818-40.342,3.746-80.662c.975-20.481-13.566-38.68-8.312-58.784,4.7-18,80.33-39.411,110.83-38.924A349.826,349.826,0,0,1,338.516,148.951Z" transform="translate(129.029 156.124)" fill="#fff"/>
      <path id="Caminho_450" data-name="Caminho 450" d="M141.36,388.59c28.062,25.557,69.2,33.249,106.641,27.087s71.729-24.981,102.7-46.9a332.5,332.5,0,0,1-21.989-79.554c.8,5.453-97.841,15.272-107.195,15.228-16.713,0-34.18-6.65-50.406-5.963-14.186.554-15.516,14.319-17.733,25.779Q147.323,356.405,141.36,388.59Z" transform="translate(135.535 344.799)" fill="#3f3d56"/>
      <path id="Caminho_451" data-name="Caminho 451" d="M141.36,388.59c28.062,25.557,69.2,33.249,106.641,27.087s71.729-24.981,102.7-46.9a332.5,332.5,0,0,1-21.989-79.554c.8,5.453-97.841,15.272-107.195,15.228-16.713,0-34.18-6.65-50.406-5.963-14.186.554-15.516,14.319-17.733,25.779Q147.323,356.405,141.36,388.59Z" transform="translate(135.535 344.799)" fill="url(#linear-gradient-6)"/>
      <path id="Caminho_452" data-name="Caminho 452" d="M303.386,326a14.053,14.053,0,0,0,6.472-3.79,12.457,12.457,0,0,0,1.973-8.667,40.653,40.653,0,0,0-7.093-20.526A227.91,227.91,0,0,1,196.945,304.1c-11.438-1.6-46.9-13.787-44.332,8.2,1.6,13.809,25.181,15.516,35.953,18.4A196.236,196.236,0,0,0,303.386,326Z" transform="translate(149.064 349.422)" fill="#3f3d56"/>
      <path id="Caminho_453" data-name="Caminho 453" d="M175.908,150.944c-1.928,4.633-4.433,9.576-3.1,14.452a15.516,15.516,0,0,0,2.815,5.364,31.476,31.476,0,0,0,53.2-4.854,49.852,49.852,0,0,1-6.362-29.392c.421-4.433,1.308-9.554-1.552-13.056a12.745,12.745,0,0,0-5.475-3.5c-8.866-3.5-21.5-4.655-29.569,1.507C178.612,127.071,179.521,142.433,175.908,150.944Z" transform="translate(173.337 135.378)" fill="#f1af8c"/>
      <path id="Caminho_454" data-name="Caminho 454" d="M186.144,151.749a27.508,27.508,0,0,0,9.531,8.046c3.813,1.751,27.841,5.963,26.444,1.995A44.554,44.554,0,0,1,219.681,140c2.217-3.835,4.943-5.741,5.985-10.086a8.468,8.468,0,0,0,0-4.079,9.753,9.753,0,0,0-3.746-4.965,32.23,32.23,0,0,0-15.849-5.3c-4.566-.554-9.155-.842-13.743-1.13a21.546,21.546,0,0,0-11.083,1.308C167.081,122.955,179.693,143.7,186.144,151.749Z" transform="translate(176.202 131.892)" fill="url(#linear-gradient-7)"/>
      <path id="Caminho_455" data-name="Caminho 455" d="M190.293,207.012a48.189,48.189,0,0,0,19.2,12.3c13.521,4.189,28.816-.488,39.566-9.576s17.733-21.989,22.565-35.333c8.645-24.516,14.408-55.814,8.711-81.172-1.973-8.866-4.943-17.733-10.684-24.782C248.39,42.385,193.108,49.323,169.9,71.223c-19.573,18.4-11.859,52.644-7.736,75.852C165.977,169.019,174.156,191.052,190.293,207.012Z" transform="translate(154.741 55.793)" fill="#f1af8c"/>
      <path id="Caminho_456" data-name="Caminho 456" d="M158.43,85.421a6.65,6.65,0,0,0-5.985.31,7.6,7.6,0,0,0-2.217,5.01,19.108,19.108,0,0,0,0,9.354,19.439,19.439,0,0,0,3.547,5.719l7,8.733a8.246,8.246,0,0,0,3.258,2.859,6.938,6.938,0,0,0,3.569.2c3.3-.421,7.093-2.106,7.514-5.408a9,9,0,0,0-.776-4.012C170.8,98.61,169.2,89.012,158.43,85.421Z" transform="translate(145.618 96.167)" fill="#f1af8c"/>
      <path id="Caminho_457" data-name="Caminho 457" d="M215.656,87.2a13.122,13.122,0,0,1,11.659-8.866,3.672,3.672,0,0,1,4.1,2.549A25.823,25.823,0,0,1,232.5,95.4a29.524,29.524,0,0,1-3.347,11.039,13.3,13.3,0,0,1-8.866,6.65,7.2,7.2,0,0,1-6.761-2.217C209.849,106.174,214.127,92.254,215.656,87.2Z" transform="translate(221.566 88.204)" fill="#f1af8c"/>
      <path id="Caminho_458" data-name="Caminho 458" d="M159.956,131.412c-4.3-8.866-9.066-18.353-16.536-24.715a63.063,63.063,0,0,1,12.568-19.816c13.3-15.383,29.193-28.816,47.79-36.84s39.9-10.618,59.427-4.766a38.347,38.347,0,0,1,13.144,6.384,44.708,44.708,0,0,1,7.337,7.825,151.439,151.439,0,0,1,23.984,44.642,23.584,23.584,0,0,1,1.729,10.285,23.629,23.629,0,0,1-2.416,7.137,177.156,177.156,0,0,1-10.617,19.55,47.614,47.614,0,0,1-1.352-14.43,79.178,79.178,0,0,0-5.1-29.636,42.337,42.337,0,0,0-19.528-22.166,50.981,50.981,0,0,0-14.319-4.3,103.249,103.249,0,0,0-39.034.82c-13.7,2.948-27.663,9.509-34.357,21.811-5.12,9.465-5.187,20.747-5.1,31.5,0,4.987,1.042,26.267,1.042,26.267C165.387,135.89,162.616,136.067,159.956,131.412Z" transform="translate(138.042 44.147)" fill="#c5733b"/>
      <path id="Caminho_459" data-name="Caminho 459" d="M159.756,129.861c-4.3-8.866-8.866-16.8-16.336-23.163a63.063,63.063,0,0,1,12.568-19.816c13.3-15.383,29.193-28.816,47.79-36.84s39.9-10.618,59.427-4.766a38.346,38.346,0,0,1,13.144,6.384,44.709,44.709,0,0,1,7.337,7.825,151.439,151.439,0,0,1,23.984,44.642,23.585,23.585,0,0,1,1.729,10.285,23.629,23.629,0,0,1-2.416,7.137,177.162,177.162,0,0,1-10.617,19.55,47.613,47.613,0,0,1-1.352-14.43,79.178,79.178,0,0,0-5.1-29.636,42.337,42.337,0,0,0-19.528-22.166,50.981,50.981,0,0,0-14.319-4.3,103.249,103.249,0,0,0-39.034.82c-13.7,2.948-27.663,9.509-34.357,21.811-5.12,9.465-5.187,20.747-5.1,31.5,0,4.987,1.042,26.267,1.042,26.267S162.438,134.516,159.756,129.861Z" transform="translate(138.042 44.147)" fill="url(#linear-gradient-8)"/>
      <path id="Caminho_460" data-name="Caminho 460" d="M202.973,40.137c-4.1,4.145-4.123,10.817-2.859,16.492a48.964,48.964,0,0,0,10.063,20.459c4.189,5.054,9.421,9.243,13.1,14.7,6.3,9.288,7.359,21.013,9.687,31.986a8.866,8.866,0,0,0,2.217,4.987c2.46,2.217,6.65,1.042,8.866-1.574a17.733,17.733,0,0,0,2.771-9.487,223.7,223.7,0,0,0,.022-35.2,65.789,65.789,0,0,0-5.209-23.762C236.465,47.984,215.674,27.237,202.973,40.137Z" transform="translate(206.121 36.783)" fill="#c5733b"/>
      <path id="Caminho_461" data-name="Caminho 461" d="M202.973,40.137c-4.1,4.145-4.123,10.817-2.859,16.492a48.964,48.964,0,0,0,10.063,20.459c4.189,5.054,9.421,9.243,13.1,14.7,6.3,9.288,7.359,21.013,9.687,31.986a8.866,8.866,0,0,0,2.217,4.987c2.46,2.217,6.65,1.042,8.866-1.574a17.733,17.733,0,0,0,2.771-9.487,223.7,223.7,0,0,0,.022-35.2,65.789,65.789,0,0,0-5.209-23.762C236.465,47.984,215.674,27.237,202.973,40.137Z" transform="translate(206.121 36.783)" fill="url(#linear-gradient-9)"/>
      <path id="Caminho_462" data-name="Caminho 462" d="M217.367,89.669a8.689,8.689,0,0,1,3.591-6.65,3.148,3.148,0,0,1,2.97-.421c1.241.621,1.485,2.217,1.507,3.68a22.631,22.631,0,0,1-1.086,8.534c-1.153,3.015-6.184,8.866-9.753,5.431-1.951-1.884.244-3.569,1.441-5.032a9.11,9.11,0,0,0,1.33-5.542Z" transform="translate(223.69 93.182)" fill="url(#linear-gradient-10)"/>
      <path id="Caminho_463" data-name="Caminho 463" d="M161.845,95.67a18.53,18.53,0,0,0-2.527-3.968,6.5,6.5,0,0,0-4.056-2.217c-1.751-.133-3.746,1.086-3.7,2.837a4.722,4.722,0,0,0,.8,2.217,32.65,32.65,0,0,0,7.758,10.041,6.65,6.65,0,0,0,4.721,1.64,4.854,4.854,0,0,0,3.857-4.433c.155-1.574-.443-4.433-2.217-4.854S163.02,98,161.845,95.67Z" transform="translate(147.944 101.789)" fill="url(#linear-gradient-11)"/>
      <path id="Caminho_464" data-name="Caminho 464" d="M366.422,208.355c-8.711,33.493-21.457,65.811-34.18,98.018-6.894,17.489-14.984,36.352-31.5,45.329a28.417,28.417,0,0,1-17.023,3.724,27.932,27.932,0,0,1-10.662-3.923c-.776-.466-1.507-.953-2.217-1.463h0a41.849,41.849,0,0,1-8.866-8.357,53.2,53.2,0,0,1-10.95-28.35,79.421,79.421,0,0,1,6.3-36.33c1.042-2.66,2.217-5.3,3.5-7.869A279.1,279.1,0,0,1,280.6,236.55c1.441-2.106,2.859-4.234,4.278-6.362a170.227,170.227,0,0,0,15.051-26.821,154.251,154.251,0,0,0,8.2-26.887c2.682-11.97,3.081-12.945,12.413-4.677a220.862,220.862,0,0,0,42.67,29.658,4.877,4.877,0,0,1,3.125,6.894Z" transform="translate(268.765 195.381)" fill="#086c7b"/>
      <path id="Caminho_465" data-name="Caminho 465" d="M283.006,166.781c.665-1.441,1.685-3.081,3.281-3.081a3.99,3.99,0,0,1,1.973.687,89.94,89.94,0,0,1,8.534,6.65c8.445,6.45,19,9.31,29.259,12.058a11.084,11.084,0,0,1,5.652,2.793c2.726,3.1,1.175,7.913-.554,11.682s-3.347,7.248-5.076,10.861a6.65,6.65,0,0,1-3.214,3.746,6.472,6.472,0,0,1-3.968-.355A84.031,84.031,0,0,1,289.878,195.4c-3.436-2.948-9.687-7.692-11.571-11.837S281.211,170.682,283.006,166.781Z" transform="translate(301.62 192.091)" fill="#fff"/>
      <path id="Caminho_466" data-name="Caminho 466" d="M287.8,167.4c7.935-9.709,21.545-12.9,34.047-12.213s24.582,4.611,36.929,6.65a107.062,107.062,0,0,0,54.639-5.076c7.2-2.726,14.1-6.317,21.457-8.689a7.936,7.936,0,0,1,6.65,0,5.7,5.7,0,0,1,2.327,4.655c.177,4.588-3.258,8.467-6.65,11.593A132.552,132.552,0,0,1,349.98,199.54a184.578,184.578,0,0,0-19.816.554c-5.963.754-11.748,2.5-17.733,3.591a35.908,35.908,0,0,1-17.733-.465C279.227,197.9,278.65,178.638,287.8,167.4Z" transform="translate(306.397 172.188)" fill="#f1af8c"/>
      <path id="Caminho_467" data-name="Caminho 467" d="M216.189,280.931c6.495,49.319,15.827,98.572,15.272,148.313-.355,30.877-4.433,61.555-9.022,92.1a10.285,10.285,0,0,1-1.618,4.877,10.064,10.064,0,0,1-6.14,2.9q-34.246,7.359-69,11.97c0-63.882,1.086-142.594-1.662-206.388C142.044,288.4,132,257.457,134.773,211.2l2.217-38.392a12.391,12.391,0,0,1,1.153-5.386,12.1,12.1,0,0,1,4.079-3.835c20.925-14.142,48.765-28.993,74.3-31.254,2.616,8.334-3.48,24.227-4.433,33.471a330.889,330.889,0,0,0-1.928,38.635,601.228,601.228,0,0,0,6.029,76.5Z" transform="translate(126.938 153.926)" fill="#086c7b"/>
      <path id="Caminho_468" data-name="Caminho 468" d="M216.189,280.931c6.495,49.319,15.827,98.572,15.272,148.313-.355,30.877-4.433,61.555-9.022,92.1a10.285,10.285,0,0,1-1.618,4.877,10.064,10.064,0,0,1-6.14,2.9q-34.246,7.359-69,11.97c0-63.882,1.086-142.594-1.662-206.388C142.044,288.4,132,257.457,134.773,211.2l2.217-38.392a12.391,12.391,0,0,1,1.153-5.386,12.1,12.1,0,0,1,4.079-3.835c20.925-14.142,48.765-28.993,74.3-31.254,2.616,8.334-3.48,24.227-4.433,33.471a330.889,330.889,0,0,0-1.928,38.635,601.228,601.228,0,0,0,6.029,76.5Z" transform="translate(126.938 153.926)" fill="url(#linear-gradient-12)"/>
      <path id="Caminho_469" data-name="Caminho 469" d="M176.266,136.433,150.62,295.12l25.535,26.821-17.378,42.115,45.507,98s-2.35-59.494-11.682-160.992S200.782,132,200.782,132Z" transform="translate(146.801 153.525)" fill="#086c7b"/>
      <path id="Caminho_470" data-name="Caminho 470" d="M205.991,133.2a9.443,9.443,0,0,0-6.938,3.015,9.908,9.908,0,0,0-1.042,5.963l5.165,123.4a447.51,447.51,0,0,0,3.414,44.953c1.441,9.819,3.524,19.528,5.209,29.3,10.861,62.575,5.674,126.745,9.4,190.14a7.625,7.625,0,0,0,1.485,4.9,7.4,7.4,0,0,0,4.256,1.751,274.263,274.263,0,0,0,73.148,3.125q-15.029-153.211-16.58-307.354c-.244-25.2-.288-50.8-7.182-75.076a11.792,11.792,0,0,0-2.217-4.766,12.192,12.192,0,0,0-4.788-2.771c-11.815-4.588-23.651-9.066-35.466-13.765C223.768,131.957,216.875,133.2,205.991,133.2Z" transform="translate(204.344 154.765)" fill="#086c7b"/>
      <path id="Caminho_471" data-name="Caminho 471" d="M205.991,133.2a9.443,9.443,0,0,0-6.938,3.015,9.908,9.908,0,0,0-1.042,5.963l5.165,123.4a447.51,447.51,0,0,0,3.414,44.953c1.441,9.819,3.524,19.528,5.209,29.3,10.861,62.575,5.674,126.745,9.4,190.14a7.625,7.625,0,0,0,1.485,4.9,7.4,7.4,0,0,0,4.256,1.751,274.263,274.263,0,0,0,73.148,3.125q-15.029-153.211-16.58-307.354c-.244-25.2-.288-50.8-7.182-75.076a11.792,11.792,0,0,0-2.217-4.766,12.192,12.192,0,0,0-4.788-2.771c-11.815-4.588-23.651-9.066-35.466-13.765C223.768,131.957,216.875,133.2,205.991,133.2Z" transform="translate(204.344 154.765)" fill="url(#linear-gradient-13)"/>
      <path id="Caminho_472" data-name="Caminho 472" d="M196.41,132.57l11.415,1.175L250.65,271.6l-21.568,35.6L253,354.43l-29.769,90.415s-19.2-133.816-18.93-165.492S196.41,132.57,196.41,132.57Z" transform="translate(202.509 154.218)" fill="#086c7b"/>
      <path id="Caminho_473" data-name="Caminho 473" d="M176.266,136.433,150.62,295.12l25.535,26.821-17.378,42.115,45.507,98s-2.35-59.494-11.682-160.992S200.782,132,200.782,132Z" transform="translate(146.801 153.525)" fill="url(#linear-gradient-14)"/>
      <path id="Caminho_474" data-name="Caminho 474" d="M196.41,132.57l11.415,1.175L250.65,271.6l-21.568,35.6L253,354.43l-29.769,90.415s-19.2-133.816-18.93-165.492S196.41,132.57,196.41,132.57Z" transform="translate(202.509 154.218)" fill="url(#linear-gradient-15)"/>
      <rect id="Retângulo_114" data-name="Retângulo 114" width="13.078" height="185.729" rx="2.95" transform="translate(659.503 120.366)" fill="#086c7b"/>
      <rect id="Retângulo_115" data-name="Retângulo 115" width="13.078" height="185.729" rx="2.95" transform="translate(659.503 120.366)" fill="url(#linear-gradient-16)"/>
      <path id="Caminho_475" data-name="Caminho 475" d="M257.464,124.708l-7.2-12.058h70.8l-12.945,20.282H262.363l-4.9-8.224" transform="translate(304.464 137.054)" fill="#086c7b"/>
      <path id="Caminho_476" data-name="Caminho 476" d="M372.393,132.932H326.62L314.54,112.65h70.8Z" transform="translate(382.667 137.054)" fill="#086c7b"/>
      <path id="Caminho_477" data-name="Caminho 477" d="M257.464,124.708l-7.2-12.058h70.8l-12.945,20.282H262.363l-4.9-8.224" transform="translate(304.464 137.054)" fill="url(#linear-gradient-17)"/>
      <path id="Caminho_478" data-name="Caminho 478" d="M372.393,132.932H326.62L314.54,112.65h70.8Z" transform="translate(382.667 137.054)" fill="url(#linear-gradient-18)"/>
      <path id="Caminho_479" data-name="Caminho 479" d="M310.016,136.06h37.062a29.946,29.946,0,0,1,29.946,29.946v6.118H280.07v-6.118a29.946,29.946,0,0,1,29.946-29.946Z" transform="translate(340.731 165.535)" fill="#086c7b"/>
      <path id="Caminho_480" data-name="Caminho 480" d="M310.016,136.06h37.062a29.946,29.946,0,0,1,29.946,29.946v6.118H280.07v-6.118a29.946,29.946,0,0,1,29.946-29.946Z" transform="translate(340.731 165.535)" fill="url(#linear-gradient-19)"/>
      <path id="Caminho_481" data-name="Caminho 481" d="M268.264,30.7a15.516,15.516,0,0,0-4.145-4.433,13.588,13.588,0,0,0-6.827-1.906,45.817,45.817,0,0,0-14.9,2.616c-27.353,8.157-55.415,19.351-73.613,41.251-12.568,15.029-19.506,33.848-26.222,52.245-1.2,3.325-2.217,7.47.177,10.019a8.866,8.866,0,0,0,5.94,2.084c11.659.754,23.1-2.749,34.246-6.251,19.949-6.273,40.143-12.834,58.363-23.341,15.516-9.044,33.094-19.816,35.022-38.946A50.982,50.982,0,0,0,268.264,30.7Z" transform="translate(135.443 22.57)" fill="#c5733b"/>
      <path id="Caminho_482" data-name="Caminho 482" d="M313.3,313.334a91.569,91.569,0,0,1-6.051,21.235,93.32,93.32,0,0,1-5.63,11.238c-5.253,8.866,4.1,38.768-5.674,35.6a9.092,9.092,0,0,1-2.217-1.463h0a118.936,118.936,0,0,1-8.866-8.357c-7.47-7.559-15.982-16.913-17.733-18.752-10.928-11.615-21.3-24.227-27.02-39.123h0c-2.682-6.938-4.566-28.816-5.852-54.639-.465-9.642-.864-19.949-1.2-30.079-1.352-44.775-1.263-89.551-.377-87.068,2.217,5.874,18.93,35.842,22.166,41.14,6.65,10.507,39.655,67.008,48.566,83.455.887,1.6,1.507,2.815,1.862,3.591a96.046,96.046,0,0,1,7.891,20.614A63,63,0,0,1,313.3,313.334Z" transform="translate(245.838 165.478)" fill="#086c7b"/>
      <path id="Caminho_483" data-name="Caminho 483" d="M190.405,152.185l12.08,11.216a2.327,2.327,0,0,1,.465,3.835q-9.886,13.3-20.969,25.491c-6.65-15.516-12.59-32.3-11.814-49.5.244-5.453,1.751-16.913,7.47-7.847a75.365,75.365,0,0,0,12.768,16.8Z" transform="translate(170.499 153.533)" fill="#fff"/>
      <path id="Caminho_484" data-name="Caminho 484" d="M199.824,152.19a31.188,31.188,0,0,1-6.783,6.007,62.816,62.816,0,0,0-6.007,3.3,4.433,4.433,0,0,0-1.286,1.441c-1.064,2.061.687,4.433,2.217,6.14,1.773,2.217,15.516,23.163,15.982,22.654,3.281-4.123,4.81-14.341,6.916-19.174a72.461,72.461,0,0,0,5.852-18,27.841,27.841,0,0,0-2.992-18.376c-.687-1.153-2.837-3.591-4.167-2.084-.4.443-.31,2.593-.443,3.258a19.948,19.948,0,0,1-1.13,3.369A42.448,42.448,0,0,1,199.824,152.19Z" transform="translate(189.142 155.501)" fill="#fff"/>
      <path id="Caminho_485" data-name="Caminho 485" d="M181.643,279.125c.266,34.823,1.485,69.69-1.064,104.4-.953,13.011-2.438,26.178,0,39.034,2.837,15.716,11.083,29.813,19.329,43.556,3.857-.621,5.741-4.943,6.982-8.645l15.871-47.635a23.608,23.608,0,0,0,1.685-7.847,26.089,26.089,0,0,0-2.217-8.578c-11.682-31.631-11.194-66.232-13.167-99.9A656.964,656.964,0,0,0,197.137,201.9a71.593,71.593,0,0,1-2.061-15.738,27.6,27.6,0,0,1,9.11-20.393c-4.433-7.182-9.509-11.482-13.3-17.068a39.478,39.478,0,0,0-11.3,16.757s8.623,9.11,7.182,20.925a864.494,864.494,0,0,0-5.12,92.742Z" transform="translate(181.634 173.842)" fill="#3f3d56"/>
      <path id="Caminho_486" data-name="Caminho 486" d="M171.92,254.744c1.153-7,.865-14.186,2.217-21.124a46.548,46.548,0,0,1,21.7-30.766c3.236,8.179-.709,17.223-2.217,25.89-.488,2.771-.266,6.406,2.372,7.426,2.217.842,4.433-.82,6.317-2.394l55.858-48.765c3.236,10.485-4.234,20.88-9.4,30.567A12.924,12.924,0,0,0,247,220.609a15.1,15.1,0,0,0,1.64,6.428,87.534,87.534,0,0,1,5.143,47.945c-1.064,5.985-2.97,12.236-7.625,16.159a31.031,31.031,0,0,1-10.529,5.01l-51.337,16.913a7.6,7.6,0,0,1-10.706-3.192c-6.118-7.98-15.006-19.4-13.5-30.234C161.28,270.416,170.3,264.785,171.92,254.744Z" transform="translate(158.108 218.017)" fill="#f1af8c"/>
      <path id="Caminho_487" data-name="Caminho 487" d="M155.789,231.531a23.319,23.319,0,0,0-1.862,7.935c-.532,10.418,5.918,19.949,13.3,27.331a18.42,18.42,0,0,0,5.364,4.078c3.746,1.663,8.046.931,12.058.177,1.374-.266,2.97-.687,3.524-1.973.82-1.951-1.374-3.746-3.125-4.943a31.808,31.808,0,0,1-11.925-18.043,52.289,52.289,0,0,1-1.707-11.571c0-2.726.8-6.871-1.108-9.177C165.5,219.628,157.739,227.1,155.789,231.531Z" transform="translate(150.787 264.571)" fill="#fff"/>
      <path id="Caminho_488" data-name="Caminho 488" d="M170.315,214.24c1.751,4.921,5.519,11.438,7.78,16.159a96.064,96.064,0,0,1,4.189,10.95,184.363,184.363,0,0,1,7.315,25.846c.355,1.995,2.327,9.664,1.862,11.659l-11.083.576c-.4,0-2.5-5.564-2.882-5.741a2.217,2.217,0,0,1-.887-1.064c-5.209-9.642-6.495-20.88-10.44-31.032a96.655,96.655,0,0,1-3.569-9.421,16.093,16.093,0,0,1,0-10.263C163.975,219.006,167.455,214.994,170.315,214.24Z" transform="translate(160.355 253.578)" fill="#fff"/>
      <path id="Caminho_489" data-name="Caminho 489" d="M174.5,156.342a7.647,7.647,0,0,0-3.48-4.034c-1.286-.532,3.236-5.143,1.906-4.766-12.878,3.524-24.959,22.831-28.55,35.687-7.958,28.816-12.435,58.252-16.891,87.711l-14.142,93.408c-1.507,9.864-2.992,19.728-4.3,29.636-.731,5.608-1.374,11.438.443,16.8,3.214,9.376,13.521,14.851,23.429,15.317s19.528-3.148,28.683-6.938a489.991,489.991,0,0,0,83.167-44.332,13.3,13.3,0,0,0,6.118-6.65,13.1,13.1,0,0,0-.222-6.273A222.527,222.527,0,0,0,226.479,297.5a222.922,222.922,0,0,1-50.649,32.85C189.617,295.3,186.6,256.2,183.389,218.673,181.66,198.546,183.7,174.341,174.5,156.342Z" transform="translate(95.324 172.407)" fill="#086c7b"/>
      <path id="Caminho_490" data-name="Caminho 490" d="M174.5,156.342a7.647,7.647,0,0,0-3.48-4.034c-1.286-.532,3.236-5.143,1.906-4.766-12.878,3.524-24.959,22.831-28.55,35.687-7.958,28.816-12.435,58.252-16.891,87.711l-14.142,93.408c-1.507,9.864-2.992,19.728-4.3,29.636-.731,5.608-1.374,11.438.443,16.8,3.214,9.376,13.521,14.851,23.429,15.317s19.528-3.148,28.683-6.938a489.991,489.991,0,0,0,83.167-44.332,13.3,13.3,0,0,0,6.118-6.65,13.1,13.1,0,0,0-.222-6.273A222.527,222.527,0,0,0,226.479,297.5a222.922,222.922,0,0,1-50.649,32.85C189.617,295.3,186.6,256.2,183.389,218.673,181.66,198.546,183.7,174.341,174.5,156.342Z" transform="translate(95.324 172.407)" fill="url(#linear-gradient-20)"/>
      <path id="Caminho_491" data-name="Caminho 491" d="M390.194,192.946c-8.711,33.493-21.457,65.811-34.18,98.018-6.894,17.489-14.984,36.352-31.5,45.329a28.417,28.417,0,0,1-17.023,3.724,27.932,27.932,0,0,1-10.662-3.923,9.087,9.087,0,0,1-2.217-1.463h0a41.849,41.849,0,0,1-8.866-8.357c-7.47-7.559-15.982-16.913-17.733-18.753-10.928-11.615-21.3-24.227-27.02-39.123h0l-5.963-54.728-3.7-34.6,2.5,4.433c7.226,12.989,28.816,51.181,47.147,77.98,11.681,17.09,22.033,29.525,26.6,27.929a2.016,2.016,0,0,0,.554-.244c13.61-7.115,47.679-103.981,47.679-103.981Z" transform="translate(244.993 210.79)" fill="url(#linear-gradient-21)"/>
    </g>
    <path id="Fill_16" data-name="Fill 16" d="M11.933,0C9.99,0,8.054.039,6.115.139,4.636.216,2.377-.089,1.126.828c-1.3.953-1.21,2.9-1.007,4.28,1.073,7.282,3.693,13.739,9.174,18.9,8.439,7.944,18.113,11.981,29.561,13.778,8.042,1.263,15.465-.491,21.385-6.181a88.518,88.518,0,0,1,9.253,25.752,61.405,61.405,0,0,1,.917,13.236c-.092,2.872-.251,5.736-.56,8.594-.134,1.242-.77,3.122-.282,4.3a1.974,1.974,0,0,0,3.375.336c.722-.978.59-2.9.738-4.056.246-1.923.474-3.847.637-5.778.265-3.126.46-6.262.446-9.4A69.774,69.774,0,0,0,71,43.758C66.865,30.916,60.158,19.5,49.726,10.55,43.311,5.043,35.97,2.814,27.641,1.617A111.241,111.241,0,0,0,11.933,0" transform="translate(936.46 741.983) rotate(-39)" fill="#dde3e9"/>
    <path id="Leave_the_Leaf_" data-name="Leave the Leaf!" d="M53.677,82c.221,0,.463-.17.72-.5.593-.772.118-3.281-.138-4.629-.046-.24-.085-.447-.107-.587a29,29,0,0,0-.767-3.508,101.182,101.182,0,0,0-3.734-10.3c-.511-1.255-1.046-2.555-1.59-3.866-.1-.244-.188-.423-.258-.568-.25-.519-.25-.519.258-1.073l.09-.1a7.037,7.037,0,0,1,.925-.8,8.618,8.618,0,0,0,.778-.647,17.431,17.431,0,0,0,4.253-7.046,17.684,17.684,0,0,0,.77-7.707A30.3,30.3,0,0,0,52.9,33.112a60.645,60.645,0,0,0-6.152-11.888,54.813,54.813,0,0,0-8.732-10.263c-3.551-3.223-8.292-6-14.5-8.479A30.708,30.708,0,0,0,14.249.313C13.8.282,13.342.266,12.878.266A25.156,25.156,0,0,0,9.8.468C9.51.5,9.208.563,8.917.62A9.077,9.077,0,0,1,7.665.805l-.2.011C7.328.824,7.22.83,7.125.83,6.742.83,6.59.719,6.107.244A.7.7,0,0,0,5.645,0a.416.416,0,0,0-.374.319,1.144,1.144,0,0,0,.314,1.2A8.554,8.554,0,0,0,1.667,4.979,12.334,12.334,0,0,0,.13,9.91,35.6,35.6,0,0,0,.974,20.5,48.528,48.528,0,0,0,4.4,31.063a55.578,55.578,0,0,0,5.532,9.453,79.906,79.906,0,0,0,15.64,15.85,22.847,22.847,0,0,0,10.506,4.8,12.244,12.244,0,0,0,2,.166,13.419,13.419,0,0,0,4.2-.7c.105-.035.24-.074.4-.119.64-.185,1.607-.464,1.846-.863.214-.359.016-.669-.235-1.062-.074-.116-.15-.235-.222-.366q-.415-.753-.828-1.506c-.727-1.324-1.479-2.694-2.232-4.032-.119-.212-.245-.49-.378-.786a5.134,5.134,0,0,0-1.147-1.863.707.707,0,0,0-.19-.018,1.483,1.483,0,0,1-.6-.1c-.127-.081-.147-.311-.161-.463-.007-.077-.012-.137-.029-.147a6.522,6.522,0,0,0-2.274-.522c-.383-.045-.745-.087-1.031-.148-.789-.169-1.719-.38-2.638-.667A29.266,29.266,0,0,1,29.79,46.94c-.192-.082-.469-.241-.762-.41a5.243,5.243,0,0,0-1.552-.712A25.35,25.35,0,0,1,33.4,46.879a23.094,23.094,0,0,1,3.091,1.076c.121.052.322.163.554.292a5.139,5.139,0,0,0,1.62.7.264.264,0,0,0,.135-.03,60.263,60.263,0,0,0-4.122-5.869c-.768-.971-1.581-2.019-2.314-3.1-.047-.07-.164-.28-.311-.545a8.135,8.135,0,0,0-1.29-1.982c.468,0,1.484,1.1,2.092,1.75.176.19.328.353.424.445A28.275,28.275,0,0,1,35.512,42a54.1,54.1,0,0,1,3.313,4.492c1.468,2.193,2.757,4.479,3.953,6.634.275.5.572,1,.859,1.5a29.671,29.671,0,0,1,2.141,4.152.252.252,0,0,1,.149-.063c.16,0,.236.258.31.507a2.663,2.663,0,0,0,.084.254c.388.931.767,1.842,1.14,2.749.787,1.915,1.416,3.5,1.981,4.977l.03.079c.662,1.736,1.347,3.531,1.9,5.332a30.508,30.508,0,0,1,1.138,5.17c.088.7.149,1.406.182,2.1C52.716,80.445,53,82,53.677,82ZM50.46,49.348a18.932,18.932,0,0,1-3,5c.7-1.036,1.3-1.987,1.843-2.907.123-.208.356-.643.583-1.064C50.168,49.853,50.434,49.358,50.46,49.348ZM37.095,34.774c.318,0,.658,2.847.693,3.32a13.873,13.873,0,0,1-.547,4.673l0,.007,0-.007a17.9,17.9,0,0,0-.142-2.243c-.2-2.234-.472-5.294-.1-5.7A.125.125,0,0,1,37.095,34.774Z" transform="matrix(0.53, -0.848, 0.848, 0.53, 924.365, 687.222)" fill="#89c5cc"/>
    <g id="Pie_Chart" data-name="Pie Chart" transform="translate(989.84 608.15) rotate(180)">
      <path id="Value" d="M0,20.256A20.191,20.191,0,0,1,20,0V20.256L6.332,35A20.073,20.073,0,0,1,0,20.256Z" transform="translate(40 40) rotate(180)" fill="#f2f2f2"/>
      <path id="Value-2" data-name="Value" d="M13.8,0H34a20.014,20.014,0,0,1-5.5,13.668A20.357,20.357,0,0,1,13.8,20,20.644,20.644,0,0,1,0,14.557Z" transform="translate(34.332 20) rotate(180)" fill="#afb9c5"/>
      <path id="Value-3" data-name="Value" d="M20,20H40A20.061,20.061,0,0,0,20,0V20Zm-2-2v0L10,0A18.353,18.353,0,0,0,0,10l18,8Z" transform="translate(40 40) rotate(180)" fill="#c5cfd6"/>
    </g>
    <g id="Grupo_190" data-name="Grupo 190" transform="translate(582 -275.897)">
      <g transform="matrix(1, 0, 0, 1, 342.36, 428.4)" filter="url(#Retângulo_5)">
        <rect id="Retângulo_5-2" data-name="Retângulo 5" width="82" height="80" rx="40" transform="translate(634.64 49.5)" fill="#fff"/>
      </g>
      <g id="portfolio" transform="translate(1001.179 503.284)">
        <path id="Caminho_2" data-name="Caminho 2" d="M211,240h5.825v1.942H211Zm0,0" transform="translate(-197.344 -224.468)" fill="url(#linear-gradient-22)"/>
        <path id="Caminho_3" data-name="Caminho 3" d="M26.883,89.874H21.422v.971a.97.97,0,0,1-.971.971H12.685a.97.97,0,0,1-.971-.971v-.971H6.253a2.909,2.909,0,0,1-2.763-1.991L0,77.41v21.2a2.916,2.916,0,0,0,2.912,2.912H30.224a2.916,2.916,0,0,0,2.912-2.912v-21.2L29.645,87.884a2.909,2.909,0,0,1-2.762,1.991Zm0,0" transform="translate(0 -72.4)" fill="url(#linear-gradient-22)"/>
        <path id="Caminho_4" data-name="Caminho 4" d="M44.59,0H36.823a2.916,2.916,0,0,0-2.912,2.912v.971h-8.1L29.47,14.869a.971.971,0,0,0,.921.664h5.461v-.971a.97.97,0,0,1,.971-.971H44.59a.97.97,0,0,1,.971.971v.971h5.461a.971.971,0,0,0,.921-.664L55.6,3.883H47.5V2.912A2.916,2.916,0,0,0,44.59,0ZM35.853,3.883V2.912a.971.971,0,0,1,.971-.971H44.59a.971.971,0,0,1,.971.971v.971Zm0,0" transform="translate(-24.139)" fill="url(#linear-gradient-22)"/>
      </g>
    </g>
    <g id="Grupo_192" data-name="Grupo 192" transform="translate(-644 -157)">
      <g transform="matrix(1, 0, 0, 1, 1568.36, 309.5)" filter="url(#Retângulo_6)">
        <rect id="Retângulo_6-2" data-name="Retângulo 6" width="71" height="68" rx="34" transform="translate(61.64 248.5)" fill="#fff"/>
      </g>
      <g id="man-user" transform="translate(1652.715 574.953)">
        <path id="Caminho_5" data-name="Caminho 5" d="M111.343,16.537c3.76,0,6.807-3.7,6.807-8.269S117.149,0,111.343,0s-6.808,3.7-6.808,8.269S107.583,16.537,111.343,16.537Z" transform="translate(-98.483)" fill="url(#linear-gradient-22)"/>
        <path id="Caminho_6" data-name="Caminho 6" d="M41.9,300.515c0-.278,0-.078,0,0Z" transform="translate(-41.895 -271.353)" fill="url(#linear-gradient-22)"/>
        <path id="Caminho_7" data-name="Caminho 7" d="M308.085,301.739c0-.076,0-.529,0,0Z" transform="translate(-282.368 -272.359)" fill="url(#linear-gradient-22)"/>
        <path id="Caminho_8" data-name="Caminho 8" d="M67.609,189.4c-.126-7.955-1.165-10.222-9.115-11.657a4.766,4.766,0,0,1-3.728,1.426,4.767,4.767,0,0,1-3.728-1.426c-7.864,1.419-8.966,3.652-9.111,11.4-.012.633-.017.666-.02.592,0,.138,0,.392,0,.836,0,0,1.893,3.816,12.857,3.816s12.857-3.816,12.857-3.816c0-.285,0-.483,0-.618A5.114,5.114,0,0,1,67.609,189.4Z" transform="translate(-41.907 -160.568)" fill="url(#linear-gradient-22)"/>
      </g>
    </g>
    <g id="Grupo_191" data-name="Grupo 191" transform="translate(-57 95)">
      <g transform="matrix(1, 0, 0, 1, 981.36, 57.5)" filter="url(#Retângulo_7)">
        <rect id="Retângulo_7-2" data-name="Retângulo 7" width="77" height="74" rx="37" transform="translate(116.64 645.5)" fill="#fff"/>
      </g>
      <g id="icon_1_" data-name="icon (1)" transform="translate(1119.031 720.734)">
        <path id="Caminho_9" data-name="Caminho 9" d="M25.42,0H8.822A2.871,2.871,0,0,0,5.951,2.874v33.7a2.87,2.87,0,0,0,2.871,2.871h16.6a2.872,2.872,0,0,0,2.871-2.871V2.874A2.873,2.873,0,0,0,25.42,0ZM13.025,1.745h8.194c.207,0,.375.309.375.691s-.168.693-.375.693H13.025c-.208,0-.374-.311-.374-.693S12.817,1.745,13.025,1.745Zm4.1,34.867a1.833,1.833,0,1,1,1.83-1.834A1.835,1.835,0,0,1,17.122,36.613Zm9.018-6.281H8.1V4.849H26.14V30.332Z" transform="translate(0 0)" fill="url(#linear-gradient-22)"/>
      </g>
    </g>
    <g id="Grupo_205" data-name="Grupo 205" transform="translate(590.409 -140)">
      <path id="Caminho_494" data-name="Caminho 494" d="M250.48,367.272c-1.686,4.146,3.74,7.489,8.089,8.564,50.541,12.459,103.66-2.151,155.616.407,16.256.794,33.045,3.216,48.439-2.063,2.228-.765,4.582-1.841,5.667-3.943,1.589-3.11-.513-7.072-3.565-8.719s-6.723-1.676-10.211-1.628q-54.01.727-108.019,2.209C314.119,362.961,282.876,366.778,250.48,367.272Z" transform="translate(716.093 684.685)" fill="url(#linear-gradient-30)"/>
      <path id="Caminho_495" data-name="Caminho 495" d="M397.825,356.373c0,2.616-12.681,4.728-28.318,4.728s-28.318-2.112-28.318-4.728,12.4-8.6,28.037-8.6S397.825,353.805,397.825,356.373Z" transform="translate(713.251 685.063)" fill="#086c7b"/>
      <path id="Caminho_496" data-name="Caminho 496" d="M397.825,356.373c0,2.616-12.681,4.728-28.318,4.728s-28.318-2.112-28.318-4.728,12.4-8.6,28.037-8.6S397.825,353.805,397.825,356.373Z" transform="translate(713.251 685.063)" fill="url(#linear-gradient-31)"/>
      <path id="Caminho_497" data-name="Caminho 497" d="M346.51,308.53H352.8v22.485a3.119,3.119,0,0,1-3.119,3.119h0a3.12,3.12,0,0,1-3.12-3.119V308.53Z" transform="translate(731.182 703.861)" fill="#086c7b"/>
      <path id="Caminho_498" data-name="Caminho 498" d="M346.56,308.53H352.8v22.485a3.12,3.12,0,0,1-3.12,3.119h0a3.119,3.119,0,0,1-3.119-3.119Z" transform="translate(731.181 703.861)" fill="url(#linear-gradient-32)"/>
      <rect id="Retângulo_116" data-name="Retângulo 116" width="76.999" height="38.732" rx="13.09" transform="translate(1045.267 898.492)" fill="#606161"/>
      <rect id="Retângulo_117" data-name="Retângulo 117" width="1.066" height="2.131" transform="translate(938.274 935.703)" fill="url(#linear-gradient-33)"/>
      <path id="Caminho_525" data-name="Caminho 525" d="M359.14,180.206a6.869,6.869,0,0,0,.572,2.083,5.223,5.223,0,0,0,1.259,2.025c3.023,2.654,3.643-2.819,2.984-4.689C363.005,176.932,358.868,176.738,359.14,180.206Z" transform="translate(712.691 690.375)" fill="url(#linear-gradient-34)"/>
      <path id="Caminho_526" data-name="Caminho 526" d="M391.967,180.206a6.867,6.867,0,0,1-.572,2.083,5.222,5.222,0,0,1-1.259,2.025c-3.023,2.654-3.643-2.819-2.984-4.689C388.1,176.932,392.238,176.738,391.967,180.206Z" transform="translate(711.824 690.375)" fill="url(#linear-gradient-35)"/>
      <path id="Caminho_527" data-name="Caminho 527" d="M342.6,208.038a23.426,23.426,0,0,1,3.749-5.57,19.191,19.191,0,0,1,7.121-4.321C360.4,195.56,368,195.3,375.362,195.24c4.263,0,8.613,0,12.662,1.288,5.377,1.773,9.8,5.813,13.011,10.473s5.319,10,7.276,15.307c1.376,3.72,6.966,16.954,5.541,20.645-2,5.135-12.488-2.112-17.913-1.192-5.135.862-10.308,1.473-15.5,2.083l-23.977,2.848c-6.685.8-23.677,4.04-23.871-6.423C332.425,229.612,337.753,217.29,342.6,208.038Z" transform="translate(713.52 689.824)" fill="#086c7b"/>
      <path id="Caminho_528" data-name="Caminho 528" d="M342.6,208.038a23.426,23.426,0,0,1,3.749-5.57,19.191,19.191,0,0,1,7.121-4.321C360.4,195.56,368,195.3,375.362,195.24c4.263,0,8.613,0,12.662,1.288,5.377,1.773,9.8,5.813,13.011,10.473s5.319,10,7.276,15.307c1.376,3.72,6.966,16.954,5.541,20.645-2,5.135-12.488-2.112-17.913-1.192-5.135.862-10.308,1.473-15.5,2.083l-23.977,2.848c-6.685.8-23.677,4.04-23.871-6.423C332.425,229.612,337.753,217.29,342.6,208.038Z" transform="translate(713.52 689.824)" fill="url(#linear-gradient-36)"/>
      <rect id="Retângulo_118" data-name="Retângulo 118" width="7.634" height="95.541" transform="translate(999.87 957.926)" fill="#086c7b"/>
      <rect id="Retângulo_119" data-name="Retângulo 119" width="7.634" height="95.541" transform="translate(1157.762 957.471)" fill="#086c7b"/>
      <rect id="Retângulo_120" data-name="Retângulo 120" width="7.634" height="95.541" transform="translate(999.87 957.926)" fill="url(#linear-gradient-37)"/>
      <rect id="Retângulo_121" data-name="Retângulo 121" width="7.634" height="95.541" transform="translate(1157.762 957.471)" fill="url(#linear-gradient-38)"/>
      <rect id="Retângulo_122" data-name="Retângulo 122" width="171.717" height="82.376" transform="translate(997.603 938.241)" fill="#086c7b"/>
      <rect id="Retângulo_123" data-name="Retângulo 123" width="171.717" height="82.376" transform="translate(997.603 938.241)" fill="url(#linear-gradient-39)"/>
      <rect id="Retângulo_124" data-name="Retângulo 124" width="206.012" height="10.628" transform="translate(981.579 931.711)" fill="#086c7b"/>
      <rect id="Retângulo_125" data-name="Retângulo 125" width="54.843" height="76.379" transform="translate(984.669 855.526)" fill="#fff"/>
      <path id="Caminho_529" data-name="Caminho 529" d="M367.734,201.38a10.173,10.173,0,0,0,2.509,4.97,6.414,6.414,0,0,0,5.076,2.005,6.549,6.549,0,0,0,4.4-2.625,11.732,11.732,0,0,0,2.034-4.844,19.375,19.375,0,0,0-.2-8.632,7.169,7.169,0,0,0-2.16-3.933c-1.521-1.221-3.643-1.3-5.59-1.153a9.533,9.533,0,0,0-3.488.785C366.533,189.91,367.007,197.941,367.734,201.38Z" transform="translate(712.438 690.078)" fill="url(#linear-gradient-40)"/>
      <path id="Caminho_530" data-name="Caminho 530" d="M385.686,188.14a14.745,14.745,0,0,1-3.139,4.5,13.021,13.021,0,0,1-11.073,2.8,10.54,10.54,0,0,1-4.011-1.5,10.191,10.191,0,0,1-3.817-5.5,27.62,27.62,0,0,1-.969-6.782c-.145-2.906-.194-5.987,1.172-8.564s2.751-6.781,5.4-7.7,6.481,1.463,9.281,1.337a19.182,19.182,0,0,1,6.316.484c1.511.455,3.633,1.521,4.272,3.09.572,1.424-.048,3.546-.213,5.009a39.953,39.953,0,0,1-3.216,12.836Z" transform="translate(712.583 690.763)" fill="url(#linear-gradient-41)"/>
      <path id="Caminho_531" data-name="Caminho 531" d="M388.65,180.212c.145.087.31-.1.378-.262a8.434,8.434,0,0,0,.581-2.054,6.123,6.123,0,0,1,.116-.736c.1-.368.281-.7.4-1.056.184-.533.494-1.715-.349-1.715-.523,0-.823.63-.9,1.027a14.438,14.438,0,0,0,.048,2.044,16.352,16.352,0,0,1-.271,2.751Z" transform="translate(711.77 690.475)" fill="#606161"/>
      <path id="Caminho_532" data-name="Caminho 532" d="M362.752,181.962c.688-4.079-.329-7.043,1.7-9.882.543-.765,1.279-.271,1.628-1.182.2-.513.223-1.095.388-1.618.484-1.56,2-2.189,3.323-2.625,1.618-.523,3.381-1.046,4.912-.223.552.3,1.027.756,1.589,1.017,2,.969,4.718-1.666,6.326,0a6.306,6.306,0,0,1,1.046,1.938,11.3,11.3,0,0,0,2.674,4.282,3.526,3.526,0,0,0,4.224.6c1.938-1.24,2.2-4.582,1.269-6.956a6.782,6.782,0,0,1-.523-1.569,11.058,11.058,0,0,1,.262-2.567,5.813,5.813,0,0,0-1.463-4.3,6.278,6.278,0,0,0-3.6-1.938,1.182,1.182,0,0,1-.639-.242,1.936,1.936,0,0,1-.32-.63,6.781,6.781,0,0,0-3.875-4.166,5.338,5.338,0,0,0-5.134.9c-1.134.891-2.073,2.257-3.4,2.567-.969.223-1.938-.145-2.906-.058-1.628.145-2.984,1.569-3.982,3.129a17.038,17.038,0,0,1-1.821,2.645c-.969.969-1.686.775-2.839,1.095-2.664.756-1.1,3.788-1.046,6,.048,2.054-.475,4.04.271,6.036.494,1.318,1.308,1.938,1.628,3.43C362.81,179.433,362.471,180.247,362.752,181.962Z" transform="translate(712.663 691.187)" fill="#606161"/>
      <path id="Caminho_533" data-name="Caminho 533" d="M389.736,180.867a2.16,2.16,0,0,0,.107-.872.814.814,0,0,1,.388-.736.6.6,0,0,1,.707.242,1.356,1.356,0,0,1,.213.775,4.623,4.623,0,0,1-.407,2.044,2.694,2.694,0,0,1-1.182,1.385.853.853,0,0,1-1.124-.174,1.075,1.075,0,0,1,.048-.862c.126-.349.223-1.017.494-1.269S389.736,181.206,389.736,180.867Z" transform="translate(711.779 690.324)" fill="url(#linear-gradient-42)"/>
      <path id="Caminho_534" data-name="Caminho 534" d="M361.314,180.577a2.044,2.044,0,0,1-.107-.872.833.833,0,0,0-.387-.746.63.63,0,0,0-.717.252,1.434,1.434,0,0,0-.213.775,4.525,4.525,0,0,0,.417,2.044,2.645,2.645,0,0,0,1.182,1.385c.368.184.92.194,1.114-.174a1.1,1.1,0,0,0-.048-.872,3.776,3.776,0,0,0-.484-1.259C361.8,180.819,361.314,180.935,361.314,180.577Z" transform="translate(712.668 690.333)" fill="url(#linear-gradient-43)"/>
      <path id="Caminho_535" data-name="Caminho 535" d="M337.985,239.638a2.761,2.761,0,0,0-.475,1.608c.155,1.366,1.879,1.86,3.255,1.938a46.907,46.907,0,0,0,9.959-.368,5.164,5.164,0,0,0,3.381-1.463c2.519-3.1-1.85-6.781-4.621-7.227A11.364,11.364,0,0,0,337.985,239.638Z" transform="translate(713.366 688.614)" fill="url(#linear-gradient-44)"/>
      <rect id="Retângulo_126" data-name="Retângulo 126" width="67.427" height="55.589" rx="8.48" transform="translate(1113.615 862.957)" fill="#086c7b"/>
      <path id="Caminho_536" data-name="Caminho 536" d="M412.413,228h-1.938a8.206,8.206,0,0,1-8.225-8.2V180.635a8.225,8.225,0,0,1,8.225-8.215h1.938a8.206,8.206,0,0,0-8.186,8.215V219.8a8.186,8.186,0,0,0,8.186,8.2Z" transform="translate(711.345 690.537)" fill="url(#linear-gradient-45)"/>
      <path id="Caminho_537" data-name="Caminho 537" d="M469.751,180.635V219.8a8.2,8.2,0,0,1-8.2,8.2H412.476a8.186,8.186,0,0,1-8.186-8.2V180.635a8.206,8.206,0,0,1,8.186-8.215h49.079A8.215,8.215,0,0,1,469.751,180.635Z" transform="translate(711.282 690.537)" fill="url(#linear-gradient-46)"/>
      <path id="Caminho_538" data-name="Caminho 538" d="M471.7,180.635V219.8a8.2,8.2,0,0,1-8.225,8.2h-51a8.186,8.186,0,0,1-8.186-8.2V180.635a8.206,8.206,0,0,1,8.186-8.215h51a8.215,8.215,0,0,1,8.225,8.215Z" transform="translate(711.282 690.537)" fill="#086c7b"/>
      <path id="Caminho_539" data-name="Caminho 539" d="M471.7,180.635V219.8a8.2,8.2,0,0,1-8.225,8.2h-51a8.186,8.186,0,0,1-8.186-8.2V180.635a8.206,8.206,0,0,1,8.186-8.215h51a8.215,8.215,0,0,1,8.225,8.215Z" transform="translate(711.282 690.537)" fill="url(#linear-gradient-47)"/>
      <rect id="Retângulo_127" data-name="Retângulo 127" width="53.661" height="1.037" transform="translate(984.669 858.006)" fill="url(#linear-gradient-48)"/>
      <rect id="Retângulo_128" data-name="Retângulo 128" width="54.484" height="1.066" transform="translate(984.669 859.75)" fill="url(#linear-gradient-49)"/>
      <rect id="Retângulo_129" data-name="Retângulo 129" width="53.661" height="1.037" transform="translate(984.669 861.62)" fill="url(#linear-gradient-50)"/>
      <rect id="Retângulo_130" data-name="Retângulo 130" width="54.484" height="1.066" transform="translate(984.669 863.363)" fill="url(#linear-gradient-49)"/>
      <rect id="Retângulo_131" data-name="Retângulo 131" width="53.661" height="1.037" transform="translate(984.669 865.224)" fill="url(#linear-gradient-48)"/>
      <rect id="Retângulo_132" data-name="Retângulo 132" width="54.484" height="1.066" transform="translate(984.669 866.967)" fill="url(#linear-gradient-53)"/>
      <rect id="Retângulo_133" data-name="Retângulo 133" width="53.661" height="1.037" transform="translate(984.669 868.837)" fill="url(#linear-gradient-48)"/>
      <rect id="Retângulo_134" data-name="Retângulo 134" width="54.484" height="1.066" transform="translate(984.669 870.581)" fill="url(#linear-gradient-49)"/>
      <rect id="Retângulo_135" data-name="Retângulo 135" width="53.661" height="1.037" transform="translate(984.669 872.441)" fill="url(#linear-gradient-48)"/>
      <rect id="Retângulo_136" data-name="Retângulo 136" width="54.484" height="1.066" transform="translate(984.669 874.185)" fill="url(#linear-gradient-57)"/>
      <rect id="Retângulo_137" data-name="Retângulo 137" width="53.661" height="1.037" transform="translate(984.669 876.055)" fill="url(#linear-gradient-48)"/>
      <rect id="Retângulo_138" data-name="Retângulo 138" width="54.484" height="1.066" transform="translate(984.669 877.798)" fill="url(#linear-gradient-49)"/>
      <rect id="Retângulo_139" data-name="Retângulo 139" width="53.661" height="1.037" transform="translate(984.669 879.658)" fill="url(#linear-gradient-48)"/>
      <rect id="Retângulo_140" data-name="Retângulo 140" width="54.484" height="1.066" transform="translate(984.669 881.412)" fill="url(#linear-gradient-49)"/>
      <rect id="Retângulo_141" data-name="Retângulo 141" width="53.661" height="1.037" transform="translate(984.669 883.272)" fill="url(#linear-gradient-48)"/>
      <rect id="Retângulo_142" data-name="Retângulo 142" width="54.484" height="1.066" transform="translate(984.669 885.016)" fill="url(#linear-gradient-49)"/>
      <rect id="Retângulo_143" data-name="Retângulo 143" width="53.661" height="1.037" transform="translate(984.669 886.876)" fill="url(#linear-gradient-48)"/>
      <rect id="Retângulo_144" data-name="Retângulo 144" width="54.484" height="1.066" transform="translate(984.669 888.629)" fill="url(#linear-gradient-49)"/>
      <rect id="Retângulo_145" data-name="Retângulo 145" width="53.661" height="1.037" transform="translate(984.669 890.489)" fill="url(#linear-gradient-48)"/>
      <rect id="Retângulo_146" data-name="Retângulo 146" width="54.484" height="1.066" transform="translate(984.669 892.233)" fill="url(#linear-gradient-49)"/>
      <rect id="Retângulo_147" data-name="Retângulo 147" width="53.661" height="1.037" transform="translate(984.669 894.103)" fill="url(#linear-gradient-50)"/>
      <rect id="Retângulo_148" data-name="Retângulo 148" width="54.484" height="1.066" transform="translate(984.669 895.847)" fill="url(#linear-gradient-49)"/>
      <rect id="Retângulo_149" data-name="Retângulo 149" width="53.661" height="1.037" transform="translate(984.669 897.707)" fill="url(#linear-gradient-48)"/>
      <rect id="Retângulo_150" data-name="Retângulo 150" width="54.484" height="1.066" transform="translate(984.669 899.451)" fill="url(#linear-gradient-49)"/>
      <rect id="Retângulo_151" data-name="Retângulo 151" width="53.661" height="1.037" transform="translate(984.669 901.32)" fill="url(#linear-gradient-50)"/>
      <rect id="Retângulo_152" data-name="Retângulo 152" width="54.484" height="1.066" transform="translate(984.669 903.064)" fill="url(#linear-gradient-49)"/>
      <rect id="Retângulo_153" data-name="Retângulo 153" width="53.661" height="1.037" transform="translate(984.669 904.924)" fill="url(#linear-gradient-48)"/>
      <rect id="Retângulo_154" data-name="Retângulo 154" width="54.484" height="1.066" transform="translate(984.669 906.668)" fill="url(#linear-gradient-53)"/>
      <rect id="Retângulo_155" data-name="Retângulo 155" width="53.661" height="1.037" transform="translate(984.669 908.538)" fill="url(#linear-gradient-48)"/>
      <rect id="Retângulo_156" data-name="Retângulo 156" width="54.484" height="1.066" transform="translate(984.669 910.282)" fill="url(#linear-gradient-49)"/>
      <rect id="Retângulo_157" data-name="Retângulo 157" width="53.661" height="1.037" transform="translate(984.669 912.142)" fill="url(#linear-gradient-48)"/>
      <rect id="Retângulo_158" data-name="Retângulo 158" width="54.484" height="1.066" transform="translate(984.669 913.886)" fill="url(#linear-gradient-57)"/>
      <rect id="Retângulo_159" data-name="Retângulo 159" width="53.661" height="1.037" transform="translate(984.669 915.755)" fill="url(#linear-gradient-48)"/>
      <rect id="Retângulo_160" data-name="Retângulo 160" width="54.484" height="1.066" transform="translate(984.669 917.499)" fill="url(#linear-gradient-49)"/>
      <rect id="Retângulo_161" data-name="Retângulo 161" width="53.661" height="1.037" transform="translate(984.669 919.359)" fill="url(#linear-gradient-48)"/>
      <rect id="Retângulo_162" data-name="Retângulo 162" width="54.484" height="1.066" transform="translate(984.669 921.113)" fill="url(#linear-gradient-49)"/>
      <rect id="Retângulo_163" data-name="Retângulo 163" width="53.661" height="1.037" transform="translate(984.669 922.973)" fill="url(#linear-gradient-48)"/>
      <rect id="Retângulo_164" data-name="Retângulo 164" width="54.484" height="1.066" transform="translate(984.669 924.717)" fill="url(#linear-gradient-49)"/>
      <rect id="Retângulo_165" data-name="Retângulo 165" width="53.661" height="1.037" transform="translate(984.669 926.577)" fill="url(#linear-gradient-48)"/>
      <rect id="Retângulo_166" data-name="Retângulo 166" width="54.484" height="1.066" transform="translate(984.669 928.33)" fill="url(#linear-gradient-49)"/>
      <rect id="Retângulo_167" data-name="Retângulo 167" width="53.661" height="1.037" transform="translate(984.669 930.19)" fill="url(#linear-gradient-48)"/>
      <rect id="Retângulo_168" data-name="Retângulo 168" width="54.484" height="1.066" transform="translate(984.669 931.934)" fill="url(#linear-gradient-49)"/>
      <path id="Caminho_552" data-name="Caminho 552" d="M428.329,223.88H417.45V194.72h9.891Z" transform="translate(728.968 707.414)" fill="#086c7b"/>
      <path id="Caminho_553" data-name="Caminho 553" d="M428.329,223.88H417.45V194.72l10.124.068Z" transform="translate(728.968 707.414)" fill="url(#linear-gradient-90)"/>
      <path id="Caminho_554" data-name="Caminho 554" d="M418.74,194.719h8.651a2.238,2.238,0,0,1,2.257,2.209V223.85H418.74V194.719Z" transform="translate(728.927 707.415)" fill="#086c7b"/>
      <rect id="Retângulo_169" data-name="Retângulo 169" width="42.665" height="4.611" transform="translate(1125.531 927.109)" fill="#086c7b"/>
      <rect id="Retângulo_170" data-name="Retângulo 170" width="11.819" height="4.253" transform="translate(1125.531 927.158)" fill="url(#linear-gradient-91)"/>
    </g>
    <g id="Grupo_204" data-name="Grupo 204" transform="translate(260 -442)">
      <path id="Caminho_499" data-name="Caminho 499" d="M111.036,236.569l47.122-.969-8.341,123.917-8.341.358s-4.844-94.253-6.268-94.737-3.168-1.938-4.611,6.781-15.239,86.832-15.239,86.832l-7.237.078Z" transform="translate(720.527 688.564)" fill="#086c7b"/>
      <path id="Caminho_500" data-name="Caminho 500" d="M158.157,235.59l-8.341,123.917-8.341.378s-4.844-94.272-6.278-94.747-3.158-1.938-4.611,6.781-15.229,86.813-15.229,86.813l-7.256.1L111.006,236.6Z" transform="translate(720.527 688.565)" fill="url(#linear-gradient-92)"/>
      <path id="Caminho_501" data-name="Caminho 501" d="M171.943,163.285a62.641,62.641,0,0,1,13.04,21.8c-.31-7.75-4.67-14.7-5.813-22.282a1.685,1.685,0,0,1,0-1.075,1.569,1.569,0,0,1,.833-.63,27.125,27.125,0,0,1,7.421-2.141,4.767,4.767,0,0,1,2.558.136c1.288.543,1.938,1.938,2.422,3.274a139.319,139.319,0,0,1,7.983,31.825,12.594,12.594,0,0,1-.281,6.191c-1.182,3.052-4.573,4.844-7.837,4.95a20.607,20.607,0,0,1-9.4-2.48,65.382,65.382,0,0,1-12.691-7.925,25.653,25.653,0,0,1-4.582-4.466c-3.5-4.66-4.156-10.821-4.224-16.653,0-3.827-9.872-16.547-7.615-19.909C156.133,150.391,170.015,161.183,171.943,163.285Z" transform="translate(719.113 691.137)" fill="#086c7b"/>
      <path id="Caminho_502" data-name="Caminho 502" d="M200.126,200.39c-1.182,3.052-4.582,4.844-7.837,4.941a21.142,21.142,0,0,1-9.407-2.451,64.811,64.811,0,0,1-12.691-7.963,25.826,25.826,0,0,1-4.582-4.437,20.674,20.674,0,0,1-3.614-9.048,46.554,46.554,0,0,1-.62-7.6c0-3.875-9.853-16.566-7.6-19.909,2.374-3.517,16.247,7.246,18.165,9.349a62.6,62.6,0,0,1,12.991,21.8c-.3-7.682-4.65-14.667-5.813-22.282a1.8,1.8,0,0,1,.058-1.056,1.628,1.628,0,0,1,.833-.62,28.153,28.153,0,0,1,7.421-2.16,4.931,4.931,0,0,1,2.548.155c1.3.562,1.938,1.938,2.422,3.275a139.039,139.039,0,0,1,7.992,31.834c.058.62.145,1.24.174,1.86A9.688,9.688,0,0,1,200.126,200.39Z" transform="translate(719.112 691.136)" fill="url(#linear-gradient-93)"/>
      <path id="Caminho_503" data-name="Caminho 503" d="M104.61,159.2c-7.121,6.4-13,14.532-18.107,23.251a30.828,30.828,0,0,0-3.546,7.75,32.377,32.377,0,0,0-.523,10.046c.174,3.323,12.439,19.308,16.159,22.883A4.456,4.456,0,0,0,100.3,224.3c1.434.455,5.948-4.766,5.609-6.229-.62-2.713-2.606-5.813-3.652-8.4-.969-2.364-2.994-4.456-3.953-6.781-.5-1.25-1.095-2.49-1.531-3.769-.562-1.637-.639-1.211.436-2.3,1.531-1.55,4.156-2.635,5.948-3.924,1.938-1.4,3.875-2.848,5.813-4.311a22.379,22.379,0,0,0,5.27-5.038c2.461-3.594,3.023-8.438,2.906-12.933-.087-3-.465-5.958-.61-8.952-.1-1.87.765-6.055-.087-7.644C114.491,150.443,106.528,157.477,104.61,159.2Z" transform="translate(721.334 691.142)" fill="#086c7b"/>
      <path id="Caminho_504" data-name="Caminho 504" d="M114.19,183.466a22.593,22.593,0,0,1-5.028,4.844,2.276,2.276,0,0,1-.242.184c-1.938,1.443-3.817,2.906-5.813,4.282-1.8,1.308-4.408,2.4-5.948,3.943-1.066,1.056-.969.649-.446,2.277.1.291.213.591.329.853.388.969.823,1.938,1.211,2.906.969,2.364,2.994,4.437,3.962,6.781,1.037,2.567,3.023,5.706,3.643,8.4.329,1.482-4.175,6.685-5.619,6.239a4.35,4.35,0,0,1-1.686-1.182c-3.73-3.546-16-19.55-16.179-22.863a32.706,32.706,0,0,1,.6-9.978,31.592,31.592,0,0,1,3.555-7.75c5.115-8.671,11.005-16.837,18.107-23.251,1.938-1.715,9.872-8.719,11.771-5.27.823,1.6,0,5.813.087,7.634.145,2.984.5,5.977.591,8.961C117.2,175.028,116.641,179.882,114.19,183.466Z" transform="translate(721.335 691.145)" fill="url(#linear-gradient-94)"/>
      <path id="Caminho_505" data-name="Caminho 505" d="M109.479,189.225a2.277,2.277,0,0,1-.242.184c-1.938,1.443-3.817,2.906-5.813,4.282-1.8,1.308-4.408,2.4-5.948,3.943-1.066,1.056-.969.649-.446,2.277.1.291.213.591.329.853a.678.678,0,0,0-.087.417,13.215,13.215,0,0,1-3.43-3.255,2.034,2.034,0,0,1-.533-1.211,2.364,2.364,0,0,1,.736-1.6c3.488-4.379,7.363-9.262,11.8-12.691C110.806,178.636,110.244,185.291,109.479,189.225Z" transform="translate(720.989 690.259)" fill="url(#linear-gradient-95)"/>
      <path id="Caminho_506" data-name="Caminho 506" d="M124.254,148.962c-5.4,1.114-11.306,2.538-14.532,7.033s-2.538,10.783-1.7,16.334c2.112,13.873,4.2,27.853,3.555,41.861-.262,5.493-2.451,20.858-2.354,26.351,0,2.131,46.153,1.879,48.274.32,3.982-2.906,3.788-42.384,4.5-60.859a16.916,16.916,0,0,0-.252-4.64c-1.192-4.98,1.114-18.978-3.5-21.2a53.175,53.175,0,0,0-7.876-3.275,51.836,51.836,0,0,0-6.675-1.337c-3.585-.552-7.188-1.279-10.792-1.705C130,147.548,127.151,148.41,124.254,148.962Z" transform="translate(720.552 691.306)" fill="#086c7b"/>
      <path id="Caminho_507" data-name="Caminho 507" d="M124.254,148.962c-5.4,1.114-11.306,2.538-14.532,7.033s-2.538,10.783-1.7,16.334c2.112,13.873,4.2,27.853,3.555,41.861-.262,5.493-2.451,20.858-2.354,26.351,0,2.131,46.153,1.879,48.274.32,3.982-2.906,3.788-42.384,4.5-60.859a16.916,16.916,0,0,0-.252-4.64c-1.192-4.98,1.114-18.978-3.5-21.2a53.175,53.175,0,0,0-7.876-3.275,51.836,51.836,0,0,0-6.675-1.337c-3.585-.552-7.188-1.279-10.792-1.705C130,147.548,127.151,148.41,124.254,148.962Z" transform="translate(720.552 691.306)" fill="url(#linear-gradient-96)"/>
      <path id="Caminho_508" data-name="Caminho 508" d="M132.319,167.905c1.085,10.744,3.488,34.818,5.919,45.339,4.485-12.43,5.483-38.926,5.493-52.14a2.092,2.092,0,0,0-.281-1.269,2.209,2.209,0,0,0-.92-.6c-1.492-.688-2.2-1.86-3.7-2.519C130.556,153.093,131.893,163.633,132.319,167.905Z" transform="translate(719.782 691.05)" fill="#fff"/>
      <path id="Caminho_509" data-name="Caminho 509" d="M145.417,149.75s-7.217,65.228-6.907,63.988S149.1,179.056,149.1,179.056l-2.8-7.14,4.04-3.72-1.24-17.06Z" transform="translate(719.578 691.244)" fill="#086c7b"/>
      <path id="Caminho_510" data-name="Caminho 510" d="M138.152,213.692l-9.891-26.322a15.733,15.733,0,0,1-1.163-4.224c-.31-3.681,1.938-7.043,4.04-10.066a9.93,9.93,0,0,1-4.011-7.188,29.122,29.122,0,0,1,.562-8.438l1.5-9.174c-.174,1.1,3.042,5.1,3.5,6.452a18.669,18.669,0,0,1,.736,4.951c.417,5.919.969,11.829,1.521,17.738Z" transform="translate(719.936 691.29)" fill="#086c7b"/>
      <path id="Caminho_511" data-name="Caminho 511" d="M145.417,149.75s-7.217,65.228-6.907,63.988S149.1,179.056,149.1,179.056l-2.8-7.14,4.04-3.72-1.24-17.06Z" transform="translate(719.578 691.244)" fill="url(#linear-gradient-97)"/>
      <path id="Caminho_512" data-name="Caminho 512" d="M138.152,213.692l-9.891-26.322a15.733,15.733,0,0,1-1.163-4.224c-.31-3.681,1.938-7.043,4.04-10.066a9.93,9.93,0,0,1-4.011-7.188,29.122,29.122,0,0,1,.562-8.438l1.5-9.174c-.174,1.1,3.042,5.1,3.5,6.452a18.669,18.669,0,0,1,.736,4.951c.417,5.919.969,11.829,1.521,17.738Z" transform="translate(719.936 691.29)" fill="url(#linear-gradient-98)"/>
      <path id="Caminho_513" data-name="Caminho 513" d="M132.3,144.914c-.494,1.608-1.279,3.178-1.153,4.844a5.9,5.9,0,0,0,2.529,4.195,8.254,8.254,0,0,0,7.75,1.259,5.454,5.454,0,0,0,2.025-1.2c1.443-1.414,2.044-3.972,1.86-6.316a16.866,16.866,0,0,0-2.083-6.442,12.158,12.158,0,0,0-2.722-3.7,9.049,9.049,0,0,0-5.009-1.8c-1.269-.136-3.313.068-2.994,2.277a14.59,14.59,0,0,1-.2,6.888Z" transform="translate(719.808 691.682)" fill="url(#linear-gradient-99)"/>
      <path id="Caminho_514" data-name="Caminho 514" d="M140,150.823a4.844,4.844,0,0,0,3.3,1.85,1.686,1.686,0,0,0,1.133-.368,2.383,2.383,0,0,0,.581-1.424l.543-3.352a.9.9,0,0,0-.107-.746.843.843,0,0,0-.31-.194l-4.292-1.938c-1.221-.543-4.766-1.938-4.33.659C136.848,147.249,138.708,149.457,140,150.823Z" transform="translate(719.641 691.43)" fill="url(#linear-gradient-100)"/>
      <path id="Caminho_515" data-name="Caminho 515" d="M198.658,128.99a90.269,90.269,0,0,1-15.5,4.34c-2.054.368-4.195.678-5.9,1.86a6.626,6.626,0,0,0,1.676,11.742,16.053,16.053,0,0,0,5.144.417,24.985,24.985,0,0,1,12.1,2.577,47.414,47.414,0,0,1,4.563,2.994q2.7,1.879,5.57,3.488a7.973,7.973,0,0,0,2.955,1.153,5.483,5.483,0,0,0,3.953-1.356,12.894,12.894,0,0,0,2.664-3.323,20.139,20.139,0,0,0,2.18-4.5c.794-2.509,4.921-19.783-4.941-26.545-1.4-.969-3.953.843-4.931,1.812a16.76,16.76,0,0,1-2.906,2.267A34.7,34.7,0,0,1,198.658,128.99Z" transform="translate(718.458 692.124)" fill="#086c7b"/>
      <path id="Caminho_516" data-name="Caminho 516" d="M198.658,128.99a90.269,90.269,0,0,1-15.5,4.34c-2.054.368-4.195.678-5.9,1.86a6.626,6.626,0,0,0,1.676,11.742,16.053,16.053,0,0,0,5.144.417,24.985,24.985,0,0,1,12.1,2.577,47.414,47.414,0,0,1,4.563,2.994q2.7,1.879,5.57,3.488a7.973,7.973,0,0,0,2.955,1.153,5.483,5.483,0,0,0,3.953-1.356,12.894,12.894,0,0,0,2.664-3.323,20.139,20.139,0,0,0,2.18-4.5c.794-2.509,4.921-19.783-4.941-26.545-1.4-.969-3.953.843-4.931,1.812a16.76,16.76,0,0,1-2.906,2.267A34.7,34.7,0,0,1,198.658,128.99Z" transform="translate(718.458 692.124)" fill="url(#linear-gradient-101)"/>
      <path id="Caminho_517" data-name="Caminho 517" d="M159.364,127.871a15.654,15.654,0,0,0-.7,1.724,5.086,5.086,0,0,0,.678,3.875,3.759,3.759,0,0,1,.872,2.218c-.126,1.085-1.327,1.676-1.938,2.587-.707,1.056-.552,2.451-.785,3.7-.572,3.09-3.633,5.222-6.733,5.735s-6.249-.262-9.3-1.027a11.315,11.315,0,0,1-3.652-1.366,9.591,9.591,0,0,1-2.906-3.546,36.563,36.563,0,0,1-3.284-8.719,17.147,17.147,0,0,1-.668-4.786,14.745,14.745,0,0,1,.843-4.175c.969-2.809,2.5-5.638,5.154-6.966a12.4,12.4,0,0,1,5.89-.969,32.989,32.989,0,0,1,5.076.484,28.405,28.405,0,0,1,9.4,3.459c1.366.794,2.286,1.182,2.49,2.771a10.366,10.366,0,0,1-.436,5Z" transform="translate(719.814 692.294)" fill="url(#linear-gradient-102)"/>
      <path id="Caminho_518" data-name="Caminho 518" d="M160.034,119.514a3.139,3.139,0,0,1-.223,1.521c-.552,1.2-2.083,1.56-3.4,1.608-2.209.077-4.408-.3-6.617-.4a11.267,11.267,0,0,0-6.433,1.279,7.217,7.217,0,0,0-3.333,5.5c0,.465-.126,1.056-.581,1.124s-.756-.581-.969-1.056a2.654,2.654,0,0,0-3.585-1.211,3.817,3.817,0,0,0-1.6,3.526,38.038,38.038,0,0,0,.62,4.02,2.6,2.6,0,0,1-.552,2.189,2.005,2.005,0,0,1-2.4,0,5.87,5.87,0,0,1-1.637-2l-1.938-3.236a33.133,33.133,0,0,1-3.187-6.365,10.957,10.957,0,0,1-.165-6.995,16.227,16.227,0,0,1,3.342-4.96,16.993,16.993,0,0,1,2.577-2.567,12.594,12.594,0,0,1,3.6-1.734,20.054,20.054,0,0,1,3.982-.891c4.418-.494,8.816.736,13.243,1.124a12.2,12.2,0,0,1,4.7.969,5.629,5.629,0,0,1,2.751,3.875C158.707,116.5,159.928,117.653,160.034,119.514Z" transform="translate(720.045 692.524)" fill="#606161"/>
      <path id="Caminho_519" data-name="Caminho 519" d="M160.034,119.514a3.139,3.139,0,0,1-.223,1.521c-.552,1.2-2.083,1.56-3.4,1.608-2.209.077-4.408-.3-6.617-.4a11.267,11.267,0,0,0-6.433,1.279,7.217,7.217,0,0,0-3.333,5.5c0,.465-.126,1.056-.581,1.124s-.756-.581-.969-1.056a2.654,2.654,0,0,0-3.585-1.211,3.817,3.817,0,0,0-1.6,3.526,38.038,38.038,0,0,0,.62,4.02,2.6,2.6,0,0,1-.552,2.189,2.005,2.005,0,0,1-2.4,0,5.87,5.87,0,0,1-1.637-2l-1.938-3.236a33.133,33.133,0,0,1-3.187-6.365,10.957,10.957,0,0,1-.165-6.995,16.227,16.227,0,0,1,3.342-4.96,16.993,16.993,0,0,1,2.577-2.567,12.594,12.594,0,0,1,3.6-1.734,20.054,20.054,0,0,1,3.982-.891c4.418-.494,8.816.736,13.243,1.124a12.2,12.2,0,0,1,4.7.969,5.629,5.629,0,0,1,2.751,3.875C158.707,116.5,159.928,117.653,160.034,119.514Z" transform="translate(720.045 692.524)" fill="url(#linear-gradient-103)"/>
      <path id="Caminho_520" data-name="Caminho 520" d="M105.543,233.74a33.167,33.167,0,0,0,2.18,3.594c.581.862,1.3,1.821,2.335,1.938a2.412,2.412,0,0,0,2-.969,7.11,7.11,0,0,0,1.027-2.044c.717-1.938,1.443-4.04.765-5.977-.523-1.463-1.8-2.674-1.841-4.224,0-1.075.572-2.131.388-3.187a.727.727,0,0,0-.223-.465.969.969,0,0,0-.678-.107,6.782,6.782,0,0,1-3.74-.8,2.335,2.335,0,0,0-3.071.213,8.583,8.583,0,0,0-2.16,2.306c-.581,1.075-.281,1.424.339,2.248,1.3,1.753,1.4,4.311,2.17,6.316C105.184,232.965,105.358,233.353,105.543,233.74Z" transform="translate(720.711 689.02)" fill="url(#linear-gradient-104)"/>
      <path id="Caminho_521" data-name="Caminho 521" d="M129.433,148.388a5.009,5.009,0,0,0-.2,1.938,29.335,29.335,0,0,0,1.792,9.3c.126.368.339.785.727.823a.969.969,0,0,0,.5-.116,23.251,23.251,0,0,0,6.229-3.875,28.957,28.957,0,0,1-3.875-3.681,10.094,10.094,0,0,1-2.306-4.747C131.971,145.869,129.975,146.858,129.433,148.388Z" transform="translate(719.869 691.337)" fill="#fff"/>
      <path id="Caminho_522" data-name="Caminho 522" d="M143.278,152.952a6.036,6.036,0,0,1-3.265,2.267c-.5.126-1.192.339-1.143.862a1.017,1.017,0,0,0,.174.426l2.906,4.65A11.994,11.994,0,0,0,146.5,150.4a1.938,1.938,0,0,0-.252-.853C145.3,148.2,143.84,152.283,143.278,152.952Z" transform="translate(719.567 691.259)" fill="#fff"/>
      <path id="Caminho_523" data-name="Caminho 523" d="M140.559,191.869c.678-3.962.823-15.045.969-17.642a15.5,15.5,0,0,0-1.23-7.634,2.151,2.151,0,0,1-.31-1.017,2.006,2.006,0,0,1,.291-.824l1.308-2.49a3.139,3.139,0,0,0-1.521-5.173,3.274,3.274,0,0,0-.62-.281,2,2,0,0,0-1.705.426c-.484.378-1.095.543-1.211,1.143a8.835,8.835,0,0,0,.417,4.98,5.909,5.909,0,0,1,.436,1.347,4.515,4.515,0,0,1-.1,1.347L135.24,177.4v-.4c.513,4.3.659,10.724,1.172,15.016.155,1.24,1.492,19.308,2.306,20.248C138.883,212.068,140.52,192.13,140.559,191.869Z" transform="translate(719.68 691.025)" fill="#086c7b"/>
      <path id="Caminho_524" data-name="Caminho 524" d="M140.559,191.869c.678-3.962.823-15.045.969-17.642a15.5,15.5,0,0,0-1.23-7.634,2.151,2.151,0,0,1-.31-1.017,2.006,2.006,0,0,1,.291-.824l1.308-2.49a3.139,3.139,0,0,0-1.521-5.173,3.274,3.274,0,0,0-.62-.281,2,2,0,0,0-1.705.426c-.484.378-1.095.543-1.211,1.143a8.835,8.835,0,0,0,.417,4.98,5.909,5.909,0,0,1,.436,1.347,4.515,4.515,0,0,1-.1,1.347L135.24,177.4v-.4c.513,4.3.659,10.724,1.172,15.016.155,1.24,1.492,19.308,2.306,20.248C138.883,212.068,140.52,192.13,140.559,191.869Z" transform="translate(719.68 691.025)" fill="url(#linear-gradient-105)"/>
      <ellipse id="Elipse_29" data-name="Elipse 29" cx="16.121" cy="7.179" rx="16.121" ry="7.179" transform="matrix(0.112, -0.994, 0.994, 0.112, 920.839, 847.822)" fill="url(#linear-gradient-106)"/>
      <path id="Caminho_540" data-name="Caminho 540" d="M138.417,245.317l-3.139,20.112c-1.414-.465-3.158-1.938-4.611,6.781s-15.229,86.813-15.229,86.813L110.7,357.58l12.023-112.66Z" transform="translate(720.446 688.273)" fill="url(#linear-gradient-107)"/>
      <path id="Caminho_541" data-name="Caminho 541" d="M130.882,226.719,129.07,339.156l3.914,1.269,7.15-114.675Z" transform="translate(737.97 706.446)" fill="url(#linear-gradient-108)"/>
      <path id="Caminho_542" data-name="Caminho 542" d="M200.4,201.11c-1.182,3.052-4.582,4.844-7.837,4.941a21.142,21.142,0,0,1-9.407-2.451,64.811,64.811,0,0,1-12.691-7.963,25.828,25.828,0,0,1-4.582-4.437,20.674,20.674,0,0,1-3.614-9.048l1.24-5.861s21.168,26.68,29.7,26.69c8.022,0,7.043-6.094,7.634-6.191A9.688,9.688,0,0,1,200.4,201.11Z" transform="translate(718.836 690.416)" fill="url(#linear-gradient-109)"/>
      <path id="Caminho_543" data-name="Caminho 543" d="M95.83,371.976a4.845,4.845,0,0,0,1.841.533c5.968.862,12.371,1.25,17.709-1.55a1.337,1.337,0,0,0,.62-.533,1.3,1.3,0,0,0,0-.746c-.252-1.783-.484-3.565-.756-5.348-.388-2.48-.2-2.809-2.654-3.236a10.008,10.008,0,0,0-6.384,1.124C104.171,363.3,92.4,369.873,95.83,371.976Z" transform="translate(720.93 684.651)" fill="#606161"/>
      <path id="Caminho_544" data-name="Caminho 544" d="M161.878,371.976a4.845,4.845,0,0,1-1.841.533c-5.968.862-12.371,1.25-17.709-1.55a1.337,1.337,0,0,1-.62-.533,1.3,1.3,0,0,1,0-.746c.252-1.783.484-3.565.765-5.348.378-2.48.194-2.809,2.645-3.236a10.008,10.008,0,0,1,6.384,1.124C153.537,363.3,165.308,369.873,161.878,371.976Z" transform="translate(719.48 684.651)" fill="#606161"/>
      <path id="Caminho_545" data-name="Caminho 545" d="M95.83,371.976a4.845,4.845,0,0,0,1.841.533c5.968.862,12.371,1.25,17.709-1.55a1.337,1.337,0,0,0,.62-.533,1.3,1.3,0,0,0,0-.746c-.252-1.783-.484-3.565-.756-5.348-.388-2.48-.2-2.809-2.654-3.236a10.008,10.008,0,0,0-6.384,1.124C104.171,363.3,92.4,369.873,95.83,371.976Z" transform="translate(720.93 684.651)" fill="url(#linear-gradient-110)"/>
      <path id="Caminho_546" data-name="Caminho 546" d="M161.878,371.976a4.845,4.845,0,0,1-1.841.533c-5.968.862-12.371,1.25-17.709-1.55a1.337,1.337,0,0,1-.62-.533,1.3,1.3,0,0,1,0-.746c.252-1.783.484-3.565.765-5.348.378-2.48.194-2.809,2.645-3.236a10.008,10.008,0,0,1,6.384,1.124C153.537,363.3,165.308,369.873,161.878,371.976Z" transform="translate(719.48 684.651)" fill="url(#linear-gradient-111)"/>
      <path id="Caminho_547" data-name="Caminho 547" d="M137.567,131.974a1.133,1.133,0,0,0-2.083-.233,2.19,2.19,0,0,0-.165,1.2,5.474,5.474,0,0,0,.262,1.482,2.17,2.17,0,0,0,.969,1.153c.756.4,2.567-.1,2.315-1.24-.087-.407-.523-.417-.794-.688C137.538,133.126,137.751,132.574,137.567,131.974Z" transform="translate(719.679 691.825)" fill="url(#linear-gradient-112)"/>
      <path id="Caminho_548" data-name="Caminho 548" d="M180.109,165.091a1.22,1.22,0,0,0,.068.591,1.172,1.172,0,0,0,.639.446,6.52,6.52,0,0,0,2.16.552,2.209,2.209,0,0,0,1.938-.9,3.274,3.274,0,0,0,.3-1.879l-.174-4.311a2.3,2.3,0,0,0-.552-1.734,2.093,2.093,0,0,0-1.143-.426C179.092,156.789,180.3,161.982,180.109,165.091Z" transform="translate(718.28 691.006)" fill="#086c7b"/>
      <path id="Caminho_549" data-name="Caminho 549" d="M180.109,165.091a1.22,1.22,0,0,0,.068.591,1.172,1.172,0,0,0,.639.446,6.52,6.52,0,0,0,2.16.552,2.209,2.209,0,0,0,1.938-.9,3.274,3.274,0,0,0,.3-1.879l-.174-4.311a2.3,2.3,0,0,0-.552-1.734,2.093,2.093,0,0,0-1.143-.426C179.092,156.789,180.3,161.982,180.109,165.091Z" transform="translate(718.28 691.006)" fill="url(#linear-gradient-113)"/>
      <path id="Caminho_550" data-name="Caminho 550" d="M190.609,152.337c-1.269-2.906-4.689-4.563-7.9-4.427a1.347,1.347,0,0,0-.446.077.891.891,0,0,0-.378,1.066,2.645,2.645,0,0,0,.717.969,5.251,5.251,0,0,0-2.054-.969,1.792,1.792,0,0,0-1.938.891,2.539,2.539,0,0,0-.136,1.075v2.441a7.111,7.111,0,0,0,.271,2.219c.649,1.85,2.732,2.858,3.584,4.621.455.969.581,2.141,1.434,2.751a2.5,2.5,0,0,0,1.618.388,6.781,6.781,0,0,0,4.892-3.4,10.492,10.492,0,0,0,.329-7.7Z" transform="translate(718.331 691.302)" fill="url(#linear-gradient-114)"/>
      <path id="Caminho_551" data-name="Caminho 551" d="M115.8,380.676c-20.219-1.153-40.64-2.335-60.171-8.932a1019.55,1019.55,0,0,1,127.4-4.844c11.034.271,3.5,8.952-1.192,12.439-4.844,3.584-11.625,4.166-17.07,4.447C148.72,384.571,131.873,381.587,115.8,380.676Z" transform="translate(722.165 684.475)" fill="url(#linear-gradient-115)"/>
    </g>
  </g>
</svg>
