<svg width="296" height="324" viewBox="0 0 296 324" fill="none" xmlns="http://www.w3.org/2000/svg">
<path d="M286.769 189.136C292.273 180.984 295.027 170.813 295.027 162C295.027 148.713 289.045 136.369 278.78 127.998C281.052 122.642 282.2 117.072 282.2 111.375C282.2 93.748 271.774 77.3278 256.273 69.66C258.625 50.4136 245.914 32.7721 227.078 28.2722C219.706 11.4564 203.296 0 185.996 0C169.891 0 155.447 9.26817 147.514 22.7914C139.58 9.26817 125.136 0 109.032 0C91.7298 0 75.3205 11.4564 67.9493 28.2728C49.0002 32.8012 36.409 50.5307 38.7544 69.66C23.2539 77.3272 12.8273 93.748 12.8273 111.375C12.8273 117.072 13.9753 122.642 16.247 127.998C5.982 136.37 0 148.713 0 162C0 170.859 2.77711 181.017 8.25884 189.136C2.90217 196.596 0 205.439 0 214.523C0 226.304 4.84101 237.526 13.4039 245.859C9.00154 272.116 30.2243 298.688 57.7228 298.688C57.9216 298.688 58.1172 298.684 58.309 298.679C67.426 314.196 84.349 324 102.618 324C121.659 324 138.673 312.723 147.514 296.476C156.354 312.723 173.368 324 192.409 324C210.678 324 227.601 314.196 236.718 298.679C236.911 298.684 237.106 298.688 237.305 298.688C261.641 298.688 282.2 277.533 282.2 252.492C282.2 250.36 282.01 248.168 281.624 245.859C290.186 237.526 295.027 226.305 295.027 214.523C295.027 205.439 292.125 196.596 286.769 189.136ZM141.1 95.7958C137.324 93.6347 132.944 92.3906 128.273 92.3906C124.731 92.3906 121.859 95.2237 121.859 98.7188C121.859 102.214 124.731 105.047 128.273 105.047C135.346 105.047 141.1 110.724 141.1 117.703V238.044C131.691 227.514 117.932 220.852 102.618 220.852C99.076 220.852 96.2046 223.685 96.2046 227.18C96.2046 230.675 99.076 233.508 102.618 233.508C123.837 233.508 141.1 250.541 141.1 271.477C141.1 293.086 123.477 311.344 102.618 311.344C87.7694 311.344 74.1 302.68 67.7928 289.271C66.63 286.8 63.9966 285.343 61.2509 285.648C60.7975 285.699 60.3466 285.759 59.8957 285.819C41.6425 288.282 21.0868 267.889 26.6512 245.074C27.2227 242.731 26.3953 240.272 24.5181 238.73C17.0885 232.631 12.8273 223.807 12.8273 214.523C12.8273 208.783 14.4724 203.166 17.5336 198.24C25.2261 204.46 34.7946 208.195 44.8955 208.195C48.4377 208.195 51.3091 205.362 51.3091 201.867C51.3091 198.372 48.4377 195.539 44.8955 195.539C27.4895 195.539 12.8273 179.864 12.8273 162C12.8273 151.163 18.4257 141.194 27.8044 135.332C30.6938 133.526 31.6385 129.801 29.9511 126.865C27.1002 121.904 25.6546 116.693 25.6546 111.375C25.6546 94.2954 39.7659 77.8359 57.7228 77.8359C74.8061 77.8359 89.791 93.5088 89.791 111.375C89.791 114.87 92.6623 117.703 96.2046 117.703C99.7468 117.703 102.618 114.87 102.618 111.375C102.618 86.3346 82.0587 65.1797 57.7228 65.1797C55.5755 65.1797 53.4397 65.3512 51.3252 65.6758C51.3219 65.5094 51.3091 65.3474 51.3091 65.1797C51.3091 51.0572 62.9287 39.8672 76.9637 39.8672C83.8147 39.8672 90.2592 42.5003 95.1092 47.2806C97.615 49.7505 101.675 49.7479 104.179 47.2762C106.683 44.8031 106.681 40.7968 104.175 38.3269C98.3237 32.5601 90.923 28.8822 82.9027 27.6634C88.5589 19.3792 97.9645 12.6562 109.032 12.6562C126.115 12.6562 141.1 28.3285 141.1 46.1953V95.7958ZM250.132 208.195C260.233 208.195 269.802 204.46 277.494 198.242C280.555 203.167 282.2 208.784 282.2 214.523C282.2 223.807 277.939 232.631 270.51 238.73C268.632 240.272 267.805 242.732 268.377 245.074C269.057 247.861 269.373 250.218 269.373 252.492C269.373 272.134 251.367 288.009 235.132 285.819C234.682 285.759 234.23 285.698 233.777 285.648C231.027 285.341 228.397 286.8 227.235 289.271C220.928 302.68 207.257 311.344 192.409 311.344C171.55 311.344 153.927 293.086 153.927 271.477C153.927 250.541 171.19 233.508 192.409 233.508C195.951 233.508 198.823 230.675 198.823 227.18C198.823 223.685 195.951 220.852 192.409 220.852C177.095 220.852 163.337 227.514 153.927 238.044V117.703C153.927 110.724 159.682 105.047 166.755 105.047C170.296 105.047 173.168 102.214 173.168 98.7188C173.168 95.2237 170.296 92.3906 166.755 92.3906C162.084 92.3906 157.704 93.6347 153.927 95.7958V46.1953C153.927 28.3285 168.912 12.6562 185.996 12.6562C197.063 12.6562 206.468 19.3792 212.124 27.6628C204.104 28.8816 196.704 32.5595 190.853 38.3263C188.346 40.7962 188.344 44.8025 190.847 47.2755C193.35 49.7486 197.412 49.7505 199.917 47.2806C204.769 42.5003 211.213 39.8672 218.064 39.8672C232.169 39.8672 243.718 51.123 243.718 65.1797C243.718 65.3467 243.705 65.5094 243.702 65.6758C241.588 65.3512 239.452 65.1797 237.305 65.1797C212.969 65.1797 192.409 86.3346 192.409 111.375C192.409 114.87 195.281 117.703 198.823 117.703C202.364 117.703 205.236 114.87 205.236 111.375C205.236 93.5088 220.221 77.8359 237.305 77.8359C255.251 77.8359 269.373 94.2872 269.373 111.375C269.373 116.693 267.927 121.904 265.076 126.865C263.39 129.801 264.334 133.526 267.224 135.332C276.602 141.194 282.2 151.163 282.2 162C282.2 179.928 267.487 195.539 250.132 195.539C246.59 195.539 243.718 198.372 243.718 201.867C243.718 205.362 246.59 208.195 250.132 208.195Z" fill="#E1C5DC" fill-opacity="0.7"/>
<path d="M131.169 135.455C128.807 132.851 124.753 132.628 122.113 134.958C101.546 153.11 68.6661 138.603 68.6661 111.375C68.6661 107.88 65.7948 105.047 62.2525 105.047C58.7103 105.047 55.8389 107.88 55.8389 111.375C55.8389 133.343 72.134 151.618 93.4228 155.075C90.9535 162.75 83.6651 168.328 75.0798 168.328C71.5375 168.328 68.6661 171.161 68.6661 174.656C68.6661 178.151 71.5375 180.984 75.0798 180.984C90.7015 180.984 103.742 169.904 106.572 155.291C115.491 154.14 123.886 150.374 130.665 144.39C133.305 142.06 133.53 138.06 131.169 135.455Z" fill="#E1C5DC" fill-opacity="0.7"/>
<path d="M62.2525 246.164C58.7103 246.164 55.8389 248.997 55.8389 252.492C55.8389 255.987 58.7103 258.82 62.2525 258.82C79.3359 258.82 94.3207 274.493 94.3207 292.359C94.3207 295.854 97.1921 298.687 100.734 298.687C104.277 298.687 107.148 295.854 107.148 292.359C107.148 267.319 86.5884 246.164 62.2525 246.164Z" fill="#E1C5DC" fill-opacity="0.7"/>
<path d="M113.563 195.539C91.8293 195.539 73.1695 207.3 63.3438 224.4C61.5973 227.441 62.6793 231.303 65.7604 233.026C68.8422 234.749 72.7558 233.682 74.5029 230.642C82.1576 217.317 96.6819 208.195 113.563 208.195C117.105 208.195 119.976 205.362 119.976 201.867C119.976 198.372 117.105 195.539 113.563 195.539Z" fill="#E1C5DC" fill-opacity="0.7"/>
<path d="M229.007 168.328C220.422 168.328 213.133 162.75 210.664 155.075C231.953 151.618 248.248 133.343 248.248 111.375C248.248 107.88 245.376 105.047 241.834 105.047C238.293 105.047 235.421 107.88 235.421 111.375C235.421 128.821 221.035 143.015 203.353 143.015C195.453 143.015 187.862 140.154 181.974 134.958C179.335 132.628 175.279 132.85 172.918 135.455C170.556 138.06 170.782 142.06 173.422 144.39C180.201 150.374 188.596 154.14 197.515 155.291C200.345 169.904 213.385 180.984 229.007 180.984C232.549 180.984 235.421 178.151 235.421 174.656C235.421 171.161 232.549 168.328 229.007 168.328Z" fill="#E1C5DC" fill-opacity="0.7"/>
<path d="M241.834 246.164C217.498 246.164 196.938 267.319 196.938 292.359C196.938 295.854 199.811 298.687 203.352 298.687C206.894 298.687 209.766 295.854 209.766 292.359C209.766 274.493 224.751 258.82 241.834 258.82C245.376 258.82 248.248 255.987 248.248 252.492C248.248 248.997 245.376 246.164 241.834 246.164Z" fill="#E1C5DC" fill-opacity="0.7"/>
<path d="M240.743 224.401C230.942 207.341 212.308 195.539 190.524 195.539C186.983 195.539 184.111 198.372 184.111 201.867C184.111 205.362 186.983 208.195 190.524 208.195C207.393 208.195 221.928 217.315 229.583 230.642C231.332 233.686 235.249 234.748 238.325 233.027C241.407 231.303 242.489 227.441 240.743 224.401Z" fill="#E1C5DC" fill-opacity="0.7"/>
</svg>
