<svg width="289" height="290" viewBox="0 0 289 290" fill="none" xmlns="http://www.w3.org/2000/svg">
<mask id="path-1-inside-1" fill="white">
<path d="M208.815 80.6315C178.174 49.9902 130.153 45.2629 94.1244 69.3361C58.0928 93.4122 44.0869 139.587 60.6719 179.621C77.2541 219.655 119.809 242.4 162.311 233.947C204.809 225.491 235.42 188.192 235.42 144.859C235.409 120.772 225.839 97.6724 208.815 80.6315ZM202.739 203.012C174.996 230.755 131.518 235.038 98.8965 213.239C66.272 191.442 53.592 149.634 68.605 113.387C83.6207 77.1377 122.15 56.5442 160.632 64.1975C199.111 71.8537 226.827 105.625 226.827 144.859C226.885 166.684 218.214 187.624 202.739 203.012Z"/>
</mask>
<path d="M208.815 80.6315C178.174 49.9902 130.153 45.2629 94.1244 69.3361C58.0928 93.4122 44.0869 139.587 60.6719 179.621C77.2541 219.655 119.809 242.4 162.311 233.947C204.809 225.491 235.42 188.192 235.42 144.859C235.409 120.772 225.839 97.6724 208.815 80.6315ZM202.739 203.012C174.996 230.755 131.518 235.038 98.8965 213.239C66.272 191.442 53.592 149.634 68.605 113.387C83.6207 77.1377 122.15 56.5442 160.632 64.1975C199.111 71.8537 226.827 105.625 226.827 144.859C226.885 166.684 218.214 187.624 202.739 203.012Z" fill="#DBEBF2"/>
<path d="M94.1244 69.3361L81.3464 50.2122L81.3461 50.2124L94.1244 69.3361ZM60.6719 179.621L81.9213 170.82L81.9207 170.818L60.6719 179.621ZM162.311 233.947L166.797 256.505L166.799 256.505L162.311 233.947ZM235.42 144.859H258.42V144.849L235.42 144.859ZM98.8965 213.239L111.675 194.115L111.674 194.114L98.8965 213.239ZM68.605 113.387L47.3559 104.585L47.3555 104.586L68.605 113.387ZM160.632 64.1975L165.12 41.6397L165.119 41.6393L160.632 64.1975ZM226.827 144.859H203.827V144.89L203.827 144.921L226.827 144.859ZM225.078 64.368C186.678 25.9673 126.498 20.0434 81.3464 50.2122L106.902 88.46C133.808 70.4823 169.67 74.0131 192.552 96.8949L225.078 64.368ZM81.3461 50.2124C36.1912 80.3846 18.6383 138.251 39.4231 188.424L81.9207 170.818C69.5356 140.922 79.9945 106.44 106.903 88.4598L81.3461 50.2124ZM39.4226 188.422C60.2041 238.596 113.535 267.098 166.797 256.505L157.824 211.389C126.083 217.702 94.3041 200.715 81.9213 170.82L39.4226 188.422ZM166.799 256.505C220.058 245.907 258.42 199.165 258.42 144.859H212.42C212.42 177.219 189.56 205.074 157.822 211.389L166.799 256.505ZM258.42 144.849C258.406 114.668 246.416 85.7263 225.086 64.376L192.544 96.8869C205.263 109.619 212.411 126.876 212.42 144.87L258.42 144.849ZM186.476 186.748C166.491 206.733 135.173 209.817 111.675 194.115L86.1176 232.362C127.863 260.258 183.501 254.777 219.003 219.275L186.476 186.748ZM111.674 194.114C88.1745 178.414 79.0398 148.299 89.8544 122.189L47.3555 104.586C28.1443 150.969 44.3696 204.47 86.1195 232.363L111.674 194.114ZM89.8541 122.189C100.671 96.0772 128.425 81.2426 156.146 86.7557L165.119 41.6393C115.875 31.8459 66.5708 58.1982 47.3559 104.585L89.8541 122.189ZM156.144 86.7554C183.862 92.2704 203.827 116.598 203.827 144.859H249.827C249.827 94.6524 214.361 51.4369 165.12 41.6397L156.144 86.7554ZM203.827 144.921C203.869 160.605 197.638 175.649 186.522 186.703L218.957 219.321C238.79 199.599 249.902 172.763 249.827 144.798L203.827 144.921Z" fill="#DBEBF2" mask="url(#path-1-inside-1)"/>
<mask id="path-3-inside-2" fill="white">
<path d="M246.788 42.3427C246.715 42.2727 246.777 42.6671 246.704 41.951H265.885C268.257 41.951 270.181 40.0265 270.181 37.6544C270.181 35.2824 268.257 33.3578 265.885 33.3578H237.274C180.47 -13.9047 95.4949 -10.976 42.1762 42.3427C41.9609 42.5581 41.4685 42.9581 41.4685 43.1735V22.9688C41.4685 20.5967 39.544 18.6722 37.1719 18.6722C34.7971 18.6722 32.8753 20.5967 32.8753 22.9688V52.673C-13.6711 109.474 -10.9858 194.153 42.1762 247.312C42.2098 247.368 42.249 247.421 42.2909 247.472H22.2765C19.9044 247.472 17.9799 249.396 17.9799 251.768C17.9799 254.14 19.9044 256.065 22.2765 256.065H51.6925C77.7463 277.732 110.561 289.607 144.447 289.635C182.632 289.699 219.271 274.563 246.273 247.564V266.577C246.273 268.949 248.195 270.874 250.57 270.874C252.942 270.874 254.866 268.949 254.866 266.577V238.255C302.845 181.453 300.327 95.8851 246.788 42.3427ZM56.5066 248.781V221.463C56.5066 219.088 54.5821 217.166 52.21 217.166C49.8352 217.166 47.9134 219.088 47.9134 221.463V240.848C-2.21353 190.575 -4.51568 110.697 40.3161 56.9891H67.3908C69.7629 56.9891 71.6874 55.0646 71.6874 52.6925C71.6874 50.3205 69.7629 48.3959 67.3908 48.3959H48.1736C48.2239 48.3959 48.2715 48.4687 48.3218 48.4211C97.9984 -1.16319 177.256 -4.77165 231.235 40.0937V68.0831C231.235 70.4552 233.157 72.3797 235.532 72.3797C237.904 72.3797 239.828 70.4552 239.828 68.0831V47.8701C240.544 48.1134 240.466 48.4659 240.712 48.712C290.912 98.9145 293.762 178.726 249.003 232.434H220.77C218.395 232.434 216.474 234.358 216.474 236.73C216.474 239.102 218.395 241.027 220.77 241.027H241.165C241.017 241.052 240.88 241.127 240.776 241.237C190.389 291.624 110.214 294.057 56.5066 248.781Z"/>
</mask>
<path d="M246.788 42.3427C246.715 42.2727 246.777 42.6671 246.704 41.951H265.885C268.257 41.951 270.181 40.0265 270.181 37.6544C270.181 35.2824 268.257 33.3578 265.885 33.3578H237.274C180.47 -13.9047 95.4949 -10.976 42.1762 42.3427C41.9609 42.5581 41.4685 42.9581 41.4685 43.1735V22.9688C41.4685 20.5967 39.544 18.6722 37.1719 18.6722C34.7971 18.6722 32.8753 20.5967 32.8753 22.9688V52.673C-13.6711 109.474 -10.9858 194.153 42.1762 247.312C42.2098 247.368 42.249 247.421 42.2909 247.472H22.2765C19.9044 247.472 17.9799 249.396 17.9799 251.768C17.9799 254.14 19.9044 256.065 22.2765 256.065H51.6925C77.7463 277.732 110.561 289.607 144.447 289.635C182.632 289.699 219.271 274.563 246.273 247.564V266.577C246.273 268.949 248.195 270.874 250.57 270.874C252.942 270.874 254.866 268.949 254.866 266.577V238.255C302.845 181.453 300.327 95.8851 246.788 42.3427ZM56.5066 248.781V221.463C56.5066 219.088 54.5821 217.166 52.21 217.166C49.8352 217.166 47.9134 219.088 47.9134 221.463V240.848C-2.21353 190.575 -4.51568 110.697 40.3161 56.9891H67.3908C69.7629 56.9891 71.6874 55.0646 71.6874 52.6925C71.6874 50.3205 69.7629 48.3959 67.3908 48.3959H48.1736C48.2239 48.3959 48.2715 48.4687 48.3218 48.4211C97.9984 -1.16319 177.256 -4.77165 231.235 40.0937V68.0831C231.235 70.4552 233.157 72.3797 235.532 72.3797C237.904 72.3797 239.828 70.4552 239.828 68.0831V47.8701C240.544 48.1134 240.466 48.4659 240.712 48.712C290.912 98.9145 293.762 178.726 249.003 232.434H220.77C218.395 232.434 216.474 234.358 216.474 236.73C216.474 239.102 218.395 241.027 220.77 241.027H241.165C241.017 241.052 240.88 241.127 240.776 241.237C190.389 291.624 110.214 294.057 56.5066 248.781Z" fill="#DBEBF2"/>
<path d="M246.704 41.951V18.951H221.25L223.821 44.275L246.704 41.951ZM237.274 33.3578L222.564 51.0383L228.957 56.3578H237.274V33.3578ZM42.1762 42.3427L25.9128 26.0792L25.9128 26.0792L42.1762 42.3427ZM32.8753 52.673L50.6652 67.2511L55.8753 60.8931V52.673H32.8753ZM42.1762 247.312L61.8986 235.479L60.4417 233.051L58.4393 231.048L42.1762 247.312ZM42.2909 247.472V270.472H91.3967L59.9601 232.747L42.2909 247.472ZM51.6925 256.065L66.3992 238.381L60.0068 233.065H51.6925V256.065ZM144.447 289.635L144.486 266.635L144.476 266.635H144.466L144.447 289.635ZM246.273 247.564H269.273V192.041L230.01 231.3L246.273 247.564ZM254.866 238.255L237.296 223.413L231.866 229.841V238.255H254.866ZM47.9134 240.848L31.6264 257.088L70.9134 296.489V240.848H47.9134ZM40.3161 56.9891V33.9891H29.5551L22.6592 42.2502L40.3161 56.9891ZM48.3218 48.4211L64.1141 65.1425L64.3452 64.9242L64.5702 64.6997L48.3218 48.4211ZM231.235 40.0937H254.235V29.3031L245.937 22.4057L231.235 40.0937ZM239.828 47.8701L247.229 26.0932L216.828 15.7617V47.8701H239.828ZM240.712 48.712L256.976 32.449L256.975 32.4486L240.712 48.712ZM249.003 232.434V255.434H259.775L266.672 247.158L249.003 232.434ZM241.165 241.027L245.016 263.702L241.165 218.027V241.027ZM240.776 241.237L257.04 257.5L257.254 257.286L257.462 257.066L240.776 241.237ZM262.729 25.7634C261.3 24.389 258.316 21.8628 253.716 20.4068C251.285 19.6372 248.414 19.1756 245.257 19.3838C242.074 19.5937 239.119 20.4516 236.53 21.7384C231.559 24.2088 228.783 27.7994 227.489 29.7855C226.128 31.8742 225.403 33.7355 225.05 34.7413C224.364 36.6989 224.105 38.3416 224.082 38.4742C223.985 39.0373 224.109 38.3161 224.152 38.0885C224.168 38.0046 224.353 36.9783 224.732 35.7264C224.881 35.2362 225.416 33.4694 226.539 31.4033C227.094 30.3826 228.306 28.3171 230.424 26.1841C232.491 24.1025 236.961 20.4331 243.893 19.5668C251.455 18.6216 257.459 21.5338 261.028 24.3609C264.198 26.8725 265.922 29.6057 266.653 30.8696C268.139 33.4388 268.757 35.6975 268.902 36.2181C269.319 37.7147 269.485 38.9346 269.507 39.0861C269.564 39.4814 269.598 39.7915 269.611 39.9121C269.627 40.06 269.638 40.176 269.643 40.2294C269.652 40.323 269.669 40.5196 269.652 40.3267C269.637 40.1558 269.617 39.9304 269.586 39.6271L223.821 44.275C223.827 44.3298 223.826 44.3236 223.823 44.2823C223.811 44.1543 223.832 44.3933 223.843 44.513C223.849 44.573 223.86 44.6945 223.877 44.847C223.89 44.9722 223.925 45.286 223.982 45.6841C224.005 45.8385 224.171 47.0605 224.588 48.5584C224.733 49.0797 225.351 51.3388 226.838 53.9083C227.569 55.1723 229.293 57.9056 232.463 60.4174C236.032 63.2445 242.036 66.1568 249.598 65.2116C256.53 64.3452 261.001 60.6758 263.068 58.5941C265.185 56.461 266.398 54.3953 266.953 53.3745C268.076 51.3081 268.612 49.5408 268.76 49.05C269.14 47.7969 269.326 46.7689 269.342 46.6827C269.386 46.4508 269.511 45.7235 269.415 46.2795C269.394 46.3979 269.139 48.0224 268.458 49.964C268.108 50.9619 267.386 52.8158 266.029 54.8984C264.739 56.8784 261.968 60.4642 257.002 62.9318C254.416 64.2173 251.464 65.0743 248.284 65.2841C245.13 65.4921 242.263 65.0309 239.835 64.2624C235.242 62.8086 232.267 60.2876 230.846 58.9219L262.729 25.7634ZM246.704 64.951H265.885V18.951H246.704V64.951ZM265.885 64.951C280.959 64.951 293.181 52.7291 293.181 37.6544H247.181C247.181 27.324 255.554 18.951 265.885 18.951V64.951ZM293.181 37.6544C293.181 22.5798 280.959 10.3579 265.885 10.3579V56.3578C255.554 56.3578 247.181 47.9849 247.181 37.6544H293.181ZM265.885 10.3579H237.274V56.3578H265.885V10.3579ZM251.985 15.6774C186.144 -39.104 87.732 -35.74 25.9128 26.0792L58.4397 58.6061C103.258 13.7881 174.796 11.2945 222.564 51.0383L251.985 15.6774ZM25.9128 26.0792C26.2377 25.7543 26.6139 25.4094 26.3041 25.6977C26.2096 25.7857 25.7711 26.1915 25.2736 26.7017C24.8674 27.1184 23.7844 28.2444 22.6706 29.8448C22.0977 30.668 21.2022 32.0608 20.3931 33.9242C19.6308 35.6798 18.4685 38.932 18.4685 43.1735H64.4685C64.4685 47.3611 63.3217 50.5536 62.5871 52.2453C61.8058 54.0448 60.9504 55.3693 60.427 56.1213C59.4123 57.5794 58.4658 58.5516 58.2096 58.8144C57.8621 59.1708 57.5871 59.4227 57.6455 59.3684C57.6606 59.3543 57.65 59.3642 57.6912 59.326C57.7166 59.3023 57.7652 59.2571 57.8215 59.2043C57.9133 59.1182 58.1535 58.8923 58.4397 58.6061L25.9128 26.0792ZM64.4685 43.1735V22.9688H18.4685V43.1735H64.4685ZM64.4685 22.9688C64.4685 7.89419 52.2466 -4.32779 37.1719 -4.32779V41.6722C26.8415 41.6722 18.4685 33.2993 18.4685 22.9688H64.4685ZM37.1719 -4.32779C22.0848 -4.32779 9.87534 7.90395 9.87534 22.9688H55.8753C55.8753 33.2895 47.5094 41.6722 37.1719 41.6722V-4.32779ZM9.87534 22.9688V52.673H55.8753V22.9688H9.87534ZM15.0855 38.0948C-38.7818 103.83 -35.8011 201.865 25.9132 263.576L58.4393 231.048C13.8296 186.441 11.4395 115.119 50.6652 67.2511L15.0855 38.0948ZM22.4539 259.146C23.2288 260.437 24.0067 261.458 24.6218 262.196L59.9601 232.747C60.4912 233.385 61.1909 234.299 61.8986 235.479L22.4539 259.146ZM42.2909 224.472H22.2765V270.472H42.2909V224.472ZM22.2765 224.472C7.20188 224.472 -5.02009 236.694 -5.02009 251.768H40.9799C40.9799 262.099 32.607 270.472 22.2765 270.472V224.472ZM-5.02009 251.768C-5.02009 266.843 7.20188 279.065 22.2765 279.065V233.065C32.607 233.065 40.9799 241.438 40.9799 251.768H-5.02009ZM22.2765 279.065H51.6925V233.065H22.2765V279.065ZM36.9859 273.749C67.1665 298.848 105.177 312.602 144.428 312.635L144.466 266.635C115.945 266.611 88.326 256.617 66.3992 238.381L36.9859 273.749ZM144.408 312.635C188.705 312.709 231.21 295.151 262.536 263.828L230.01 231.3C207.332 253.976 176.559 266.689 144.486 266.635L144.408 312.635ZM223.273 247.564V266.577H269.273V247.564H223.273ZM223.273 266.577C223.273 281.642 235.482 293.874 250.57 293.874V247.874C260.907 247.874 269.273 256.256 269.273 266.577H223.273ZM250.57 293.874C265.644 293.874 277.866 281.652 277.866 266.577H231.866C231.866 256.246 240.239 247.874 250.57 247.874V293.874ZM277.866 266.577V238.255H231.866V266.577H277.866ZM272.437 253.096C328.012 187.302 325.172 88.2034 263.052 26.0796L230.524 58.6057C275.483 103.567 277.678 175.605 237.296 223.413L272.437 253.096ZM79.5066 248.781V221.463H33.5066V248.781H79.5066ZM79.5066 221.463C79.5066 206.375 67.2749 194.166 52.21 194.166V240.166C41.8893 240.166 33.5066 231.8 33.5066 221.463H79.5066ZM52.21 194.166C37.1326 194.166 24.9134 206.385 24.9134 221.463H70.9134C70.9134 231.79 62.5377 240.166 52.21 240.166V194.166ZM24.9134 221.463V240.848H70.9134V221.463H24.9134ZM64.2004 224.608C22.6638 182.951 20.5825 116.521 57.9729 71.728L22.6592 42.2502C-29.6139 104.872 -27.0909 198.2 31.6264 257.088L64.2004 224.608ZM40.3161 79.9891H67.3908V33.9891H40.3161V79.9891ZM67.3908 79.9891C82.4654 79.9891 94.6874 67.7672 94.6874 52.6925H48.6874C48.6874 42.3621 57.0603 33.9891 67.3908 33.9891V79.9891ZM94.6874 52.6925C94.6874 37.6179 82.4654 25.3959 67.3908 25.3959V71.3959C57.0603 71.3959 48.6874 63.023 48.6874 52.6925H94.6874ZM67.3908 25.3959H48.1736V71.3959H67.3908V25.3959ZM48.1736 71.3959C42.855 71.3959 39.0307 69.5238 38.0422 69.0366C37.7013 68.8685 37.431 68.7246 37.2705 68.6377C37.1877 68.5929 37.1208 68.556 37.0792 68.5329C37.0579 68.5211 37.0406 68.5115 37.0293 68.5052C37.0185 68.4992 37.0102 68.4946 37.0094 68.4941C36.9002 68.4331 37.3918 68.7132 37.9618 68.9982C38.8519 69.4432 42.6886 71.379 48.0398 71.4359C50.9531 71.4669 54.0414 70.9454 57.0668 69.6986C60.0375 68.4743 62.3693 66.7903 64.1141 65.1425L32.5296 31.6997C34.2618 30.0638 36.5811 28.3879 39.5393 27.1688C42.5523 25.927 45.6282 25.4077 48.5292 25.4385C53.8557 25.4952 57.668 27.4217 58.5336 27.8545C59.0914 28.1334 59.5707 28.4066 59.4492 28.3387C59.4469 28.3375 59.4126 28.3183 59.3703 28.2948C59.3256 28.27 59.2556 28.2315 59.1697 28.185C59.0032 28.0948 58.7267 27.9476 58.3796 27.7765C57.3665 27.2772 53.5173 25.3959 48.1736 25.3959V71.3959ZM64.5702 64.6997C105.841 23.5056 171.687 20.5073 216.533 57.7816L245.937 22.4057C182.825 -30.0506 90.1559 -25.832 32.0735 32.1425L64.5702 64.6997ZM208.235 40.0937V68.0831H254.235V40.0937H208.235ZM208.235 68.0831C208.235 83.148 220.444 95.3797 235.532 95.3797V49.3797C245.869 49.3797 254.235 57.7624 254.235 68.0831H208.235ZM235.532 95.3797C250.606 95.3797 262.828 83.1577 262.828 68.0831H216.828C216.828 57.7526 225.201 49.3797 235.532 49.3797V95.3797ZM262.828 68.0831V47.8701H216.828V68.0831H262.828ZM232.427 69.6469C230.899 69.1274 228.827 68.2226 226.654 66.6326C224.337 64.9379 222.616 62.9858 221.378 61.151C220.829 60.3365 220.456 59.6639 220.29 59.3578C220.213 59.2144 220.152 59.0987 220.165 59.1236C220.166 59.1241 220.166 59.1247 220.167 59.126C220.167 59.127 220.168 59.1287 220.169 59.1304C220.171 59.1339 220.174 59.1393 220.177 59.1456C220.183 59.1578 220.193 59.1774 220.206 59.2008C220.23 59.2466 220.269 59.3211 220.318 59.4114C220.674 60.0731 221.983 62.5097 224.449 64.9755L256.975 32.4486C259.318 34.7912 260.544 37.0915 260.824 37.6102C260.89 37.7336 260.948 37.8451 260.919 37.7898C260.913 37.7783 260.833 37.6258 260.736 37.4455C260.53 37.0654 260.114 36.3181 259.514 35.429C258.176 33.4448 256.325 31.3436 253.814 29.5067C251.446 27.7745 249.115 26.7344 247.229 26.0932L232.427 69.6469ZM224.448 64.975C266.147 106.676 268.559 173.042 231.334 217.709L266.672 247.158C318.965 184.41 315.676 91.1527 256.976 32.449L224.448 64.975ZM249.003 209.434H220.77V255.434H249.003V209.434ZM220.77 209.434C205.683 209.434 193.474 221.665 193.474 236.73H239.474C239.474 247.051 231.108 255.434 220.77 255.434V209.434ZM193.474 236.73C193.474 251.795 205.683 264.027 220.77 264.027V218.027C231.108 218.027 239.474 226.409 239.474 236.73H193.474ZM220.77 264.027H241.165V218.027H220.77V264.027ZM237.315 218.351C232.035 219.248 227.459 221.857 224.091 225.407L257.462 257.066C254.301 260.398 249.999 262.856 245.016 263.702L237.315 218.351ZM224.513 224.973C182.713 266.773 116.058 268.901 71.3312 231.196L41.6821 266.366C104.371 319.214 198.066 316.474 257.04 257.5L224.513 224.973Z" fill="#DBEBF2" mask="url(#path-3-inside-2)"/>
<mask id="path-5-inside-3" fill="white">
<path d="M144.08 114.481C151.163 114.49 156.906 120.23 156.911 127.315C156.911 129.687 158.836 131.612 161.208 131.612C163.583 131.612 165.505 129.687 165.505 127.315C165.491 117.063 158.229 108.252 148.167 106.283V99.9553C148.167 97.5832 146.243 95.6587 143.871 95.6587C141.496 95.6587 139.574 97.5832 139.574 99.9553V106.369C128.863 108.674 121.616 118.686 122.774 129.581C123.932 140.476 133.124 148.74 144.08 148.74C151.166 148.74 156.911 154.485 156.911 161.573C156.911 168.662 151.166 174.407 144.08 174.407C136.992 174.407 131.247 168.662 131.247 161.573C131.247 159.201 129.322 157.277 126.95 157.277C124.578 157.277 122.653 159.201 122.653 161.573C122.665 171.666 129.708 180.385 139.574 182.522V190.184C139.574 192.556 141.496 194.48 143.871 194.48C146.243 194.48 148.167 192.556 148.167 190.184V182.603C159.001 180.5 166.464 170.505 165.407 159.52C164.349 148.533 155.118 140.146 144.08 140.146C139.473 140.18 135.199 137.744 132.886 133.757C130.572 129.774 130.572 124.854 132.886 120.87C135.199 116.884 139.473 114.448 144.08 114.481Z"/>
</mask>
<path d="M144.08 114.481C151.163 114.49 156.906 120.23 156.911 127.315C156.911 129.687 158.836 131.612 161.208 131.612C163.583 131.612 165.505 129.687 165.505 127.315C165.491 117.063 158.229 108.252 148.167 106.283V99.9553C148.167 97.5832 146.243 95.6587 143.871 95.6587C141.496 95.6587 139.574 97.5832 139.574 99.9553V106.369C128.863 108.674 121.616 118.686 122.774 129.581C123.932 140.476 133.124 148.74 144.08 148.74C151.166 148.74 156.911 154.485 156.911 161.573C156.911 168.662 151.166 174.407 144.08 174.407C136.992 174.407 131.247 168.662 131.247 161.573C131.247 159.201 129.322 157.277 126.95 157.277C124.578 157.277 122.653 159.201 122.653 161.573C122.665 171.666 129.708 180.385 139.574 182.522V190.184C139.574 192.556 141.496 194.48 143.871 194.48C146.243 194.48 148.167 192.556 148.167 190.184V182.603C159.001 180.5 166.464 170.505 165.407 159.52C164.349 148.533 155.118 140.146 144.08 140.146C139.473 140.18 135.199 137.744 132.886 133.757C130.572 129.774 130.572 124.854 132.886 120.87C135.199 116.884 139.473 114.448 144.08 114.481Z" fill="#DBEBF2"/>
<path d="M156.911 127.315H179.911V127.306L179.911 127.297L156.911 127.315ZM165.505 127.315H188.505V127.3L188.505 127.284L165.505 127.315ZM148.167 106.283H125.167V125.218L143.75 128.854L148.167 106.283ZM139.574 106.369L144.413 128.855L162.574 124.946V106.369H139.574ZM122.774 129.581L145.645 127.15V127.15L122.774 129.581ZM122.653 161.573H99.6534V161.586L99.6534 161.599L122.653 161.573ZM139.574 182.522H162.574V163.971L144.443 160.043L139.574 182.522ZM148.167 182.603L143.783 160.025L125.167 163.64V182.603H148.167ZM165.407 159.52L142.513 161.723L142.513 161.724L165.407 159.52ZM144.08 140.146V117.146H143.997L143.913 117.147L144.08 140.146ZM132.886 133.757L152.778 122.213L152.775 122.207L132.886 133.757ZM132.886 120.87L152.775 132.421L152.778 132.415L132.886 120.87ZM144.053 137.481C138.46 137.475 133.916 132.941 133.911 127.333L179.911 127.297C179.896 107.518 163.867 91.5049 144.108 91.4815L144.053 137.481ZM133.911 127.315C133.911 142.39 146.133 154.612 161.208 154.612V108.612C171.539 108.612 179.911 116.985 179.911 127.315H133.911ZM161.208 154.612C176.295 154.612 188.505 142.38 188.505 127.315H142.505C142.505 116.995 150.871 108.612 161.208 108.612V154.612ZM188.505 127.284C188.476 106.048 173.433 87.7913 152.585 83.711L143.75 128.854C143.025 128.713 142.506 128.079 142.505 127.347L188.505 127.284ZM171.167 106.283V99.9553H125.167V106.283H171.167ZM171.167 99.9553C171.167 84.8807 158.945 72.6587 143.871 72.6587V118.659C133.54 118.659 125.167 110.286 125.167 99.9553H171.167ZM143.871 72.6587C128.783 72.6587 116.574 84.8904 116.574 99.9553H162.574C162.574 110.276 154.208 118.659 143.871 118.659V72.6587ZM116.574 99.9553V106.369H162.574V99.9553H116.574ZM134.735 83.8842C112.531 88.6626 97.5011 109.42 99.9025 132.012L145.645 127.15C145.73 127.952 145.196 128.686 144.413 128.855L134.735 83.8842ZM99.9025 132.012C102.304 154.608 121.367 171.74 144.08 171.74V125.74C144.88 125.74 145.559 126.345 145.645 127.15L99.9025 132.012ZM144.08 171.74C138.46 171.74 133.911 167.184 133.911 161.573H179.911C179.911 141.786 163.872 125.74 144.08 125.74V171.74ZM133.911 161.573C133.911 155.962 138.46 151.407 144.08 151.407V197.407C163.872 197.407 179.911 181.361 179.911 161.573H133.911ZM144.08 151.407C149.695 151.407 154.247 155.959 154.247 161.573H108.247C108.247 181.364 124.29 197.407 144.08 197.407V151.407ZM154.247 161.573C154.247 146.499 142.025 134.277 126.95 134.277V180.277C116.62 180.277 108.247 171.904 108.247 161.573H154.247ZM126.95 134.277C111.875 134.277 99.6534 146.499 99.6534 161.573H145.653C145.653 171.904 137.28 180.277 126.95 180.277V134.277ZM99.6534 161.599C99.6766 182.514 114.273 200.575 134.705 205.001L144.443 160.043C145.143 160.195 145.653 160.818 145.653 161.548L99.6534 161.599ZM116.574 182.522V190.184H162.574V182.522H116.574ZM116.574 190.184C116.574 205.249 128.783 217.48 143.871 217.48V171.48C154.208 171.48 162.574 179.863 162.574 190.184H116.574ZM143.871 217.48C158.945 217.48 171.167 205.258 171.167 190.184H125.167C125.167 179.853 133.54 171.48 143.871 171.48V217.48ZM171.167 190.184V182.603H125.167V190.184H171.167ZM152.551 205.182C175.021 200.819 190.493 180.094 188.301 157.317L142.513 161.724C142.435 160.916 142.981 160.181 143.783 160.025L152.551 205.182ZM188.301 157.317C186.109 134.536 166.969 117.146 144.08 117.146V163.146C143.268 163.146 142.59 162.529 142.513 161.723L188.301 157.317ZM143.913 117.147C147.551 117.12 150.94 119.045 152.778 122.213L112.993 145.302C119.458 156.442 131.396 163.239 144.248 163.146L143.913 117.147ZM152.775 122.207C154.609 125.365 154.609 129.263 152.775 132.421L112.997 109.32C106.535 120.445 106.535 134.183 112.997 145.308L152.775 122.207ZM152.778 132.415C150.94 135.583 147.551 137.507 143.913 137.481L144.248 91.4821C131.396 91.3884 119.458 98.1855 112.993 109.326L152.778 132.415Z" fill="#DBEBF2" mask="url(#path-5-inside-3)"/>
</svg>
