<svg width="252" height="290" viewBox="0 0 252 290" fill="none" xmlns="http://www.w3.org/2000/svg">
<path d="M205.589 100.467C204.598 97.3732 201.964 95.1183 198.796 94.6509L159.584 88.8635L142.046 52.7657C140.628 49.8475 137.703 48 134.499 48C131.296 48 128.373 49.8475 126.955 52.7657L109.417 88.8635L70.2049 94.6509C67.0343 95.1183 64.4028 97.3732 63.4124 100.467C62.422 103.563 63.2481 106.96 65.54 109.231L93.9152 137.331L87.2169 177.006C86.6757 180.213 87.9728 183.454 90.5649 185.366C93.1549 187.278 96.5906 187.53 99.4259 186.016L134.499 167.285L169.573 186.016C170.804 186.675 172.15 187 173.488 187C173.499 187 173.51 187 173.521 187C178.158 186.987 181.913 183.165 181.913 178.452C181.913 177.796 181.841 177.157 181.703 176.543L175.084 137.331L203.459 109.231C205.753 106.96 206.577 103.563 205.589 100.467ZM160.169 128.224C158.186 130.188 157.281 133.017 157.75 135.79L162.314 162.826L138.415 150.061C137.188 149.406 135.845 149.079 134.499 149.079C133.156 149.079 131.811 149.406 130.584 150.061L106.685 162.826L111.249 135.79C111.718 133.017 110.813 130.188 108.83 128.224L89.4957 109.079L116.214 105.135C118.955 104.73 121.324 102.983 122.551 100.458L134.499 75.8619L146.45 100.458C147.677 102.983 150.046 104.73 152.787 105.135L179.505 109.079L160.169 128.224Z" fill="#4A9ABE" fill-opacity="0.2"/>
<path d="M134.355 0C69.9651 0 17.4908 52.0164 16.719 116.257L2.71356 157.125C-1.13223 168.351 -0.880125 178.232 3.40575 184.237C5.97551 187.834 9.94072 189.897 14.2885 189.897H16.7101V204.152C16.7101 221.381 30.7222 235.397 47.9431 235.397C55.8005 235.397 62.1917 241.794 62.1917 249.652V258.753C62.1917 275.981 76.2016 290 93.4225 290H157.096C174.317 290 188.329 275.981 188.329 258.753V222.286C206.366 212.96 221.687 199.136 232.866 182.047C245.383 162.91 252 140.661 252 117.697C252 52.7997 199.225 0 134.355 0ZM176.292 209.258C173.275 210.643 171.342 213.661 171.342 216.98V258.753C171.342 266.614 164.951 273.008 157.096 273.008H93.4225C85.5672 273.008 79.176 266.614 79.176 258.753V249.652C79.176 232.423 65.164 218.407 47.9431 218.407C40.0856 218.407 33.6944 212.011 33.6944 204.152V181.4C33.6944 176.71 29.8928 172.904 25.2023 172.904H17.0308C16.887 171.008 17.0905 167.57 18.7801 162.636L33.2366 120.454C33.5396 119.567 33.6944 118.636 33.6944 117.7C33.6944 62.1697 78.8509 16.9922 134.355 16.9922C189.859 16.9922 235.016 62.1697 235.016 117.7C235.016 156.934 211.965 192.875 176.292 209.258Z" fill="#4A9ABE" fill-opacity="0.2"/>
</svg>
