<svg width="327" height="264" viewBox="0 0 327 264" fill="none" xmlns="http://www.w3.org/2000/svg">
<path d="M260.82 50.3388C263.313 47.8415 263.313 43.7974 260.82 41.3076C258.323 38.8102 254.281 38.8102 251.789 41.3076C249.292 43.7974 249.292 47.8415 251.789 50.3388C254.281 52.8286 258.323 52.8286 260.82 50.3388Z" fill="#E1C5DC" fill-opacity="0.8"/>
<path d="M83.3393 63.5639C85.8316 61.074 85.8316 57.03 83.3393 54.5326C80.842 52.0428 76.8004 52.0428 74.308 54.5326C71.8107 57.03 71.8107 61.074 74.308 63.5639C76.8004 66.0612 80.842 66.0612 83.3393 63.5639Z" fill="#E1C5DC" fill-opacity="0.8"/>
<path d="M45.7547 100.34L64.8699 81.2171C67.3647 78.7223 67.3623 74.6807 64.8699 72.1858C62.3751 69.691 58.331 69.6935 55.8362 72.1858L36.721 91.3086C34.2287 93.8034 34.2287 97.8475 36.7235 100.34C39.2158 102.835 43.2599 102.835 45.7547 100.34Z" fill="#E1C5DC" fill-opacity="0.8"/>
<path d="M281.889 81.8184C284.383 84.3132 288.427 84.3132 290.922 81.8184C293.417 79.3261 293.417 75.282 290.922 72.7872L278.181 60.0462C275.686 57.5513 271.642 57.5513 269.148 60.0462C266.655 62.5385 266.655 66.5826 269.148 69.0774L281.889 81.8184Z" fill="#E1C5DC" fill-opacity="0.8"/>
<path d="M325.129 74.703L252.882 2.44329C250.442 0.000872433 246.5 -0.0590031 243.988 2.31107C238.377 7.59757 212.004 32.4334 211.622 32.8052C211.6 32.8276 211.575 32.8476 211.553 32.87C205.306 39.117 199.156 41.9012 191.612 41.9012C176.189 41.9012 164.373 46.2572 154.561 55.5504C146.515 47.9312 137.397 43.9919 124.671 42.6771L92.7422 10.746C90.2474 8.25122 86.2033 8.25122 83.7085 10.746L1.87114 92.5858C-0.55881 95.0133 -0.638644 98.9351 1.72893 101.462C1.77883 101.515 1.82124 101.567 1.87114 101.617C1.87114 101.617 55.1254 154.789 55.2002 154.861L52.9449 157.117C44.2131 165.848 44.2081 179.989 52.9474 188.728C57.0838 192.86 62.767 195.315 68.9841 195.252C68.9167 201.387 71.2868 207.068 75.528 211.309C79.8365 215.617 85.5945 217.903 91.5646 217.84C91.4998 223.97 93.8673 229.648 98.1085 233.889C102.245 238.021 107.926 240.476 114.145 240.413C114.078 246.548 116.448 252.229 120.689 256.47C129.403 265.184 143.581 265.184 152.298 256.47L154.559 254.21L156.819 256.47C165.533 265.184 179.711 265.184 188.428 256.47C192.659 252.239 195.034 246.568 194.975 240.426C201.074 240.488 206.758 238.141 211.011 233.887C215.427 229.471 217.603 223.651 217.543 217.85C223.735 217.915 229.393 215.505 233.589 211.309C237.838 207.063 240.203 201.372 240.133 195.252C246.068 195.312 251.839 193.057 256.172 188.726C264.907 179.992 264.907 165.853 256.172 157.117L253.919 154.864C298.449 110.384 242.119 166.759 325.129 83.7343C327.624 81.2394 327.624 77.1978 325.129 74.703ZM15.4205 97.099L88.2266 24.2954L112.763 48.8318L39.9719 121.633L15.4205 97.099ZM61.9762 179.695C58.2339 175.952 58.2339 169.893 61.9762 166.148L84.5592 143.565C88.2964 139.83 94.3713 139.833 98.106 143.565C101.856 147.317 101.856 153.367 98.106 157.117L75.5305 179.692C71.7932 183.424 65.7109 183.424 61.9762 179.695ZM84.5592 202.278C80.8145 198.531 80.8095 192.473 84.5592 188.726L107.137 166.148C110.887 162.401 116.939 162.398 120.689 166.148C124.424 169.883 124.439 175.945 120.689 179.692C120.687 179.695 120.687 179.695 120.687 179.697L98.106 202.278C94.3713 206.012 88.2939 206.012 84.5592 202.278ZM107.137 224.853C103.395 221.114 103.395 215.051 107.137 211.309L129.72 188.726C133.455 184.991 139.53 184.991 143.27 188.731C146.957 192.411 147.067 198.473 143.267 202.275C143.267 202.275 143.267 202.275 143.265 202.278L120.692 224.851C116.954 228.586 110.872 228.586 107.137 224.853ZM129.72 247.439C125.976 243.692 125.971 237.634 129.72 233.887L152.298 211.309C156.043 207.564 162.1 207.559 165.848 211.309C169.617 215.079 169.562 221.144 165.848 224.856L143.267 247.439C139.53 251.171 133.455 251.171 129.72 247.439ZM179.394 247.439C175.662 251.174 169.585 251.174 165.85 247.439L163.59 245.179L174.881 233.887C175.645 233.124 176.333 232.308 176.972 231.462L179.392 233.885C179.394 233.885 179.394 233.885 179.397 233.887L179.399 233.889C183.144 237.634 183.144 243.689 179.394 247.439ZM247.141 179.692C243.404 183.424 237.324 183.424 233.589 179.692L204.235 150.341C201.74 147.846 197.696 147.846 195.202 150.341C192.709 152.833 192.709 156.877 195.202 159.372L224.558 188.728C228.303 192.471 228.305 198.528 224.556 202.278C220.806 206.027 214.746 206.012 211.011 202.278L181.657 172.916C179.165 170.424 175.121 170.424 172.626 172.916C170.131 175.411 170.131 179.455 172.624 181.95L201.978 211.309C205.712 215.044 205.712 221.121 201.978 224.853C200.171 226.662 197.764 227.66 195.202 227.66C189.132 227.66 187.176 222.88 181.42 217.848C181.363 211.965 179.048 206.444 174.884 202.28C170.648 198.039 164.974 195.671 158.845 195.731C158.907 189.592 156.53 183.918 152.298 179.692C147.883 175.276 142.062 173.103 136.262 173.163C136.389 160.567 126.188 150.443 113.684 150.573C113.746 144.368 111.321 138.717 107.137 134.534C98.4229 125.817 84.2423 125.817 75.528 134.534L64.2315 145.83L49.0131 130.657L124.182 55.4755C133.49 56.5383 139.757 59.2152 145.502 64.5566L127.457 82.5991C117.506 92.5584 117.506 108.765 127.46 118.729C137.422 128.683 153.631 128.686 163.59 118.726L181.657 100.662C193.333 112.34 238.629 157.638 247.139 166.15C250.873 169.883 250.873 175.96 247.141 179.692ZM244.886 145.83L190.688 91.6303L195.204 87.1147C197.699 84.6199 197.699 80.5758 195.204 78.081C192.709 75.5887 188.668 75.5887 186.17 78.081L154.556 109.698C149.579 114.675 141.471 114.675 136.491 109.698C131.514 104.716 131.514 96.61 136.489 91.6303C143.04 85.0815 155.953 72.1708 162.497 65.6294C170.071 58.0551 179.053 54.6747 191.612 54.6747C200.645 54.6747 208.444 51.9603 215.751 46.2123L279.347 111.459C237.776 152.923 245.981 144.737 244.886 145.83ZM288.38 102.425L225.177 37.5802L248.234 15.8579L311.582 79.2186L288.38 102.425Z" fill="#E1C5DC" fill-opacity="0.8"/>
</svg>
