<svg width="218" height="212" viewBox="0 0 218 212" fill="none" xmlns="http://www.w3.org/2000/svg">
<path d="M217.373 80.022C215.863 75.303 211.848 71.8639 207.018 71.151L147.239 62.3242L120.503 7.26855C118.342 2.81779 113.883 0 108.999 0C104.116 0 99.6595 2.81779 97.4983 7.26855L70.7623 62.3242L10.9837 71.151C6.15026 71.8639 2.13852 75.303 0.62869 80.022C-0.881141 84.7443 0.378165 89.925 3.87215 93.3878L47.1295 136.245L36.9181 196.757C36.093 201.649 38.0705 206.592 42.0221 209.508C45.9704 212.424 51.208 212.808 55.5304 210.499L108.999 181.931L162.468 210.499C164.345 211.504 166.396 212 168.437 212C168.454 212 168.47 212 168.487 212C175.555 211.98 181.281 206.151 181.281 198.963C181.281 197.962 181.17 196.988 180.96 196.051L170.869 136.245L214.126 93.3878C217.623 89.925 218.879 84.7443 217.373 80.022ZM148.131 122.357C145.108 125.351 143.729 129.666 144.443 133.896L151.401 175.131L114.968 155.661C113.098 154.663 111.05 154.164 108.999 154.164C106.951 154.164 104.901 154.663 103.03 155.661L66.5969 175.131L73.5548 133.896C74.2697 129.666 72.8901 125.351 69.8671 122.357L40.392 93.157L81.124 87.1411C85.3028 86.5233 88.9137 83.8582 90.7843 80.0084L108.999 42.4944L127.217 80.0084C129.088 83.8582 132.699 86.5233 136.878 87.1411L177.61 93.157L148.131 122.357Z" fill="#4A9ABE" fill-opacity="0.2"/>
</svg>
