<svg width="239" height="245" viewBox="0 0 239 245" fill="none" xmlns="http://www.w3.org/2000/svg">
<path d="M231.013 166.561C236.034 160.157 238.442 153.292 238.135 146.221C237.827 138.434 234.343 132.337 231.474 128.597C234.804 120.297 236.085 107.232 224.968 97.088C216.821 89.6591 202.988 86.3289 183.827 87.2512C170.352 87.866 159.081 90.3764 158.62 90.4789H158.569C156.007 90.94 153.292 91.5036 150.525 92.1184C150.32 88.8394 150.884 80.6932 156.929 62.3515C164.102 40.5259 163.692 23.8237 155.597 12.6547C147.092 0.922209 133.515 0 129.519 0C125.676 0 122.141 1.58825 119.631 4.50857C113.944 11.1177 114.61 23.3114 115.327 28.9471C108.564 47.0839 89.6079 91.5548 73.5717 103.902C73.2643 104.107 73.0081 104.363 72.752 104.619C68.0385 109.589 64.862 114.969 62.7102 119.682C59.6874 118.043 56.2547 117.12 52.5659 117.12H21.3133C9.52949 117.12 0 126.701 0 138.434V221.689C0 233.472 9.58072 243.002 21.3133 243.002H52.5659C57.1257 243.002 61.3781 241.567 64.862 239.108L76.9019 240.543C78.7463 240.799 111.536 244.949 145.197 244.283C151.293 244.744 157.032 245 162.36 245C171.531 245 179.523 244.283 186.184 242.848C201.861 239.518 212.569 232.858 218 223.072C222.15 215.592 222.15 208.163 221.484 203.449C231.679 194.227 233.472 184.032 233.114 176.859C232.909 172.709 231.987 169.174 231.013 166.561ZM21.3133 229.169C17.1633 229.169 13.8331 225.787 13.8331 221.689V138.382C13.8331 134.233 17.2146 130.902 21.3133 130.902H52.5659C56.7158 130.902 60.046 134.284 60.046 138.382V221.637C60.046 225.787 56.6646 229.118 52.5659 229.118H21.3133V229.169ZM217.897 160.567C215.745 162.821 215.336 166.254 216.975 168.918C216.975 168.969 219.076 172.555 219.332 177.474C219.69 184.185 216.463 190.129 209.7 195.201C207.292 197.045 206.318 200.222 207.343 203.091C207.343 203.142 209.546 209.905 205.96 216.309C202.527 222.457 194.893 226.863 183.314 229.322C174.041 231.321 161.438 231.679 145.965 230.45C145.76 230.45 145.504 230.45 145.248 230.45C112.304 231.167 79.0025 226.863 78.6439 226.812H78.5926L73.418 226.197C73.7254 224.763 73.8791 223.226 73.8791 221.689V138.382C73.8791 136.179 73.5205 134.028 72.9057 132.029C73.8279 128.597 76.3896 120.963 82.4352 114.456C105.439 96.2171 127.931 34.6853 128.904 32.0211C129.314 30.9452 129.417 29.7668 129.212 28.5885C128.341 22.8503 128.648 15.8312 129.878 13.7307C132.593 13.7819 139.919 14.5504 144.326 20.6472C149.551 27.8712 149.346 40.7821 143.711 57.8942C135.104 83.9722 134.386 97.7028 141.2 103.748C144.582 106.771 149.09 106.925 152.369 105.747C155.495 105.029 158.466 104.414 161.284 103.953C161.489 103.902 161.745 103.851 161.95 103.8C177.679 100.367 205.857 98.2664 215.643 107.181C223.943 114.764 218.051 124.806 217.385 125.881C215.489 128.751 216.053 132.491 218.615 134.796C218.666 134.847 224.045 139.919 224.302 146.734C224.506 151.293 222.355 155.956 217.897 160.567Z" fill="#EAD6E7" fill-opacity="0.8"/>
</svg>
