<svg xmlns="http://www.w3.org/2000/svg" width="180" height="26.252" viewBox="0 0 280 46.252"><defs><style>.a{fill:#fff;}</style></defs><g transform="translate(-0.002 0.002)"><g transform="translate(0.003 36.17)"><path class="a" d="M4.7,60.342H4.087a.666.666,0,0,1-.3-.058.37.37,0,0,1-.165-.234l-.121-.4a4.876,4.876,0,0,1-.42.338,2.57,2.57,0,0,1-.424.245,2.166,2.166,0,0,1-.466.148,2.782,2.782,0,0,1-.549.05,2.154,2.154,0,0,1-.659-.1,1.409,1.409,0,0,1-.519-.29,1.306,1.306,0,0,1-.338-.479A1.712,1.712,0,0,1,0,58.9a1.324,1.324,0,0,1,.168-.631,1.578,1.578,0,0,1,.557-.561,3.542,3.542,0,0,1,1.038-.416,6.611,6.611,0,0,1,1.609-.166V56.79a1.262,1.262,0,0,0-.239-.844.875.875,0,0,0-.695-.274,1.682,1.682,0,0,0-.549.077,2.127,2.127,0,0,0-.382.173q-.163.1-.3.173a.615.615,0,0,1-.3.077A.392.392,0,0,1,.674,56.1a.56.56,0,0,1-.16-.175l-.247-.434A3.349,3.349,0,0,1,2.612,54.6a2.255,2.255,0,0,1,.881.162,1.869,1.869,0,0,1,.656.45,1.936,1.936,0,0,1,.409.688,2.651,2.651,0,0,1,.141.879ZM2.06,59.494a1.792,1.792,0,0,0,.385-.038,1.422,1.422,0,0,0,.331-.114,1.752,1.752,0,0,0,.3-.186,2.779,2.779,0,0,0,.294-.262V57.95a5.522,5.522,0,0,0-.99.075,2.611,2.611,0,0,0-.64.191.82.82,0,0,0-.343.271.681.681,0,0,0,.11.848.912.912,0,0,0,.552.155" transform="translate(-0.004 -52.178)"/><path class="a" d="M17.11,55.814a.36.36,0,0,1-.115.123.294.294,0,0,1-.154.036.487.487,0,0,1-.212-.055q-.13-.064-.262-.124a2.471,2.471,0,0,0-.338-.123,1.619,1.619,0,0,0-.447-.055,1.042,1.042,0,0,0-.631.17.529.529,0,0,0-.23.445.424.424,0,0,0,.118.3,1.06,1.06,0,0,0,.313.217,3.106,3.106,0,0,0,.442.168q.247.071.505.163a5.23,5.23,0,0,1,.5.2,1.752,1.752,0,0,1,.442.283,1.329,1.329,0,0,1,.313.415,1.313,1.313,0,0,1,.118.582,1.866,1.866,0,0,1-.148.75,1.645,1.645,0,0,1-.434.593,2.016,2.016,0,0,1-.707.389,3.017,3.017,0,0,1-.964.141,3.085,3.085,0,0,1-.565-.052,3.3,3.3,0,0,1-.533-.146,2.905,2.905,0,0,1-.473-.219,2.291,2.291,0,0,1-.382-.275l.313-.516a.445.445,0,0,1,.141-.141.4.4,0,0,1,.212-.049.436.436,0,0,1,.239.071q.112.071.261.153a2.381,2.381,0,0,0,.348.154,1.548,1.548,0,0,0,.508.071,1.305,1.305,0,0,0,.415-.058.861.861,0,0,0,.283-.151.56.56,0,0,0,.165-.216.654.654,0,0,0,.052-.256.454.454,0,0,0-.118-.323,1.033,1.033,0,0,0-.313-.22,3.007,3.007,0,0,0-.445-.168q-.256-.077-.51-.163a4.8,4.8,0,0,1-.511-.206,1.741,1.741,0,0,1-.445-.3,1.343,1.343,0,0,1-.313-.445,1.544,1.544,0,0,1-.118-.636,1.626,1.626,0,0,1,.138-.659,1.537,1.537,0,0,1,.4-.546,1.994,1.994,0,0,1,.664-.374,2.762,2.762,0,0,1,.919-.141,2.812,2.812,0,0,1,1.06.192,2.4,2.4,0,0,1,.8.505Z" transform="translate(-3.893 -52.186)"/><path class="a" d="M29.339,55.814a.353.353,0,0,1-.115.123.293.293,0,0,1-.154.036.488.488,0,0,1-.212-.055q-.13-.064-.261-.124a2.48,2.48,0,0,0-.338-.123,1.625,1.625,0,0,0-.448-.055,1.041,1.041,0,0,0-.631.17.528.528,0,0,0-.23.445.424.424,0,0,0,.118.3,1.06,1.06,0,0,0,.313.217,3.1,3.1,0,0,0,.442.168q.247.071.505.163a5.267,5.267,0,0,1,.505.2,1.755,1.755,0,0,1,.442.283,1.326,1.326,0,0,1,.313.415,1.312,1.312,0,0,1,.118.582,1.867,1.867,0,0,1-.148.75,1.647,1.647,0,0,1-.434.593,2.02,2.02,0,0,1-.707.389,3.019,3.019,0,0,1-.964.141,3.092,3.092,0,0,1-.565-.052,3.3,3.3,0,0,1-.532-.146,2.914,2.914,0,0,1-.473-.219,2.287,2.287,0,0,1-.382-.275l.313-.516a.44.44,0,0,1,.141-.141.4.4,0,0,1,.212-.049.436.436,0,0,1,.239.071q.112.071.261.153a2.377,2.377,0,0,0,.348.154,1.548,1.548,0,0,0,.508.071,1.3,1.3,0,0,0,.415-.058.866.866,0,0,0,.283-.151.565.565,0,0,0,.165-.216.652.652,0,0,0,.052-.256.454.454,0,0,0-.118-.323,1.027,1.027,0,0,0-.313-.22,3.014,3.014,0,0,0-.445-.168q-.257-.077-.511-.163a4.811,4.811,0,0,1-.51-.206,1.749,1.749,0,0,1-.445-.3,1.343,1.343,0,0,1-.312-.445,1.543,1.543,0,0,1-.119-.636,1.626,1.626,0,0,1,.138-.659,1.536,1.536,0,0,1,.4-.546,1.992,1.992,0,0,1,.664-.374,2.763,2.763,0,0,1,.919-.141,2.811,2.811,0,0,1,1.06.192,2.4,2.4,0,0,1,.8.505Z" transform="translate(-7.479 -52.186)"/><path class="a" d="M40.673,54.629a3.071,3.071,0,0,1,1.144.2,2.464,2.464,0,0,1,.876.576,2.565,2.565,0,0,1,.561.912,3.778,3.778,0,0,1,0,2.411,2.616,2.616,0,0,1-.561.919,2.425,2.425,0,0,1-.876.582,3.338,3.338,0,0,1-2.293,0,2.445,2.445,0,0,1-.881-.582,2.615,2.615,0,0,1-.565-.919,3.724,3.724,0,0,1,0-2.411,2.562,2.562,0,0,1,.565-.912,2.485,2.485,0,0,1,.881-.576,3.1,3.1,0,0,1,1.149-.2m0,4.761a1.194,1.194,0,0,0,1.04-.472,2.371,2.371,0,0,0,.338-1.385,2.4,2.4,0,0,0-.338-1.39,1.19,1.19,0,0,0-1.04-.478,1.2,1.2,0,0,0-1.055.481,2.978,2.978,0,0,0,0,2.768,1.209,1.209,0,0,0,1.055.475" transform="translate(-11.108 -52.187)"/><path class="a" d="M56.5,55.91a.682.682,0,0,1-.118.121.274.274,0,0,1-.168.044.37.37,0,0,1-.2-.063q-.1-.063-.236-.141a1.775,1.775,0,0,0-.327-.141,1.513,1.513,0,0,0-.469-.063,1.437,1.437,0,0,0-.626.129,1.187,1.187,0,0,0-.447.37,1.669,1.669,0,0,0-.266.585,3.123,3.123,0,0,0-.088.777,3.048,3.048,0,0,0,.1.8,1.716,1.716,0,0,0,.278.591,1.2,1.2,0,0,0,.439.363,1.343,1.343,0,0,0,.582.123,1.441,1.441,0,0,0,.524-.079,1.651,1.651,0,0,0,.338-.176q.137-.1.239-.176a.363.363,0,0,1,.228-.079.276.276,0,0,1,.247.126l.39.495a2.474,2.474,0,0,1-.489.443,2.648,2.648,0,0,1-.546.283,2.753,2.753,0,0,1-.585.151,4.186,4.186,0,0,1-.6.044,2.5,2.5,0,0,1-.983-.194,2.293,2.293,0,0,1-.8-.565,2.729,2.729,0,0,1-.544-.915,3.518,3.518,0,0,1-.2-1.233,3.579,3.579,0,0,1,.179-1.15,2.6,2.6,0,0,1,.524-.919,2.4,2.4,0,0,1,.857-.606,2.953,2.953,0,0,1,1.175-.22,2.785,2.785,0,0,1,1.107.2,2.7,2.7,0,0,1,.854.582Z" transform="translate(-15.297 -52.188)"/><path class="a" d="M67.161,52.068a.772.772,0,0,1-.071.329.891.891,0,0,1-.467.453.848.848,0,0,1-.341.071.819.819,0,0,1-.332-.071.878.878,0,0,1-.272-.184.9.9,0,0,1-.184-.269.8.8,0,0,1-.071-.329.875.875,0,0,1,.527-.8.818.818,0,0,1,.332-.071.848.848,0,0,1,.341.071.908.908,0,0,1,.278.184.892.892,0,0,1,.189.274.828.828,0,0,1,.071.341m-.2,7.276H65.6V53.71h1.356Z" transform="translate(-19.184 -51.181)"/><path class="a" d="M79.5,60.343h-.609a.667.667,0,0,1-.3-.058.372.372,0,0,1-.165-.234l-.121-.4a4.81,4.81,0,0,1-.421.338,2.524,2.524,0,0,1-.424.245,2.164,2.164,0,0,1-.466.148,2.779,2.779,0,0,1-.549.05,2.154,2.154,0,0,1-.659-.1,1.414,1.414,0,0,1-.519-.29,1.309,1.309,0,0,1-.338-.479,1.711,1.711,0,0,1-.121-.667,1.325,1.325,0,0,1,.167-.631,1.58,1.58,0,0,1,.558-.561,3.54,3.54,0,0,1,1.038-.416,6.615,6.615,0,0,1,1.609-.166v-.332a1.263,1.263,0,0,0-.239-.844.876.876,0,0,0-.695-.274,1.682,1.682,0,0,0-.549.077,2.132,2.132,0,0,0-.382.173q-.163.1-.3.173a.614.614,0,0,1-.3.077.392.392,0,0,1-.236-.071.556.556,0,0,1-.159-.175l-.247-.434a3.35,3.35,0,0,1,2.345-.89,2.251,2.251,0,0,1,.881.162,1.866,1.866,0,0,1,.657.45,1.936,1.936,0,0,1,.409.688,2.648,2.648,0,0,1,.141.879ZM76.865,59.5a1.79,1.79,0,0,0,.385-.038,1.423,1.423,0,0,0,.332-.114,1.754,1.754,0,0,0,.3-.186,2.716,2.716,0,0,0,.294-.262v-.944a5.522,5.522,0,0,0-.99.075,2.619,2.619,0,0,0-.64.191.819.819,0,0,0-.343.271.681.681,0,0,0,.11.848.912.912,0,0,0,.552.155" transform="translate(-21.935 -52.18)"/><path class="a" d="M90.118,61.6a.328.328,0,0,1,.079.011l.093.028a.8.8,0,0,0,.115.027.862.862,0,0,0,.151.011.445.445,0,0,0,.271-.071.2.2,0,0,0,.09-.167q0-.159-.2-.228a3.333,3.333,0,0,0-.609-.124l.212-.692a2.4,2.4,0,0,1-.821-.3,2.338,2.338,0,0,1-.662-.593,2.827,2.827,0,0,1-.439-.862,3.627,3.627,0,0,1-.159-1.112,3.576,3.576,0,0,1,.179-1.151,2.609,2.609,0,0,1,.524-.919,2.4,2.4,0,0,1,.857-.606,2.954,2.954,0,0,1,1.175-.22,2.784,2.784,0,0,1,1.107.2,2.7,2.7,0,0,1,.854.582l-.357.495a.662.662,0,0,1-.118.12.269.269,0,0,1-.168.044.37.37,0,0,1-.2-.063q-.1-.063-.237-.141a1.739,1.739,0,0,0-.327-.141,1.514,1.514,0,0,0-.469-.063,1.438,1.438,0,0,0-.626.129,1.185,1.185,0,0,0-.447.371,1.664,1.664,0,0,0-.266.585,3.147,3.147,0,0,0-.088.777,3.044,3.044,0,0,0,.1.8,1.723,1.723,0,0,0,.277.591,1.2,1.2,0,0,0,.439.363,1.339,1.339,0,0,0,.582.123,1.437,1.437,0,0,0,.524-.079,1.666,1.666,0,0,0,.338-.176q.137-.1.239-.176a.364.364,0,0,1,.228-.079.3.3,0,0,1,.247.126l.389.495a2.353,2.353,0,0,1-.848.652,3.118,3.118,0,0,1-.978.25l-.066.242a1.423,1.423,0,0,1,.686.327.679.679,0,0,1,.2.486.592.592,0,0,1-.1.329.807.807,0,0,1-.272.252,1.448,1.448,0,0,1-.424.162,2.365,2.365,0,0,1-.544.057,2.516,2.516,0,0,1-.42-.033,2.951,2.951,0,0,1-.387-.093l.127-.418a.148.148,0,0,1,.154-.126" transform="translate(-25.874 -52.185)"/><path class="a" d="M105.925,59.443h-.609a.667.667,0,0,1-.3-.058.372.372,0,0,1-.165-.234l-.121-.4a4.819,4.819,0,0,1-.42.338,2.516,2.516,0,0,1-.424.245,2.154,2.154,0,0,1-.467.148,2.776,2.776,0,0,1-.549.05,2.155,2.155,0,0,1-.659-.1,1.414,1.414,0,0,1-.52-.29,1.308,1.308,0,0,1-.338-.479,1.708,1.708,0,0,1-.121-.667,1.319,1.319,0,0,1,.168-.63,1.574,1.574,0,0,1,.558-.561,3.534,3.534,0,0,1,1.038-.416,6.619,6.619,0,0,1,1.609-.166v-.332a1.26,1.26,0,0,0-.239-.844.875.875,0,0,0-.695-.274,1.674,1.674,0,0,0-.548.078,2.12,2.12,0,0,0-.382.173q-.162.1-.3.173a.616.616,0,0,1-.3.077.391.391,0,0,1-.236-.071.551.551,0,0,1-.16-.175L101.5,54.6a3.35,3.35,0,0,1,2.345-.89,2.253,2.253,0,0,1,.881.162,1.87,1.87,0,0,1,.657.45,1.935,1.935,0,0,1,.409.688,2.647,2.647,0,0,1,.141.879Zm-1.555-7.464a.353.353,0,0,0,.258-.09.451.451,0,0,0,.094-.327h.823a1.72,1.72,0,0,1-.086.558,1.325,1.325,0,0,1-.233.429,1.006,1.006,0,0,1-.353.274,1.05,1.05,0,0,1-.454.1.949.949,0,0,1-.368-.071,3.234,3.234,0,0,1-.318-.154l-.278-.153a.5.5,0,0,0-.239-.071.329.329,0,0,0-.25.1.472.472,0,0,0-.09.327h-.84a1.722,1.722,0,0,1,.086-.558,1.279,1.279,0,0,1,.238-.428,1.086,1.086,0,0,1,.36-.276,1.009,1.009,0,0,1,.448-.1.963.963,0,0,1,.37.071,3.032,3.032,0,0,1,.322.154l.275.153a.482.482,0,0,0,.235.071M103.288,58.6a1.78,1.78,0,0,0,.384-.038,1.414,1.414,0,0,0,.332-.114,1.783,1.783,0,0,0,.3-.186A2.77,2.77,0,0,0,104.6,58v-.946a5.544,5.544,0,0,0-.99.074,2.631,2.631,0,0,0-.64.191.824.824,0,0,0-.343.271.6.6,0,0,0-.1.337.6.6,0,0,0,.212.515.913.913,0,0,0,.552.155" transform="translate(-29.682 -51.279)"/><path class="a" d="M117.443,54.629a3.075,3.075,0,0,1,1.145.2,2.467,2.467,0,0,1,.876.576,2.554,2.554,0,0,1,.56.912,3.766,3.766,0,0,1,0,2.411,2.6,2.6,0,0,1-.56.919,2.428,2.428,0,0,1-.876.582,3.338,3.338,0,0,1-2.293,0,2.444,2.444,0,0,1-.881-.582,2.616,2.616,0,0,1-.565-.919,3.723,3.723,0,0,1,0-2.411,2.566,2.566,0,0,1,.565-.912,2.485,2.485,0,0,1,.881-.576,3.094,3.094,0,0,1,1.148-.2m0,4.761a1.192,1.192,0,0,0,1.04-.472,2.365,2.365,0,0,0,.339-1.385,2.394,2.394,0,0,0-.339-1.39,1.188,1.188,0,0,0-1.04-.478,1.2,1.2,0,0,0-1.055.481,2.983,2.983,0,0,0,0,2.768,1.211,1.211,0,0,0,1.055.475" transform="translate(-33.615 -52.187)"/><path class="a" d="M137.933,59.339v-8.16h1.356V54.4a2.673,2.673,0,0,1,.758-.565,2.185,2.185,0,0,1,.99-.212,1.828,1.828,0,0,1,1.5.741,2.645,2.645,0,0,1,.428.895,4.5,4.5,0,0,1,.151,1.224,3.861,3.861,0,0,1-.17,1.17,2.861,2.861,0,0,1-.486.933,2.191,2.191,0,0,1-1.767.84,2,2,0,0,1-.472-.052,1.629,1.629,0,0,1-.39-.146A1.67,1.67,0,0,1,139.5,59a2.771,2.771,0,0,1-.288-.3l-.061.38a.342.342,0,0,1-.112.2.353.353,0,0,1-.217.06Zm2.636-4.665a1.386,1.386,0,0,0-.722.179,2.092,2.092,0,0,0-.557.5v2.526a1.3,1.3,0,0,0,.5.4,1.533,1.533,0,0,0,.59.112,1.293,1.293,0,0,0,.555-.116,1.083,1.083,0,0,0,.42-.353,1.734,1.734,0,0,0,.266-.6,3.4,3.4,0,0,0,.093-.848,3.805,3.805,0,0,0-.079-.838,1.616,1.616,0,0,0-.228-.558.9.9,0,0,0-.36-.313,1.125,1.125,0,0,0-.481-.1" transform="translate(-40.442 -51.175)"/><path class="a" d="M152.205,60.344V54.71h.8a.432.432,0,0,1,.291.076.448.448,0,0,1,.11.264l.082.681a2.671,2.671,0,0,1,.707-.824,1.49,1.49,0,0,1,.911-.3,1.177,1.177,0,0,1,.692.192l-.175,1.016a.212.212,0,0,1-.071.141A.243.243,0,0,1,155.4,56a.942.942,0,0,1-.225-.037,1.494,1.494,0,0,0-.379-.04,1.154,1.154,0,0,0-.724.233,1.8,1.8,0,0,0-.511.684v3.509Z" transform="translate(-44.627 -52.18)"/><path class="a" d="M168.066,60.343h-.609a.665.665,0,0,1-.3-.058.369.369,0,0,1-.165-.234l-.121-.4a4.864,4.864,0,0,1-.421.338,2.551,2.551,0,0,1-.424.245,2.166,2.166,0,0,1-.467.148,2.781,2.781,0,0,1-.549.05,2.156,2.156,0,0,1-.659-.1,1.419,1.419,0,0,1-.519-.29,1.311,1.311,0,0,1-.337-.479,1.709,1.709,0,0,1-.121-.667,1.323,1.323,0,0,1,.168-.631,1.572,1.572,0,0,1,.558-.561,3.535,3.535,0,0,1,1.038-.416,6.613,6.613,0,0,1,1.609-.166v-.332a1.265,1.265,0,0,0-.239-.844.876.876,0,0,0-.695-.274,1.683,1.683,0,0,0-.549.077,2.134,2.134,0,0,0-.382.173q-.163.1-.3.173a.615.615,0,0,1-.3.077.392.392,0,0,1-.236-.071.559.559,0,0,1-.159-.175l-.247-.434a3.35,3.35,0,0,1,2.345-.89,2.253,2.253,0,0,1,.881.162,1.869,1.869,0,0,1,.657.45,1.942,1.942,0,0,1,.409.688,2.651,2.651,0,0,1,.141.879Zm-2.636-.848a1.791,1.791,0,0,0,.385-.038,1.425,1.425,0,0,0,.332-.114,1.752,1.752,0,0,0,.3-.186,2.789,2.789,0,0,0,.294-.262v-.944a5.516,5.516,0,0,0-.99.075,2.621,2.621,0,0,0-.64.191.817.817,0,0,0-.343.271.681.681,0,0,0,.11.848.912.912,0,0,0,.552.155" transform="translate(-47.901 -52.18)"/><path class="a" d="M180.479,55.814a.36.36,0,0,1-.115.123.294.294,0,0,1-.154.036.485.485,0,0,1-.212-.055c-.076-.037-.163-.078-.262-.124a2.458,2.458,0,0,0-.338-.123,1.615,1.615,0,0,0-.447-.055,1.042,1.042,0,0,0-.631.17.528.528,0,0,0-.23.445.424.424,0,0,0,.117.3,1.068,1.068,0,0,0,.314.217,3.113,3.113,0,0,0,.442.168q.247.071.5.163a5.213,5.213,0,0,1,.505.2,1.756,1.756,0,0,1,.442.283,1.258,1.258,0,0,1,.431,1,1.872,1.872,0,0,1-.148.75,1.647,1.647,0,0,1-.434.593,2.016,2.016,0,0,1-.707.389,3.018,3.018,0,0,1-.964.141,3.086,3.086,0,0,1-.565-.052,3.316,3.316,0,0,1-.533-.146,2.916,2.916,0,0,1-.471-.219,2.276,2.276,0,0,1-.382-.275l.313-.516a.449.449,0,0,1,.141-.141.4.4,0,0,1,.212-.049.439.439,0,0,1,.24.071q.112.071.261.153a2.37,2.37,0,0,0,.348.154,1.55,1.55,0,0,0,.508.071,1.3,1.3,0,0,0,.415-.058.86.86,0,0,0,.283-.151.559.559,0,0,0,.165-.216.651.651,0,0,0,.052-.256.453.453,0,0,0-.118-.323,1.028,1.028,0,0,0-.313-.22,3.012,3.012,0,0,0-.445-.168q-.256-.077-.51-.163a4.8,4.8,0,0,1-.511-.206,1.75,1.75,0,0,1-.445-.3,1.348,1.348,0,0,1-.312-.445,1.545,1.545,0,0,1-.119-.636,1.616,1.616,0,0,1,.138-.659,1.535,1.535,0,0,1,.4-.546,2,2,0,0,1,.664-.374,2.764,2.764,0,0,1,.919-.141,2.815,2.815,0,0,1,1.06.192,2.4,2.4,0,0,1,.8.505Z" transform="translate(-51.791 -52.186)"/><path class="a" d="M191.179,52.068a.778.778,0,0,1-.071.329.893.893,0,0,1-.466.453.854.854,0,0,1-.34.071.82.82,0,0,1-.333-.071.881.881,0,0,1-.272-.184.9.9,0,0,1-.184-.269.789.789,0,0,1-.071-.329.847.847,0,0,1,.071-.341.857.857,0,0,1,.456-.458.819.819,0,0,1,.333-.071.853.853,0,0,1,.34.071.9.9,0,0,1,.277.184.886.886,0,0,1,.189.274.832.832,0,0,1,.071.341m-.2,7.276h-1.356V53.71h1.356Z" transform="translate(-55.544 -51.181)"/><path class="a" d="M200.7,51.178v8.161h-1.356V51.178Z" transform="translate(-58.447 -51.175)"/><path class="a" d="M211.037,54.626a2.751,2.751,0,0,1,.98.17,2.153,2.153,0,0,1,.772.495,2.276,2.276,0,0,1,.505.8,3.032,3.032,0,0,1,.181,1.085,1.886,1.886,0,0,1-.014.255.411.411,0,0,1-.05.159.2.2,0,0,1-.1.083.41.41,0,0,1-.153.024h-3.482a1.942,1.942,0,0,0,.466,1.272,1.455,1.455,0,0,0,1.076.406,1.874,1.874,0,0,0,.565-.077,2.629,2.629,0,0,0,.417-.17q.179-.093.313-.17a.527.527,0,0,1,.261-.076.3.3,0,0,1,.141.033.324.324,0,0,1,.1.093l.4.495a2.257,2.257,0,0,1-.505.443,2.815,2.815,0,0,1-.585.283,3.184,3.184,0,0,1-.621.151,4.442,4.442,0,0,1-.612.044,3.006,3.006,0,0,1-1.093-.194,2.447,2.447,0,0,1-.879-.577,2.692,2.692,0,0,1-.587-.944,3.652,3.652,0,0,1-.212-1.3,3.118,3.118,0,0,1,.187-1.085,2.606,2.606,0,0,1,.536-.884,2.523,2.523,0,0,1,.848-.6,2.812,2.812,0,0,1,1.131-.219m.028.972a1.252,1.252,0,0,0-.928.335,1.65,1.65,0,0,0-.428.949h2.548a1.68,1.68,0,0,0-.071-.495,1.139,1.139,0,0,0-.219-.409,1.044,1.044,0,0,0-.373-.278,1.272,1.272,0,0,0-.528-.1" transform="translate(-61.08 -52.184)"/><path class="a" d="M224.223,52.068a.778.778,0,0,1-.071.329.893.893,0,0,1-.467.453.854.854,0,0,1-.341.071.821.821,0,0,1-.332-.071.878.878,0,0,1-.271-.184.906.906,0,0,1-.184-.269.793.793,0,0,1-.071-.329.875.875,0,0,1,.527-.8.82.82,0,0,1,.332-.071.854.854,0,0,1,.341.071.9.9,0,0,1,.277.184.886.886,0,0,1,.189.274.832.832,0,0,1,.071.341m-.2,7.276h-1.358V53.71h1.356Z" transform="translate(-65.232 -51.181)"/><path class="a" d="M232.261,60.344V54.71h.8a.432.432,0,0,1,.291.076.448.448,0,0,1,.11.264l.082.681a2.667,2.667,0,0,1,.707-.824,1.49,1.49,0,0,1,.911-.3,1.18,1.18,0,0,1,.693.192l-.176,1.016a.212.212,0,0,1-.071.141.242.242,0,0,1-.148.041.945.945,0,0,1-.225-.037,1.485,1.485,0,0,0-.379-.04,1.156,1.156,0,0,0-.725.233,1.8,1.8,0,0,0-.51.684v3.509Z" transform="translate(-68.098 -52.18)"/><path class="a" d="M248.122,60.343h-.61a.666.666,0,0,1-.3-.058.372.372,0,0,1-.164-.234l-.121-.4a4.825,4.825,0,0,1-.42.338,2.545,2.545,0,0,1-.424.245,2.156,2.156,0,0,1-.466.148,2.78,2.78,0,0,1-.549.05,2.156,2.156,0,0,1-.659-.1,1.414,1.414,0,0,1-.519-.29,1.311,1.311,0,0,1-.339-.479,1.713,1.713,0,0,1-.121-.667,1.319,1.319,0,0,1,.168-.631,1.575,1.575,0,0,1,.558-.561,3.534,3.534,0,0,1,1.038-.416,6.619,6.619,0,0,1,1.609-.166v-.332a1.261,1.261,0,0,0-.238-.844.876.876,0,0,0-.7-.274,1.683,1.683,0,0,0-.549.077,2.16,2.16,0,0,0-.382.173q-.162.1-.3.173a.614.614,0,0,1-.3.077.394.394,0,0,1-.236-.071.557.557,0,0,1-.159-.175l-.247-.434a3.349,3.349,0,0,1,2.345-.89,2.254,2.254,0,0,1,.882.162,1.863,1.863,0,0,1,.656.45,1.939,1.939,0,0,1,.409.688,2.659,2.659,0,0,1,.141.879Zm-2.636-.848a1.785,1.785,0,0,0,.385-.038,1.414,1.414,0,0,0,.332-.114,1.779,1.779,0,0,0,.3-.186,2.767,2.767,0,0,0,.293-.262v-.944a5.523,5.523,0,0,0-.99.075,2.629,2.629,0,0,0-.64.191.816.816,0,0,0-.343.271.681.681,0,0,0,.11.848.912.912,0,0,0,.552.155" transform="translate(-71.372 -52.18)"/><path class="a" d="M269.635,59.338a.334.334,0,0,1-.346-.247l-.11-.544a3.48,3.48,0,0,1-.368.353,2.335,2.335,0,0,1-.415.275,2.182,2.182,0,0,1-.478.178,2.3,2.3,0,0,1-.553.063,1.87,1.87,0,0,1-.848-.192,1.9,1.9,0,0,1-.662-.557,2.671,2.671,0,0,1-.428-.9,4.573,4.573,0,0,1-.151-1.23,3.831,3.831,0,0,1,.17-1.164,2.852,2.852,0,0,1,.488-.934,2.3,2.3,0,0,1,.763-.618,2.216,2.216,0,0,1,1-.222,1.961,1.961,0,0,1,.807.151,2.121,2.121,0,0,1,.6.4V51.174h1.356v8.161Zm-1.807-.994a1.387,1.387,0,0,0,.72-.176,2.151,2.151,0,0,0,.561-.5V55.142a1.343,1.343,0,0,0-.5-.394,1.471,1.471,0,0,0-.584-.115,1.3,1.3,0,0,0-.558.115,1.09,1.09,0,0,0-.424.348,1.7,1.7,0,0,0-.265.593,3.4,3.4,0,0,0-.094.848,3.749,3.749,0,0,0,.081.838,1.638,1.638,0,0,0,.228.56.869.869,0,0,0,.362.314,1.164,1.164,0,0,0,.478.1" transform="translate(-77.778 -51.174)"/><path class="a" d="M282.3,54.626a2.751,2.751,0,0,1,.98.17,2.149,2.149,0,0,1,.772.495,2.27,2.27,0,0,1,.505.8,3.022,3.022,0,0,1,.182,1.085,1.991,1.991,0,0,1-.013.255.426.426,0,0,1-.049.159.2.2,0,0,1-.1.083.412.412,0,0,1-.154.024h-3.482a1.941,1.941,0,0,0,.467,1.272,1.455,1.455,0,0,0,1.077.406,1.879,1.879,0,0,0,.565-.077,2.655,2.655,0,0,0,.417-.17q.178-.093.312-.17a.528.528,0,0,1,.261-.076.3.3,0,0,1,.141.033.329.329,0,0,1,.1.093l.395.495a2.242,2.242,0,0,1-.5.443,2.827,2.827,0,0,1-.585.283,3.187,3.187,0,0,1-.621.151,4.458,4.458,0,0,1-.612.044,3.007,3.007,0,0,1-1.093-.194,2.444,2.444,0,0,1-.879-.577,2.7,2.7,0,0,1-.588-.944,3.663,3.663,0,0,1-.212-1.3,3.115,3.115,0,0,1,.187-1.085,2.605,2.605,0,0,1,.535-.884,2.526,2.526,0,0,1,.852-.6,2.808,2.808,0,0,1,1.131-.219m.028.972a1.252,1.252,0,0,0-.928.335,1.651,1.651,0,0,0-.428.949h2.548a1.7,1.7,0,0,0-.071-.495,1.138,1.138,0,0,0-.22-.409,1.037,1.037,0,0,0-.374-.278,1.272,1.272,0,0,0-.527-.1" transform="translate(-81.974 -52.184)"/><path class="a" d="M302.3,59.375V54.762l-.489-.077a.517.517,0,0,1-.255-.11.287.287,0,0,1-.1-.23v-.556h.84v-.417a2.447,2.447,0,0,1,.146-.867,1.793,1.793,0,0,1,.418-.654,1.816,1.816,0,0,1,.662-.412,2.555,2.555,0,0,1,.879-.141,2.429,2.429,0,0,1,.725.1l-.028.681a.2.2,0,0,1-.148.2,1.21,1.21,0,0,1-.319.038,1.643,1.643,0,0,0-.431.052.733.733,0,0,0-.321.182.826.826,0,0,0-.2.34,1.733,1.733,0,0,0-.071.524v.373h1.467v.965H303.66v4.618Z" transform="translate(-88.387 -51.21)"/><path class="a" d="M316.252,52.068a.773.773,0,0,1-.071.329.892.892,0,0,1-.467.453.848.848,0,0,1-.34.071.819.819,0,0,1-.332-.071.871.871,0,0,1-.271-.184.888.888,0,0,1-.184-.269.788.788,0,0,1-.071-.329.849.849,0,0,1,.071-.341.861.861,0,0,1,.456-.458.818.818,0,0,1,.332-.071.848.848,0,0,1,.34.071.905.905,0,0,1,.278.184.887.887,0,0,1,.189.274.829.829,0,0,1,.071.341m-.2,7.276h-1.356V53.71h1.356Z" transform="translate(-92.214 -51.181)"/><path class="a" d="M324.291,60.351V54.716h.829a.334.334,0,0,1,.346.247l.093.445a3.124,3.124,0,0,1,.36-.318,2.474,2.474,0,0,1,.4-.247,2.06,2.06,0,0,1,.453-.159,2.4,2.4,0,0,1,.527-.054,2.013,2.013,0,0,1,.819.156,1.619,1.619,0,0,1,.6.439,1.927,1.927,0,0,1,.363.675,2.879,2.879,0,0,1,.124.865v3.586h-1.356V56.764a1.2,1.2,0,0,0-.239-.8.888.888,0,0,0-.717-.283,1.421,1.421,0,0,0-.659.159,2.383,2.383,0,0,0-.582.434v4.075Z" transform="translate(-95.08 -52.187)"/><path class="a" d="M340.2,59.762a1.484,1.484,0,0,1-1.126-.414,1.592,1.592,0,0,1-.4-1.145V55.056h-.572a.262.262,0,0,1-.269-.283v-.538l.906-.148.283-1.537a.274.274,0,0,1,.1-.17.324.324,0,0,1,.2-.06h.7v1.773h1.484v.967h-1.484v3.053a.6.6,0,0,0,.132.412.449.449,0,0,0,.353.148.636.636,0,0,0,.212-.03,1.088,1.088,0,0,0,.148-.063c.042-.022.08-.043.113-.064a.187.187,0,0,1,.1-.03.156.156,0,0,1,.1.03.478.478,0,0,1,.082.09l.406.659a2.059,2.059,0,0,1-.681.374,2.533,2.533,0,0,1-.8.127" transform="translate(-99.052 -51.51)"/><path class="a" d="M352.185,54.626a2.749,2.749,0,0,1,.98.17,2.151,2.151,0,0,1,.772.495,2.27,2.27,0,0,1,.505.8,3.026,3.026,0,0,1,.181,1.085,1.948,1.948,0,0,1-.013.255.423.423,0,0,1-.05.159.2.2,0,0,1-.1.083.411.411,0,0,1-.153.024h-3.482a1.94,1.94,0,0,0,.466,1.272,1.455,1.455,0,0,0,1.076.406,1.874,1.874,0,0,0,.565-.077,2.664,2.664,0,0,0,.418-.17q.178-.093.313-.17a.527.527,0,0,1,.261-.076.3.3,0,0,1,.141.033.328.328,0,0,1,.1.093l.4.495a2.246,2.246,0,0,1-.505.443,2.811,2.811,0,0,1-.585.283,3.18,3.18,0,0,1-.62.151,4.459,4.459,0,0,1-.613.044,3.008,3.008,0,0,1-1.093-.194,2.443,2.443,0,0,1-.879-.577,2.686,2.686,0,0,1-.587-.944,3.656,3.656,0,0,1-.212-1.3,3.1,3.1,0,0,1,.187-1.085,2.612,2.612,0,0,1,.535-.884,2.53,2.53,0,0,1,.852-.6,2.811,2.811,0,0,1,1.131-.219m.028.972a1.254,1.254,0,0,0-.928.335,1.651,1.651,0,0,0-.428.949H353.4a1.7,1.7,0,0,0-.071-.495,1.136,1.136,0,0,0-.219-.409,1.035,1.035,0,0,0-.374-.278,1.267,1.267,0,0,0-.527-.1" transform="translate(-102.463 -52.184)"/><path class="a" d="M367.563,55.91a.671.671,0,0,1-.118.121.274.274,0,0,1-.167.044.37.37,0,0,1-.2-.063c-.066-.042-.141-.09-.236-.141a1.77,1.77,0,0,0-.327-.141,1.516,1.516,0,0,0-.47-.063,1.435,1.435,0,0,0-.626.129,1.189,1.189,0,0,0-.448.37,1.67,1.67,0,0,0-.266.585,3.116,3.116,0,0,0-.088.777,3.038,3.038,0,0,0,.1.8,1.713,1.713,0,0,0,.278.591,1.192,1.192,0,0,0,.439.363,1.343,1.343,0,0,0,.582.123,1.441,1.441,0,0,0,.524-.079,1.643,1.643,0,0,0,.338-.176q.137-.1.24-.176a.362.362,0,0,1,.228-.079.276.276,0,0,1,.247.126l.39.495a2.465,2.465,0,0,1-.489.443,2.644,2.644,0,0,1-.546.283,2.746,2.746,0,0,1-.585.151,4.178,4.178,0,0,1-.6.044,2.5,2.5,0,0,1-.983-.194,2.288,2.288,0,0,1-.8-.565,2.728,2.728,0,0,1-.544-.915,3.52,3.52,0,0,1-.2-1.233,3.578,3.578,0,0,1,.179-1.15,2.6,2.6,0,0,1,.524-.919,2.4,2.4,0,0,1,.857-.606,2.956,2.956,0,0,1,1.175-.22,2.785,2.785,0,0,1,1.107.2,2.708,2.708,0,0,1,.854.582Z" transform="translate(-106.494 -52.188)"/><path class="a" d="M376.61,59.34V51.179h1.356v3.134a2.881,2.881,0,0,1,.725-.5,2.1,2.1,0,0,1,.929-.192,2,2,0,0,1,.818.156,1.613,1.613,0,0,1,.6.439,1.932,1.932,0,0,1,.363.675,2.876,2.876,0,0,1,.124.865v3.586h-1.356V55.751a1.2,1.2,0,0,0-.24-.8.887.887,0,0,0-.717-.283,1.424,1.424,0,0,0-.659.159,2.393,2.393,0,0,0-.582.435v4.075Z" transform="translate(-110.419 -51.175)"/><path class="a" d="M394.021,55.814a.364.364,0,0,1-.115.123.3.3,0,0,1-.154.036.488.488,0,0,1-.212-.055q-.13-.064-.262-.124a2.475,2.475,0,0,0-.338-.123,1.62,1.62,0,0,0-.447-.055,1.043,1.043,0,0,0-.631.17.529.529,0,0,0-.23.445.424.424,0,0,0,.118.3,1.059,1.059,0,0,0,.313.217,3.124,3.124,0,0,0,.442.168q.247.074.505.163a5.288,5.288,0,0,1,.505.2,1.754,1.754,0,0,1,.442.283,1.321,1.321,0,0,1,.313.415,1.306,1.306,0,0,1,.118.582,1.871,1.871,0,0,1-.148.75,1.653,1.653,0,0,1-.434.593,2.024,2.024,0,0,1-.707.389,3.02,3.02,0,0,1-.964.141,3.084,3.084,0,0,1-.565-.052,3.282,3.282,0,0,1-.533-.146,2.9,2.9,0,0,1-.473-.219,2.3,2.3,0,0,1-.382-.275l.313-.516a.445.445,0,0,1,.141-.141.4.4,0,0,1,.212-.049.435.435,0,0,1,.239.071q.112.071.261.153a2.366,2.366,0,0,0,.349.154,1.546,1.546,0,0,0,.507.071,1.3,1.3,0,0,0,.415-.058.86.86,0,0,0,.283-.151.562.562,0,0,0,.165-.216.649.649,0,0,0,.052-.256.455.455,0,0,0-.118-.323,1.04,1.04,0,0,0-.314-.22,2.983,2.983,0,0,0-.445-.168q-.257-.077-.51-.163a4.76,4.76,0,0,1-.51-.206,1.737,1.737,0,0,1-.445-.3,1.344,1.344,0,0,1-.313-.445,1.538,1.538,0,0,1-.119-.636,1.627,1.627,0,0,1,.137-.659,1.537,1.537,0,0,1,.4-.546,2,2,0,0,1,.665-.374,2.756,2.756,0,0,1,.919-.141,2.81,2.81,0,0,1,1.06.192,2.4,2.4,0,0,1,.8.505Z" transform="translate(-114.398 -52.186)"/></g><path class="a" d="M27.841,27.587H23.853l-6.88-16.02L13.852,4.343l-.013-.032-.018.041-.009-.018L8.166,17.592h5.686v3.393H6.7l-2.812,6.6H0L12.018.317h3.849Z" transform="translate(0 -0.093)"/><path class="a" d="M65.958,15.509a7.1,7.1,0,0,0-4.425-2.279c-.013,0-.023,0-.036,0a7.3,7.3,0,0,0,2.029-.793.094.094,0,0,1,.027-.018c.149-.09.295-.186.435-.29a5.84,5.84,0,0,0,.761-.652,5.464,5.464,0,0,0,.371-.412,6.038,6.038,0,0,0,1.327-3.954,5.937,5.937,0,0,0-2.4-5.014A10.7,10.7,0,0,0,57.476.281H49.611V3.714h7.672A6.188,6.188,0,0,1,61.2,4.728a3.545,3.545,0,0,1,1.386,3A3.587,3.587,0,0,1,61.2,10.789q-.175.136-.363.254a6.744,6.744,0,0,1-3.556.82H49.611v3.393h7.672a8.352,8.352,0,0,1,4.756,1.168,3.707,3.707,0,0,1,1.716,3.239A3.79,3.79,0,0,1,62.413,22.7a3.988,3.988,0,0,1-.375.295c-.077.054-.158.1-.24.158a8.363,8.363,0,0,1-4.516.99h-7.67v3.428h8.062a11.944,11.944,0,0,0,7.248-1.947.075.075,0,0,1,.022-.018,6.91,6.91,0,0,0,.874-.777,6.519,6.519,0,0,0,1.762-4.706,6.773,6.773,0,0,0-1.621-4.62" transform="translate(-14.545 -0.083)"/><path class="a" d="M93.464,3.709h13.7V.309h-13.7Zm12.193,8.885v3.4H93.464V27.585H89.71V3.709h3.754v8.885Z" transform="translate(-26.301 -0.091)"/><path class="a" d="M134.544.317V27.586h-3.75V.317Z" transform="translate(-38.346 -0.093)"/><path class="a" d="M172.6.343h3.7V27.594h-3.776l-15.572-21.1v21.1h-3.738V.343h3.777L172.6,21.485Z" transform="translate(-44.92 -0.101)"/><path class="a" d="M257.126,27.591H241.471V24.2h15.653ZM241.471,15.519h13.59V12.132h-13.59Zm0-11.8h15.187V.334H241.471Z" transform="translate(-70.795 -0.098)"/><path class="a" d="M211.055,27.592H207.3V7.076h3.754ZM219.9,3.613H198.521V.336H219.9Z" transform="translate(-58.203 -0.099)"/><path class="a" d="M338.052,12.515v3.393H325.565V27.637h-3.739V.358h3.739V12.515Zm3.26,15.1H345V.337h-3.689Z" transform="translate(-94.354 -0.099)"/><path class="a" d="M292.394,4.233A10.5,10.5,0,0,0,282.835,22.9a10.382,10.382,0,0,0,5.306,1.4,10.694,10.694,0,0,0,4.213-.878,12.2,12.2,0,0,0,3.668-2.4l2.262,2.458a15.224,15.224,0,0,1-4.8,3.181,14.338,14.338,0,0,1-12.68-.7,13.783,13.783,0,0,1-6.983-12.114,13.437,13.437,0,0,1,1.892-7,13.674,13.674,0,0,1,5.169-5.013A14.529,14.529,0,0,1,288.1,0a14.693,14.693,0,0,1,5.521,1.073A13.657,13.657,0,0,1,298.245,4.1l-2.224,2.692a11.292,11.292,0,0,0-3.629-2.555" transform="translate(-80.28 0)"/><path class="a" d="M381.4,4.2a13.4,13.4,0,0,0-3.771-.606,6.964,6.964,0,0,0-3.81.919,2.853,2.853,0,0,0-1.426,2.521,3.317,3.317,0,0,0,.859,2.364,6.079,6.079,0,0,0,2.111,1.446q1.25.527,3.478,1.231a39.311,39.311,0,0,1,4.493,1.641,7.784,7.784,0,0,1,2.93,2.325,6.433,6.433,0,0,1,1.211,4.083,6.825,6.825,0,0,1-1.272,4.1,8.129,8.129,0,0,1-3.556,2.716,13.5,13.5,0,0,1-5.256.958,15.287,15.287,0,0,1-5.862-1.173,15.893,15.893,0,0,1-4.924-3.126l1.681-3.244a14.1,14.1,0,0,0,4.4,2.95,12.121,12.121,0,0,0,4.748,1.035,7.591,7.591,0,0,0,4.318-1.074,3.348,3.348,0,0,0,1.583-2.911,3.393,3.393,0,0,0-.859-2.383A6.068,6.068,0,0,0,380.3,16.49a37.057,37.057,0,0,0-3.534-1.211,36.035,36.035,0,0,1-4.453-1.6,7.691,7.691,0,0,1-2.911-2.306,6.348,6.348,0,0,1-1.191-4.025,6.442,6.442,0,0,1,1.211-3.868A7.647,7.647,0,0,1,372.827.9a13.3,13.3,0,0,1,5.08-.9,16.42,16.42,0,0,1,4.826.723,16.238,16.238,0,0,1,4.2,1.934L385.37,6.019A15.758,15.758,0,0,0,381.4,4.2" transform="translate(-107.483 0)"/></g></svg>