<svg xmlns="http://www.w3.org/2000/svg" xmlns:xlink="http://www.w3.org/1999/xlink" width="1044" height="496" viewBox="0 0 1842 506">
  <defs>
    <filter id="Container" x="0" y="0" width="744" height="692" filterUnits="userSpaceOnUse">
      <feOffset dy="2" input="SourceAlpha"/>
      <feGaussianBlur stdDeviation="39" result="blur"/>
      <feFlood flood-color="#1b289b" flood-opacity="0.122"/>
      <feComposite operator="in" in2="blur"/>
      <feComposite in="SourceGraphic"/>
    </filter>
    <clipPath id="clip-path">
      <rect id="Retângulo_78" data-name="Retângulo 78" width="207" height="133" transform="translate(193 1792)" fill="#dedede"/>
    </clipPath>
    <linearGradient id="linear-gradient" y1="0.499" x2="1" y2="0.499" gradientUnits="objectBoundingBox">
      <stop offset="0" stop-opacity="0"/>
      <stop offset="0.99"/>
    </linearGradient>
    <linearGradient id="linear-gradient-2" x1="0" y1="0.5" x2="1" y2="0.5" xlink:href="#linear-gradient"/>
    <linearGradient id="linear-gradient-3" x1="0.784" y1="-0.503" x2="-0.429" y2="2.976" xlink:href="#linear-gradient"/>
    <linearGradient id="linear-gradient-4" x1="0.2" y1="-0.037" x2="0.684" y2="0.702" xlink:href="#linear-gradient"/>
    <linearGradient id="linear-gradient-5" x1="0.118" y1="-0.021" x2="1.184" y2="0.931" xlink:href="#linear-gradient"/>
    <linearGradient id="linear-gradient-6" x1="0.446" y1="0.185" x2="1.12" y2="0.88" xlink:href="#linear-gradient"/>
    <linearGradient id="linear-gradient-7" x1="0" y1="0.5" x2="1" y2="0.5" xlink:href="#linear-gradient"/>
    <linearGradient id="linear-gradient-8" x1="1.943" y1="0.409" x2="-3.702" y2="0.745" xlink:href="#linear-gradient"/>
    <linearGradient id="linear-gradient-9" x1="0.001" y1="0.5" x2="1" y2="0.5" gradientUnits="objectBoundingBox">
      <stop offset="0" stop-color="#e5c5d5"/>
      <stop offset="0.42" stop-color="#ead4d1"/>
      <stop offset="1" stop-color="#f0e9cb"/>
    </linearGradient>
    <linearGradient id="linear-gradient-10" x1="0.001" y1="0.5" x2="1" y2="0.5" xlink:href="#linear-gradient-9"/>
    <linearGradient id="linear-gradient-11" x1="0.54" y1="-0.023" x2="0.472" y2="0.945" xlink:href="#linear-gradient"/>
    <linearGradient id="linear-gradient-12" x1="0" y1="0.5" x2="1" y2="0.5" xlink:href="#linear-gradient-9"/>
    <linearGradient id="linear-gradient-13" x1="-100.963" y1="-64.97" x2="-99.98" y2="-64.97" xlink:href="#linear-gradient-9"/>
    <linearGradient id="linear-gradient-14" x1="0.515" y1="-0.043" x2="0.436" y2="1.422" xlink:href="#linear-gradient"/>
    <linearGradient id="linear-gradient-15" x1="0.375" y1="0.302" x2="0.724" y2="0.964" xlink:href="#linear-gradient"/>
    <linearGradient id="linear-gradient-16" x1="0" y1="0.499" x2="1.002" y2="0.499" xlink:href="#linear-gradient-9"/>
    <linearGradient id="linear-gradient-17" x1="1.364" y1="0.465" x2="-0.032" y2="0.524" gradientUnits="objectBoundingBox">
      <stop offset="0.02" stop-color="#fff" stop-opacity="0"/>
      <stop offset="0.58" stop-color="#fff" stop-opacity="0.388"/>
      <stop offset="0.68" stop-color="#fff" stop-opacity="0.678"/>
      <stop offset="1" stop-color="#fff"/>
    </linearGradient>
    <linearGradient id="linear-gradient-18" x1="2.451" y1="-0.279" x2="-0.565" y2="0.919" xlink:href="#linear-gradient-17"/>
    <linearGradient id="linear-gradient-19" x1="0.622" y1="-0.227" x2="0.096" y2="2.834" xlink:href="#linear-gradient-17"/>
    <linearGradient id="linear-gradient-20" x1="0.49" y1="0.371" x2="0.566" y2="1.146" xlink:href="#linear-gradient"/>
    <filter id="Container-2" x="550" y="1" width="744" height="692" filterUnits="userSpaceOnUse">
      <feOffset dy="2" input="SourceAlpha"/>
      <feGaussianBlur stdDeviation="39" result="blur-2"/>
      <feFlood flood-color="#1b289b" flood-opacity="0.122"/>
      <feComposite operator="in" in2="blur-2"/>
      <feComposite in="SourceGraphic"/>
    </filter>
    <clipPath id="clip-path-2">
      <rect id="Retângulo_81" data-name="Retângulo 81" width="157" height="133" transform="translate(768 1792)" fill="#dedede"/>
    </clipPath>
    <linearGradient id="linear-gradient-21" x1="3.338" y1="-25.196" x2="4.338" y2="-25.196" gradientUnits="objectBoundingBox">
      <stop offset="0" stop-color="#183866"/>
      <stop offset="1" stop-color="#1a7fc1"/>
    </linearGradient>
    <linearGradient id="linear-gradient-22" x1="7.284" y1="-201.077" x2="8.285" y2="-201.077" gradientUnits="objectBoundingBox">
      <stop offset="0"/>
      <stop offset="0.99" stop-opacity="0"/>
    </linearGradient>
    <linearGradient id="linear-gradient-23" x1="1.761" y1="-24.138" x2="3.104" y2="-22.881" xlink:href="#linear-gradient-22"/>
    <linearGradient id="linear-gradient-24" x1="10.658" y1="-2.58" x2="3.082" y2="-2.773" xlink:href="#linear-gradient-22"/>
    <linearGradient id="linear-gradient-25" x1="1.561" y1="-15.554" x2="0.081" y2="-17.374" xlink:href="#linear-gradient-22"/>
    <linearGradient id="linear-gradient-26" x1="23.611" y1="-165.848" x2="21.627" y2="-166.474" xlink:href="#linear-gradient-22"/>
    <linearGradient id="linear-gradient-27" x1="2.414" y1="-20.035" x2="1.331" y2="-19.437" xlink:href="#linear-gradient-22"/>
    <linearGradient id="linear-gradient-28" x1="1.068" y1="-0.742" x2="-0.373" y2="-0.889" xlink:href="#linear-gradient-22"/>
    <linearGradient id="linear-gradient-29" x1="0.142" y1="-0.413" x2="1.142" y2="-0.413" xlink:href="#linear-gradient-21"/>
    <linearGradient id="linear-gradient-30" x1="0.404" y1="-1.383" x2="0.714" y2="3.729" xlink:href="#linear-gradient-22"/>
    <linearGradient id="linear-gradient-31" x1="-0.125" y1="-0.312" x2="0.937" y2="1.047" xlink:href="#linear-gradient-22"/>
    <linearGradient id="linear-gradient-32" x1="0.537" y1="0.191" x2="0.437" y2="1.724" xlink:href="#linear-gradient-22"/>
    <linearGradient id="linear-gradient-33" x1="1.909" y1="-13.673" x2="1.022" y2="-13.739" xlink:href="#linear-gradient-22"/>
    <linearGradient id="linear-gradient-34" x1="1.686" y1="-13.577" x2="1.115" y2="-13.632" xlink:href="#linear-gradient-22"/>
    <linearGradient id="linear-gradient-35" x1="0.57" y1="-23.698" x2="0.281" y2="-31.426" xlink:href="#linear-gradient-22"/>
    <linearGradient id="linear-gradient-36" x1="1.632" y1="-0.776" x2="0.934" y2="0.229" xlink:href="#linear-gradient-22"/>
    <linearGradient id="linear-gradient-37" x1="29.723" y1="-14.736" x2="26.535" y2="-13.702" xlink:href="#linear-gradient-22"/>
    <linearGradient id="linear-gradient-38" x1="0.591" y1="-0.864" x2="1.289" y2="-0.019" xlink:href="#linear-gradient-22"/>
    <linearGradient id="linear-gradient-39" x1="0.921" y1="3.587" x2="1.922" y2="3.587" gradientUnits="objectBoundingBox">
      <stop offset="0" stop-color="#ecc4d7"/>
      <stop offset="0.42" stop-color="#efd4d1"/>
      <stop offset="1" stop-color="#f2eac9"/>
    </linearGradient>
    <linearGradient id="linear-gradient-40" x1="0.99" y1="-1.633" x2="1.99" y2="-1.633" xlink:href="#linear-gradient-39"/>
    <linearGradient id="linear-gradient-41" x1="1.243" y1="-0.846" x2="2.243" y2="-0.846" xlink:href="#linear-gradient-39"/>
    <linearGradient id="linear-gradient-42" x1="1.289" y1="1.38" x2="0.23" y2="2.311" xlink:href="#linear-gradient-22"/>
    <linearGradient id="linear-gradient-43" x1="6.518" y1="0.398" x2="-0.168" y2="1.724" xlink:href="#linear-gradient-22"/>
    <linearGradient id="linear-gradient-44" x1="39.909" y1="-342.252" x2="38.744" y2="-342.683" xlink:href="#linear-gradient-22"/>
    <filter id="Container-3" x="1100" y="4" width="744" height="692" filterUnits="userSpaceOnUse">
      <feOffset dy="2" input="SourceAlpha"/>
      <feGaussianBlur stdDeviation="39" result="blur-3"/>
      <feFlood flood-color="#1b289b" flood-opacity="0.122"/>
      <feComposite operator="in" in2="blur-3"/>
      <feComposite in="SourceGraphic"/>
    </filter>
    <clipPath id="clip-path-3">
      <rect id="Retângulo_82" data-name="Retângulo 82" width="124" height="133" transform="translate(1302 1792)" fill="#dedede"/>
    </clipPath>
    <linearGradient id="linear-gradient-45" x1="0.496" y1="-3.722" x2="0.521" y2="23.242" gradientUnits="objectBoundingBox">
      <stop offset="0" stop-color="#010101" stop-opacity="0"/>
      <stop offset="0.95" stop-color="#010101"/>
    </linearGradient>
    <linearGradient id="linear-gradient-46" x1="0.492" y1="0.5" x2="1.492" y2="0.5" gradientUnits="objectBoundingBox">
      <stop offset="0" stop-color="#fff" stop-opacity="0"/>
      <stop offset="0.14" stop-color="#fff" stop-opacity="0.22"/>
      <stop offset="0.3" stop-color="#fff" stop-opacity="0.451"/>
      <stop offset="0.45" stop-color="#fff" stop-opacity="0.651"/>
      <stop offset="0.6" stop-color="#fff" stop-opacity="0.8"/>
      <stop offset="0.73" stop-color="#fff" stop-opacity="0.91"/>
      <stop offset="0.85" stop-color="#fff" stop-opacity="0.98"/>
      <stop offset="0.94" stop-color="#fff"/>
    </linearGradient>
    <linearGradient id="linear-gradient-47" x1="0.156" y1="0.5" x2="1.156" y2="0.5" xlink:href="#linear-gradient-46"/>
    <linearGradient id="linear-gradient-48" x1="0.156" y1="0.5" x2="1.156" y2="0.5" xlink:href="#linear-gradient-46"/>
    <linearGradient id="linear-gradient-49" x1="-0.314" y1="0.749" x2="1.753" y2="0.121" xlink:href="#linear-gradient-45"/>
    <linearGradient id="linear-gradient-50" x1="0.495" y1="0.115" x2="0.525" y2="2.561" xlink:href="#linear-gradient-45"/>
    <linearGradient id="linear-gradient-51" x1="-0.435" y1="0.424" x2="4.094" y2="0.74" xlink:href="#linear-gradient-45"/>
    <linearGradient id="linear-gradient-52" x1="0.198" y1="-0.861" x2="1.607" y2="3.449" xlink:href="#linear-gradient-45"/>
    <linearGradient id="linear-gradient-53" x1="0.524" y1="-0.733" x2="0.444" y2="3.323" xlink:href="#linear-gradient-45"/>
    <linearGradient id="linear-gradient-54" x1="0.525" y1="-0.732" x2="0.444" y2="3.324" xlink:href="#linear-gradient-45"/>
    <linearGradient id="linear-gradient-55" x1="0.418" y1="0.061" x2="0.814" y2="1.567" xlink:href="#linear-gradient-45"/>
    <linearGradient id="linear-gradient-56" x1="1.039" y1="0.265" x2="-1.383" y2="1.015" xlink:href="#linear-gradient-45"/>
    <linearGradient id="linear-gradient-57" x1="-0.263" y1="1.292" x2="2.596" y2="-1.735" xlink:href="#linear-gradient-45"/>
    <linearGradient id="linear-gradient-58" x1="0.156" y1="0.5" x2="1.156" y2="0.5" xlink:href="#linear-gradient-46"/>
  </defs>
  <line id="Linha_1" data-name="Linha 1" x2="788" transform="translate(518.5 345.5)" fill="none" stroke="#086c7b" stroke-linecap="round" stroke-width="5" stroke-dasharray="4 12"/>
  <g id="Agility" transform="translate(-51 -1633)">
    <g transform="matrix(1, 0, 0, 1, 51, 1633)" filter="url(#Container)">
      <rect id="Container-4" data-name="Container" width="510" height="458" rx="30" transform="translate(117 115)" fill="#fff"/>
    </g>
    <text id="Agilidade" transform="translate(193 1990)" fill="#395e66" font-size="33" font-family="Muli-SemiBold, Muli" font-weight="600"><tspan x="0" y="0">Agilidade</tspan></text>
    <text id="Liquidez_imediata_não_espere_para_receber_o_seu_direito._Receba_direto_na_sua_conta_bancaria." data-name="Liquidez imediata, não espere para receber o seu direito.
Receba direto na sua conta bancaria." transform="translate(201 2027)" fill="#395e66" font-size="20" font-family="Muli-Regular, Muli" opacity="0.5"><tspan x="0" y="20">Liquidez imediata, não espere para receber o seu </tspan><tspan x="0" y="55">direito.</tspan><tspan x="0" y="90">Receba direto na sua conta bancaria.</tspan></text>
    <g id="Illustration" clip-path="url(#clip-path)">
      <g id="fast_working" transform="translate(213.361 1792)">
        <path id="Caminho_179" data-name="Caminho 179" d="M133.858,10.627c-3.737-1.358-7.144-3.5-10.862-4.892-5.047-1.883-10.5-2.332-15.9-2.325-17.42,0-35.191,4.856-48.8,15.722-5.424,4.32-10.3,9.639-16.79,12.046-5.138,1.912-11.177,1.959-15.334,5.533-4.649,3.983-5.225,10.931-4.808,17.05s1.412,12.582-1.2,18.129c-1.535,3.259-4.168,5.833-6.326,8.715A34.177,34.177,0,0,0,24.69,130.994c8.549,4.707,18.683,5.562,28.449,5.4,8.914-.148,18.238-1.195,25.635-6.173,4.765-3.212,8.509-7.919,13.683-10.417,6.239-3.005,13.516-2.346,20.443-2.39,8.2-.058,16.612-1.275,23.771-5.286s12.89-11.192,13.542-19.368c.5-6.275-1.912-12.818.192-18.745a21.01,21.01,0,0,1,3.719-6.1c5.554-6.847,12.908-12.517,16.417-20.628a39.778,39.778,0,0,0,2.759-14c.275-6.014-.536-12.944-5.471-16.4-4.475-3.132-9.986-1.684-15.03-2.408C146.6,13.582,139.763,12.763,133.858,10.627Z" transform="translate(-7.046 -3.411)" fill="#086c7b" opacity="0.18"/>
        <path id="Caminho_180" data-name="Caminho 180" d="M67.977,72.778S51.959,68.85,41.227,77.764s1.514,5.142,5.431,6.351,9.823,3.476,9.823,3.476S72.815,79.875,67.977,72.778Z" transform="translate(-7.046 -3.411)" fill="#3e3e54"/>
        <path id="Caminho_181" data-name="Caminho 181" d="M67.977,72.778S51.959,68.85,41.227,77.764s1.514,5.142,5.431,6.351,9.823,3.476,9.823,3.476S72.815,79.875,67.977,72.778Z" transform="translate(-7.046 -3.411)" fill="url(#linear-gradient)"/>
        <path id="Caminho_182" data-name="Caminho 182" d="M62.365,98.211s10.077-6.648,16.323-4.635l5.239,1.611s-3.223,20.356-21.16,22.17c0,0-3.827.4.406-6.651A10.523,10.523,0,0,0,62.365,98.211Z" transform="translate(-7.046 -3.411)" fill="#3e3e54"/>
        <path id="Caminho_183" data-name="Caminho 183" d="M62.365,98.211s10.077-6.648,16.323-4.635l5.239,1.611s-3.223,20.356-21.16,22.17c0,0-3.827.4.406-6.651A10.523,10.523,0,0,0,62.365,98.211Z" transform="translate(-7.046 -3.411)" fill="url(#linear-gradient-2)"/>
        <path id="Caminho_184" data-name="Caminho 184" d="M90.43,31.885a8.009,8.009,0,0,0,2.3.8,8.882,8.882,0,0,0,3.509-.543,41.124,41.124,0,0,1,4.059-.916,2.408,2.408,0,0,1,2.172.362,1.7,1.7,0,0,1-.04,2.14,4.949,4.949,0,0,1-1.9,1.311l-4.12,1.966a12.973,12.973,0,0,1-2.2.891c-3.139.847-6.4-.724-9.132-2.473-1.054-.681-2.194-1.579-2.238-2.831a4.139,4.139,0,0,1,.3-1.448A3.291,3.291,0,0,1,84,29.636C85.248,28.561,89.173,31.295,90.43,31.885Z" transform="translate(-7.046 -3.411)" fill="#086c7b"/>
        <path id="Caminho_185" data-name="Caminho 185" d="M90.343,31.928a8.009,8.009,0,0,0,2.3.8,8.882,8.882,0,0,0,3.509-.543,40.109,40.109,0,0,1,4.073-.912,2.388,2.388,0,0,1,2.172.362,1.7,1.7,0,0,1-.04,2.136,4.949,4.949,0,0,1-1.9,1.311l-4.12,1.966a12.973,12.973,0,0,1-2.2.891c-3.139.847-6.4-.724-9.132-2.473-1.054-.677-2.194-1.579-2.238-2.831a4.023,4.023,0,0,1,.3-1.448,3.3,3.3,0,0,1,.833-1.5C85.162,28.6,89.072,31.342,90.343,31.928Z" transform="translate(-7.046 -3.411)" fill="url(#linear-gradient-3)"/>
        <path id="Caminho_186" data-name="Caminho 186" d="M98.62,47.176a34.9,34.9,0,0,1-4.164,4.975A13.881,13.881,0,0,1,89.488,56a3.513,3.513,0,0,1-3.027-.065,2.964,2.964,0,0,1-1.184-2.987,6.014,6.014,0,0,1,1.6-2.958,16.091,16.091,0,0,1,2.049-2.1,4.646,4.646,0,0,1,2.755-.666,52.143,52.143,0,0,1,6.934-.04Z" transform="translate(-7.046 -3.411)" fill="#3e3e54"/>
        <path id="Caminho_187" data-name="Caminho 187" d="M98.62,47.176a34.9,34.9,0,0,1-4.164,4.975A13.881,13.881,0,0,1,89.488,56a3.513,3.513,0,0,1-3.027-.065,2.964,2.964,0,0,1-1.184-2.987,6.014,6.014,0,0,1,1.6-2.958,16.091,16.091,0,0,1,2.049-2.1,4.646,4.646,0,0,1,2.755-.666,52.143,52.143,0,0,1,6.934-.04Z" transform="translate(-7.046 -3.411)" fill="url(#linear-gradient-4)"/>
        <path id="Caminho_188" data-name="Caminho 188" d="M160.214,30.958a24.7,24.7,0,0,1-.572,2.6,59.317,59.317,0,0,1-5.294,12.858c-5.04,9.244-14.273,21.363-31.016,32.587C97.045,96.69,73.973,99.638,65.461,100.083c-2.252.127-3.487.08-3.487.08L54.265,88.214A149.975,149.975,0,0,1,78.64,61.71h0a142.783,142.783,0,0,1,23.43-16.569,133.243,133.243,0,0,1,15.483-7.452,104.181,104.181,0,0,1,22.688-6.42C152.845,29.307,160.214,30.958,160.214,30.958Z" transform="translate(-7.046 -3.411)" fill="#086c7b"/>
        <path id="Caminho_189" data-name="Caminho 189" d="M98.432,50.373c-.362.67.764,2.806,1.38,3.259a6.966,6.966,0,0,1,1.81,1.354.952.952,0,0,1,.192.793c-.116.406-.579.587-.981.724l-10.8,3.324a1.738,1.738,0,0,0-.8.409A1.191,1.191,0,0,0,89.5,61.9a2.9,2.9,0,0,0,1.81.449c3.494,0,7.332-1.448,10.258.449a8.784,8.784,0,0,1,2.133,2.172,30.053,30.053,0,0,1,4.671,9.077,4.884,4.884,0,0,1,.214,3.1,9.515,9.515,0,0,1-4.229-3.4c-1.311-1.912-1.984-4.367-3.892-5.677a7.472,7.472,0,0,0-4.884-.945c-1.687.141-3.349.565-5.04.587-3.766.047-7.242-1.81-10.558-3.621-.692-.362-1.477-.9-1.492-1.691a1.311,1.311,0,0,1,.152-.623h0A142.781,142.781,0,0,1,102.074,45.2a133.248,133.248,0,0,1,15.483-7.452C118.991,39.789,98.588,50.094,98.432,50.373Z" transform="translate(-7.046 -3.411)" fill="url(#linear-gradient-5)"/>
        <path id="Caminho_190" data-name="Caminho 190" d="M160.08,31.088s-.894,6.336-5.866,15.454a47.581,47.581,0,0,1-4.707-1.752c-6.307-2.7-8.907-11.532-9.385-13.364C152.711,29.441,160.08,31.088,160.08,31.088Z" transform="translate(-7.046 -3.411)" fill="url(#linear-gradient-6)"/>
        <circle id="Elipse_19" data-name="Elipse 19" cx="6.011" cy="6.011" r="6.011" transform="translate(117.021 38.974)" fill="#3e3e54" opacity="0.31"/>
        <circle id="Elipse_20" data-name="Elipse 20" cx="6.011" cy="6.011" r="6.011" transform="translate(101.151 48.193)" fill="#3e3e54" opacity="0.31"/>
        <circle id="Elipse_21" data-name="Elipse 21" cx="6.011" cy="6.011" r="6.011" transform="translate(83.771 59.982)" fill="#3e3e54" opacity="0.31"/>
        <path id="Caminho_191" data-name="Caminho 191" d="M48.53,80.842l10.077,16.12-5.442,2.017L44.9,85.075Z" fill="#3e3e54"/>
        <path id="Caminho_192" data-name="Caminho 192" d="M85.089,65.026c4.761,1.151,9.729-.091,14.534-1.05a2.9,2.9,0,0,1,1.513-.022,2.816,2.816,0,0,1,1.282,1.227,41.885,41.885,0,0,1,4.124,8.035c.652,1.7,1.264,3.545,2.712,4.646s4.034.855,4.559-.887c-2.473-6.956-5.518-13.69-8.56-20.418a2.62,2.62,0,0,0-2.748-2.013L85.357,53.063C81.5,52.73,75.711,52.219,77,57.578,77.895,61.315,81.468,64.15,85.089,65.026Z" transform="translate(-7.046 -3.411)" fill="#3e3e54"/>
        <path id="Caminho_193" data-name="Caminho 193" d="M85.089,65.026c4.761,1.151,9.729-.091,14.534-1.05a2.9,2.9,0,0,1,1.513-.022,2.816,2.816,0,0,1,1.282,1.227,41.885,41.885,0,0,1,4.124,8.035c.652,1.7,1.264,3.545,2.712,4.646s4.034.855,4.559-.887c-2.473-6.956-5.518-13.69-8.56-20.418a2.62,2.62,0,0,0-2.748-2.013L85.357,53.063C81.5,52.73,75.711,52.219,77,57.578,77.895,61.315,81.468,64.15,85.089,65.026Z" transform="translate(-7.046 -3.411)" fill="url(#linear-gradient-7)"/>
        <path id="Caminho_194" data-name="Caminho 194" d="M89.391,50.2a7.569,7.569,0,0,1-.525,3.429,5.254,5.254,0,0,1-3.621,2.593,9.819,9.819,0,0,1-1.448.214,23.6,23.6,0,0,1-3.118-.069c-1.988-.13-4.244-.4-5.431-2a6.924,6.924,0,0,1-.938-4.026c-.087-3.831-.105-7.662-.134-11.492,0-2.191-.887-5.145-.576-7.242a4.837,4.837,0,0,1,3.031-3.918,8.745,8.745,0,0,1,9.284,2.06c1.669,1.912,2.314,4.5,2.7,7.01A84.976,84.976,0,0,1,89.391,50.2Z" transform="translate(-7.046 -3.411)" fill="#086c7b"/>
        <path id="Caminho_195" data-name="Caminho 195" d="M82.859,42.9q.282,4.345.3,8.69a15.5,15.5,0,0,0,.116,2.39c.1.6.485,1.162.554,1.734a2.379,2.379,0,0,1-.022.724,23.6,23.6,0,0,1-3.118-.069c-1.988-.13-4.244-.4-5.431-2a6.924,6.924,0,0,1-.938-4.026c-.087-3.831-.105-7.662-.134-11.492,0-2.191-.887-5.145-.576-7.242a4.837,4.837,0,0,1,3.031-3.918,4.1,4.1,0,0,1,.673.29,10.108,10.108,0,0,1,3.107,2.955,9.335,9.335,0,0,1,1.159,1.85,9.635,9.635,0,0,1,.608,2.7c.224,1.9.406,3.809.554,5.721.08,1.021-.192,1.666.909,1.861a21.211,21.211,0,0,0,2.831.3,2.822,2.822,0,0,0,2.621-.891,1.876,1.876,0,0,0-.163-2.024A3.588,3.588,0,0,0,87.2,39.257c-.673-.246-1.383-.384-2.064-.612A5.069,5.069,0,0,1,83.261,37.6a2.9,2.9,0,0,1-.963-1.879" transform="translate(-7.046 -3.411)" fill="url(#linear-gradient-8)"/>
        <path id="Caminho_196" data-name="Caminho 196" d="M78.521,27.08a3.461,3.461,0,0,0,.043,1.043,2.933,2.933,0,0,0,1.829,1.76c.5.217,1.159.362,1.517-.054a1.426,1.426,0,0,0,.123-1.227l-.478-2.285a7.636,7.636,0,0,0-.416-1.5c-.21-.489-1.6-2.48-2.3-1.973-.293.21-.17,1.644-.188,2Z" transform="translate(-7.046 -3.411)" fill="url(#linear-gradient-9)"/>
        <path id="Caminho_197" data-name="Caminho 197" d="M78.593,22.913a5.793,5.793,0,0,0,1.253,2.56,3.769,3.769,0,0,0,2.495,1.3,1.713,1.713,0,0,0,1.021-.2,2.339,2.339,0,0,0,.8-1.177c.822-2,1.655-4.189,1.032-6.26a2.535,2.535,0,0,0-1.122-1.553,2.792,2.792,0,0,0-1.9-.105,6.424,6.424,0,0,0-3.418,1.738C78.047,20.139,78.354,21.9,78.593,22.913Z" transform="translate(-7.046 -3.411)" fill="url(#linear-gradient-10)"/>
        <path id="Caminho_198" data-name="Caminho 198" d="M82.58,13.922a4.957,4.957,0,0,0-4.942.511c-.912.684-1.564,1.669-2.495,2.325a16.267,16.267,0,0,1-2.918,1.336c-.119.051-.253.127-.275.253-.036.2.192.322.282.5.138.272-.083.583-.29.811l-1.18,1.289a.854.854,0,0,0-.279.485c-.04.5.663.637,1.159.594l1.637-.145A9.3,9.3,0,0,0,70.823,24.3c.362.384,1.032.2,1.477-.091s.869-.724,1.4-.7c-.793,1.278,1.691,1.227,2.433,1.209a4.638,4.638,0,0,0,1.81-.492,2.147,2.147,0,0,0,.724-.467.883.883,0,0,0,.253-.793,2.273,2.273,0,0,0-.156-.362,1.7,1.7,0,0,1,.022-1.448c.036-.069.083-.145.163-.156a.261.261,0,0,1,.177.062l.547.362a2.788,2.788,0,0,1,2.65-2.9c1.13-.062,3.2.5,2.926-1.347A4.779,4.779,0,0,0,82.58,13.922Z" transform="translate(-7.046 -3.411)" fill="#3e3e54"/>
        <path id="Caminho_199" data-name="Caminho 199" d="M84.39,18.517a1.217,1.217,0,0,0-.025-2.223,3.139,3.139,0,0,0-1.7-.362,6.517,6.517,0,0,0-2.875.6c-1.231.616-2.122,1.749-3.259,2.535A10.258,10.258,0,0,1,73.4,20.371a3.342,3.342,0,0,0-1.412.594c-.065.062-.13.145-.1.228a.268.268,0,0,0,.087.094,1.166,1.166,0,0,0,.963.163c.188-.051.362-.152.536-.217a3.458,3.458,0,0,1,1.655,0,5.352,5.352,0,0,0,2.3-.062,10.16,10.16,0,0,0,1.81-.905,1.517,1.517,0,0,1,.724-.152,2.929,2.929,0,0,0-.279,1.3l-.547-.362a.261.261,0,0,0-.2-.051c-.076,0-.127.087-.163.156a1.709,1.709,0,0,0-.022,1.448,1.97,1.97,0,0,1,.152.362.862.862,0,0,1-.246.793,2.35,2.35,0,0,1-.724.471,4.707,4.707,0,0,1-1.81.489c-.724,0-3.219.069-2.43-1.209a2.84,2.84,0,0,0-1.4.7c-.42.272-1.086.471-1.477.091a9.244,9.244,0,0,1,2.455-2.422l-1.637.145c-.5.043-1.2-.1-1.159-.594a.869.869,0,0,1,.275-.485l1.184-1.289c.206-.228.427-.54.29-.811-.091-.177-.319-.308-.282-.5.022-.13.156-.2.275-.257a17.159,17.159,0,0,0,2.918-1.329c.934-.655,1.586-1.647,2.495-2.325a4.942,4.942,0,0,1,4.942-.514,4.764,4.764,0,0,1,2.654,3.259C85.361,18.068,84.966,18.4,84.39,18.517Z" transform="translate(-7.046 -3.411)" fill="url(#linear-gradient-11)"/>
        <path id="Caminho_200" data-name="Caminho 200" d="M104.855,29.546a2.84,2.84,0,0,1,2.868.833.59.59,0,0,1,.145.333.21.21,0,0,1-.192.235h-.757a7.857,7.857,0,0,0-1.419,1.115,4.888,4.888,0,0,1-2.154,1.01c-1.05.206-2.354-.507-1.539-1.647A5.687,5.687,0,0,1,104.855,29.546Z" transform="translate(-7.046 -3.411)" fill="url(#linear-gradient-12)"/>
        <path id="Caminho_201" data-name="Caminho 201" d="M103.037,38.877a1.2,1.2,0,0,1,.655.851.333.333,0,0,1-.033.177c-.1.167-.34.127-.532.094-1.249-.224-2.437.75-3.708.724a2.245,2.245,0,0,1-1.542-.67,1.837,1.837,0,0,1-.521-1.662c.214-.623.938-.634,1.5-.652A7.263,7.263,0,0,1,103.037,38.877Z" transform="translate(-7.046 -3.411)" fill="url(#linear-gradient-13)"/>
        <path id="Caminho_202" data-name="Caminho 202" d="M111.3,25.3l4.924-3.726s1.209-.406,1.615.1-.051,15.953-.051,15.953l-6.1,2.871Z" transform="translate(-7.046 -3.411)" fill="#086c7b"/>
        <path id="Caminho_203" data-name="Caminho 203" d="M111.376,25.346l4.935-3.726s1.209-.406,1.615.1-.123,15.932-.123,15.932l-6.025,2.9Z" transform="translate(-7.046 -3.411)" fill="url(#linear-gradient-14)"/>
        <path id="Caminho_204" data-name="Caminho 204" d="M112.835,25.273l5.091-3.548s-.909-.655-1.615-.1-4.935,3.722-4.935,3.722Z" transform="translate(-7.046 -3.411)" fill="url(#linear-gradient-15)"/>
        <path id="Caminho_205" data-name="Caminho 205" d="M111.116,80.187a.847.847,0,0,0,.17.264.757.757,0,0,0,.315.156,2.118,2.118,0,0,0,1.76-.29,1.235,1.235,0,0,0,.474-.561,1.771,1.771,0,0,0-.069-1.086l-.3-1.043a.08.08,0,0,0-.018-.04h-.083c-.873.521-1.9,0-2.734.362C109.928,78.289,110.858,79.658,111.116,80.187Z" transform="translate(-7.046 -3.411)" fill="url(#linear-gradient-16)"/>
        <path id="Caminho_206" data-name="Caminho 206" d="M112.129,80.114a5.881,5.881,0,0,0-.873.119.862.862,0,0,0-.616.572,1.18,1.18,0,0,0,.206.778c.21.387.42.775.644,1.155a1.448,1.448,0,0,0,.554.616,1.285,1.285,0,0,0,.768.058,9.393,9.393,0,0,0,2.227-.724q2.173-.916,4.312-1.959c.235-.116.5-.264.543-.521a.561.561,0,0,0-.177-.489,1.448,1.448,0,0,0-.463-.275,10.938,10.938,0,0,0-3.172-.7A3.057,3.057,0,0,0,114.7,78.7c-.358.174-.7.6-1.086.833A3.791,3.791,0,0,1,112.129,80.114Z" transform="translate(-7.046 -3.411)" fill="#3e3e54"/>
        <path id="Caminho_207" data-name="Caminho 207" d="M97.469,40.484a5.341,5.341,0,0,1-2.064.724L91.476,42a9.7,9.7,0,0,1-2.64.29,9.074,9.074,0,0,1-2.354-.583c-3.049-1.086-7.883-2.364-10.222-4.732-1.771-1.81-1.336-5.4.952-6.293a3.136,3.136,0,0,1,1.369-.2c1.941.123,3.259,1.908,4.751,3.165,3.2,2.73,7.669,3.2,11.876,3.516h.369c1.086.08,2.426.362,2.723,1.4A1.884,1.884,0,0,1,97.469,40.484Z" transform="translate(-7.046 -3.411)" fill="#086c7b"/>
        <path id="Caminho_208" data-name="Caminho 208" d="M101.046,46.433l10.732-5.88,1.057-15.265s-1.629-.673-1.763.873S109.8,39.326,109.8,39.326l-9.269,4.9A1.258,1.258,0,0,0,101.046,46.433Z" transform="translate(-7.046 -3.411)" fill="#086c7b"/>
        <path id="Caminho_209" data-name="Caminho 209" d="M59.957,101.705a22.261,22.261,0,0,1-11.807,9.052L50,106.8a69.576,69.576,0,0,1-7.4,8.216,23.181,23.181,0,0,1-9.519,5.431c-.362-.525.025-1.227.409-1.738a75.426,75.426,0,0,1,8.433-9.454c-7.071,4.117-14.172,8.248-21.779,11.261a86.009,86.009,0,0,1,17.38-17.919l-4.664,1.2a68.56,68.56,0,0,1,19.5-15.664A78.175,78.175,0,0,1,59.957,101.705Z" transform="translate(-7.046 -3.411)" fill="#086c7b"/>
        <path id="Caminho_210" data-name="Caminho 210" d="M59.957,101.705a22.261,22.261,0,0,1-11.807,9.052L50,106.8a69.576,69.576,0,0,1-7.4,8.216,23.181,23.181,0,0,1-9.519,5.431c-.362-.525.025-1.227.409-1.738a75.426,75.426,0,0,1,8.433-9.454c-7.071,4.117-14.172,8.248-21.779,11.261a86.009,86.009,0,0,1,17.38-17.919l-4.664,1.2a68.56,68.56,0,0,1,19.5-15.664A78.175,78.175,0,0,1,59.957,101.705Z" transform="translate(-7.046 -3.411)" fill="url(#linear-gradient-17)"/>
        <path id="Caminho_211" data-name="Caminho 211" d="M45.26,97.809c-.17.235-.34.55-.192.8a.789.789,0,0,0,.453.279l1.394.46a41.277,41.277,0,0,0-4.946,5.178c-.25.311-.492.786-.206,1.065a.75.75,0,0,0,.482.17c1.937.174,3.744-.9,5.4-1.926a8.292,8.292,0,0,1-1.528,2.991,12.689,12.689,0,0,0,5.069-2.455c1.51-1.126,2.933-2.415,4.49-3.5l-.514,1.34a8.78,8.78,0,0,0,2.419-2.375,1.086,1.086,0,0,0,.148-1.267,20.827,20.827,0,0,0-3.291-5.819,3.02,3.02,0,0,0-.905-.836c-1.137-.6-3.509,1.347-4.421,2.017a17.478,17.478,0,0,0-3.845,3.885Z" transform="translate(-7.046 -3.411)" fill="#086c7b"/>
        <path id="Caminho_212" data-name="Caminho 212" d="M45.26,97.809c-.17.235-.34.55-.192.8a.789.789,0,0,0,.453.279l1.394.46a41.277,41.277,0,0,0-4.946,5.178c-.25.311-.492.786-.206,1.065a.75.75,0,0,0,.482.17c1.937.174,3.744-.9,5.4-1.926a8.292,8.292,0,0,1-1.528,2.991,12.689,12.689,0,0,0,5.069-2.455c1.51-1.126,2.933-2.415,4.49-3.5l-.514,1.34a8.78,8.78,0,0,0,2.419-2.375,1.086,1.086,0,0,0,.148-1.267,20.827,20.827,0,0,0-3.291-5.819,3.02,3.02,0,0,0-.905-.836c-1.137-.6-3.509,1.347-4.421,2.017a17.478,17.478,0,0,0-3.845,3.885Z" transform="translate(-7.046 -3.411)" fill="url(#linear-gradient-18)"/>
        <path id="Caminho_213" data-name="Caminho 213" d="M96.821,38.544a1.51,1.51,0,0,1-.684.1,41.39,41.39,0,0,1-7.242-.46,14.53,14.53,0,0,1-6.622-2.788c-1.329-1.086-2.379-2.43-3.711-3.487-.362-.3-1.3-.677-1.351-1.224a3.136,3.136,0,0,1,1.369-.2c1.941.123,3.259,1.908,4.751,3.165,3.2,2.73,7.669,3.2,11.876,3.516h.087a3.78,3.78,0,0,1,1.517.46.634.634,0,0,1,.315.344.518.518,0,0,1-.3.579Z" transform="translate(-7.046 -3.411)" fill="url(#linear-gradient-19)"/>
        <path id="Caminho_214" data-name="Caminho 214" d="M160.083,31.085l-.445,2.469a58.884,58.884,0,0,1-5.29,12.858C149.3,55.656,140.075,67.756,123.336,79,97.045,96.69,73.973,99.638,65.461,100.087l-2.9-4.023c66.58-19.657,82.308-51.115,84.14-51.376s7.343-13.629,7.343-13.629Z" transform="translate(-7.046 -3.411)" fill="url(#linear-gradient-20)"/>
        <path id="Caminho_215" data-name="Caminho 215" d="M85.024,17.789a1.34,1.34,0,0,1-.634.724,4.041,4.041,0,0,1-.724.362l-2.842,1.144a2.422,2.422,0,0,1-.9.123,1.517,1.517,0,0,0-.724.152,10.16,10.16,0,0,1-1.81.905,5.352,5.352,0,0,1-2.3.062,3.458,3.458,0,0,0-1.655,0c-.181.065-.362.167-.536.217a1.166,1.166,0,0,1-.963-.163.268.268,0,0,1-.087-.094c-.029-.083.036-.167.1-.228a3.342,3.342,0,0,1,1.412-.594A10.258,10.258,0,0,0,76.5,19.093c1.144-.771,2.035-1.9,3.259-2.535a6.517,6.517,0,0,1,2.875-.6,3.139,3.139,0,0,1,1.7.362A1.343,1.343,0,0,1,85.024,17.789Z" transform="translate(-7.046 -3.411)" fill="none"/>
      </g>
    </g>
    <circle id="Elipse_57" data-name="Elipse 57" cx="3" cy="3" r="3" transform="translate(190 2037)" fill="#395e66" opacity="0.5"/>
    <circle id="Elipse_63" data-name="Elipse 63" cx="3" cy="3" r="3" transform="translate(190 2108)" fill="#395e66" opacity="0.5"/>
  </g>
  <g id="Practicality" transform="translate(-57 -1633)">
    <g transform="matrix(1, 0, 0, 1, 57, 1633)" filter="url(#Container-2)">
      <rect id="Container-5" data-name="Container" width="510" height="458" rx="30" transform="translate(667 116)" fill="#fff"/>
    </g>
    <text id="Praticidade" transform="translate(743 1990)" fill="#395e66" font-size="33" font-family="Muli-SemiBold, Muli" font-weight="600"><tspan x="0" y="0">Praticidade</tspan></text>
    <text id="Processo_de_antecipação_100_digital_Análise_rápida_e_sem_custo_" data-name="Processo de antecipação 100% digital
Análise rápida e sem custo;" transform="translate(754 2027)" fill="#395e66" font-size="20" font-family="Muli-Regular, Muli" opacity="0.5"><tspan x="0" y="20">Processo de antecipação 100% digital</tspan><tspan x="0" y="55">Análise rápida e sem custo;</tspan></text>
    <g id="Illustration-2" data-name="Illustration" transform="translate(-25)" clip-path="url(#clip-path-2)">
      <g id="working_with_computer" transform="translate(767.924 1795.644)">
        <path id="Caminho_216" data-name="Caminho 216" d="M116.292,22.478c-4.8-5.456-8.51-11.97-14.243-16.423-9.005-7.009-21.966-7.692-32.5-3.289S50.821,16.044,45.415,26.094c-2.844,5.288-5.078,11.055-9.245,15.376-3.523,3.65-8.153,5.98-12.543,8.516-7.078,4.079-13.895,9.007-18.475,15.77S-1.477,81.4,1.451,89.021C3.426,94.164,7.4,98.256,11.477,101.96c4.794,4.355,9.948,8.434,15.9,11.029,7.446,3.229,15.711,3.923,23.817,4.252a305.988,305.988,0,0,0,43.07-1.3c11.717-1.181,23.789-3.2,33.592-9.721,13.733-9.137,20.813-25.878,22.407-42.294.649-6.566.484-13.389-2.05-19.481C142.146,29.876,125.79,33.285,116.292,22.478Z" transform="translate(-0.002)" fill="#086c7b" opacity="0.18"/>
        <path id="Caminho_217" data-name="Caminho 217" d="M58.144,51.734s-5.435-.956-6.957,2.811,0,16.777,0,16.777L71.463,85.678Z" transform="translate(-0.002)" fill="#3f3d56"/>
        <path id="Caminho_218" data-name="Caminho 218" d="M83.693,109.676l-7.865,2.329a2.163,2.163,0,0,1-2.682-1.458h0a2.163,2.163,0,0,1,1.458-2.682l7.855-2.331a2.163,2.163,0,0,1,2.682,1.455h0a2.163,2.163,0,0,1-1.447,2.686Z" transform="translate(-0.002)" fill="#086c7b"/>
        <circle id="Elipse_22" data-name="Elipse 22" cx="3.625" cy="3.625" r="3.625" transform="translate(79.623 111.032)" fill="#25233a"/>
        <circle id="Elipse_23" data-name="Elipse 23" cx="1.812" cy="1.812" r="1.812" transform="translate(80.782 113.175)" fill="#3f3d56"/>
        <circle id="Elipse_24" data-name="Elipse 24" cx="3.625" cy="3.625" r="3.625" transform="translate(65.092 107.451)" fill="#25233a"/>
        <path id="Caminho_219" data-name="Caminho 219" d="M69.88,111.4a1.812,1.812,0,1,1-1.812-1.812A1.812,1.812,0,0,1,69.88,111.4Z" transform="translate(-0.002)" fill="url(#linear-gradient-21)"/>
        <circle id="Elipse_25" data-name="Elipse 25" cx="3.625" cy="3.625" r="3.625" transform="translate(64.043 112.408)" fill="#25233a"/>
        <path id="Caminho_220" data-name="Caminho 220" d="M70.533,116.153a1.812,1.812,0,1,1-1.812-1.812,1.812,1.812,0,0,1,1.812,1.812Z" transform="translate(-0.002)" fill="#3f3d56"/>
        <path id="Caminho_221" data-name="Caminho 221" d="M83.978,113.232,67.4,109.886a2.163,2.163,0,0,1-1.687-2.543h0a2.163,2.163,0,0,1,2.541-1.687L84.832,109a2.163,2.163,0,0,1,1.687,2.543h0A2.163,2.163,0,0,1,83.978,113.232Z" transform="translate(-0.002)" fill="#086c7b"/>
        <path id="Caminho_222" data-name="Caminho 222" d="M73.76,87.19h4.526v19.063a2.262,2.262,0,0,1-2.262,2.262h0a2.262,2.262,0,0,1-2.262-2.262V87.19Z" transform="translate(-0.002)" fill="#086c7b"/>
        <path id="Caminho_223" data-name="Caminho 223" d="M75.384,111.98l-7.863,2.333a2.163,2.163,0,0,1-2.684-1.458h0a2.163,2.163,0,0,1,1.458-2.682l7.863-2.327a2.163,2.163,0,0,1,2.682,1.455h0A2.163,2.163,0,0,1,75.384,111.98Z" transform="translate(-0.002)" fill="#086c7b"/>
        <path id="Caminho_224" data-name="Caminho 224" d="M76.686,111.748l-.865.257a2.15,2.15,0,0,1-.8.08l.361-.106a2.106,2.106,0,0,0,.694-.353Z" transform="translate(-0.002)" fill="url(#linear-gradient-22)"/>
        <path id="Caminho_225" data-name="Caminho 225" d="M85.23,107.609a2.147,2.147,0,0,1-.489,1.362l-6.877-1.391a2.225,2.225,0,0,0,.368-.787l4.237-1.254a2.163,2.163,0,0,1,2.677,1.479A2.189,2.189,0,0,1,85.23,107.609Z" transform="translate(-0.002)" fill="url(#linear-gradient-23)"/>
        <path id="Caminho_226" data-name="Caminho 226" d="M73.818,106.768a2.29,2.29,0,0,1-.058-.515V87.19h1.572v20.545a.753.753,0,0,0,.015.3,2.048,2.048,0,0,0-.753-.167,3.88,3.88,0,0,0-.549,0l.112-.032A10.045,10.045,0,0,0,73.818,106.768Z" transform="translate(-0.002)" opacity="0.31" fill="url(#linear-gradient-24)"/>
        <path id="Caminho_227" data-name="Caminho 227" d="M85.434,113a2.124,2.124,0,0,1-1.032.266,2.241,2.241,0,0,1-.433-.043l-7.292-1.473-.608-.121a2.106,2.106,0,0,1-.694.353l-.361.106-7.493,2.227a2.163,2.163,0,0,1-2.684-1.458,1.847,1.847,0,0,0,2.351.134c.915-.634,4.557-1.585,6.62-2.091a2.535,2.535,0,0,0,1.9-2,1.447,1.447,0,0,1,.026-.173,4.745,4.745,0,0,0,2.117,1.144A55.436,55.436,0,0,0,85.23,111.3,1.347,1.347,0,0,1,85.434,113Z" transform="translate(-0.002)" opacity="0.31" fill="url(#linear-gradient-25)"/>
        <path id="Caminho_228" data-name="Caminho 228" d="M86.216,112.271a2.124,2.124,0,0,1-.538.573C85.823,112.7,86.009,112.5,86.216,112.271Z" transform="translate(-0.002)" fill="url(#linear-gradient-26)"/>
        <path id="Caminho_229" data-name="Caminho 229" d="M73.818,106.768a2.249,2.249,0,0,0,.545,1.025c-.067.013-.136.03-.205.05l-6.817,2.018a2.163,2.163,0,0,1,.484-4.258,2.24,2.24,0,0,1,.433.043Z" transform="translate(-0.002)" fill="url(#linear-gradient-27)"/>
        <path id="Caminho_233" data-name="Caminho 233" d="M84.32,14.941S84.231,8.22,78.844,8.8,73.87,7.154,71.569,7.4s-4.974,2.515-4.206,5.32-2.031,3.432-3.869,5.56.433,3.869,3.529,5.949-.192,1.542,1.644,4.831,8.051-.913,8.051-.913Z" transform="translate(-0.002)" fill="#3f3d56"/>
        <path id="Caminho_234" data-name="Caminho 234" d="M40.378,127.4l3.821.13V97.012s.192-7.891,7.64-8.683,74.995-10.569,74.995-10.569,2.677-.283,4.219,4.851,3.043,25.322,3.043,25.322l20.733,2.792s.547-35.661-6.94-37.629-105.4,8.06-105.4,8.06S35.229,119.032,40.378,127.4Z" transform="translate(-0.002)" fill="#086c7b"/>
        <path id="Caminho_235" data-name="Caminho 235" d="M40.378,127.4l3.821.13V97.012s.192-7.891,7.64-8.683,74.995-10.569,74.995-10.569,2.677-.283,4.219,4.851,3.043,25.322,3.043,25.322l20.733,2.792s.547-35.661-6.94-37.629-105.4,8.06-105.4,8.06S35.229,119.032,40.378,127.4Z" transform="translate(-0.002)" fill="url(#linear-gradient-28)"/>
        <path id="Caminho_236" data-name="Caminho 236" d="M20.214,84.9s1.873-10.363,15.045-13.079l92.983-10.653s9.128-.378,13.3,2.15,10.136,4.624,12.58,16.064,3.028,30.984,3.028,30.984l-2.312.359s-3.374-35.389-6.948-37.629S47.666,84.6,47.666,84.6s-6.7,1.334-7.288,11.269,0,31.526,0,31.526l-20.164-8.14Z" transform="translate(-0.002)" fill="#086c7b"/>
        <path id="Caminho_237" data-name="Caminho 237" d="M115.877,65.157a86.956,86.956,0,0,0-14.511-.9c-3.644.143-7.264.649-10.878,1.153l-31.87,4.457a1.829,1.829,0,0,0-1.427.675c-.519.908.7,1.8,1.689,2.15,10.6,3.715,21.918,7.478,32.826,4.829,4.987-1.211,9.619-3.726,14.678-4.6s10.251-.069,15.3-.893c4.745-.774,9.262-2.974,14.072-3a13.8,13.8,0,0,0,4.392-.277c1.4-.467,2.636-1.894,2.249-3.317-4.516-.158-9.585-.993-14.014-.087C124,66.249,120.267,65.157,115.877,65.157Z" transform="translate(-0.002)" opacity="0.19" fill="url(#linear-gradient-29)"/>
        <path id="Caminho_238" data-name="Caminho 238" d="M87.056,70.589l.186.712s5.506,3.423,5.471,3.534,22.839-5.465,22.839-5.465l.532-1.6Z" transform="translate(-0.002)" fill="#086c7b"/>
        <path id="Caminho_239" data-name="Caminho 239" d="M87.056,70.589l.186.712s5.506,3.423,5.471,3.534,22.839-5.465,22.839-5.465l.532-1.6Z" transform="translate(-0.002)" fill="url(#linear-gradient-30)"/>
        <path id="Caminho_240" data-name="Caminho 240" d="M87.568,70.589l20.121-4.535,8.389,1.715L93.219,73.52Z" fill="#086c7b"/>
        <path id="Caminho_241" data-name="Caminho 241" d="M87.568,70.589l20.121-4.535,8.389,1.715L93.219,73.52Z" fill="url(#linear-gradient-31)"/>
        <path id="Caminho_242" data-name="Caminho 242" d="M81.236,74.177l4.777.16s1.213.071,1.527-.85-1.946-2.865-2.189-2.9-6.529,1.633-5.623,3.3Z" transform="translate(-0.002)" fill="#086c7b"/>
        <path id="Caminho_243" data-name="Caminho 243" d="M81.236,74.177l4.777.16s1.213.071,1.527-.85-1.946-2.865-2.189-2.9-6.529,1.633-5.623,3.3Z" transform="translate(-0.002)" fill="url(#linear-gradient-32)"/>
        <path id="Caminho_244" data-name="Caminho 244" d="M26.018,121.233l-2.325,7.059a18.732,18.732,0,0,1-12.476,0l-1.667-7.4S17.96,123.677,26.018,121.233Z" transform="translate(-0.002)" fill="#086c7b"/>
        <path id="Caminho_245" data-name="Caminho 245" d="M26.018,121.233l-2.325,7.059a18.732,18.732,0,0,1-12.476,0l-1.667-7.4S17.96,123.677,26.018,121.233Z" transform="translate(-0.002)" fill="url(#linear-gradient-33)"/>
        <path id="Caminho_246" data-name="Caminho 246" d="M28.654,114.661l-.746,5.58-1.89.99c-8.051,2.444-16.468-.342-16.468-.342L8.1,119.808l-.677-5.147Z" transform="translate(-0.002)" fill="#086c7b"/>
        <path id="Caminho_247" data-name="Caminho 247" d="M28.654,114.661l-.746,5.58-1.89.99c-8.051,2.444-16.468-.342-16.468-.342L8.1,119.808l-.677-5.147Z" transform="translate(-0.002)" fill="url(#linear-gradient-34)"/>
        <ellipse id="Elipse_26" data-name="Elipse 26" cx="10.614" cy="1.91" rx="10.614" ry="1.91" transform="translate(7.42 112.752)" fill="#086c7b"/>
        <ellipse id="Elipse_27" data-name="Elipse 27" cx="10.614" cy="1.91" rx="10.614" ry="1.91" transform="translate(7.42 112.752)" fill="url(#linear-gradient-35)"/>
        <path id="Caminho_248" data-name="Caminho 248" d="M12.986,72.054a14.951,14.951,0,0,1-3.064-1.585C8.105,69,7.645,66.483,7.076,64.221s-1.67-4.749-3.912-5.4A2.589,2.589,0,0,0,.7,59.275,2.772,2.772,0,0,0,.078,61.85a15.239,15.239,0,0,0,.977,2.6,11.931,11.931,0,0,1,.711,6.339c-.283,1.754-.96,3.532-.526,5.251.737,2.917,4.412,4.628,4.513,7.634.069,2.029-1.6,3.906-1.222,5.9.279,1.477,1.639,2.63,1.713,4.131.082,1.7-1.527,3.142-1.449,4.844s1.778,2.839,2.887,4.178a6.957,6.957,0,0,1,1.581,3.968A10.273,10.273,0,0,0,9.5,109.4a9.85,9.85,0,0,0,.984,1.73,17.328,17.328,0,0,0,1.094,1.84,4.5,4.5,0,0,0,4.823,1.514c.344-2.262.043-4.57.138-6.855.188-4.429,1.864-8.893.792-13.192a30.239,30.239,0,0,1-1.285-4.691,16.273,16.273,0,0,1,.534-4.3,34.452,34.452,0,0,0,.318-8.962C16.721,74.123,15.06,73.035,12.986,72.054Z" transform="translate(-0.002)" fill="#086c7b"/>
        <path id="Caminho_249" data-name="Caminho 249" d="M19.615,83.654c-.017,1.974.433,4.016-.2,5.891-.478,1.421-1.529,2.584-2.072,3.981-1.252,3.224.433,6.84.089,10.283a36.762,36.762,0,0,1-.936,4.174,16.717,16.717,0,0,0-.277,5.37,1.358,1.358,0,0,0,1.081,1.414,16.869,16.869,0,0,0,3.276.885A8.689,8.689,0,0,1,21.7,109.6c1.715-2.811,5.048-4.706,5.668-7.935.42-2.186-.558-4.405-.489-6.631a7.137,7.137,0,0,1,1.458-4.087c.807-1.051,1.9-1.864,2.649-2.954,1.8-2.628,1.241-6.14.705-9.282s-.848-6.758,1.272-9.139c.67-.753,1.544-1.317,2.152-2.122a4.893,4.893,0,0,0-.562-6.157,6.18,6.18,0,0,0-6.25-1.341A4.507,4.507,0,0,0,26.02,61.5c-1.081,1.535-.649,3.633-.19,5.458a9.033,9.033,0,0,1,.175,5.013c-.409,1.189-1.445,1.834-2.325,2.662A12.681,12.681,0,0,0,19.615,83.654Z" transform="translate(-0.002)" fill="#086c7b"/>
        <path id="Caminho_250" data-name="Caminho 250" d="M17.381,101.149c-.307,2.145-.75,4.308-.841,6.46v.216a.569.569,0,0,1-.037.156,16.717,16.717,0,0,0-.283,5.37,2.035,2.035,0,0,0,.216.835c-.011.091-.024.18-.037.27a4.5,4.5,0,0,1-4.823-1.514,19.83,19.83,0,0,1-1.094-1.84,9.348,9.348,0,0,1-.984-1.73,10.289,10.289,0,0,1-.238-2.71,6.957,6.957,0,0,0-1.581-3.968c-1.109-1.33-2.811-2.446-2.887-4.176s1.531-3.142,1.449-4.844c-.074-1.5-1.434-2.654-1.713-4.131-.378-2,1.3-3.873,1.222-5.9-.1-3.006-3.776-4.717-4.513-7.634-.433-1.719.242-3.5.526-5.251a11.931,11.931,0,0,0-.7-6.332,15.171,15.171,0,0,1-.977-2.6,2.776,2.776,0,0,1,.625-2.578A2.594,2.594,0,0,1,3.168,58.8c2.245.649,3.341,3.144,3.912,5.407s1.029,4.782,2.846,6.248a14.633,14.633,0,0,0,3.064,1.585c2.076.982,3.737,2.07,3.914,4.41a34.931,34.931,0,0,1-.318,8.962,16.454,16.454,0,0,0-.534,4.3,21.458,21.458,0,0,0,1.155,4.213c.045.158.091.318.13.478A17.571,17.571,0,0,1,17.381,101.149Z" transform="translate(-0.002)" fill="url(#linear-gradient-36)"/>
        <path id="Caminho_251" data-name="Caminho 251" d="M16.447,114.185a2.035,2.035,0,0,1-.227-.833,16.717,16.717,0,0,1,.288-5.37c.011-.052.024-.1.037-.156C16.466,109.951,16.713,112.092,16.447,114.185Z" transform="translate(-0.002)" fill="url(#linear-gradient-37)"/>
        <path id="Caminho_252" data-name="Caminho 252" d="M35.082,67.436c-.608.8-1.481,1.369-2.152,2.122-2.119,2.379-1.808,6-1.272,9.139s1.1,6.654-.705,9.282c-.75,1.081-1.843,1.9-2.649,2.954a7.137,7.137,0,0,0-1.458,4.087c-.069,2.225.908,4.444.489,6.631-.621,3.229-3.953,5.128-5.668,7.935a8.7,8.7,0,0,0-1.112,6.055,16.785,16.785,0,0,1-3.268-.885,1.76,1.76,0,0,1-.761-.461.814.814,0,0,1-.08-.112,2.035,2.035,0,0,1-.227-.83,16.717,16.717,0,0,1,.288-5.37c.011-.052.024-.1.037-.156a33.131,33.131,0,0,0,.9-4.018,13.019,13.019,0,0,0-.052-2.66,17.363,17.363,0,0,0-.05-6.732c-.039-.16-.084-.32-.13-.478.041-.138.089-.277.143-.413.543-1.4,1.594-2.561,2.072-3.981.629-1.875.182-3.916.2-5.891a12.711,12.711,0,0,1,4.035-9.031c.88-.828,1.916-1.473,2.325-2.662a9.113,9.113,0,0,0-.175-5.013c-.461-1.825-.9-3.923.19-5.458a4.47,4.47,0,0,1,2.279-1.551,6.183,6.183,0,0,1,6.25,1.341A4.9,4.9,0,0,1,35.082,67.436Z" transform="translate(-0.002)" fill="url(#linear-gradient-38)"/>
        <path id="Caminho_253" data-name="Caminho 253" d="M97.135-3.644" transform="translate(-0.002)" fill="none" stroke="#6c62ff" stroke-miterlimit="10" stroke-width="0.402"/>
        <path id="Caminho_254" data-name="Caminho 254" d="M73.414,33.52a18.7,18.7,0,0,0-13.306,11.31c-4.208,9.92-2.02,22.21-1.946,23.291s12.9,5.772,16.561,5.772a4.616,4.616,0,0,0,4.429-3.631l-6.477-2.727,19.68-2.247h3.534l-1.946,3.244s3.841.4,6.408.489,4.31-4.929,4.6-7.424S93.608,37.2,91.872,35.9,85.423,31.431,73.414,33.52Z" transform="translate(-0.002)" fill="#086c7b"/>
        <path id="Caminho_255" data-name="Caminho 255" d="M84.32,14.941s1.611.919,1.466,3.893-1.053,7.448-1.97,8.607-4.124,1.613-4.124,1.613,1.75,4.215,3.051,5.3-1.308,5.1-3.847,3.78a25.014,25.014,0,0,1-5.482-4.617s2.117-3.977,1.4-6.07S71.366,18.01,73.414,16,79.878,11.12,84.32,14.941Z" transform="translate(-0.002)" fill="url(#linear-gradient-39)"/>
        <path id="Caminho_256" data-name="Caminho 256" d="M69.729,47.8,68.3,65.289l4.36,2.247,3.545-.608-4.423-5.339Z" fill="#fff" opacity="0.25"/>
        <path id="Caminho_257" data-name="Caminho 257" d="M92.713,46.928s5.7,13.562,3.173,18.371l-1.946-.374Z" transform="translate(-0.002)" fill="#fff" opacity="0.25"/>
        <path id="Caminho_258" data-name="Caminho 258" d="M76.783,69.636s-2.176,1.946-1.2,3.46,2.13,1.471,3.1.794,2.865-2.284,5.128-1.546a9.715,9.715,0,0,1,2.811,1.207s1.192-.781.882-1.564a14.14,14.14,0,0,0-3.361-3.648c-.686-.329-3.532.681-3.532.681A4.927,4.927,0,0,0,76.783,69.636Z" transform="translate(-0.002)" fill="url(#linear-gradient-40)"/>
        <path id="Caminho_259" data-name="Caminho 259" d="M96.532,65.983s-2.072.238-2.6,1.553a5.252,5.252,0,0,1-.712,1.475s1.17.216,1.657-.4a.814.814,0,0,1,.993-.355l-.145.785s3.179.463,4.615-.035a6.047,6.047,0,0,0,2.052-1.081l.562-1.328a7.2,7.2,0,0,0-2.379-1.1A20.177,20.177,0,0,0,96.532,65.983Z" transform="translate(-0.002)" fill="url(#linear-gradient-41)"/>
        <path id="Caminho_260" data-name="Caminho 260" d="M107.049,80.6s7.057,5.372,6.429,12.638S111.93,111.3,111.93,111.3s-2.846,1.2-4.732,0-3.028-17.593-3.962-19.158-6.555-8.624-12.56-9.232Z" transform="translate(-0.002)" fill="#25233a"/>
        <path id="Caminho_261" data-name="Caminho 261" d="M71.463,85.669a19.186,19.186,0,0,0,9.466,4.262c6.064,1.019,8.89,1.868,10.744,7.083S95.3,113.45,95.885,114.7s3.056.614,3.056.614,1.4-1.6,1.4-10.528c0-12.439.865-14.989-2.251-18.114A15.9,15.9,0,0,0,92.138,82.7Z" transform="translate(-0.002)" fill="#3f3d56"/>
        <path id="Caminho_262" data-name="Caminho 262" d="M95.885,114.7l.577,4.552h1.081s6.964.381,7.182.216-.335-3.605-2.974-3.508-2.811-.649-2.811-.649Z" transform="translate(-0.002)" fill="#25233a"/>
        <path id="Caminho_263" data-name="Caminho 263" d="M108.048,111.672l1.125,4.481,12.288-1.687s.433-2.943-3.46-2.651c-1.027.076-1.793.8-3.028.8a3.83,3.83,0,0,1-3.041-1.321h0Z" transform="translate(-0.002)" fill="#25233a"/>
        <path id="Caminho_264" data-name="Caminho 264" d="M150.9,55.3l-46.511,2.491a2.041,2.041,0,0,1-2.145-1.929c0-.035,0-.071,0-.106V22.8a2.455,2.455,0,0,1,2.4-2.452l46.321-.956a2.24,2.24,0,0,1,2.286,2.2V52.822A2.487,2.487,0,0,1,150.9,55.3Z" transform="translate(-0.002)" fill="#086c7b"/>
        <path id="Caminho_265" data-name="Caminho 265" d="M153.041,55.3,106.53,57.793a2.042,2.042,0,0,1-2.143-1.931V22.8a2.45,2.45,0,0,1,2.4-2.452l46.325-.956a2.24,2.24,0,0,1,2.282,2.193V52.822A2.487,2.487,0,0,1,153.041,55.3Z" transform="translate(-0.002)" fill="#086c7b"/>
        <path id="Caminho_266" data-name="Caminho 266" d="M153.041,55.3,106.53,57.793a2.042,2.042,0,0,1-2.143-1.931V22.8a2.45,2.45,0,0,1,2.4-2.452l46.325-.956a2.24,2.24,0,0,1,2.282,2.193V52.822A2.487,2.487,0,0,1,153.041,55.3Z" transform="translate(-0.002)" fill="url(#linear-gradient-42)"/>
        <path id="Caminho_267" data-name="Caminho 267" d="M139.5,67.752l-11.81,1.259s-3.6-.727-3.4-1.259,3.955-1.045,3.955-1.045V45.263h0a3.64,3.64,0,0,0-1.884-1.081h0a6.811,6.811,0,0,0-.8-.186,2.357,2.357,0,0,1-.67-.2c-.807-.417.084-1.144,1.336-1.176a3.127,3.127,0,0,1,.586.035h9.083s3.439.969,3.605,5.8S139.5,67.752,139.5,67.752Z" transform="translate(-0.002)" fill="#086c7b"/>
        <path id="Caminho_268" data-name="Caminho 268" d="M129.888,67.8l-2.206,1.213s-3.6-.727-3.4-1.259,3.962-1.045,3.962-1.045V45.263h0a4.939,4.939,0,0,0-1.884-1.081h0a9.563,9.563,0,0,0-1.471-.389c-.807-.417.084-1.144,1.336-1.176,1.066.145,3.166,1.313,3.3,1.979S129.888,67.8,129.888,67.8Z" transform="translate(-0.002)" fill="#086c7b"/>
        <path id="Caminho_269" data-name="Caminho 269" d="M129.888,67.8l-2.206,1.213s-3.6-.727-3.4-1.259,3.962-1.045,3.962-1.045V45.263h0a4.939,4.939,0,0,0-1.884-1.081h0a9.563,9.563,0,0,0-1.471-.389c-.807-.417.084-1.144,1.336-1.176,1.066.145,3.166,1.313,3.3,1.979S129.888,67.8,129.888,67.8Z" transform="translate(-0.002)" fill="url(#linear-gradient-43)"/>
        <path id="Caminho_270" data-name="Caminho 270" d="M85.678,112.845c-.275.281-.4.385-.24.154A1.73,1.73,0,0,0,85.678,112.845Z" transform="translate(-0.002)" fill="url(#linear-gradient-44)"/>
      </g>
    </g>
    <circle id="Elipse_57-2" data-name="Elipse 57" cx="3" cy="3" r="3" transform="translate(743 2037)" fill="#395e66" opacity="0.5"/>
    <circle id="Elipse_64" data-name="Elipse 64" cx="3" cy="3" r="3" transform="translate(743 2072)" fill="#395e66" opacity="0.5"/>
  </g>
  <g id="Release" transform="translate(-51 -1633)">
    <g transform="matrix(1, 0, 0, 1, 51, 1633)" filter="url(#Container-3)">
      <path id="Container-6" data-name="Container" d="M30,0H480c16.569,0,30,10.926,30,24.4V433.6c0,13.478-13.431,24.4-30,24.4H30c-16.569,0-30-10.926-30-24.4V24.4C0,10.926,13.431,0,30,0Z" transform="translate(1217 119)" fill="#fff"/>
    </g>
    <text id="Liberação" transform="translate(1293 1990)" fill="#395e66" font-size="33" font-family="Muli-SemiBold, Muli" font-weight="600"><tspan x="0" y="0">Liberação</tspan></text>
    <text id="A_JusCredit_é_uma_instituição_autorizada_e_regulada_pelo_Banco_Central_do_Brasil_Bacen_atuando_como_correspondente_bancário." data-name="A JusCredit é uma instituição autorizada e regulada pelo Banco Central do Brasil (Bacen), atuando como correspondente bancário." transform="translate(1293 2031)" fill="#395e66" font-size="20" font-family="Muli-Regular, Muli" opacity="0.5"><tspan x="0" y="20">A JusCredit é uma instituição autorizada e </tspan><tspan x="0" y="55">regulada pelo Banco Central do Brasil (Bacen), </tspan><tspan x="0" y="90">atuando como correspondente bancário.</tspan></text>
    <g id="Illustration-3" data-name="Illustration" transform="translate(-9)" clip-path="url(#clip-path-3)">
      <g id="transfer_money" transform="translate(1302.042 1792)">
        <path id="Caminho_271" data-name="Caminho 271" d="M140.972,84.806c.282,12.988-10.408,23.252-20.287,31.723a.822.822,0,0,1-.107.1l-13.364,11.283a25.435,25.435,0,0,1-5.537,3.671c-8.784,4.334-19.824,3.939-29.93,3.261-8.135-.565-17.382-1.714-22.08-8.392-1.525-2.185-2.4-4.786-4.057-6.875-2.372-3.013-6.057-4.617-9.394-6.494a40.724,40.724,0,0,1-11.7-10c-6.195-7.759-9.346-17.628-6.243-26.824.048-.155.107-.313.167-.472,1.892-5.2,5.562-9.546,8.146-14.44C34.9,45.668,32.471,24.317,45.572,12.311c6.35-5.817,15.165-8.075,23.7-9.2,8.9-1.18,18.071-1.33,26.767.867,17.837,4.47,32.5,19.437,37.048,37.195a44.478,44.478,0,0,1,1.045,5.249c.827,6.017.59,12.184,1.841,18.13.344,1.607.788,3.182,1.282,4.758C138.846,74.427,140.865,79.469,140.972,84.806Z" transform="translate(-17.062 -2.258)" fill="#086c7b" opacity="0.24"/>
        <path id="Caminho_272" data-name="Caminho 272" d="M120.558,67.9H33.327v3.741h88.341Z" transform="translate(0.009 -0.002)" fill="url(#linear-gradient-45)"/>
        <path id="Caminho_273" data-name="Caminho 273" d="M137.251,69.3l-.246.847H52.016V41.168h81.068a44.478,44.478,0,0,1,1.045,5.249c.827,6.017.59,12.184,1.841,18.13C136.314,66.153,136.757,67.729,137.251,69.3Z" transform="translate(-17.062 -2.258)" fill="url(#linear-gradient-46)"/>
        <rect id="Retângulo_84" data-name="Retângulo 84" width="9.261" height="1.931" transform="translate(73.154 48.25)" fill="url(#linear-gradient-47)"/>
        <rect id="Retângulo_85" data-name="Retângulo 85" width="9.261" height="6.717" transform="translate(73.154 56.364)" fill="url(#linear-gradient-48)"/>
        <path id="Caminho_274" data-name="Caminho 274" d="M60.057,59.295c.906-1.943,1.482-4.035,2.5-5.93,2-3.738,5.647-6.531,7.034-10.54,1.669.669,2.228,2.8,2.044,4.585s-.878,3.527-.793,5.322a25.5,25.5,0,0,1,16.831-5.814,5.927,5.927,0,0,1,4.105,1.321,6.538,6.538,0,0,1,1.364,2.733c.791,2.5,1.59,5.142,1.07,7.714a8.538,8.538,0,0,0-.376,2.394c.1,1.1.847,2.236.384,3.241a11.876,11.876,0,0,0-.638,1.053c-.248.72.237,1.471.339,2.225.209,1.516-1.129,2.79-2.459,3.541-3.953,2.225-8.646,2.64-12.926,4.145-13.779,4.84-19,1.957-19.161,1.463-1.081-3.326-3.306-7.508-3.546-10.984C55.661,63.4,59.038,61.48,60.057,59.295Z" transform="translate(-17.062 -2.258)" fill="#feba7b"/>
        <path id="Caminho_275" data-name="Caminho 275" d="M67.215,69.8c-.678,1.107.9,2.42,1.581,3.524a2.64,2.64,0,0,0,3.01,1.643,8.119,8.119,0,0,0,3.4-.644c1.6-.822,2.465-2.578,3.134-4.249,1.977-4.924,3.174-10.447,1.553-15.51a5.266,5.266,0,0,0-2.7-3.515,5.8,5.8,0,0,0-4.3.528c-.791.339-2.3.743-2.742,1.533C69.762,53.809,71.843,62.246,67.215,69.8Z" transform="translate(-17.062 -2.259)" fill="url(#linear-gradient-49)"/>
        <path id="Caminho_276" data-name="Caminho 276" d="M60.52,81.517a1.9,1.9,0,0,1-.827.728c-6.124,3.645-23.585,11.69-29.021,16.289a33.077,33.077,0,0,1-6.147,4.54q-.847-1.062-1.624-2.185a.223.223,0,0,0-.031-.04c-5.082-7.367-7.406-16.261-4.588-24.593,1.841-.175,5.523-2.824,6.943-3.484,5.218-2.4,22.236-8.313,27.753-9.947a2.059,2.059,0,0,1,1.465-.068,2.177,2.177,0,0,1,.8.915A42.368,42.368,0,0,1,60.069,76.8c.237,1.211.412,2.442.542,3.671a1.9,1.9,0,0,1-.09,1.045Z" transform="translate(-17.062 -2.259)" fill="#086c7b"/>
        <rect id="Retângulo_86" data-name="Retângulo 86" width="21.86" height="39.541" rx="2.982" transform="translate(53.163 35.628)" fill="#086c7b"/>
        <rect id="Retângulo_87" data-name="Retângulo 87" width="19.652" height="32.962" transform="translate(54.264 38.127)" fill="#fff"/>
        <circle id="Elipse_28" data-name="Elipse 28" cx="6.412" cy="6.412" r="6.412" transform="translate(57.277 40.716)" fill="#086c7b" opacity="0.16"/>
        <rect id="Retângulo_88" data-name="Retângulo 88" width="13.776" height="4.393" rx="1.028" transform="translate(56.625 62.065)" fill="#086c7b"/>
        <path id="Caminho_277" data-name="Caminho 277" d="M75.691,67.057a1.978,1.978,0,0,0,.014.282h-.4a1.959,1.959,0,0,0,.014-.282v-.918h-.494v-.347a2.207,2.207,0,0,0,.282,0h.8a2.455,2.455,0,0,0,.282,0v.347a2.525,2.525,0,0,0-.282,0H75.7Z" transform="translate(-17.062 -2.259)" fill="#fff"/>
        <path id="Caminho_278" data-name="Caminho 278" d="M77.242,67.331a1.871,1.871,0,0,0-.09-.282c-.056-.161-.079-.2-.124-.24a.2.2,0,0,0-.141-.051H76.7v.3a1.841,1.841,0,0,0,.014.282h-.392a1.671,1.671,0,0,0,.017-.282v-.985a1.862,1.862,0,0,0-.017-.268h.757a.41.41,0,0,1,.466.415.4.4,0,0,1-.107.3.46.46,0,0,1-.172.09c.093.028.136.071.192.2.028.056.054.119.136.316.02.051.042.1.088.192Zm-.26-.884a.161.161,0,0,0,.175-.169c0-.1-.059-.155-.172-.155H76.7v.325Z" transform="translate(-17.062 -2.259)" fill="#fff"/>
        <path id="Caminho_279" data-name="Caminho 279" d="M78.851,67.331a1.5,1.5,0,0,0-.042-.195l-.051-.155h-.52l-.048.155a1.02,1.02,0,0,0-.045.195h-.426a1.5,1.5,0,0,0,.088-.22l.392-1.1a.994.994,0,0,0,.059-.195h.474a1.729,1.729,0,0,0,.062.195l.4,1.1c.034.1.065.169.088.22Zm-.356-1.2-.169.545h.344Z" transform="translate(-17.062 -2.259)" fill="#fff"/>
        <path id="Caminho_280" data-name="Caminho 280" d="M80.274,66.56a2.205,2.205,0,0,1,.13.217v-.683a1.851,1.851,0,0,0-.017-.282h.39a1.927,1.927,0,0,0-.014.282v.966a2.38,2.38,0,0,0,.014.282h-.4a1.89,1.89,0,0,0-.136-.232L79.9,66.6a2.119,2.119,0,0,1-.133-.223,2.122,2.122,0,0,1,.014.282v.409a1.942,1.942,0,0,0,0,.282H79.4a1.825,1.825,0,0,0,0-.282v-.957a1.942,1.942,0,0,0,0-.282h.4a1.13,1.13,0,0,0,.127.226Z" transform="translate(-17.062 -2.259)" fill="#fff"/>
        <path id="Caminho_281" data-name="Caminho 281" d="M81.319,66.837a.24.24,0,0,0,.045.136.265.265,0,0,0,.215.088c.138,0,.223-.062.223-.167a.136.136,0,0,0-.076-.127,1.59,1.59,0,0,0-.282-.073.76.76,0,0,1-.282-.1.418.418,0,0,1-.175-.35c0-.282.226-.457.584-.457a.593.593,0,0,1,.505.206.514.514,0,0,1,.09.22l-.384.042c-.023-.119-.088-.169-.226-.169s-.195.062-.195.144a.124.124,0,0,0,.088.116,1.073,1.073,0,0,0,.251.062.869.869,0,0,1,.282.1.409.409,0,0,1,.2.373.466.466,0,0,1-.127.336.672.672,0,0,1-.48.152.867.867,0,0,1-.407-.088.424.424,0,0,1-.195-.234.63.63,0,0,1-.042-.169Z" transform="translate(-17.062 -2.259)" fill="#fff"/>
        <path id="Caminho_282" data-name="Caminho 282" d="M82.765,67.015a2.064,2.064,0,0,0,.014.316h-.392a1.693,1.693,0,0,0,.017-.311v-.949a1.766,1.766,0,0,0,0-.265H83.2a2.054,2.054,0,0,0,.3,0v.347a2.572,2.572,0,0,0-.3-.014h-.418v.3h.342a1.932,1.932,0,0,0,.282,0v.339a2.436,2.436,0,0,0-.282-.014h-.342Z" transform="translate(-17.062 -2.259)" fill="#fff"/>
        <path id="Caminho_283" data-name="Caminho 283" d="M84.781,67.345a1.9,1.9,0,0,0-.3,0h-.833a1.654,1.654,0,0,0,0-.265V66.072a1.858,1.858,0,0,0,0-.265h.85a2.348,2.348,0,0,0,.282,0v.342a2.346,2.346,0,0,0-.282,0h-.474v.268H84.7v.336a2.326,2.326,0,0,0-.282-.014h-.392v.308h.469a2.515,2.515,0,0,0,.3,0Z" transform="translate(-17.062 -2.259)" fill="#fff"/>
        <path id="Caminho_284" data-name="Caminho 284" d="M85.887,67.331a2.118,2.118,0,0,0-.088-.282c-.059-.161-.082-.2-.127-.24a.2.2,0,0,0-.141-.051h-.186v.3a1.841,1.841,0,0,0,.014.282h-.392a1.671,1.671,0,0,0,.017-.282v-.985a1.864,1.864,0,0,0-.017-.268h.754c.3,0,.466.152.466.415a.4.4,0,0,1-.107.3.441.441,0,0,1-.172.09c.093.028.136.071.192.2.028.056.054.119.136.316.02.051.042.1.088.192Zm-.257-.884a.158.158,0,0,0,.172-.169c0-.1-.059-.155-.172-.155h-.282v.325Z" transform="translate(-17.062 -2.259)" fill="#fff"/>
        <rect id="Retângulo_89" data-name="Retângulo 89" width="13.776" height="4.393" rx="1.028" transform="translate(56.625 62.065)" fill="url(#linear-gradient-50)"/>
        <path id="Caminho_285" data-name="Caminho 285" d="M87.3,59.815c.22.342.584.593.709.98.223.7-.452,1.355-.621,2.075-.263,1.129.734,2.194.632,3.335-.073.867-.771,1.669-.565,2.51-.847-1.237-2.979-.709-3.73.593s-.536,2.92-.282,4.4c.282,1.547.788,3.335,2.259,3.88a4.706,4.706,0,0,0,3.408-.551q-.793-2.905-1.446-5.848a7.717,7.717,0,0,1,3.755.918,15.14,15.14,0,0,0,.477-4.585l.014-10.58V51.479c0-1.09.675-1.169-.127-1.849-1.039,1.714-4.221.81-4.382,2.843-.11,1.369.847,2.372.505,3.8C87.669,57.392,86.557,58.654,87.3,59.815Z" transform="translate(-17.062 -2.259)" fill="url(#linear-gradient-51)"/>
        <path id="Caminho_286" data-name="Caminho 286" d="M110.935,106.779a1.463,1.463,0,0,1-.491.4c-1.714,1-3.546,2.047-5.537,2.039-2.922-.02-3.346,2.442-5.337.3-2.629-2.824-7.83-8.649-10.261-11.653a13.633,13.633,0,0,1-3-8.389,7.158,7.158,0,0,1,.257-3.2c.215-.565,1.319-2.866,1.576-3.428a4.276,4.276,0,0,0,.155-.4,6.227,6.227,0,0,0-.234-4.086h0a14.211,14.211,0,0,0-1.129-2.383c-1.231-2.1-2.759-4.165-2.937-6.579a2.551,2.551,0,0,1,.415-1.782,2.127,2.127,0,0,1,2.609-.344,6.077,6.077,0,0,1,1.991,2.01c1.525,2.194,2.953,4.45,4.264,6.777a3.186,3.186,0,0,1,3.21-1.053,5.224,5.224,0,0,1,2.894,1.96,5.461,5.461,0,0,0,1.607,1.711,10.286,10.286,0,0,0,1.821.5c2.185.652,3.151,3.123,4.176,5.161a40.247,40.247,0,0,1,2.259,4.56,16.71,16.71,0,0,1,.737,4.746c.178,4.009-.1,8.1.966,11.966A1.465,1.465,0,0,1,110.935,106.779Z" transform="translate(-17.062 -2.259)" fill="#feba7b"/>
        <path id="Caminho_287" data-name="Caminho 287" d="M94.409,103.738c1.1,1.09,3.476,3.933,4.574,5.023a4.152,4.152,0,0,0,1.694,1.2c.565.158-.127-1.674.446-1.77,2.773-.463,7.274-1.223,9.854-2.338l-.449-2.078c-.875-.466-4.583.257-5.647.311q-2.677.133-5.365.037C98.6,104.088,95.058,104.382,94.409,103.738Z" transform="translate(-17.062 -2.259)" fill="url(#linear-gradient-52)"/>
        <path id="Caminho_288" data-name="Caminho 288" d="M120.685,116.529a.823.823,0,0,1-.107.1l-12.223,10.3-1.129.966a25.434,25.434,0,0,1-5.537,3.671c-3.041-7.779-4.933-22.484-4.933-22.484l1.626-.483,14.77-4.343Z" transform="translate(-17.062 -2.259)" fill="#086c7b"/>
        <rect id="Retângulo_90" data-name="Retângulo 90" width="28.719" height="15.002" transform="translate(82.364 48.218)" fill="#086c7b"/>
        <path id="Caminho_289" data-name="Caminho 289" d="M126.431,55.13v6.009a2.72,2.72,0,0,0-2.31,2.953,1.261,1.261,0,0,0,0,.206H104.063a1.261,1.261,0,0,0,0-.206c0-1.629-1.045-2.953-2.332-2.953a1.976,1.976,0,0,0-.5.073V55.06a1.976,1.976,0,0,0,.5.073c1.288,0,2.321-1.307,2.332-2.939H124.11A2.74,2.74,0,0,0,126.431,55.13Z" transform="translate(-17.062 -2.258)" fill="url(#linear-gradient-53)"/>
        <rect id="Retângulo_91" data-name="Retângulo 91" width="28.719" height="15.002" transform="translate(84.722 43.074)" fill="#086c7b"/>
        <path id="Caminho_290" data-name="Caminho 290" d="M128.786,49.977v6.011a2.718,2.718,0,0,0-2.31,2.953,1.013,1.013,0,0,0,.014.206H106.42a1.263,1.263,0,0,0,0-.206c0-1.632-1.045-2.953-2.332-2.953a1.844,1.844,0,0,0-.5.073v-6.15a1.844,1.844,0,0,0,.5.073c1.288,0,2.321-1.307,2.332-2.939h20.047C126.5,48.664,127.521,49.957,128.786,49.977Z" transform="translate(-17.062 -2.258)" fill="url(#linear-gradient-54)"/>
        <path id="Caminho_291" data-name="Caminho 291" d="M72.583,49.475a8.457,8.457,0,0,0,.127-4.741,5.706,5.706,0,0,0-1.395-2.824,1.07,1.07,0,0,0-.706-.376c-.517,0-.819.565-.994,1.05q-1.1,3.052-2,6.175a9.787,9.787,0,0,0-.52,2.976c.051,1.734,1.005,3.081,2.564,1.714A10.138,10.138,0,0,0,72.583,49.475Z" transform="translate(-17.062 -2.258)" fill="#feba7b"/>
        <path id="Caminho_292" data-name="Caminho 292" d="M89.284,48.65A2.366,2.366,0,0,0,87.627,50.8a2.418,2.418,0,0,0,1.282,1.883,7.178,7.178,0,0,0,2.259.709,4.351,4.351,0,0,0-3.219,2.338,2.5,2.5,0,0,0,.178,2.793,2.589,2.589,0,0,0,.881.565,5.286,5.286,0,0,0,1.77.4,2.713,2.713,0,0,0-2.773,2.428,2.432,2.432,0,0,0,2.6,2.465,2.182,2.182,0,0,0-2.332,1.626,2.784,2.784,0,0,0,1.031,2.767,3.874,3.874,0,0,0,2.953.683,1.872,1.872,0,0,0,1.338-.72,2.327,2.327,0,0,0,.15-1.516c-.666-5.752,1.621-11.509.186-17.179-.189-.74-1.477-1.327-2.2-1.536A4.382,4.382,0,0,0,89.284,48.65Z" transform="translate(-17.062 -2.258)" fill="#feba7b"/>
        <path id="Caminho_293" data-name="Caminho 293" d="M60.52,81.517a1.9,1.9,0,0,1-.827.728c-6.124,3.645-23.585,11.69-29.021,16.289a33.077,33.077,0,0,1-6.147,4.54,14.876,14.876,0,0,1-1.624-2.185.222.222,0,0,0-.031-.04,64.809,64.809,0,0,1-3.162-5.879c6.246.689,39.66-18.221,39.66-18.221a2.282,2.282,0,0,1,.7.04c.237,1.211.412,2.442.542,3.671a1.9,1.9,0,0,1-.09,1.056Z" transform="translate(-17.062 -2.259)" fill="url(#linear-gradient-55)"/>
        <path id="Caminho_294" data-name="Caminho 294" d="M108.355,126.928l-1.129.966a25.434,25.434,0,0,1-5.537,3.671c-3.041-7.779-4.933-22.484-4.933-22.484l1.626-.483a18.562,18.562,0,0,1,2.075-.333c1.223,2.708,2.434,5.416,3.408,8.234.582,1.694,1.084,3.405,1.734,5.082a29.642,29.642,0,0,0,2.493,4.518,1.977,1.977,0,0,1,.263.83Z" transform="translate(-17.062 -2.259)" fill="url(#linear-gradient-56)"/>
        <path id="Caminho_295" data-name="Caminho 295" d="M91.543,88.875a.985.985,0,0,1-.186.689c-.325.333-.875.088-1.259-.178a4.2,4.2,0,0,1-2.07-2.355,4.413,4.413,0,0,1,.071-1.525c.127-.847.206-1.725.254-2.6a1.815,1.815,0,0,0-.059-.455,6.227,6.227,0,0,0-.234-4.086c1.073,2.087,2.273,5.229,2.5,5.8A13.209,13.209,0,0,1,91.543,88.875Z" transform="translate(-17.062 -2.259)" fill="url(#linear-gradient-57)"/>
        <path id="Caminho_296" data-name="Caminho 296" d="M61.528,57.172H64.8l-.6-.872h.745l1.177,1.44H61.6Z" transform="translate(0.009 -0.002)" fill="#086c7b"/>
        <path id="Caminho_297" data-name="Caminho 297" d="M66.122,58.767h-3.27l.6.872h-.745l-1.18-1.44h4.523Z" transform="translate(0.009 -0.002)" fill="#086c7b"/>
        <path id="Caminho_298" data-name="Caminho 298" d="M80.554,53.507v-.988a2.84,2.84,0,0,1-1.508-.435l.237-.658a2.637,2.637,0,0,0,1.412.424c.7,0,1.175-.407,1.175-.966s-.384-.878-1.129-1.175c-1.005-.4-1.626-.847-1.626-1.694A1.6,1.6,0,0,1,80.6,46.428v-1h.613v.957a2.646,2.646,0,0,1,1.282.344l-.248.652a2.369,2.369,0,0,0-1.24-.336c-.76,0-1.045.455-1.045.847,0,.514.364.768,1.22,1.129,1.016.415,1.53.926,1.53,1.8A1.712,1.712,0,0,1,81.155,52.5v1.025Z" transform="translate(-17.062 -2.258)" fill="#086c7b"/>
        <path id="Caminho_299" data-name="Caminho 299" d="M115.936,56.638v-.994a2.883,2.883,0,0,1-1.508-.435l.234-.661a2.632,2.632,0,0,0,1.412.424c.7,0,1.175-.4,1.175-.966s-.384-.878-1.115-1.172c-1.005-.4-1.626-.847-1.626-1.694A1.6,1.6,0,0,1,116,49.551v-.994h.618v.957a2.6,2.6,0,0,1,1.282.344l-.248.649a2.369,2.369,0,0,0-1.24-.336c-.76,0-1.048.455-1.048.847,0,.511.367.768,1.223,1.129,1.016.412,1.53.926,1.53,1.8a1.714,1.714,0,0,1-1.559,1.674v1.025Z" transform="translate(-17.062 -2.258)" fill="#086c7b"/>
        <rect id="Retângulo_92" data-name="Retângulo 92" width="9.261" height="10.78" transform="translate(75.466 43.08)" opacity="0.48" fill="url(#linear-gradient-58)"/>
        <rect id="Retângulo_93" data-name="Retângulo 93" width="9.261" height="7.296" transform="translate(75.466 50.977)" opacity="0.48" fill="url(#linear-gradient-58)"/>
      </g>
    </g>
  </g>
</svg>
