<svg xmlns="http://www.w3.org/2000/svg" xmlns:xlink="http://www.w3.org/1999/xlink" width="157" height="133" viewBox="0 0 207 133">
  <defs>
    <clipPath id="clip-path">
      <rect id="Ret칙ngulo_78" data-name="Ret칙ngulo 78" width="207" height="133" transform="translate(193 1792)" fill="#dedede"/>
    </clipPath>
    <linearGradient id="linear-gradient" y1="0.499" x2="1" y2="0.499" gradientUnits="objectBoundingBox">
      <stop offset="0" stop-opacity="0"/>
      <stop offset="0.99"/>
    </linearGradient>
    <linearGradient id="linear-gradient-2" x1="0" y1="0.5" x2="1" y2="0.5" xlink:href="#linear-gradient"/>
    <linearGradient id="linear-gradient-3" x1="0.784" y1="-0.503" x2="-0.429" y2="2.976" xlink:href="#linear-gradient"/>
    <linearGradient id="linear-gradient-4" x1="0.2" y1="-0.037" x2="0.684" y2="0.702" xlink:href="#linear-gradient"/>
    <linearGradient id="linear-gradient-5" x1="0.118" y1="-0.021" x2="1.184" y2="0.931" xlink:href="#linear-gradient"/>
    <linearGradient id="linear-gradient-6" x1="0.446" y1="0.185" x2="1.12" y2="0.88" xlink:href="#linear-gradient"/>
    <linearGradient id="linear-gradient-7" x1="0" y1="0.5" x2="1" y2="0.5" xlink:href="#linear-gradient"/>
    <linearGradient id="linear-gradient-8" x1="1.943" y1="0.409" x2="-3.702" y2="0.745" xlink:href="#linear-gradient"/>
    <linearGradient id="linear-gradient-9" x1="0.001" y1="0.5" x2="1" y2="0.5" gradientUnits="objectBoundingBox">
      <stop offset="0" stop-color="#e5c5d5"/>
      <stop offset="0.42" stop-color="#ead4d1"/>
      <stop offset="1" stop-color="#f0e9cb"/>
    </linearGradient>
    <linearGradient id="linear-gradient-10" x1="0.001" y1="0.5" x2="1" y2="0.5" xlink:href="#linear-gradient-9"/>
    <linearGradient id="linear-gradient-11" x1="0.54" y1="-0.023" x2="0.472" y2="0.945" xlink:href="#linear-gradient"/>
    <linearGradient id="linear-gradient-12" x1="0" y1="0.5" x2="1" y2="0.5" xlink:href="#linear-gradient-9"/>
    <linearGradient id="linear-gradient-13" x1="-100.963" y1="-64.97" x2="-99.98" y2="-64.97" xlink:href="#linear-gradient-9"/>
    <linearGradient id="linear-gradient-14" x1="0.515" y1="-0.043" x2="0.436" y2="1.422" xlink:href="#linear-gradient"/>
    <linearGradient id="linear-gradient-15" x1="0.375" y1="0.302" x2="0.724" y2="0.964" xlink:href="#linear-gradient"/>
    <linearGradient id="linear-gradient-16" x1="0" y1="0.499" x2="1.002" y2="0.499" xlink:href="#linear-gradient-9"/>
    <linearGradient id="linear-gradient-17" x1="1.364" y1="0.465" x2="-0.032" y2="0.524" gradientUnits="objectBoundingBox">
      <stop offset="0.02" stop-color="#fff" stop-opacity="0"/>
      <stop offset="0.58" stop-color="#fff" stop-opacity="0.388"/>
      <stop offset="0.68" stop-color="#fff" stop-opacity="0.678"/>
      <stop offset="1" stop-color="#fff"/>
    </linearGradient>
    <linearGradient id="linear-gradient-18" x1="2.451" y1="-0.279" x2="-0.565" y2="0.919" xlink:href="#linear-gradient-17"/>
    <linearGradient id="linear-gradient-19" x1="0.622" y1="-0.227" x2="0.096" y2="2.834" xlink:href="#linear-gradient-17"/>
    <linearGradient id="linear-gradient-20" x1="0.49" y1="0.371" x2="0.566" y2="1.146" xlink:href="#linear-gradient"/>
  </defs>
  <g id="Grupo_de_m치scara_24" data-name="Grupo de m치scara 24" transform="translate(-193 -1792)" clip-path="url(#clip-path)">
    <g id="fast_working" transform="translate(213.361 1792)">
      <path id="Caminho_179" data-name="Caminho 179" d="M133.858,10.627c-3.737-1.358-7.144-3.5-10.862-4.892-5.047-1.883-10.5-2.332-15.9-2.325-17.42,0-35.191,4.856-48.8,15.722-5.424,4.32-10.3,9.639-16.79,12.046-5.138,1.912-11.177,1.959-15.334,5.533-4.649,3.983-5.225,10.931-4.808,17.05s1.412,12.582-1.2,18.129c-1.535,3.259-4.168,5.833-6.326,8.715A34.177,34.177,0,0,0,24.69,130.994c8.549,4.707,18.683,5.562,28.449,5.4,8.914-.148,18.238-1.195,25.635-6.173,4.765-3.212,8.509-7.919,13.683-10.417,6.239-3.005,13.516-2.346,20.443-2.39,8.2-.058,16.612-1.275,23.771-5.286s12.89-11.192,13.542-19.368c.5-6.275-1.912-12.818.192-18.745a21.01,21.01,0,0,1,3.719-6.1c5.554-6.847,12.908-12.517,16.417-20.628a39.778,39.778,0,0,0,2.759-14c.275-6.014-.536-12.944-5.471-16.4-4.475-3.132-9.986-1.684-15.03-2.408C146.6,13.582,139.763,12.763,133.858,10.627Z" transform="translate(-7.046 -3.411)" fill="#086c7b" opacity="0.18"/>
      <path id="Caminho_180" data-name="Caminho 180" d="M67.977,72.778S51.959,68.85,41.227,77.764s1.514,5.142,5.431,6.351,9.823,3.476,9.823,3.476S72.815,79.875,67.977,72.778Z" transform="translate(-7.046 -3.411)" fill="#3e3e54"/>
      <path id="Caminho_181" data-name="Caminho 181" d="M67.977,72.778S51.959,68.85,41.227,77.764s1.514,5.142,5.431,6.351,9.823,3.476,9.823,3.476S72.815,79.875,67.977,72.778Z" transform="translate(-7.046 -3.411)" fill="url(#linear-gradient)"/>
      <path id="Caminho_182" data-name="Caminho 182" d="M62.365,98.211s10.077-6.648,16.323-4.635l5.239,1.611s-3.223,20.356-21.16,22.17c0,0-3.827.4.406-6.651A10.523,10.523,0,0,0,62.365,98.211Z" transform="translate(-7.046 -3.411)" fill="#3e3e54"/>
      <path id="Caminho_183" data-name="Caminho 183" d="M62.365,98.211s10.077-6.648,16.323-4.635l5.239,1.611s-3.223,20.356-21.16,22.17c0,0-3.827.4.406-6.651A10.523,10.523,0,0,0,62.365,98.211Z" transform="translate(-7.046 -3.411)" fill="url(#linear-gradient-2)"/>
      <path id="Caminho_184" data-name="Caminho 184" d="M90.43,31.885a8.009,8.009,0,0,0,2.3.8,8.882,8.882,0,0,0,3.509-.543,41.124,41.124,0,0,1,4.059-.916,2.408,2.408,0,0,1,2.172.362,1.7,1.7,0,0,1-.04,2.14,4.949,4.949,0,0,1-1.9,1.311l-4.12,1.966a12.973,12.973,0,0,1-2.2.891c-3.139.847-6.4-.724-9.132-2.473-1.054-.681-2.194-1.579-2.238-2.831a4.139,4.139,0,0,1,.3-1.448A3.291,3.291,0,0,1,84,29.636C85.248,28.561,89.173,31.295,90.43,31.885Z" transform="translate(-7.046 -3.411)" fill="#086c7b"/>
      <path id="Caminho_185" data-name="Caminho 185" d="M90.343,31.928a8.009,8.009,0,0,0,2.3.8,8.882,8.882,0,0,0,3.509-.543,40.109,40.109,0,0,1,4.073-.912,2.388,2.388,0,0,1,2.172.362,1.7,1.7,0,0,1-.04,2.136,4.949,4.949,0,0,1-1.9,1.311l-4.12,1.966a12.973,12.973,0,0,1-2.2.891c-3.139.847-6.4-.724-9.132-2.473-1.054-.677-2.194-1.579-2.238-2.831a4.023,4.023,0,0,1,.3-1.448,3.3,3.3,0,0,1,.833-1.5C85.162,28.6,89.072,31.342,90.343,31.928Z" transform="translate(-7.046 -3.411)" fill="url(#linear-gradient-3)"/>
      <path id="Caminho_186" data-name="Caminho 186" d="M98.62,47.176a34.9,34.9,0,0,1-4.164,4.975A13.881,13.881,0,0,1,89.488,56a3.513,3.513,0,0,1-3.027-.065,2.964,2.964,0,0,1-1.184-2.987,6.014,6.014,0,0,1,1.6-2.958,16.091,16.091,0,0,1,2.049-2.1,4.646,4.646,0,0,1,2.755-.666,52.143,52.143,0,0,1,6.934-.04Z" transform="translate(-7.046 -3.411)" fill="#3e3e54"/>
      <path id="Caminho_187" data-name="Caminho 187" d="M98.62,47.176a34.9,34.9,0,0,1-4.164,4.975A13.881,13.881,0,0,1,89.488,56a3.513,3.513,0,0,1-3.027-.065,2.964,2.964,0,0,1-1.184-2.987,6.014,6.014,0,0,1,1.6-2.958,16.091,16.091,0,0,1,2.049-2.1,4.646,4.646,0,0,1,2.755-.666,52.143,52.143,0,0,1,6.934-.04Z" transform="translate(-7.046 -3.411)" fill="url(#linear-gradient-4)"/>
      <path id="Caminho_188" data-name="Caminho 188" d="M160.214,30.958a24.7,24.7,0,0,1-.572,2.6,59.317,59.317,0,0,1-5.294,12.858c-5.04,9.244-14.273,21.363-31.016,32.587C97.045,96.69,73.973,99.638,65.461,100.083c-2.252.127-3.487.08-3.487.08L54.265,88.214A149.975,149.975,0,0,1,78.64,61.71h0a142.783,142.783,0,0,1,23.43-16.569,133.243,133.243,0,0,1,15.483-7.452,104.181,104.181,0,0,1,22.688-6.42C152.845,29.307,160.214,30.958,160.214,30.958Z" transform="translate(-7.046 -3.411)" fill="#086c7b"/>
      <path id="Caminho_189" data-name="Caminho 189" d="M98.432,50.373c-.362.67.764,2.806,1.38,3.259a6.966,6.966,0,0,1,1.81,1.354.952.952,0,0,1,.192.793c-.116.406-.579.587-.981.724l-10.8,3.324a1.738,1.738,0,0,0-.8.409A1.191,1.191,0,0,0,89.5,61.9a2.9,2.9,0,0,0,1.81.449c3.494,0,7.332-1.448,10.258.449a8.784,8.784,0,0,1,2.133,2.172,30.053,30.053,0,0,1,4.671,9.077,4.884,4.884,0,0,1,.214,3.1,9.515,9.515,0,0,1-4.229-3.4c-1.311-1.912-1.984-4.367-3.892-5.677a7.472,7.472,0,0,0-4.884-.945c-1.687.141-3.349.565-5.04.587-3.766.047-7.242-1.81-10.558-3.621-.692-.362-1.477-.9-1.492-1.691a1.311,1.311,0,0,1,.152-.623h0A142.781,142.781,0,0,1,102.074,45.2a133.248,133.248,0,0,1,15.483-7.452C118.991,39.789,98.588,50.094,98.432,50.373Z" transform="translate(-7.046 -3.411)" fill="url(#linear-gradient-5)"/>
      <path id="Caminho_190" data-name="Caminho 190" d="M160.08,31.088s-.894,6.336-5.866,15.454a47.581,47.581,0,0,1-4.707-1.752c-6.307-2.7-8.907-11.532-9.385-13.364C152.711,29.441,160.08,31.088,160.08,31.088Z" transform="translate(-7.046 -3.411)" fill="url(#linear-gradient-6)"/>
      <circle id="Elipse_19" data-name="Elipse 19" cx="6.011" cy="6.011" r="6.011" transform="translate(117.021 38.974)" fill="#3e3e54" opacity="0.31"/>
      <circle id="Elipse_20" data-name="Elipse 20" cx="6.011" cy="6.011" r="6.011" transform="translate(101.151 48.193)" fill="#3e3e54" opacity="0.31"/>
      <circle id="Elipse_21" data-name="Elipse 21" cx="6.011" cy="6.011" r="6.011" transform="translate(83.771 59.982)" fill="#3e3e54" opacity="0.31"/>
      <path id="Caminho_191" data-name="Caminho 191" d="M48.53,80.842l10.077,16.12-5.442,2.017L44.9,85.075Z" fill="#3e3e54"/>
      <path id="Caminho_192" data-name="Caminho 192" d="M85.089,65.026c4.761,1.151,9.729-.091,14.534-1.05a2.9,2.9,0,0,1,1.513-.022,2.816,2.816,0,0,1,1.282,1.227,41.885,41.885,0,0,1,4.124,8.035c.652,1.7,1.264,3.545,2.712,4.646s4.034.855,4.559-.887c-2.473-6.956-5.518-13.69-8.56-20.418a2.62,2.62,0,0,0-2.748-2.013L85.357,53.063C81.5,52.73,75.711,52.219,77,57.578,77.895,61.315,81.468,64.15,85.089,65.026Z" transform="translate(-7.046 -3.411)" fill="#3e3e54"/>
      <path id="Caminho_193" data-name="Caminho 193" d="M85.089,65.026c4.761,1.151,9.729-.091,14.534-1.05a2.9,2.9,0,0,1,1.513-.022,2.816,2.816,0,0,1,1.282,1.227,41.885,41.885,0,0,1,4.124,8.035c.652,1.7,1.264,3.545,2.712,4.646s4.034.855,4.559-.887c-2.473-6.956-5.518-13.69-8.56-20.418a2.62,2.62,0,0,0-2.748-2.013L85.357,53.063C81.5,52.73,75.711,52.219,77,57.578,77.895,61.315,81.468,64.15,85.089,65.026Z" transform="translate(-7.046 -3.411)" fill="url(#linear-gradient-7)"/>
      <path id="Caminho_194" data-name="Caminho 194" d="M89.391,50.2a7.569,7.569,0,0,1-.525,3.429,5.254,5.254,0,0,1-3.621,2.593,9.819,9.819,0,0,1-1.448.214,23.6,23.6,0,0,1-3.118-.069c-1.988-.13-4.244-.4-5.431-2a6.924,6.924,0,0,1-.938-4.026c-.087-3.831-.105-7.662-.134-11.492,0-2.191-.887-5.145-.576-7.242a4.837,4.837,0,0,1,3.031-3.918,8.745,8.745,0,0,1,9.284,2.06c1.669,1.912,2.314,4.5,2.7,7.01A84.976,84.976,0,0,1,89.391,50.2Z" transform="translate(-7.046 -3.411)" fill="#086c7b"/>
      <path id="Caminho_195" data-name="Caminho 195" d="M82.859,42.9q.282,4.345.3,8.69a15.5,15.5,0,0,0,.116,2.39c.1.6.485,1.162.554,1.734a2.379,2.379,0,0,1-.022.724,23.6,23.6,0,0,1-3.118-.069c-1.988-.13-4.244-.4-5.431-2a6.924,6.924,0,0,1-.938-4.026c-.087-3.831-.105-7.662-.134-11.492,0-2.191-.887-5.145-.576-7.242a4.837,4.837,0,0,1,3.031-3.918,4.1,4.1,0,0,1,.673.29,10.108,10.108,0,0,1,3.107,2.955,9.335,9.335,0,0,1,1.159,1.85,9.635,9.635,0,0,1,.608,2.7c.224,1.9.406,3.809.554,5.721.08,1.021-.192,1.666.909,1.861a21.211,21.211,0,0,0,2.831.3,2.822,2.822,0,0,0,2.621-.891,1.876,1.876,0,0,0-.163-2.024A3.588,3.588,0,0,0,87.2,39.257c-.673-.246-1.383-.384-2.064-.612A5.069,5.069,0,0,1,83.261,37.6a2.9,2.9,0,0,1-.963-1.879" transform="translate(-7.046 -3.411)" fill="url(#linear-gradient-8)"/>
      <path id="Caminho_196" data-name="Caminho 196" d="M78.521,27.08a3.461,3.461,0,0,0,.043,1.043,2.933,2.933,0,0,0,1.829,1.76c.5.217,1.159.362,1.517-.054a1.426,1.426,0,0,0,.123-1.227l-.478-2.285a7.636,7.636,0,0,0-.416-1.5c-.21-.489-1.6-2.48-2.3-1.973-.293.21-.17,1.644-.188,2Z" transform="translate(-7.046 -3.411)" fill="url(#linear-gradient-9)"/>
      <path id="Caminho_197" data-name="Caminho 197" d="M78.593,22.913a5.793,5.793,0,0,0,1.253,2.56,3.769,3.769,0,0,0,2.495,1.3,1.713,1.713,0,0,0,1.021-.2,2.339,2.339,0,0,0,.8-1.177c.822-2,1.655-4.189,1.032-6.26a2.535,2.535,0,0,0-1.122-1.553,2.792,2.792,0,0,0-1.9-.105,6.424,6.424,0,0,0-3.418,1.738C78.047,20.139,78.354,21.9,78.593,22.913Z" transform="translate(-7.046 -3.411)" fill="url(#linear-gradient-10)"/>
      <path id="Caminho_198" data-name="Caminho 198" d="M82.58,13.922a4.957,4.957,0,0,0-4.942.511c-.912.684-1.564,1.669-2.495,2.325a16.267,16.267,0,0,1-2.918,1.336c-.119.051-.253.127-.275.253-.036.2.192.322.282.5.138.272-.083.583-.29.811l-1.18,1.289a.854.854,0,0,0-.279.485c-.04.5.663.637,1.159.594l1.637-.145A9.3,9.3,0,0,0,70.823,24.3c.362.384,1.032.2,1.477-.091s.869-.724,1.4-.7c-.793,1.278,1.691,1.227,2.433,1.209a4.638,4.638,0,0,0,1.81-.492,2.147,2.147,0,0,0,.724-.467.883.883,0,0,0,.253-.793,2.273,2.273,0,0,0-.156-.362,1.7,1.7,0,0,1,.022-1.448c.036-.069.083-.145.163-.156a.261.261,0,0,1,.177.062l.547.362a2.788,2.788,0,0,1,2.65-2.9c1.13-.062,3.2.5,2.926-1.347A4.779,4.779,0,0,0,82.58,13.922Z" transform="translate(-7.046 -3.411)" fill="#3e3e54"/>
      <path id="Caminho_199" data-name="Caminho 199" d="M84.39,18.517a1.217,1.217,0,0,0-.025-2.223,3.139,3.139,0,0,0-1.7-.362,6.517,6.517,0,0,0-2.875.6c-1.231.616-2.122,1.749-3.259,2.535A10.258,10.258,0,0,1,73.4,20.371a3.342,3.342,0,0,0-1.412.594c-.065.062-.13.145-.1.228a.268.268,0,0,0,.087.094,1.166,1.166,0,0,0,.963.163c.188-.051.362-.152.536-.217a3.458,3.458,0,0,1,1.655,0,5.352,5.352,0,0,0,2.3-.062,10.16,10.16,0,0,0,1.81-.905,1.517,1.517,0,0,1,.724-.152,2.929,2.929,0,0,0-.279,1.3l-.547-.362a.261.261,0,0,0-.2-.051c-.076,0-.127.087-.163.156a1.709,1.709,0,0,0-.022,1.448,1.97,1.97,0,0,1,.152.362.862.862,0,0,1-.246.793,2.35,2.35,0,0,1-.724.471,4.707,4.707,0,0,1-1.81.489c-.724,0-3.219.069-2.43-1.209a2.84,2.84,0,0,0-1.4.7c-.42.272-1.086.471-1.477.091a9.244,9.244,0,0,1,2.455-2.422l-1.637.145c-.5.043-1.2-.1-1.159-.594a.869.869,0,0,1,.275-.485l1.184-1.289c.206-.228.427-.54.29-.811-.091-.177-.319-.308-.282-.5.022-.13.156-.2.275-.257a17.159,17.159,0,0,0,2.918-1.329c.934-.655,1.586-1.647,2.495-2.325a4.942,4.942,0,0,1,4.942-.514,4.764,4.764,0,0,1,2.654,3.259C85.361,18.068,84.966,18.4,84.39,18.517Z" transform="translate(-7.046 -3.411)" fill="url(#linear-gradient-11)"/>
      <path id="Caminho_200" data-name="Caminho 200" d="M104.855,29.546a2.84,2.84,0,0,1,2.868.833.59.59,0,0,1,.145.333.21.21,0,0,1-.192.235h-.757a7.857,7.857,0,0,0-1.419,1.115,4.888,4.888,0,0,1-2.154,1.01c-1.05.206-2.354-.507-1.539-1.647A5.687,5.687,0,0,1,104.855,29.546Z" transform="translate(-7.046 -3.411)" fill="url(#linear-gradient-12)"/>
      <path id="Caminho_201" data-name="Caminho 201" d="M103.037,38.877a1.2,1.2,0,0,1,.655.851.333.333,0,0,1-.033.177c-.1.167-.34.127-.532.094-1.249-.224-2.437.75-3.708.724a2.245,2.245,0,0,1-1.542-.67,1.837,1.837,0,0,1-.521-1.662c.214-.623.938-.634,1.5-.652A7.263,7.263,0,0,1,103.037,38.877Z" transform="translate(-7.046 -3.411)" fill="url(#linear-gradient-13)"/>
      <path id="Caminho_202" data-name="Caminho 202" d="M111.3,25.3l4.924-3.726s1.209-.406,1.615.1-.051,15.953-.051,15.953l-6.1,2.871Z" transform="translate(-7.046 -3.411)" fill="#086c7b"/>
      <path id="Caminho_203" data-name="Caminho 203" d="M111.376,25.346l4.935-3.726s1.209-.406,1.615.1-.123,15.932-.123,15.932l-6.025,2.9Z" transform="translate(-7.046 -3.411)" fill="url(#linear-gradient-14)"/>
      <path id="Caminho_204" data-name="Caminho 204" d="M112.835,25.273l5.091-3.548s-.909-.655-1.615-.1-4.935,3.722-4.935,3.722Z" transform="translate(-7.046 -3.411)" fill="url(#linear-gradient-15)"/>
      <path id="Caminho_205" data-name="Caminho 205" d="M111.116,80.187a.847.847,0,0,0,.17.264.757.757,0,0,0,.315.156,2.118,2.118,0,0,0,1.76-.29,1.235,1.235,0,0,0,.474-.561,1.771,1.771,0,0,0-.069-1.086l-.3-1.043a.08.08,0,0,0-.018-.04h-.083c-.873.521-1.9,0-2.734.362C109.928,78.289,110.858,79.658,111.116,80.187Z" transform="translate(-7.046 -3.411)" fill="url(#linear-gradient-16)"/>
      <path id="Caminho_206" data-name="Caminho 206" d="M112.129,80.114a5.881,5.881,0,0,0-.873.119.862.862,0,0,0-.616.572,1.18,1.18,0,0,0,.206.778c.21.387.42.775.644,1.155a1.448,1.448,0,0,0,.554.616,1.285,1.285,0,0,0,.768.058,9.393,9.393,0,0,0,2.227-.724q2.173-.916,4.312-1.959c.235-.116.5-.264.543-.521a.561.561,0,0,0-.177-.489,1.448,1.448,0,0,0-.463-.275,10.938,10.938,0,0,0-3.172-.7A3.057,3.057,0,0,0,114.7,78.7c-.358.174-.7.6-1.086.833A3.791,3.791,0,0,1,112.129,80.114Z" transform="translate(-7.046 -3.411)" fill="#3e3e54"/>
      <path id="Caminho_207" data-name="Caminho 207" d="M97.469,40.484a5.341,5.341,0,0,1-2.064.724L91.476,42a9.7,9.7,0,0,1-2.64.29,9.074,9.074,0,0,1-2.354-.583c-3.049-1.086-7.883-2.364-10.222-4.732-1.771-1.81-1.336-5.4.952-6.293a3.136,3.136,0,0,1,1.369-.2c1.941.123,3.259,1.908,4.751,3.165,3.2,2.73,7.669,3.2,11.876,3.516h.369c1.086.08,2.426.362,2.723,1.4A1.884,1.884,0,0,1,97.469,40.484Z" transform="translate(-7.046 -3.411)" fill="#086c7b"/>
      <path id="Caminho_208" data-name="Caminho 208" d="M101.046,46.433l10.732-5.88,1.057-15.265s-1.629-.673-1.763.873S109.8,39.326,109.8,39.326l-9.269,4.9A1.258,1.258,0,0,0,101.046,46.433Z" transform="translate(-7.046 -3.411)" fill="#086c7b"/>
      <path id="Caminho_209" data-name="Caminho 209" d="M59.957,101.705a22.261,22.261,0,0,1-11.807,9.052L50,106.8a69.576,69.576,0,0,1-7.4,8.216,23.181,23.181,0,0,1-9.519,5.431c-.362-.525.025-1.227.409-1.738a75.426,75.426,0,0,1,8.433-9.454c-7.071,4.117-14.172,8.248-21.779,11.261a86.009,86.009,0,0,1,17.38-17.919l-4.664,1.2a68.56,68.56,0,0,1,19.5-15.664A78.175,78.175,0,0,1,59.957,101.705Z" transform="translate(-7.046 -3.411)" fill="#086c7b"/>
      <path id="Caminho_210" data-name="Caminho 210" d="M59.957,101.705a22.261,22.261,0,0,1-11.807,9.052L50,106.8a69.576,69.576,0,0,1-7.4,8.216,23.181,23.181,0,0,1-9.519,5.431c-.362-.525.025-1.227.409-1.738a75.426,75.426,0,0,1,8.433-9.454c-7.071,4.117-14.172,8.248-21.779,11.261a86.009,86.009,0,0,1,17.38-17.919l-4.664,1.2a68.56,68.56,0,0,1,19.5-15.664A78.175,78.175,0,0,1,59.957,101.705Z" transform="translate(-7.046 -3.411)" fill="url(#linear-gradient-17)"/>
      <path id="Caminho_211" data-name="Caminho 211" d="M45.26,97.809c-.17.235-.34.55-.192.8a.789.789,0,0,0,.453.279l1.394.46a41.277,41.277,0,0,0-4.946,5.178c-.25.311-.492.786-.206,1.065a.75.75,0,0,0,.482.17c1.937.174,3.744-.9,5.4-1.926a8.292,8.292,0,0,1-1.528,2.991,12.689,12.689,0,0,0,5.069-2.455c1.51-1.126,2.933-2.415,4.49-3.5l-.514,1.34a8.78,8.78,0,0,0,2.419-2.375,1.086,1.086,0,0,0,.148-1.267,20.827,20.827,0,0,0-3.291-5.819,3.02,3.02,0,0,0-.905-.836c-1.137-.6-3.509,1.347-4.421,2.017a17.478,17.478,0,0,0-3.845,3.885Z" transform="translate(-7.046 -3.411)" fill="#086c7b"/>
      <path id="Caminho_212" data-name="Caminho 212" d="M45.26,97.809c-.17.235-.34.55-.192.8a.789.789,0,0,0,.453.279l1.394.46a41.277,41.277,0,0,0-4.946,5.178c-.25.311-.492.786-.206,1.065a.75.75,0,0,0,.482.17c1.937.174,3.744-.9,5.4-1.926a8.292,8.292,0,0,1-1.528,2.991,12.689,12.689,0,0,0,5.069-2.455c1.51-1.126,2.933-2.415,4.49-3.5l-.514,1.34a8.78,8.78,0,0,0,2.419-2.375,1.086,1.086,0,0,0,.148-1.267,20.827,20.827,0,0,0-3.291-5.819,3.02,3.02,0,0,0-.905-.836c-1.137-.6-3.509,1.347-4.421,2.017a17.478,17.478,0,0,0-3.845,3.885Z" transform="translate(-7.046 -3.411)" fill="url(#linear-gradient-18)"/>
      <path id="Caminho_213" data-name="Caminho 213" d="M96.821,38.544a1.51,1.51,0,0,1-.684.1,41.39,41.39,0,0,1-7.242-.46,14.53,14.53,0,0,1-6.622-2.788c-1.329-1.086-2.379-2.43-3.711-3.487-.362-.3-1.3-.677-1.351-1.224a3.136,3.136,0,0,1,1.369-.2c1.941.123,3.259,1.908,4.751,3.165,3.2,2.73,7.669,3.2,11.876,3.516h.087a3.78,3.78,0,0,1,1.517.46.634.634,0,0,1,.315.344.518.518,0,0,1-.3.579Z" transform="translate(-7.046 -3.411)" fill="url(#linear-gradient-19)"/>
      <path id="Caminho_214" data-name="Caminho 214" d="M160.083,31.085l-.445,2.469a58.884,58.884,0,0,1-5.29,12.858C149.3,55.656,140.075,67.756,123.336,79,97.045,96.69,73.973,99.638,65.461,100.087l-2.9-4.023c66.58-19.657,82.308-51.115,84.14-51.376s7.343-13.629,7.343-13.629Z" transform="translate(-7.046 -3.411)" fill="url(#linear-gradient-20)"/>
      <path id="Caminho_215" data-name="Caminho 215" d="M85.024,17.789a1.34,1.34,0,0,1-.634.724,4.041,4.041,0,0,1-.724.362l-2.842,1.144a2.422,2.422,0,0,1-.9.123,1.517,1.517,0,0,0-.724.152,10.16,10.16,0,0,1-1.81.905,5.352,5.352,0,0,1-2.3.062,3.458,3.458,0,0,0-1.655,0c-.181.065-.362.167-.536.217a1.166,1.166,0,0,1-.963-.163.268.268,0,0,1-.087-.094c-.029-.083.036-.167.1-.228a3.342,3.342,0,0,1,1.412-.594A10.258,10.258,0,0,0,76.5,19.093c1.144-.771,2.035-1.9,3.259-2.535a6.517,6.517,0,0,1,2.875-.6,3.139,3.139,0,0,1,1.7.362A1.343,1.343,0,0,1,85.024,17.789Z" transform="translate(-7.046 -3.411)" fill="none"/>
    </g>
  </g>
</svg>
