<svg xmlns="http://www.w3.org/2000/svg" xmlns:xlink="http://www.w3.org/1999/xlink" width="157" height="133" viewBox="0 0 157 133">
  <defs>
    <clipPath id="clip-path">
      <rect id="Ret칙ngulo_215" data-name="Ret칙ngulo 215" width="157" height="133" transform="translate(193 1795)" fill="#505050" stroke="#707070" stroke-width="1"/>
    </clipPath>
    <linearGradient id="linear-gradient" x1="0.545" y1="-11.538" x2="1.544" y2="-11.538" gradientUnits="objectBoundingBox">
      <stop offset="0" stop-color="#183866"/>
      <stop offset="1" stop-color="#1a7fc1"/>
    </linearGradient>
    <linearGradient id="linear-gradient-2" x1="2.144" y1="-0.401" x2="-3.666" y2="-0.309" gradientUnits="objectBoundingBox">
      <stop offset="0" stop-opacity="0"/>
      <stop offset="0.97"/>
      <stop offset="0.97" stop-color="#0c0c11"/>
      <stop offset="0.98" stop-color="#312f43"/>
      <stop offset="0.99" stop-color="#3f3d56"/>
    </linearGradient>
    <linearGradient id="linear-gradient-3" x1="0.715" y1="-1.549" x2="5.434" y2="-1.884" xlink:href="#linear-gradient-2"/>
    <linearGradient id="linear-gradient-4" x1="0.695" y1="-1.498" x2="5.731" y2="-1.586" gradientUnits="objectBoundingBox">
      <stop offset="0" stop-opacity="0"/>
      <stop offset="0.29" stop-opacity="0.29"/>
      <stop offset="0.97"/>
      <stop offset="0.97" stop-color="#0c0c11"/>
      <stop offset="0.98" stop-color="#312f43"/>
      <stop offset="0.99" stop-color="#3f3d56"/>
    </linearGradient>
    <linearGradient id="linear-gradient-5" x1="1.786" y1="-1.209" x2="0.71" y2="-2.648" gradientUnits="objectBoundingBox">
      <stop offset="0" stop-opacity="0"/>
      <stop offset="0.84" stop-opacity="0.659"/>
      <stop offset="0.97"/>
    </linearGradient>
    <linearGradient id="linear-gradient-6" x1="1.885" y1="-2.506" x2="0.41" y2="-2.398" gradientUnits="objectBoundingBox">
      <stop offset="0" stop-opacity="0"/>
      <stop offset="0.87" stop-opacity="0.659"/>
      <stop offset="1"/>
    </linearGradient>
    <linearGradient id="linear-gradient-7" x1="0.611" y1="-13.159" x2="0.625" y2="8.682" gradientUnits="objectBoundingBox">
      <stop offset="0" stop-opacity="0"/>
      <stop offset="0.5" stop-opacity="0.38"/>
      <stop offset="0.97"/>
      <stop offset="0.97" stop-color="#0c0c11"/>
      <stop offset="0.98" stop-color="#312f43"/>
      <stop offset="0.99" stop-color="#3f3d56"/>
    </linearGradient>
    <linearGradient id="linear-gradient-8" x1="0.493" y1="-0.382" x2="0.515" y2="2.265" xlink:href="#linear-gradient-7"/>
    <linearGradient id="linear-gradient-9" x1="0.493" y1="-0.396" x2="0.515" y2="2.251" xlink:href="#linear-gradient-7"/>
    <linearGradient id="linear-gradient-10" x1="0.493" y1="-0.41" x2="0.515" y2="2.237" xlink:href="#linear-gradient-7"/>
    <linearGradient id="linear-gradient-11" x1="1.196" y1="-3.335" x2="0.798" y2="-0.809" gradientUnits="objectBoundingBox">
      <stop offset="0.01"/>
      <stop offset="0.99" stop-opacity="0"/>
    </linearGradient>
    <linearGradient id="linear-gradient-12" x1="1.366" y1="-6.259" x2="1.349" y2="-4.703" xlink:href="#linear-gradient-11"/>
    <linearGradient id="linear-gradient-13" x1="1.722" y1="-4.951" x2="4.437" y2="-3.111" gradientUnits="objectBoundingBox">
      <stop offset="0.01"/>
      <stop offset="0.15" stop-opacity="0.522"/>
      <stop offset="0.99" stop-opacity="0"/>
    </linearGradient>
    <linearGradient id="linear-gradient-14" x1="1.469" y1="-2.293" x2="-0.358" y2="-3.304" gradientUnits="objectBoundingBox">
      <stop offset="0.01"/>
      <stop offset="0.16" stop-opacity="0.522"/>
      <stop offset="1" stop-opacity="0"/>
    </linearGradient>
    <linearGradient id="linear-gradient-15" x1="0.708" y1="-2.085" x2="2.807" y2="-2.511" xlink:href="#linear-gradient-13"/>
    <linearGradient id="linear-gradient-16" x1="0.997" y1="-2.651" x2="3.279" y2="-3.717" xlink:href="#linear-gradient-13"/>
    <linearGradient id="linear-gradient-17" x1="1.168" y1="-5.613" x2="3.689" y2="-4.844" xlink:href="#linear-gradient-13"/>
    <linearGradient id="linear-gradient-18" x1="-28.436" y1="9.721" x2="-27.464" y2="9.721" gradientUnits="objectBoundingBox">
      <stop offset="0" stop-color="#ecc4d7"/>
      <stop offset="0.42" stop-color="#efd4d1"/>
      <stop offset="1" stop-color="#f2eac9"/>
    </linearGradient>
    <linearGradient id="linear-gradient-19" x1="1.662" y1="-7.47" x2="4.391" y2="-8.465" gradientUnits="objectBoundingBox">
      <stop offset="0.01"/>
      <stop offset="0.03" stop-opacity="0.929"/>
      <stop offset="0.51" stop-opacity="0.051"/>
      <stop offset="0.58" stop-opacity="0.031"/>
      <stop offset="0.99" stop-opacity="0"/>
    </linearGradient>
    <linearGradient id="linear-gradient-20" x1="2.162" y1="-28.81" x2="4.512" y2="-29.259" xlink:href="#linear-gradient-13"/>
    <linearGradient id="linear-gradient-21" x1="-78.548" y1="34.226" x2="-75.277" y2="35.396" xlink:href="#linear-gradient-18"/>
    <linearGradient id="linear-gradient-22" x1="2.88" y1="-13.644" x2="2.596" y2="-3.598" xlink:href="#linear-gradient-13"/>
    <linearGradient id="linear-gradient-23" x1="2.876" y1="-13.457" x2="2.592" y2="-3.41" xlink:href="#linear-gradient-13"/>
  </defs>
  <g id="Grupo_de_m치scara_32" data-name="Grupo de m치scara 32" transform="translate(-193 -1795)" clip-path="url(#clip-path)">
    <g id="security" transform="translate(192.758 1794.999)">
      <path id="Caminho_733" data-name="Caminho 733" d="M33.335,122.969a1.67,1.67,0,0,1-1.007,1.911,11.472,11.472,0,0,1-2.295.581,35.531,35.531,0,0,0-3.4,1.437,15.777,15.777,0,0,1-5,.713c-5.1.176-10.546.263-14.881-2.433a.829.829,0,0,1-.376-.374.668.668,0,0,1,.047-.483c.359-.826,1.388-1.078,2.279-1.219a107.852,107.852,0,0,1,12.745-1.4C23.663,121.632,32.5,120.741,33.335,122.969Z" opacity="0.19" fill="url(#linear-gradient)"/>
      <path id="Caminho_734" data-name="Caminho 734" d="M120.919,123.3a26.753,26.753,0,0,0-5.554,2l-7.229,3.2c4.032,2.17,8.926,1.274,13.507,1.212a1.82,1.82,0,0,1,1.152.249c.446.35.486,1.011.764,1.51.524.945,1.782,1.134,2.858,1.205a150.978,150.978,0,0,0,29.21-.931,2.767,2.767,0,0,0,1.323-.41c1.114-.831.33-2.749-.931-3.342s-2.742-.446-4.081-.829-2.631-1.8-2-3.05q-8.28.165-16.561-.178C129.206,123.764,125.078,122.452,120.919,123.3Z" fill="#1d2741" opacity="0.18"/>
      <path id="Caminho_735" data-name="Caminho 735" d="M147.536,75.147c.9-9.434,5.5-19.414.8-27.944a23.284,23.284,0,0,0-4.974-5.912c-2.611-2.341-5.585-4.455-8.185-6.815-4.6-4.179-7.231-9.176-10.775-13.758a34.132,34.132,0,0,0-4.983-5.286q-1.1-.929-2.228-1.829A64.694,64.694,0,0,0,96.21,2.1C85.027-1.337,71.732-.786,62.289,5.5A46.287,46.287,0,0,0,53.48,13.6c-2.143,2.4-4.213,4.863-6.5,7.113a33.47,33.47,0,0,1-6.857,5.362c-3.689,2.119-7.935,3.364-11.849,5.144a40.722,40.722,0,0,0-7.129,4.159,39.92,39.92,0,0,0-7.951,7.659A33.88,33.88,0,0,0,5.632,64.616c.029,1.2.127,2.4.165,3.607a17.5,17.5,0,0,1-.227,3.954,22.76,22.76,0,0,1-2.484,6.14C1.653,81.028.154,83.71.011,86.657c-.25,5.066,3.5,9.405,7.663,13.114.7.619,1.4,1.223,2.1,1.809,1.114.936,2.261,1.871,3.417,2.8l.223.178c.619.492,1.241.982,1.871,1.468,1.582,1.219,3.2,2.406,4.861,3.538q1.114.755,2.228,1.468a60.844,60.844,0,0,0,5.346,3.061,44.576,44.576,0,0,0,14.556,4.647c14.242,1.782,28.408-4.551,42.772-3.714,9.425.548,18.216,4.144,27.349,6.238s19.74,2.428,27.1-2.747c6.788-4.761,9.013-12.985,9.031-20.591S146.805,82.728,147.536,75.147Z" fill="#086c7b" opacity="0.18"/>
      <path id="Caminho_736" data-name="Caminho 736" d="M137.2,13.6H19.354a6.151,6.151,0,0,0-6.16,6.142h0v84.806H143.352v-84.8A6.151,6.151,0,0,0,137.2,13.6Z" fill="#086c7b"/>
      <path id="Caminho_737" data-name="Caminho 737" d="M36.779,90.852c-.223,2.323-2.308,4.03-4.455,4.761a11.764,11.764,0,0,0-3.252,1.281,2.54,2.54,0,0,0-.98,3.119,3.642,3.642,0,0,1,3.4,2.292,8.766,8.766,0,0,1-6.238,3.564,24.59,24.59,0,0,1-7.307-.459,4.088,4.088,0,0,1-2.352-.927,4.331,4.331,0,0,1-.927-2.372c-.02-.12-.042-.241-.065-.363H13.143V20.718h7.975V59.257c0,3.143-.143,6.313-.094,9.445.049,2.981,2.032,4.491,3.921,6.659A5.106,5.106,0,0,1,26.3,77.617c.185.933-.149,1.923.1,2.838.428,1.591,2.43,2.192,3.968,1.742s2.769-1.608,4.095-2.531a14.966,14.966,0,0,1,7.764-2.649c-.933,3.959-5.525,6.46-5.632,10.539C36.561,88.662,36.886,89.749,36.779,90.852Z" opacity="0.47" fill="url(#linear-gradient-2)"/>
      <path id="Caminho_738" data-name="Caminho 738" d="M7.525,94.345A25.541,25.541,0,0,1,3.718,83.672c-.245-2.31-.14-4.747-1.183-6.823C1.916,75.615.907,74.554.595,73.206c-.579-2.517,1.441-4.819,3.3-6.616a.858.858,0,0,1,.428-.276c.29-.053.55.187.726.425,1.063,1.432,1.147,3.342,1.419,5.095A8.366,8.366,0,0,0,8.831,76.98c1.45,1.272,3.685,1.831,4.4,3.627.635,1.6-.276,3.486.3,5.11s2.531,2.6,2.825,4.308c.2,1.136-.414,2.263-.4,3.415a11.5,11.5,0,0,0,.6,2.557c.459,1.831,0,7.193-2.782,5.625C11.257,100.208,9,96.735,7.525,94.345Z" fill="#086c7b"/>
      <path id="Caminho_739" data-name="Caminho 739" d="M7.525,94.345A25.541,25.541,0,0,1,3.718,83.672c-.245-2.31-.14-4.747-1.183-6.823C1.916,75.615.907,74.554.595,73.206c-.579-2.517,1.441-4.819,3.3-6.616a.858.858,0,0,1,.428-.276c.29-.053.55.187.726.425,1.063,1.432,1.147,3.342,1.419,5.095A8.366,8.366,0,0,0,8.831,76.98c1.45,1.272,3.685,1.831,4.4,3.627.635,1.6-.276,3.486.3,5.11s2.531,2.6,2.825,4.308c.2,1.136-.414,2.263-.4,3.415a11.5,11.5,0,0,0,.6,2.557c.459,1.831,0,7.193-2.782,5.625C11.257,100.208,9,96.735,7.525,94.345Z" fill="url(#linear-gradient-3)"/>
      <path id="Caminho_740" data-name="Caminho 740" d="M12.582,90.667a25.427,25.427,0,0,1,.223-11.33c.59-2.248,1.559-4.489,1.308-6.8-.143-1.374-.713-2.724-.526-4.092.35-2.56,3.052-4.01,5.422-5.026a.891.891,0,0,1,.5-.107c.292.053.446.37.528.655.488,1.715-.1,3.524-.474,5.268a8.388,8.388,0,0,0,.392,5.649c.9,1.7,2.8,3.016,2.834,4.948.029,1.722-1.49,3.166-1.528,4.885s1.448,3.324,1.114,5.03c-.223,1.132-1.19,1.969-1.579,3.052a11.4,11.4,0,0,0-.339,2.606c-.223,1.876-2.535,6.734-4.594,4.277C14.008,97.462,13.117,93.418,12.582,90.667Z" fill="#086c7b"/>
      <path id="Caminho_741" data-name="Caminho 741" d="M12.582,90.667a25.427,25.427,0,0,1,.223-11.33c.59-2.248,1.559-4.489,1.308-6.8-.143-1.374-.713-2.724-.526-4.092.35-2.56,3.052-4.01,5.422-5.026a.891.891,0,0,1,.5-.107c.292.053.446.37.528.655.488,1.715-.1,3.524-.474,5.268a8.388,8.388,0,0,0,.392,5.649c.9,1.7,2.8,3.016,2.834,4.948.029,1.722-1.49,3.166-1.528,4.885s1.448,3.324,1.114,5.03c-.223,1.132-1.19,1.969-1.579,3.052a11.4,11.4,0,0,0-.339,2.606c-.223,1.876-2.535,6.734-4.594,4.277C14.008,97.462,13.117,93.418,12.582,90.667Z" fill="url(#linear-gradient-4)"/>
      <path id="Caminho_742" data-name="Caminho 742" d="M17.719,91.284A25.643,25.643,0,0,1,25.344,82.9c1.925-1.3,4.123-2.357,5.465-4.255.8-1.127,1.261-2.517,2.3-3.424,1.949-1.7,4.932-1,7.391-.2a.871.871,0,0,1,.446.247.82.82,0,0,1-.033.842c-.762,1.611-2.4,2.58-3.827,3.649a8.375,8.375,0,0,0-3.428,4.507c-.441,1.876.118,4.115-1.132,5.589-1.114,1.314-3.206,1.4-4.369,2.673s-1.1,3.455-2.473,4.52c-.911.706-2.192.7-3.2,1.256a11.532,11.532,0,0,0-1.974,1.735c-1.4,1.268-6.342,3.4-6.271.192C14.3,97.35,16.3,93.712,17.719,91.284Z" fill="#086c7b"/>
      <path id="Caminho_743" data-name="Caminho 743" d="M17.719,91.284A25.643,25.643,0,0,1,25.344,82.9c1.925-1.3,4.123-2.357,5.465-4.255.8-1.127,1.261-2.517,2.3-3.424,1.949-1.7,4.932-1,7.391-.2a.871.871,0,0,1,.446.247.82.82,0,0,1-.033.842c-.762,1.611-2.4,2.58-3.827,3.649a8.375,8.375,0,0,0-3.428,4.507c-.441,1.876.118,4.115-1.132,5.589-1.114,1.314-3.206,1.4-4.369,2.673s-1.1,3.455-2.473,4.52c-.911.706-2.192.7-3.2,1.256a11.532,11.532,0,0,0-1.974,1.735c-1.4,1.268-6.342,3.4-6.271.192C14.3,97.35,16.3,93.712,17.719,91.284Z" fill="url(#linear-gradient-5)"/>
      <path id="Caminho_744" data-name="Caminho 744" d="M29.677,102.866l-.3,1.686-.256,1.468-.608,3.538-.243,1.468-.615,3.54-.256,1.466-1.528,8.795H9.98l-1.542-8.795-.256-1.466-.608-3.54-.258-1.468-.633-3.538-.252-1.468-.294-1.684a2.918,2.918,0,0,1,2.368-3.379h0a2.961,2.961,0,0,1,.506-.045H26.8a2.914,2.914,0,0,1,2.918,2.909,3.041,3.041,0,0,1-.045.512Z" fill="#086c7b"/>
      <path id="Caminho_745" data-name="Caminho 745" d="M29.677,102.866l-.3,1.686-.256,1.468-.608,3.538-.243,1.468-.615,3.54-.256,1.466-1.528,8.795H9.98l-1.542-8.795-.256-1.466-.608-3.54-.258-1.468-.633-3.538-.252-1.468-.294-1.684a2.918,2.918,0,0,1,2.368-3.379h0a2.961,2.961,0,0,1,.506-.045H26.8a2.914,2.914,0,0,1,2.918,2.909,3.041,3.041,0,0,1-.045.512Z" fill="url(#linear-gradient-6)"/>
      <path id="Caminho_746" data-name="Caminho 746" d="M143.352,19.755v.962H13.195V19.76A6.151,6.151,0,0,1,19.345,13.6H137.19a6.151,6.151,0,0,1,6.153,6.148Z" fill="url(#linear-gradient-7)"/>
      <circle id="Elipse_48" data-name="Elipse 48" cx="1.374" cy="1.374" r="1.374" transform="translate(18.399 15.52)" fill="url(#linear-gradient-8)"/>
      <circle id="Elipse_49" data-name="Elipse 49" cx="1.374" cy="1.374" r="1.374" transform="translate(23.012 15.52)" fill="url(#linear-gradient-9)"/>
      <circle id="Elipse_50" data-name="Elipse 50" cx="1.374" cy="1.374" r="1.374" transform="translate(27.623 15.52)" fill="url(#linear-gradient-10)"/>
      <path id="Caminho_747" data-name="Caminho 747" d="M92.937,50.569V76.02a3.259,3.259,0,0,1-3.255,3.252H64.24a3.259,3.259,0,0,1-3.255-3.252V50.569a3.252,3.252,0,0,1,3.252-3.252H89.683A3.252,3.252,0,0,1,92.937,50.569Z" fill="url(#linear-gradient-11)"/>
      <path id="Caminho_748" data-name="Caminho 748" d="M79.562,60.264a2.606,2.606,0,0,1-1.3,2.335.668.668,0,0,0-.334.59v5.569a.775.775,0,0,1-.775.775h-.379A.775.775,0,0,1,76,68.758h0V63.189a.682.682,0,0,0-.334-.593,2.6,2.6,0,1,1,3.9-2.328Z" fill="#086c7b"/>
      <path id="Caminho_749" data-name="Caminho 749" d="M29.386,104.552l-.256,1.468H6.688l-.256-1.468Z" fill="#086c7b"/>
      <path id="Caminho_750" data-name="Caminho 750" d="M28.512,109.558l-.254,1.468H7.565l-.258-1.468Z" fill="#086c7b"/>
      <path id="Caminho_751" data-name="Caminho 751" d="M27.643,114.566l-.256,1.466H8.439l-.256-1.466Z" fill="#086c7b"/>
      <path id="Caminho_752" data-name="Caminho 752" d="M110.095,68.143a9.229,9.229,0,0,0-4.306-3.119,1.614,1.614,0,0,0-1.19-.107,1.722,1.722,0,0,0-.639.613,7.3,7.3,0,0,0-1.733,3.694c-.116,2.094,1.544,4.324.479,6.131-.3.5-.769.878-1.114,1.35a4.71,4.71,0,0,0-.713,3.159c.1,1.321.274,3.088-.974,3.538a2.143,2.143,0,0,1-1.149.016c-1.094-.223-2.105-.746-3.177-1.058a3.961,3.961,0,0,0-3.239.223,3.083,3.083,0,0,0,2.016,2.7A23.817,23.817,0,0,1,97.631,86.7,5.5,5.5,0,0,1,99.812,91.4a10.862,10.862,0,0,1-1.66,5.088,7.983,7.983,0,0,0-1.065,2.272c-.341,1.64.577,3.25,1.457,4.678a1.835,1.835,0,0,0,2.176,1.149l15.625-1.337c.446-.038.965-.127,1.156-.53a1.181,1.181,0,0,0,0-.764c-.51-2.188-2.116-3.988-2.687-6.162a13.922,13.922,0,0,1-.321-3.119,69.636,69.636,0,0,0-1.181-12.921c-.461-2.114-1.6-4.09-2.047-6.151C110.848,71.685,111.423,70,110.095,68.143Z" fill="#1d2741" opacity="0.18"/>
      <path id="Caminho_753" data-name="Caminho 753" d="M85.575,47.323H82.81V43.609a5.848,5.848,0,0,0-11.7.029v3.685H68.348V43.536a8.614,8.614,0,0,1,17.225.051Z" fill="url(#linear-gradient-12)"/>
      <path id="Caminho_754" data-name="Caminho 754" d="M143.332,121.632l2.332,2.228-3.357,3.342-4.217.363a1.559,1.559,0,0,1,.771-1.9,7.351,7.351,0,0,1,2.493-.815l-.091-1.724Z" fill="#3f3d56"/>
      <path id="Caminho_755" data-name="Caminho 755" d="M117.4,121.456l.343,2.811-7.9,3.538a2.613,2.613,0,0,1,.024-2.851c1.011-1.325,3.8-2.257,3.8-2.257l.492-1.223Z" fill="#3f3d56"/>
      <path id="Caminho_756" data-name="Caminho 756" d="M119.42,78.094a8.459,8.459,0,0,0-3.161,5.4c-.3,3.281-.446,4.433-.446,4.433l-5.012-.405-.067,2.771s6.65,2.43,7.67,2.016a7.869,7.869,0,0,0,2.3-2.243Z" fill="#086c7b"/>
      <path id="Caminho_757" data-name="Caminho 757" d="M119.42,78.094a8.459,8.459,0,0,0-3.161,5.4c-.3,3.281-.446,4.433-.446,4.433l-5.012-.405-.067,2.771s6.65,2.43,7.67,2.016a7.869,7.869,0,0,0,2.3-2.243Z" fill="url(#linear-gradient-13)"/>
      <path id="Caminho_758" data-name="Caminho 758" d="M121.345,95.584s-10.47,8.639-10.555,11.584,2.573,14.464,2.573,14.464l4.059-.022.118-12.105s8.563-2.99,9.494-4.8S129.939,94.084,121.345,95.584Z" fill="#086c7b"/>
      <path id="Caminho_759" data-name="Caminho 759" d="M121.345,95.584s-10.47,8.639-10.555,11.584,2.573,14.464,2.573,14.464l4.059-.022.118-12.105s8.563-2.99,9.494-4.8S129.939,94.084,121.345,95.584Z" fill="url(#linear-gradient-14)"/>
      <path id="Caminho_760" data-name="Caminho 760" d="M121.345,95.584s.639,13.175,4.758,17.434,14.66,10.651,14.66,10.651l2.992-1.856-10.12-10.564s1.464-11.858-.267-13.936S121.345,95.584,121.345,95.584Z" fill="#086c7b"/>
      <path id="Caminho_761" data-name="Caminho 761" d="M121.345,95.584s.639,13.175,4.758,17.434,14.66,10.651,14.66,10.651l2.992-1.856-10.12-10.564s1.464-11.858-.267-13.936S121.345,95.584,121.345,95.584Z" fill="url(#linear-gradient-15)"/>
      <path id="Caminho_762" data-name="Caminho 762" d="M121.345,95.584l-3.578-15.137s2-5.772,9.951-3.914,5.643,20.78,5.643,20.78S124.441,100.271,121.345,95.584Z" fill="#086c7b"/>
      <path id="Caminho_763" data-name="Caminho 763" d="M121.345,95.584l-3.578-15.137s2-5.772,9.951-3.914,5.643,20.78,5.643,20.78S124.441,100.271,121.345,95.584Z" fill="url(#linear-gradient-16)"/>
      <path id="Caminho_764" data-name="Caminho 764" d="M127.449,78.86s-.477-2.52,2.081-1.847,6.538,9.356,6.391,10.564-12.589,1.7-12.589,1.7l-.3-2.9,6.541-1.094S127.175,81.175,127.449,78.86Z" fill="#086c7b"/>
      <path id="Caminho_765" data-name="Caminho 765" d="M127.449,78.86s-.477-2.52,2.081-1.847,6.538,9.356,6.391,10.564-12.589,1.7-12.589,1.7l-.3-2.9,6.541-1.094S127.175,81.175,127.449,78.86Z" fill="url(#linear-gradient-17)"/>
      <path id="Caminho_766" data-name="Caminho 766" d="M126.228,73.483a2.972,2.972,0,0,1-1.473,1.424,2.191,2.191,0,0,0-.314.136.6.6,0,0,0-.123.1c-.223.25-.067.619,0,.94a2,2,0,0,1-.909,1.9,3.787,3.787,0,0,1-1.114.483,2.448,2.448,0,0,1-1.573-.02c-.668-.314-.6-1.337-.748-1.963a18.506,18.506,0,0,1-.691-6.215,6.41,6.41,0,0,1,1.1-3.154,3.614,3.614,0,0,1,2.865-1.539,4.56,4.56,0,0,1,3,1.559,3.885,3.885,0,0,1,.7.942,4.983,4.983,0,0,1-.045,3.426A8.79,8.79,0,0,1,126.228,73.483Z" fill="url(#linear-gradient-18)"/>
      <path id="Caminho_767" data-name="Caminho 767" d="M127.123,68.555a12.894,12.894,0,0,0-5.362,1.176c-1.8,1.045-2.3,3.277-2.45,3.239-.341-.078-1.452-2.228-.985-2.7s.1-.477.1-.477a3.852,3.852,0,0,1-.267-2.491,25.616,25.616,0,0,1,.9-3.446s.14-.53,2.163,0,5.433,2.15,5.623,2.807a1.4,1.4,0,0,1,.033.958A.736.736,0,0,1,127.123,68.555Z" fill="#086c7b"/>
      <path id="Caminho_768" data-name="Caminho 768" d="M127.123,68.555a12.894,12.894,0,0,0-5.362,1.176c-1.8,1.045-2.3,3.277-2.45,3.239-.341-.078-1.452-2.228-.985-2.7s.1-.477.1-.477a3.852,3.852,0,0,1-.267-2.491,25.616,25.616,0,0,1,.9-3.446s.14-.53,2.163,0,5.433,2.15,5.623,2.807a1.4,1.4,0,0,1,.033.958A.736.736,0,0,1,127.123,68.555Z" fill="url(#linear-gradient-19)"/>
      <path id="Caminho_769" data-name="Caminho 769" d="M121.761,69.727a25.376,25.376,0,0,0,3.564.6,3.627,3.627,0,0,0,1.862-.274c.013-.114-.35,1.809-.35,1.809l-.818.287a2.243,2.243,0,0,1-.985.116l-5.1-.53A5.671,5.671,0,0,1,121.761,69.727Z" fill="#086c7b"/>
      <path id="Caminho_770" data-name="Caminho 770" d="M121.761,69.727a25.376,25.376,0,0,0,3.564.6,3.627,3.627,0,0,0,1.862-.274c.013-.114-.35,1.809-.35,1.809l-.818.287a2.243,2.243,0,0,1-.985.116l-5.1-.53A5.671,5.671,0,0,1,121.761,69.727Z" fill="url(#linear-gradient-20)"/>
      <path id="Caminho_771" data-name="Caminho 771" d="M123.86,70.711a.76.76,0,0,1,.446.013.432.432,0,0,1,.252.145.537.537,0,0,1,.076.189.178.178,0,0,1,0,.118.158.158,0,0,1-.156.051,2,2,0,0,1-.775-.149C123.5,70.974,123.688,70.772,123.86,70.711Z" fill="#fff"/>
      <path id="Caminho_772" data-name="Caminho 772" d="M126.21,70.821a.414.414,0,0,1,.31-.1.263.263,0,0,1,.2.074.572.572,0,0,1,.087.163.223.223,0,0,1,.022.116.116.116,0,0,1-.1.089,1.022,1.022,0,0,1-.559.056C126.012,71.166,126.1,70.921,126.21,70.821Z" fill="#fff"/>
      <path id="Caminho_773" data-name="Caminho 773" d="M123.4,77.983a3.788,3.788,0,0,1-1.114.483,2.52,2.52,0,0,1-.61-1.337,7.113,7.113,0,0,1-.118-1.043,1.225,1.225,0,0,1,.209-.864,1.027,1.027,0,0,1,.875-.258c.314.036.617.145.931.178a6.015,6.015,0,0,0,.869-.109.6.6,0,0,0-.123.1c-.223.25-.067.619,0,.94A2.036,2.036,0,0,1,123.4,77.983Z" fill="url(#linear-gradient-21)"/>
      <path id="Caminho_774" data-name="Caminho 774" d="M109.07,86.123a.944.944,0,0,0-.446-.194.334.334,0,0,0-.365.252.5.5,0,0,0,.109.312l.3.47a.312.312,0,0,1,.065.169c0,.156-.223.187-.381.167a11.548,11.548,0,0,0-2.936-.3.312.312,0,0,0-.2.082.223.223,0,0,0,.024.278.608.608,0,0,0,.263.149,11.285,11.285,0,0,0,1.682.472c-.065.16-.276.189-.446.2a9.358,9.358,0,0,0-1.41.16c-.265.049-.59.183-.593.446a.423.423,0,0,0,.319.374,1.348,1.348,0,0,0,.526.018,8.466,8.466,0,0,1,1.84.047,3.647,3.647,0,0,0-1.811.735.379.379,0,0,0-.116.129c-.06.129.053.285.189.33a.827.827,0,0,0,.423-.024,9.451,9.451,0,0,1,1.856-.241,4.493,4.493,0,0,0-1.043.668.753.753,0,0,0-.223.278.3.3,0,0,0,.058.336.423.423,0,0,0,.383.031,19.617,19.617,0,0,1,2.156-.793c.4-.06.855-.036,1.132-.327a1.187,1.187,0,0,0,.241-.5c.165-.573.506-1.782.16-2.339a2.958,2.958,0,0,0-.668-.57,12.946,12.946,0,0,0-1.087-.818Z" fill="#086c7b"/>
      <path id="Caminho_775" data-name="Caminho 775" d="M121.485,85.209a.945.945,0,0,0-.446-.194.334.334,0,0,0-.365.252.5.5,0,0,0,.109.312l.3.47a.312.312,0,0,1,.065.169c-.011.156-.223.187-.381.167a11.449,11.449,0,0,0-2.936-.3.31.31,0,0,0-.2.08.223.223,0,0,0,.025.281.608.608,0,0,0,.263.149,11.284,11.284,0,0,0,1.682.472c-.065.16-.276.187-.446.194a9.658,9.658,0,0,0-1.41.163c-.265.049-.59.18-.593.446a.423.423,0,0,0,.319.374,1.347,1.347,0,0,0,.526.018,8.466,8.466,0,0,1,1.84.047,3.638,3.638,0,0,0-1.809.735.379.379,0,0,0-.118.127.27.27,0,0,0,.185.33h0a.8.8,0,0,0,.423-.022,9.285,9.285,0,0,1,1.856-.241,4.494,4.494,0,0,0-1.043.668.753.753,0,0,0-.223.278.3.3,0,0,0,.058.336.428.428,0,0,0,.385.031,19.413,19.413,0,0,1,2.154-.793c.4-.06.855-.036,1.132-.327a1.187,1.187,0,0,0,.241-.5c.167-.573.506-1.782.16-2.341a2.95,2.95,0,0,0-.668-.568,12.92,12.92,0,0,0-1.083-.818Z" fill="#086c7b"/>
      <path id="Caminho_776" data-name="Caminho 776" d="M109.07,86.123a.944.944,0,0,0-.446-.194.334.334,0,0,0-.365.252.5.5,0,0,0,.109.312l.3.47a.312.312,0,0,1,.065.169c0,.156-.223.187-.381.167a11.548,11.548,0,0,0-2.936-.3.312.312,0,0,0-.2.082.223.223,0,0,0,.024.278.608.608,0,0,0,.263.149,11.285,11.285,0,0,0,1.682.472c-.065.16-.276.189-.446.2a9.358,9.358,0,0,0-1.41.16c-.265.049-.59.183-.593.446a.423.423,0,0,0,.319.374,1.348,1.348,0,0,0,.526.018,8.466,8.466,0,0,1,1.84.047,3.647,3.647,0,0,0-1.811.735.379.379,0,0,0-.116.129c-.06.129.053.285.189.33a.827.827,0,0,0,.423-.024,9.451,9.451,0,0,1,1.856-.241,4.493,4.493,0,0,0-1.043.668.753.753,0,0,0-.223.278.3.3,0,0,0,.058.336.423.423,0,0,0,.383.031,19.617,19.617,0,0,1,2.156-.793c.4-.06.855-.036,1.132-.327a1.187,1.187,0,0,0,.241-.5c.165-.573.506-1.782.16-2.339a2.958,2.958,0,0,0-.668-.57,12.946,12.946,0,0,0-1.087-.818Z" fill="url(#linear-gradient-22)"/>
      <path id="Caminho_777" data-name="Caminho 777" d="M121.485,85.209a.945.945,0,0,0-.446-.194.334.334,0,0,0-.365.252.5.5,0,0,0,.109.312l.3.47a.312.312,0,0,1,.065.169c-.011.156-.223.187-.381.167a11.449,11.449,0,0,0-2.936-.3.31.31,0,0,0-.2.08.223.223,0,0,0,.025.281.608.608,0,0,0,.263.149,11.284,11.284,0,0,0,1.682.472c-.065.16-.276.187-.446.194a9.658,9.658,0,0,0-1.41.163c-.265.049-.59.18-.593.446a.423.423,0,0,0,.319.374,1.347,1.347,0,0,0,.526.018,8.466,8.466,0,0,1,1.84.047,3.638,3.638,0,0,0-1.809.735.379.379,0,0,0-.118.127.27.27,0,0,0,.185.33h0a.8.8,0,0,0,.423-.022,9.285,9.285,0,0,1,1.856-.241,4.494,4.494,0,0,0-1.043.668.753.753,0,0,0-.223.278.3.3,0,0,0,.058.336.428.428,0,0,0,.385.031,19.413,19.413,0,0,1,2.154-.793c.4-.06.855-.036,1.132-.327a1.187,1.187,0,0,0,.241-.5c.167-.573.506-1.782.16-2.341a2.95,2.95,0,0,0-.668-.568,12.92,12.92,0,0,0-1.083-.818Z" fill="url(#linear-gradient-23)"/>
    </g>
  </g>
</svg>
