<svg xmlns="http://www.w3.org/2000/svg" xmlns:xlink="http://www.w3.org/1999/xlink" width="122" height="117" viewBox="0 0 122 117">
  <defs>
    <clipPath id="clip-path">
      <rect id="Retângulo_242" data-name="Retângulo 242" width="122" height="117" transform="translate(485 3020)" fill="#fff" stroke="#707070" stroke-width="1"/>
    </clipPath>
    <clipPath id="clip-path-2">
      <path id="Polígono_3" data-name="Polígono 3" d="M52.672,60.842c14.42-26.326,52.235-26.326,66.655,0l21.857,39.9C155.056,126.068,136.731,157,107.857,157H64.143c-28.874,0-47.2-30.932-33.328-56.256Z" transform="translate(460 2980)" fill="#2ceaa3" opacity="0.13"/>
    </clipPath>
    <linearGradient id="linear-gradient" x1="0.064" y1="0.391" x2="0.697" y2="0.661" gradientUnits="objectBoundingBox">
      <stop offset="0.01"/>
      <stop offset="0.12" stop-opacity="0.749"/>
      <stop offset="1" stop-opacity="0"/>
    </linearGradient>
    <linearGradient id="linear-gradient-2" x1="0.577" y1="1.099" x2="0.407" y2="0.086" xlink:href="#linear-gradient"/>
    <linearGradient id="linear-gradient-3" x1="0.321" y1="1.057" x2="0.582" y2="0.316" xlink:href="#linear-gradient"/>
    <linearGradient id="linear-gradient-4" x1="0.624" y1="-0.69" x2="0.405" y2="1.412" xlink:href="#linear-gradient"/>
    <linearGradient id="linear-gradient-5" x1="0.297" y1="-0.591" x2="0.832" y2="2.285" xlink:href="#linear-gradient"/>
    <linearGradient id="linear-gradient-6" x1="0.498" y1="1.471" x2="0.502" y2="-0.617" xlink:href="#linear-gradient"/>
    <linearGradient id="linear-gradient-7" x1="0.482" y1="1.326" x2="0.516" y2="-0.132" xlink:href="#linear-gradient"/>
  </defs>
  <g id="Grupo_de_máscara_37" data-name="Grupo de máscara 37" transform="translate(-485 -3020)" clip-path="url(#clip-path)">
    <g id="Illustration" clip-path="url(#clip-path-2)">
      <g id="web_developer" transform="translate(460.001 2988.297)">
        <rect id="Retângulo_171" data-name="Retângulo 171" width="156.447" height="100.208" rx="3.78" transform="translate(15.294 18.199)" fill="#086c7b" opacity="0.48"/>
        <path id="Caminho_555" data-name="Caminho 555" d="M170.711,118.121a17.746,17.746,0,0,1-2.7,9.343c-2.315,3.425-6.074,5.546-9.715,7.539l-10.323,5.681c-4.524,2.492-9.292,5.043-14.449,5.115-3.649.055-7.18-1.149-10.69-2.158-16.392-4.731-33.659-5.394-50.6-4.2-8.68.612-17.317,1.689-25.917,2.986-6.88,1.022-15.138,4.422-21.343.4-6.758-4.393-10.906-11.505-14.724-18.411-3.324-5.994-6.695-12.135-7.793-18.9C.76,95.068,4.807,84.336,11.138,75.846a68.064,68.064,0,0,1,6.222-7.18V107.03a3.8,3.8,0,0,0,3.78,3.8H170.023A29.638,29.638,0,0,1,170.711,118.121Z" transform="translate(-2.065 7.602)" fill="#086c7b" opacity="0.18"/>
        <path id="Caminho_556" data-name="Caminho 556" d="M115.084,10.6H75.276a23.915,23.915,0,0,1,4.849-2.855,30.357,30.357,0,0,1,10-2.23A48.765,48.765,0,0,1,115.084,10.6Z" transform="translate(-2.065 7.602)" fill="#086c7b" opacity="0.18"/>
        <path id="Caminho_557" data-name="Caminho 557" d="M78.659,98.194a6.175,6.175,0,0,0,1.381,1.335,6.454,6.454,0,0,0,2.534.752l13.482,2.032a.781.781,0,0,1,.376.127.769.769,0,0,1,.2.608,23.725,23.725,0,0,1-1.009,7.459,1.031,1.031,0,0,1-.275.524,1.081,1.081,0,0,1-.617.186,122.488,122.488,0,0,1-13.643.139,9.292,9.292,0,0,1-2.272-.249,8.214,8.214,0,0,1-3.257-2.112c-2.049-1.9-10.34-9.563-10.842-10.6a28.379,28.379,0,0,1-1.605-4.612c-.422-1.521,2.665-1.711,2.6-3.29a10.209,10.209,0,0,1,.389-3.235,5.525,5.525,0,0,1,1.352-2.5c.465-.422-.253-3.286.389-3.32.743,2.534,4.105,7.6,5.567,9.774a81.8,81.8,0,0,0,5.25,6.986Z" transform="translate(-2.065 7.602)" fill="#086c7b"/>
        <path id="Caminho_558" data-name="Caminho 558" d="M78.659,98.194a6.175,6.175,0,0,0,1.381,1.335,6.454,6.454,0,0,0,2.534.752l13.482,2.032a.781.781,0,0,1,.376.127.769.769,0,0,1,.2.608,23.725,23.725,0,0,1-1.009,7.459,1.031,1.031,0,0,1-.275.524,1.081,1.081,0,0,1-.617.186,122.488,122.488,0,0,1-13.643.139,9.292,9.292,0,0,1-2.272-.249,8.214,8.214,0,0,1-3.257-2.112c-2.049-1.9-10.34-9.563-10.842-10.6a28.379,28.379,0,0,1-1.605-4.612c-.422-1.521,2.665-1.711,2.6-3.29a10.209,10.209,0,0,1,.389-3.235,5.525,5.525,0,0,1,1.352-2.5c.465-.422-.253-3.286.389-3.32.743,2.534,4.105,7.6,5.567,9.774a81.8,81.8,0,0,0,5.25,6.986Z" transform="translate(-2.065 7.602)" fill="url(#linear-gradient)"/>
        <path id="Caminho_559" data-name="Caminho 559" d="M44.544,76.8a24.725,24.725,0,0,0-2.534,2.619,31.636,31.636,0,0,0-4.266,7.742c-3.079,7.239-5.761,14.982-4.963,22.808a2.957,2.957,0,0,0,.372,1.343,2.615,2.615,0,0,0,1.449.933,15.638,15.638,0,0,0,4.646.507c6.086.055,12.181.11,18.263-.186a5.21,5.21,0,0,0,2.72-.65,4.41,4.41,0,0,0,1.326-1.66c1.635-3.075,2.112-6.631,3.379-9.867,1.689-4.224,6.336-8.063,5.356-12.515C66.1,68.97,46.461,75.052,44.544,76.8Z" transform="translate(-2.065 7.602)" fill="#086c7b"/>
        <path id="Caminho_560" data-name="Caminho 560" d="M44.544,76.8a24.725,24.725,0,0,0-2.534,2.619,31.636,31.636,0,0,0-4.266,7.742c-3.079,7.239-5.761,14.982-4.963,22.808a2.957,2.957,0,0,0,.372,1.343,2.615,2.615,0,0,0,1.449.933,15.638,15.638,0,0,0,4.646.507c6.086.055,12.181.11,18.263-.186a5.21,5.21,0,0,0,2.72-.65,4.41,4.41,0,0,0,1.326-1.66c1.635-3.075,2.112-6.631,3.379-9.867,1.689-4.224,6.336-8.063,5.356-12.515C66.1,68.97,46.461,75.052,44.544,76.8Z" transform="translate(-2.065 7.602)" fill="url(#linear-gradient-2)"/>
        <path id="Caminho_561" data-name="Caminho 561" d="M72.049,61.139c-.714,3.468-1.461,7.028-3.379,10.014a7.755,7.755,0,0,1-2.927,2.881,4.053,4.053,0,0,1-3.966-.055c-.579-.376-1.212-.967-1.842-.688a1.509,1.509,0,0,0-.667,1.267,12.756,12.756,0,0,0,.051,3.654,3.087,3.087,0,0,1,.059,1.039A1.715,1.715,0,0,1,58,80.517a3.274,3.274,0,0,1-1.913-.3,6.184,6.184,0,0,1-3.565-4.57A14.809,14.809,0,0,1,52.4,73.62c-.08-3.007-.558-6-.46-9.005s.845-6.129,2.885-8.346a13.144,13.144,0,0,1,4.122-2.855,12.785,12.785,0,0,1,7.387-1.47A7.02,7.02,0,0,1,71.221,55.2C72.539,57.228,72.543,58.735,72.049,61.139Z" transform="translate(-2.065 7.602)" fill="#ffdad2"/>
        <path id="Caminho_562" data-name="Caminho 562" d="M78.338,53.5a6.99,6.99,0,0,0-3.7-7.037,18.566,18.566,0,0,0-3.573-1.115c-2.83-.76-5.546-2.019-8.447-2.289s-6.238.748-7.531,3.379c-.237.482-.469,1.064-.988,1.191a2.167,2.167,0,0,1-.845-.076c-1.939-.342-3.683,1.314-4.557,3.075-1.411,2.851-1.483,6.175-1.174,9.339.283,2.927,1.031,6.091,3.379,7.873.232.177.574.338.8.148a.667.667,0,0,0,.182-.393,12.84,12.84,0,0,0,.262-3.379,8.335,8.335,0,0,1,.038-2.572,1.992,1.992,0,0,1,1.787-1.6,1.886,1.886,0,0,1,1.639,1.521,5.609,5.609,0,0,1-.089,2.382c.127.317.57-.063.646-.393.583-2.653.714-5.622,2.555-7.6a3.265,3.265,0,0,1,.794,1.381,2.112,2.112,0,0,1,2.175-.541,5.17,5.17,0,0,1,1.453.95C67.631,61.244,77.4,60.205,78.338,53.5Z" transform="translate(-2.065 7.602)" fill="#3f3d56"/>
        <path id="Caminho_563" data-name="Caminho 563" d="M45.836,81.121a5.816,5.816,0,0,0-2.154,4.591c-.042,1.749,1.808,12.844,3.552,16,1.352,2.45,4.169,8.845,8.447,10.61,1.267.524,20,.3,28.692-.638-.055-2.057-.156-4.114-.291-6.171a1.17,1.17,0,0,0-.232-.756c-.22-.228-.532-1.719-.845-1.719-5.068.021-10.179,1.571-15.248,1.689a8.921,8.921,0,0,1-2.2-.131,6.335,6.335,0,0,1-1.689-.693c-3.911-2.213-6.074-6.559-7.6-10.787-1.17-3.261-2.112-6.636-3.8-9.681a5.014,5.014,0,0,0-2.319-2.619A4.431,4.431,0,0,0,45.836,81.121Z" transform="translate(-2.065 7.602)" fill="#086c7b"/>
        <path id="Caminho_564" data-name="Caminho 564" d="M45.836,81.121a5.816,5.816,0,0,0-2.154,4.591c-.042,1.749,1.808,12.844,3.552,16,1.352,2.45,4.169,8.845,8.447,10.61,1.267.524,20,.3,28.692-.638-.055-2.057-.156-4.114-.291-6.171a1.17,1.17,0,0,0-.232-.756c-.22-.228-.532-1.719-.845-1.719-5.068.021-10.179,1.571-15.248,1.689a8.921,8.921,0,0,1-2.2-.131,6.335,6.335,0,0,1-1.689-.693c-3.911-2.213-6.074-6.559-7.6-10.787-1.17-3.261-2.112-6.636-3.8-9.681a5.014,5.014,0,0,0-2.319-2.619A4.431,4.431,0,0,0,45.836,81.121Z" transform="translate(-2.065 7.602)" fill="url(#linear-gradient-3)"/>
        <path id="Caminho_565" data-name="Caminho 565" d="M83.63,102.637c2.631-.249,5.554.338,7.223,2.386a1.267,1.267,0,0,1,.329.676,1.132,1.132,0,0,1-.2.638c-.984,1.635-3.121,2.023-4.916,2.669a12.765,12.765,0,0,0-2.657,1.318,4.224,4.224,0,0,1-1.588.786c-1.267.19-2.319-.942-2.893-2.074-.659-1.267-1.689-3.869-.422-5.068C79.537,103.017,82.329,102.755,83.63,102.637Z" transform="translate(-2.065 7.602)" fill="#ffdad2"/>
        <path id="Caminho_566" data-name="Caminho 566" d="M105.42,101.987a3.6,3.6,0,0,1,1.178,1.077,1.55,1.55,0,0,1,.11,1.533,2.133,2.133,0,0,1-.79.71c-2.336,1.39-5.2,1.639-7.565,2.957a4.11,4.11,0,0,1-1.63.71,2.251,2.251,0,0,1-1.808-.845,5.744,5.744,0,0,1-.976-1.8C91.174,99.059,101.442,99.452,105.42,101.987Z" transform="translate(-2.065 7.602)" fill="#ffdad2"/>
        <path id="Caminho_567" data-name="Caminho 567" d="M36.421,93.345H47.365v8.988A3.168,3.168,0,0,1,44.2,105.5H39.589a3.168,3.168,0,0,1-3.168-3.168Z" transform="translate(0 13)" fill="#fff"/>
        <path id="Caminho_568" data-name="Caminho 568" d="M46.626,95.524h3.316a2.64,2.64,0,0,1,2.64,2.64v1.094a2.64,2.64,0,0,1-2.64,2.64H46.626Z" transform="translate(0 13)" fill="none" stroke="#fff" stroke-miterlimit="10" stroke-width="1.394"/>
        <rect id="Retângulo_172" data-name="Retângulo 172" width="152.942" height="4.693" rx="2.346" transform="translate(19.058 118.306)" fill="#086c7b"/>
        <rect id="Retângulo_173" data-name="Retângulo 173" width="83.795" height="29.064" transform="translate(58.604 123.071)" fill="#086c7b"/>
        <rect id="Retângulo_174" data-name="Retângulo 174" width="32.916" height="29.064" transform="translate(26.259 123.071)" fill="#086c7b"/>
        <rect id="Retângulo_175" data-name="Retângulo 175" width="83.246" height="29.064" transform="translate(59.158 123.071)" fill="url(#linear-gradient-4)"/>
        <rect id="Retângulo_176" data-name="Retângulo 176" width="32.916" height="29.064" transform="translate(26.259 123.071)" fill="url(#linear-gradient-5)"/>
        <path id="Caminho_569" data-name="Caminho 569" d="M173.8,14.382v18.5H17.36v-18.5a3.8,3.8,0,0,1,3.78-3.8H170.023a3.8,3.8,0,0,1,3.78,3.8Z" transform="translate(-2.065 7.602)" fill="#086c7b" opacity="0.18"/>
        <rect id="Retângulo_177" data-name="Retângulo 177" width="59.758" height="5.508" rx="2.754" transform="translate(139.823 118.226) rotate(180)" fill="#086c7b"/>
        <rect id="Retângulo_178" data-name="Retângulo 178" width="59.758" height="5.508" rx="2.754" transform="translate(139.823 118.226) rotate(180)" fill="url(#linear-gradient-6)"/>
        <path id="Caminho_570" data-name="Caminho 570" d="M103.7,110.633h41.633l10.982-27.847a2.45,2.45,0,0,0-2.277-3.345H121.365a7.89,7.89,0,0,0-7.324,4.992Z" transform="translate(-2.065 7.602)" fill="#086c7b"/>
        <path id="Caminho_571" data-name="Caminho 571" d="M105.813,110.662h39.543l10.428-26.453a2.323,2.323,0,0,0-2.163-3.176H122.594a7.489,7.489,0,0,0-6.969,4.739Z" transform="translate(-2.065 7.602)" fill="#086c7b"/>
        <path id="Caminho_572" data-name="Caminho 572" d="M105.813,110.662h39.543l10.428-26.453a2.323,2.323,0,0,0-2.163-3.176H122.594a7.489,7.489,0,0,0-6.969,4.739Z" transform="translate(-2.065 7.602)" fill="url(#linear-gradient-7)"/>
        <rect id="Retângulo_179" data-name="Retângulo 179" width="58.541" height="3.295" transform="translate(89.974 78.303)" fill="#fff" opacity="0.51"/>
        <rect id="Retângulo_180" data-name="Retângulo 180" width="41.617" height="3.295" transform="translate(89.974 72.665)" fill="#fff"/>
        <rect id="Retângulo_181" data-name="Retângulo 181" width="27.86" height="3.295" transform="translate(137.28 72.665)" fill="#fff"/>
        <rect id="Retângulo_182" data-name="Retângulo 182" width="42.833" height="2.927" transform="translate(122.21 51.808)" fill="#fff"/>
        <rect id="Retângulo_183" data-name="Retângulo 183" width="45.823" height="2.927" transform="translate(113.239 57.007)" fill="#fff" opacity="0.51"/>
        <rect id="Retângulo_184" data-name="Retângulo 184" width="28.172" height="2.927" transform="translate(90.768 51.808)" fill="#fff"/>
        <rect id="Retângulo_185" data-name="Retângulo 185" width="61.916" height="2.927" transform="translate(103.127 62.05)" fill="#fff"/>
        <rect id="Retângulo_186" data-name="Retângulo 186" width="9.089" height="2.927" transform="translate(90.768 62.05)" fill="#fff" opacity="0.51"/>
        <rect id="Retângulo_187" data-name="Retângulo 187" width="40.869" height="2.927" transform="translate(124.174 67.25)" fill="#fff" opacity="0.51"/>
        <rect id="Retângulo_188" data-name="Retângulo 188" width="28.172" height="2.927" transform="translate(90.768 67.25)" fill="#fff"/>
        <rect id="Retângulo_189" data-name="Retângulo 189" width="18.116" height="2.927" transform="translate(90.768 56.885)" fill="#fff"/>
        <rect id="Retângulo_190" data-name="Retângulo 190" width="42.833" height="2.927" transform="translate(106.544 41.954)" fill="#fff"/>
        <rect id="Retângulo_191" data-name="Retângulo 191" width="45.823" height="2.927" transform="translate(97.573 47.153)" fill="#fff" opacity="0.51"/>
        <rect id="Retângulo_192" data-name="Retângulo 192" width="28.172" height="2.927" transform="translate(75.107 41.954)" fill="#fff"/>
        <rect id="Retângulo_193" data-name="Retângulo 193" width="42.833" height="2.927" transform="translate(106.164 35.893)" fill="#fff"/>
        <rect id="Retângulo_194" data-name="Retângulo 194" width="28.172" height="2.927" transform="translate(74.726 30.393)" fill="#fff"/>
        <rect id="Retângulo_195" data-name="Retângulo 195" width="28.172" height="2.927" transform="translate(74.726 25.376)" fill="#fff"/>
        <rect id="Retângulo_196" data-name="Retângulo 196" width="18.116" height="2.927" transform="translate(75.107 47.031)" fill="#fff"/>
      </g>
    </g>
  </g>
</svg>
