<svg xmlns="http://www.w3.org/2000/svg" xmlns:xlink="http://www.w3.org/1999/xlink" width="158" height="133" viewBox="0 0 158 133">
  <defs>
    <clipPath id="clip-path">
      <rect id="Retângulo_216" data-name="Retângulo 216" width="158" height="133" transform="translate(211 1795)" fill="#fff" stroke="#707070" stroke-width="1"/>
    </clipPath>
    <linearGradient id="linear-gradient" x1="1.531" y1="6.476" x2="-0.2" y2="5.243" gradientUnits="objectBoundingBox">
      <stop offset="0" stop-opacity="0"/>
      <stop offset="1"/>
    </linearGradient>
    <linearGradient id="linear-gradient-2" x1="2.007" y1="9.541" x2="2.261" y2="-13.114" xlink:href="#linear-gradient"/>
    <linearGradient id="linear-gradient-3" x1="2.066" y1="14.996" x2="2.32" y2="-7.659" xlink:href="#linear-gradient"/>
    <linearGradient id="linear-gradient-4" x1="2.03" y1="11.785" x2="2.284" y2="-10.87" xlink:href="#linear-gradient"/>
    <linearGradient id="linear-gradient-5" x1="0.579" y1="-18.132" x2="0.594" y2="-32.376" xlink:href="#linear-gradient"/>
    <linearGradient id="linear-gradient-6" x1="4.231" y1="6.256" x2="-2.65" y2="5.77" xlink:href="#linear-gradient"/>
    <linearGradient id="linear-gradient-7" x1="3.959" y1="23.037" x2="4.303" y2="22.339" gradientUnits="objectBoundingBox">
      <stop offset="0" stop-color="#ecc4d7"/>
      <stop offset="0.42" stop-color="#efd4d1"/>
      <stop offset="1" stop-color="#f2eac9"/>
    </linearGradient>
    <linearGradient id="linear-gradient-8" x1="2.598" y1="16.621" x2="2.773" y2="16.205" xlink:href="#linear-gradient-7"/>
    <linearGradient id="linear-gradient-9" x1="0.166" y1="10.53" x2="3.972" y2="9.091" xlink:href="#linear-gradient"/>
    <linearGradient id="linear-gradient-10" x1="4.855" y1="21.272" x2="5.857" y2="21.272" xlink:href="#linear-gradient-7"/>
    <linearGradient id="linear-gradient-11" x1="2.44" y1="23.607" x2="3.44" y2="23.607" xlink:href="#linear-gradient-7"/>
  </defs>
  <g id="Grupo_de_máscara_33" data-name="Grupo de máscara 33" transform="translate(-211 -1795)" clip-path="url(#clip-path)">
    <g id="graphic_and_chart" transform="translate(236.221 1795)">
      <path id="Caminho_778" data-name="Caminho 778" d="M34.658,25.329c10.771-9.32,27.234-15.7,38.869-7.493C79.428,22,82.6,28.959,87.389,34.36s13.268,9.211,19.068,4.9c2.674-1.983,4.064-5.214,6.121-7.832,6.118-7.8,18.313-9.238,26.938-4.363s13.591,14.879,14.01,24.781c.446,10.949-3.982,21.481-5.269,32.363a57.091,57.091,0,0,0,4.712,30.207c1.428,3.135,3.171,6.239,3.529,9.657s-1.134,7.353-4.378,8.52a11.056,11.056,0,0,1-4.151.392L13.645,128.965c-2.772-.082-5.65-.194-8.108-1.475C-1.232,123.954-1,114.026,2.005,107.005S9.879,93.166,9.2,85.56C8.2,74.268-5.256,63.762,3.679,52.583c3.244-4.064,9.387-6.7,13.324-10.189C23.128,36.953,28.462,30.692,34.658,25.329Z" transform="translate(-24 -0.016)" fill="#086c7b" opacity="0.18"/>
      <path id="Caminho_779" data-name="Caminho 779" d="M143.713,13.663s1.807,8.707,3.342,9.374,3.22-2.07,3.342-2.045,1.782,1.827,1.782,1.827a6.345,6.345,0,0,1-3.906,3.759c-1.635.5-6.4-4.79-7.063-7.974a23.29,23.29,0,0,1-.223-8.139A4.471,4.471,0,0,1,143.713,13.663Z" transform="translate(-24 -0.016)" fill="#086c7b"/>
      <path id="Caminho_780" data-name="Caminho 780" d="M143.713,13.663s1.807,8.707,3.342,9.374,3.22-2.07,3.342-2.045,1.782,1.827,1.782,1.827a6.345,6.345,0,0,1-3.906,3.759c-1.635.5-6.4-4.79-7.063-7.974a23.29,23.29,0,0,1-.223-8.139A4.471,4.471,0,0,1,143.713,13.663Z" transform="translate(-24 -0.016)" fill="url(#linear-gradient)"/>
      <path id="Caminho_781" data-name="Caminho 781" d="M132,18.937l-32.568,25.4-40.035-27L10.92,60.75" transform="translate(-24)" fill="none" stroke="#3f3d56" stroke-miterlimit="10" stroke-width="0.891"/>
      <rect id="Retângulo_217" data-name="Retângulo 217" width="16.608" height="51.238" transform="translate(-12.946 78.612)" fill="#086c7b"/>
      <rect id="Retângulo_218" data-name="Retângulo 218" width="16.608" height="67.641" transform="translate(67.123 62.209)" fill="#086c7b"/>
      <rect id="Retângulo_219" data-name="Retângulo 219" width="16.608" height="90.782" transform="translate(27.088 39.068)" fill="#086c7b"/>
      <rect id="Retângulo_220" data-name="Retângulo 220" width="16.608" height="95.443" transform="translate(107.158 34.404)" fill="#086c7b"/>
      <circle id="Elipse_51" data-name="Elipse 51" cx="4.031" cy="4.031" r="4.031" transform="translate(-18.781 60.751) rotate(-45)" fill="#086c7b"/>
      <circle id="Elipse_52" data-name="Elipse 52" cx="4.031" cy="4.031" r="4.031" transform="translate(31.362 13.306)" fill="#086c7b"/>
      <circle id="Elipse_53" data-name="Elipse 53" cx="4.031" cy="4.031" r="4.031" transform="translate(71.394 39.634)" fill="#086c7b"/>
      <circle id="Elipse_54" data-name="Elipse 54" cx="4.031" cy="4.031" r="4.031" transform="translate(-18.781 60.751) rotate(-45)" fill="url(#linear-gradient-2)"/>
      <circle id="Elipse_55" data-name="Elipse 55" cx="4.031" cy="4.031" r="4.031" transform="translate(31.362 13.306)" fill="url(#linear-gradient-3)"/>
      <circle id="Elipse_56" data-name="Elipse 56" cx="4.031" cy="4.031" r="4.031" transform="translate(71.394 39.634)" fill="url(#linear-gradient-4)"/>
      <path id="Caminho_782" data-name="Caminho 782" d="M153.608,132.816H3.119a2.95,2.95,0,0,1-2.959-2.95h0a2.95,2.95,0,0,1,2.959-2.95H153.608a2.95,2.95,0,0,1,2.95,2.95h0a2.95,2.95,0,0,1-2.95,2.95Z" transform="translate(-24 -0.016)" fill="#086c7b"/>
      <path id="Caminho_783" data-name="Caminho 783" d="M153.608,132.816H3.119a2.95,2.95,0,0,1-2.959-2.95h0a2.95,2.95,0,0,1,2.959-2.95H153.608a2.95,2.95,0,0,1,2.95,2.95h0a2.95,2.95,0,0,1-2.95,2.95Z" transform="translate(-24 -0.016)" fill="url(#linear-gradient-5)"/>
      <path id="Caminho_784" data-name="Caminho 784" d="M135.975,10.918s-3.447.76-4.817,2.567S129.634,30.024,130.712,31,144,29.979,143.04,28.168c-1.814-3.436-.261-17.714-2.039-17.7S135.975,10.918,135.975,10.918Z" transform="translate(-24 -0.016)" fill="#086c7b"/>
      <path id="Caminho_785" data-name="Caminho 785" d="M134.355,16.308s-3.012,12.511-1.136,14.777c0,0-1.825.495-2.5-.089s-1.094-8.021.056-11.363S134.355,16.308,134.355,16.308Z" transform="translate(-24 -0.016)" fill="url(#linear-gradient-6)"/>
      <path id="Caminho_786" data-name="Caminho 786" d="M136.2,7.429s-.341,2.692-.368,3.516,2.558,2.135,3.142,1.321a2.005,2.005,0,0,0,.341-1.635l-.172-1.782Z" transform="translate(-24 -0.016)" fill="url(#linear-gradient-7)"/>
      <path id="Caminho_787" data-name="Caminho 787" d="M136.006,4.505s-.223,3.75,1.063,4.532,2.005,1.56,3.594-.25,1.415-4.813,1.067-5.252S137.1.475,136.006,4.505Z" transform="translate(-24 -0.016)" fill="url(#linear-gradient-8)"/>
      <path id="Caminho_788" data-name="Caminho 788" d="M134.627,2.005a5.958,5.958,0,0,0-.247,2.649h.365c-.071.472-.111,1.036.252,1.337.1.085.223.14.321.223.372.323.446,1.132.891,1.337q-.082-1-.172-2.005c-.029-.341-.082-.918.25-1,.076-.018.158-.013.223-.036a.64.64,0,0,0,.323-.274c.129-.194.256-.388.383-.584A1.493,1.493,0,0,1,137.871,3c.292-.109.7.062.706.374a2.334,2.334,0,0,1,2.228-.036,2.694,2.694,0,0,1,1,.648,1.306,1.306,0,0,1,.343,1.114c.519-1.8,1.1-5.74-2.772-5-.568.116-1.041.539-1.615.579.069,0-.18-.276-.223-.3-.2-.085-.356.031-.533.107a3.549,3.549,0,0,1-.847.172,2.208,2.208,0,0,0-1.535,1.337Z" transform="translate(-24 -0.016)" fill="#3f3d56"/>
      <path id="Caminho_789" data-name="Caminho 789" d="M131.938,12.7s2.879.813,2.406,3.605c0,0-3.806,3.888-3.431,4.679s7.281,4.922,7.281,4.922l-2.2,1.811s-8.2-2.937-8.768-5.57S128.023,15.43,131.938,12.7Z" transform="translate(-24 -0.016)" fill="#086c7b"/>
      <path id="Caminho_790" data-name="Caminho 790" d="M152.461,14.443l-2.406,8.814-6.335.486,1.927-9.612Z" transform="translate(-24)" fill="#086c7b"/>
      <path id="Caminho_791" data-name="Caminho 791" d="M152.461,14.443l-2.406,8.814-6.335.486,1.927-9.612Z" transform="translate(-24)" fill="url(#linear-gradient-9)"/>
      <path id="Caminho_792" data-name="Caminho 792" d="M150.632,21.033a.268.268,0,0,0,0,.145.343.343,0,0,0,.134.143c.379.3.539.869,1,1.02a4.5,4.5,0,0,0,.934-1.317,2.562,2.562,0,0,0,.223-1.809,2.121,2.121,0,0,0-1.041-1.21.833.833,0,0,0-.731-.1.757.757,0,0,0-.368.53c-.053.223-.062.446-.131.655a6.436,6.436,0,0,0-.29.729.6.6,0,0,0,.165.544c.08.085.116.049.154.156a1.662,1.662,0,0,1-.045.515Z" transform="translate(-24 -0.016)" fill="url(#linear-gradient-10)"/>
      <path id="Caminho_793" data-name="Caminho 793" d="M139.689,26.142a.365.365,0,0,1,.3.1.3.3,0,0,1-.049.35,1.4,1.4,0,0,0-.223.3,7.652,7.652,0,0,0,1.19.762c.292.154.637.348.651.668a.771.771,0,0,1-.4.613,3.8,3.8,0,0,1-2.293.537,2.473,2.473,0,0,1-1.35-.374,2.912,2.912,0,0,1-.628-.684l-.548-.74a.091.091,0,0,1-.018-.127l.018-.018.653-.717C137.762,25.969,138.611,26.131,139.689,26.142Z" transform="translate(-24 -0.016)" fill="url(#linear-gradient-11)"/>
      <path id="Caminho_794" data-name="Caminho 794" d="M148.958,48.591c-.586.495-1.083-.185-1.179-.74a11.981,11.981,0,0,1-.145-1.874q-.114-5.007-.223-10.013a1.036,1.036,0,0,0-1.25-1.239l-.624-.029-9.178-.434a9.148,9.148,0,0,1-3.342-.579,3.111,3.111,0,0,1-1.963-2.571c.018.617,8.021-1.094,8.7-1.323a10.759,10.759,0,0,1,3.625-1.007c1.5.029,3.05.3,4.545.428a6.249,6.249,0,0,1,3.627,1.1,5.212,5.212,0,0,1,1.451,3.728C153.312,39.449,151.4,43.756,148.958,48.591Z" transform="translate(-24 -0.016)" fill="#3f3d56"/>
      <path id="Caminho_795" data-name="Caminho 795" d="M148.352,48.486l-.891-.492a11.348,11.348,0,0,0,.18-2.016q-.114-5.007-.223-10.013a1.036,1.036,0,0,0-1.25-1.239l-.624-.029-1.15-2.228s3.852.013,4.728,1.263S148.352,48.486,148.352,48.486Z" transform="translate(-24 -0.016)" fill="#25233a"/>
      <path id="Caminho_796" data-name="Caminho 796" d="M146.884,37.655a6.844,6.844,0,0,1-.586,2.433c-.668,1.727-1.422,3.409-2.184,5.091q-1.237,2.723-2.471,5.452c-.145.319-.343.682-.691.733-.408.058-.651-.314-.76-.751a2.323,2.323,0,0,1-.069-.595q.033-5.154.423-10.3a1.225,1.225,0,0,0-.058-.6,1.17,1.17,0,0,0-.5-.446c-1.58-.922-3.293-1.582-4.9-2.451a10.43,10.43,0,0,1-4.1-3.534,1.025,1.025,0,0,1-.2-.717c.091-.432.617-.584,1.052-.653l8.961-1.437c2.005-.323,3.507,2.567,4.507,3.966A6.788,6.788,0,0,1,146.884,37.655Z" transform="translate(-24 -0.016)" fill="#3f3d56"/>
      <path id="Caminho_797" data-name="Caminho 797" d="M140.122,50.008l-.668,2.968a21.182,21.182,0,0,0,2.921,1.782,13.837,13.837,0,0,0,2.843,0s.343-.907-.813-1.312a13.484,13.484,0,0,0-2.228-.561,2.723,2.723,0,0,1-.668-1.876S140.643,51.166,140.122,50.008Z" transform="translate(-24 -0.016)" fill="#25233a"/>
      <path id="Caminho_798" data-name="Caminho 798" d="M147.543,47.593l-.668,2.966a20.964,20.964,0,0,0,2.921,1.782,14,14,0,0,0,2.843,0s.343-.907-.813-1.312a13.715,13.715,0,0,0-2.228-.564,2.714,2.714,0,0,1-.668-1.874S148.065,48.751,147.543,47.593Z" transform="translate(-24 -0.016)" fill="#25233a"/>
      <path id="Caminho_799" data-name="Caminho 799" d="M140.953,51.354l-.76-.751a2.323,2.323,0,0,1-.069-.595q.033-5.154.423-10.3a1.225,1.225,0,0,0-.058-.6,1.17,1.17,0,0,0-.5-.446c-1.58-.922-3.293-1.582-4.9-2.451a10.43,10.43,0,0,1-4.1-3.534,1.025,1.025,0,0,1-.2-.717c.091-.432.617-.584,1.052-.653,0,0,6.751,4.211,9.336,5.96S140.953,51.354,140.953,51.354Z" transform="translate(-24 -0.016)" fill="#25233a"/>
    </g>
  </g>
</svg>
