<svg xmlns="http://www.w3.org/2000/svg" xmlns:xlink="http://www.w3.org/1999/xlink" width="122" height="117" viewBox="0 0 122 117">
  <defs>
    <clipPath id="clip-path">
      <rect id="Retângulo_243" data-name="Retângulo 243" width="122" height="117" transform="translate(1015 3030)" fill="#fff" stroke="#707070" stroke-width="1"/>
    </clipPath>
    <clipPath id="clip-path-2">
      <path id="Polígono_7" data-name="Polígono 7" d="M52.672,60.842c14.42-26.326,52.235-26.326,66.655,0l21.857,39.9C155.056,126.068,136.731,157,107.857,157H64.143c-28.874,0-47.2-30.932-33.328-56.256Z" transform="translate(1659 2821)" fill="#7cfef0" opacity="0.13"/>
    </clipPath>
    <linearGradient id="linear-gradient" y1="0.5" x2="1" y2="0.5" gradientUnits="objectBoundingBox">
      <stop offset="0" stop-opacity="0"/>
      <stop offset="0.99"/>
    </linearGradient>
    <linearGradient id="linear-gradient-2" x1="0.815" y1="0.244" x2="-0.228" y2="1.094" xlink:href="#linear-gradient"/>
    <linearGradient id="linear-gradient-3" y1="0.499" x2="1.001" y2="0.499" gradientUnits="objectBoundingBox">
      <stop offset="0" stop-color="#e5c5d5"/>
      <stop offset="0.42" stop-color="#ead4d1"/>
      <stop offset="1" stop-color="#f0e9cb"/>
    </linearGradient>
    <linearGradient id="linear-gradient-4" x1="0.173" y1="0.657" x2="0.668" y2="0.403" xlink:href="#linear-gradient"/>
    <linearGradient id="linear-gradient-5" x1="0.003" y1="0.502" x2="1.001" y2="0.502" xlink:href="#linear-gradient-3"/>
    <linearGradient id="linear-gradient-6" x1="0.626" y1="-1.156" x2="0.344" y2="3.523" xlink:href="#linear-gradient"/>
    <linearGradient id="linear-gradient-7" x1="0.004" y1="0.5" x2="1.005" y2="0.5" xlink:href="#linear-gradient-3"/>
    <linearGradient id="linear-gradient-8" x1="0.002" y1="0.501" x2="1" y2="0.501" xlink:href="#linear-gradient-3"/>
  </defs>
  <g id="Grupo_de_máscara_39" data-name="Grupo de máscara 39" transform="translate(-1015 -3030)" clip-path="url(#clip-path)">
    <g id="Illustration" transform="translate(-669 169)" clip-path="url(#clip-path-2)">
      <g id="profile_analyze" transform="translate(1658.996 2836.398)">
        <path id="Caminho_573" data-name="Caminho 573" d="M128.425,60.866c3.648,5.842,5.692,13.023,11.222,17.086,7.763,5.683,19.544,3.084,27.078,9.063,3.481,2.762,5.476,6.952,7.08,11.094,2.339,6.054,4.031,13.054,1.11,18.848-3.375,6.692-11.552,9.252-18.945,10.362-10.239,1.564-20.707,1.709-30.748,4.287-4,1.031-7.93,2.441-11.979,3.194a60.578,60.578,0,0,1-12.2.758,160.727,160.727,0,0,1-57.482-11.728c-14.6-5.917-28.924-14.6-36.766-28.263A46.124,46.124,0,0,1,1.248,65.9a36.228,36.228,0,0,1,6.084-15.68c4.622-6.424,11.7-10.829,19.2-13.358s15.486-3.357,23.4-3.776c16.341-.881,36.96-2.348,52.094,4.846,4.512,2.15,7.825,5.08,11.455,8.4C118.7,51.077,124.628,54.813,128.425,60.866Z" transform="translate(8.539 10.166)" fill="#086c7b" opacity="0.18"/>
        <rect id="Retângulo_197" data-name="Retângulo 197" width="82.767" height="126.005" rx="4.752" transform="translate(38.659 21)" fill="#086c7b" opacity="0.43"/>
        <path id="Caminho_574" data-name="Caminho 574" d="M108.923,96.431l.551,8.437a9.151,9.151,0,0,1-2.983-1.85c-4.78-4.071-8.014-9.609-11.089-15.059q-3.921-6.974-7.679-14.024a14.2,14.2,0,0,0-3.4-4.692,5.3,5.3,0,0,1,4.741-.573c1.828.859,2.516,3.036,3.467,4.816A40.818,40.818,0,0,0,96.212,78.6a34.864,34.864,0,0,1,4.1,7.018,5.318,5.318,0,0,0,.775,1.392,5.159,5.159,0,0,0,1.762,1.128,55.073,55.073,0,0,1,5.807,3.141,7.049,7.049,0,0,1,1.762,1.4,3.793,3.793,0,0,1,.819,2.732C111.09,97.144,110.266,96.329,108.923,96.431Z" transform="translate(10.349 10.945)" fill="#086c7b" opacity="0.34"/>
        <path id="Caminho_575" data-name="Caminho 575" d="M43.76,93.165a3.748,3.748,0,0,0-2.2,1.04c-.515.639-.441,1.837.352,2.088a2.458,2.458,0,0,0,.7.062c3.392.075,5.516,3.992,8.812,4.745A8.371,8.371,0,0,0,55,100.959a6.829,6.829,0,0,0,2.9-1.181c.6-.485,1.181-1.19,1.947-1.115.881.084,1.286,1.106,1.485,1.965,1.793,7.807,1.322,15.931.806,23.928-.167,2.643-.225,5.4-.273,8.058a4.383,4.383,0,0,0,.568,2.705c.806,1.035,2.326,1.084,3.639,1.035a3.333,3.333,0,0,0,2.37-.731,3.177,3.177,0,0,0,.595-2.282q.079-12.649-1-25.263c-.194-2.225.361-7.631.335-9.865a54.311,54.311,0,0,1,1.176-8.3c1.031-5.877,2.057-6.992,2.939-12.891a7.829,7.829,0,0,0,2.683,1.256,2.656,2.656,0,0,0,2.67-.908,3.78,3.78,0,0,0,.48-2,46.94,46.94,0,0,0-.07-5.4,2.608,2.608,0,0,0-.3-1.216,2.67,2.67,0,0,0-1.146-.881l-5.93-2.952a4.353,4.353,0,0,0-2.057-.63,3.428,3.428,0,0,0-2.11,1.053c-3.238,3.027-3.256,8.027-3.7,12.438a23.332,23.332,0,0,1-3.282,10.574c-2.044,3.11-5.424,5.525-9.151,5.683A18.971,18.971,0,0,1,43.76,93.165Z" transform="translate(9.416 10.857)" fill="#086c7b" opacity="0.34"/>
        <path id="Caminho_576" data-name="Caminho 576" d="M57.45,23.6V45.653a2.48,2.48,0,0,1-2.48,2.48H38.778a2.48,2.48,0,0,1-2.48-2.48V23.6a2.485,2.485,0,0,1,2.48-2.467H54.969A2.485,2.485,0,0,1,57.45,23.6Z" transform="translate(9.309 9.923)" fill="#086c7b"/>
        <path id="Caminho_577" data-name="Caminho 577" d="M56.189,97.553a2.48,2.48,0,0,1-1.115.912,2.388,2.388,0,0,1-1.366-.11A19.993,19.993,0,0,1,44.9,92.9a7.957,7.957,0,0,1,1.207-1.9,14.808,14.808,0,0,0,4.912,1.071,1.154,1.154,0,0,0,.67-.115,1.137,1.137,0,0,0,.33-.405q1.19-2.022,2.2-4.141c.881-1.872,1.762-3.917,3.525-5.014a.969.969,0,0,1,.538-.189,1.066,1.066,0,0,1,.546.238c1.322.881,2.8,1.894,3.41,3.445.524,1.322-.044,2.168-.727,3.3A76.094,76.094,0,0,1,56.189,97.553Z" transform="translate(9.495 11.245)" fill="#086c7b"/>
        <path id="Caminho_578" data-name="Caminho 578" d="M62.434,110.7a3.745,3.745,0,0,1-2.384-2.736,31.1,31.1,0,0,1-.749-6.1A101.928,101.928,0,0,0,58.834,83.8c-.04-.335,7.406-2.291,8.107-1.846,1.67,1.057.3,6.195.035,7.851C65.959,96.159,64.491,104.618,62.434,110.7Z" transform="translate(9.797 11.238)" fill="#086c7b"/>
        <rect id="Retângulo_198" data-name="Retângulo 198" width="37.061" height="2.472" transform="translate(74.328 36.442)" fill="#086c7b"/>
        <rect id="Retângulo_199" data-name="Retângulo 199" width="27.007" height="2.472" transform="translate(74.328 42.773)" fill="#086c7b"/>
        <rect id="Retângulo_200" data-name="Retângulo 200" width="37.061" height="2.472" transform="translate(74.328 48.488)" fill="#086c7b"/>
        <rect id="Retângulo_201" data-name="Retângulo 201" width="32.792" height="2.472" transform="translate(74.328 54.819)" fill="#086c7b"/>
        <rect id="Retângulo_202" data-name="Retângulo 202" width="65.474" height="2.472" transform="translate(45.84 62.617)" fill="#086c7b"/>
        <rect id="Retângulo_203" data-name="Retângulo 203" width="51.358" height="2.472" transform="translate(45.84 68.948)" fill="#086c7b"/>
        <rect id="Retângulo_204" data-name="Retângulo 204" width="65.474" height="2.472" transform="translate(45.84 74.658)" fill="#086c7b"/>
        <rect id="Retângulo_205" data-name="Retângulo 205" width="57.694" height="2.472" transform="translate(45.84 80.989)" fill="#086c7b"/>
        <path id="Caminho_579" data-name="Caminho 579" d="M112.506,102.429l-3.084,1.546L87.111,68.4a11.142,11.142,0,0,0,3.084-1.824Z" transform="translate(10.409 10.907)" fill="#086c7b"/>
        <path id="Caminho_580" data-name="Caminho 580" d="M112.523,102.614l-3.084,1.546L87.145,68.606a11.035,11.035,0,0,0,3.084-1.824Z" transform="translate(10.41 10.911)" fill="url(#linear-gradient)"/>
        <path id="Caminho_581" data-name="Caminho 581" d="M80.981,38.872a15.98,15.98,0,1,0,15.98,15.981,15.98,15.98,0,0,0-15.98-15.981Zm-.322,29.043a13.036,13.036,0,1,1,.019,0Z" transform="translate(9.93 10.307)" fill="#086c7b"/>
        <path id="Caminho_582" data-name="Caminho 582" d="M80.981,38.872a15.98,15.98,0,1,0,15.98,15.981,15.98,15.98,0,0,0-15.98-15.981Zm-.322,29.043a13.036,13.036,0,1,1,.019,0Z" transform="translate(9.93 10.307)" fill="url(#linear-gradient-2)"/>
        <path id="Caminho_583" data-name="Caminho 583" d="M93.667,54.8A13.05,13.05,0,1,1,80.62,41.757,13.05,13.05,0,0,1,93.667,54.8Z" transform="translate(9.986 10.37)" fill="#fff" stroke="#086c7b" stroke-miterlimit="10" stroke-width="0.267" opacity="0.53"/>
        <path id="Caminho_584" data-name="Caminho 584" d="M117.233,77.445c-.194.048-.441.079-.524.251a.648.648,0,0,0-.048.379l.211,2.445a2.6,2.6,0,0,0,.278,1.128,2.445,2.445,0,0,0,1.947.881,2.882,2.882,0,0,1,2.027.775c.251.308.379.736.723.934a1.489,1.489,0,0,0,1.009.044,1.15,1.15,0,0,0,.626-.256.916.916,0,0,0,.048-1.018,6.4,6.4,0,0,1-.489-.93,3.653,3.653,0,0,1,.441-2.013,3.837,3.837,0,0,0-.806-3.965,3.084,3.084,0,0,0-3.225-.621C118.444,75.864,118.378,77.172,117.233,77.445Z" transform="translate(11.048 11.095)" fill="url(#linear-gradient-3)"/>
        <path id="Caminho_585" data-name="Caminho 585" d="M118.962,73.386a.326.326,0,0,0-.515.035.529.529,0,0,0-.048.286,2.52,2.52,0,0,0,.859,1.687,9.12,9.12,0,0,0,1.6,1.1,2.472,2.472,0,0,1,.912.789,2.388,2.388,0,0,1,.088,1.74c-.031.137-.048.317.079.383s.313-.106.489-.141a.383.383,0,0,1,.4.352.9.9,0,0,1-.176.564,1.1,1.1,0,0,1-.405.441c-.062.026-.132.057-.145.123s.04.11.084.15c.207.189.419.374.634.551a.855.855,0,0,0,.441.229.881.881,0,0,0,.626-.357l1.379-1.445a1.128,1.128,0,0,0,.308-.441,1.031,1.031,0,0,0,0-.463,1.454,1.454,0,0,0-.731-1.137,1.793,1.793,0,0,0,.441-1.322,2.8,2.8,0,0,0-1-2.066,9.446,9.446,0,0,0-1.925-1.018,6.609,6.609,0,0,1-2.04-1.586.908.908,0,0,0-.379-.317c-.33-.11-.692.229-.841.5A2.4,2.4,0,0,0,118.962,73.386Z" transform="translate(11.086 11.014)" fill="#3e3e54"/>
        <path id="Caminho_586" data-name="Caminho 586" d="M115.4,88.971a3.01,3.01,0,0,1-1,.5,3.353,3.353,0,0,1-1.185-.031c-2.895-.441-5.772-1.022-8.613-1.736a.762.762,0,0,0-.674.044.784.784,0,0,0-.194.392l-.586,2.2a.621.621,0,0,0,.441.9q3.749,1.7,7.534,3.3a6.833,6.833,0,0,0,2.591.709,6.062,6.062,0,0,0,2.035-.441,25.236,25.236,0,0,0,6.261-3.3l5.635,5.622c.96.96,2.053,1.978,3.41,2.053a5.463,5.463,0,0,0,2.3-.542q2.423-.956,4.82-1.978a1.154,1.154,0,0,0,.67-.507.956.956,0,0,0,0-.608,4.846,4.846,0,0,0-1.2-1.983,62.523,62.523,0,0,0-10.345-9.521,7.346,7.346,0,0,0-2.613-1.423,3.977,3.977,0,0,0-2.419.8,27.294,27.294,0,0,0-4.384,3.476A26.835,26.835,0,0,1,115.4,88.971Z" transform="translate(10.755 11.254)" fill="#086c7b"/>
        <path id="Caminho_587" data-name="Caminho 587" d="M115.878,127.117a1.154,1.154,0,0,0-.062,1.093,1.088,1.088,0,0,0,.731.348,10.227,10.227,0,0,0,3,.075,33.612,33.612,0,0,1,4.212-7.93q3.7-5.692,7.406-11.371c2.851-4.379,5.728-8.812,7.441-13.75-.1.3-4.247,1.128-4.8,1.322a17.378,17.378,0,0,0-4,1.709c-2.309,1.665-3.732,5.842-4.992,8.336C121.5,113.525,118.689,120.323,115.878,127.117Z" transform="translate(11.028 11.535)" fill="#3e3e54"/>
        <path id="Caminho_588" data-name="Caminho 588" d="M115.878,127.117a1.154,1.154,0,0,0-.062,1.093,1.088,1.088,0,0,0,.731.348,10.227,10.227,0,0,0,3,.075,33.612,33.612,0,0,1,4.212-7.93q3.7-5.692,7.406-11.371c2.851-4.379,5.728-8.812,7.441-13.75-.1.3-4.247,1.128-4.8,1.322a17.378,17.378,0,0,0-4,1.709c-2.309,1.665-3.732,5.842-4.992,8.336C121.5,113.525,118.689,120.323,115.878,127.117Z" transform="translate(11.028 11.535)" fill="url(#linear-gradient-4)"/>
        <path id="Caminho_589" data-name="Caminho 589" d="M130.922,111.81a3.591,3.591,0,0,0,1.648,3.049c4.084,3.428,8.415,6.551,12.742,9.693a5.965,5.965,0,0,0,2.89-2.309,76.391,76.391,0,0,1-9.442-7.882A4.443,4.443,0,0,1,137.178,112a4.871,4.871,0,0,1,.441-2.291,42.01,42.01,0,0,0,1.6-8.6,8.518,8.518,0,0,0-.366-4.767,1.731,1.731,0,0,0-.577-.723,2.144,2.144,0,0,0-1.67-.057,25.606,25.606,0,0,0-5.018,1.731c-1.322.656-1.353,1.225-1.322,2.643C130.327,103.889,130.49,107.85,130.922,111.81Z" transform="translate(11.343 11.531)" fill="#3e3e54"/>
        <path id="Caminho_590" data-name="Caminho 590" d="M116.422,127.454a7.485,7.485,0,0,0-2.829,1.921c-.264.247-.551.63-.348.93a.749.749,0,0,0,.533.251,12.112,12.112,0,0,0,2.851.123,3.741,3.741,0,0,0,1.639-.441,1.59,1.59,0,0,0,.828-1.4,1.511,1.511,0,0,0-1.159-1.269,2.732,2.732,0,0,0-1.784.238" transform="translate(10.973 12.225)" fill="#3e3e54"/>
        <path id="Caminho_591" data-name="Caminho 591" d="M144.072,124.472c-.441.414-.921,1.027-.656,1.582a1.11,1.11,0,0,0,1.027.524,3.9,3.9,0,0,0,1.811-.656c1.322-.745,2.723-1.432,3.965-2.3C148.733,120.119,145.94,122.75,144.072,124.472Z" transform="translate(11.626 12.104)" fill="#3e3e54"/>
        <path id="Caminho_592" data-name="Caminho 592" d="M100.4,85.522a1.533,1.533,0,0,0-.414-.251.753.753,0,0,0-.643.075,1.128,1.128,0,0,0-.405,1.15c.062.441.256.828.339,1.251a2.644,2.644,0,0,0,.348,1.212,1.762,1.762,0,0,0,1.251.441c.991.088,2.969.4,2.48-1.322C103.069,87.055,101.205,86.138,100.4,85.522Z" transform="translate(10.664 11.311)" fill="url(#linear-gradient-5)"/>
        <path id="Caminho_593" data-name="Caminho 593" d="M53.818,48.019H39.473c-.855-1.11.48-5.322.943-6.424.2-.471,3.229-4.846,3.392-4.547-.934-1.608-1.9-3.326-1.846-5.19a5.887,5.887,0,0,1,4.071-5.15c2.428-.8,5.569.229,6.349,2.643a5.631,5.631,0,0,1,.1,2.6,10.437,10.437,0,0,1-2.859,5.6c2.291.718,3.335,3.322,3.921,5.648A12.133,12.133,0,0,1,53.818,48.019Z" transform="translate(9.372 10.038)" fill="url(#linear-gradient-6)"/>
        <path id="Caminho_594" data-name="Caminho 594" d="M69.42,60.554a1.713,1.713,0,0,1-.441,1.392,1.154,1.154,0,0,1-1.207.1,2.507,2.507,0,0,1-.934-.85,5.763,5.763,0,0,1-.714-1.264,4.34,4.34,0,0,1-.313-1.89,2.428,2.428,0,0,1,.238-.952,1.886,1.886,0,0,1,1.714-.952c.7.026,1.687.485,1.674,1.264Q69.438,58.972,69.42,60.554Z" transform="translate(9.948 10.681)" fill="url(#linear-gradient-7)"/>
        <path id="Caminho_595" data-name="Caminho 595" d="M68.329,63.444c-.093.3-.141.709.137.859a.749.749,0,0,0,.383.057,2.586,2.586,0,0,1,1.983.745,2.886,2.886,0,0,1,.63,1.635c.057.586.035,1.181.119,1.762.132.881,2.2,2.339,2.353,1.939a6.428,6.428,0,0,0,.308-3.027c-.048-.352-.084-.789.211-.974a.811.811,0,0,1,.56-.053,5.353,5.353,0,0,1,1.652.542c-.211.52.767,5.146.687,6.283-.308,4.476-5.829.881-6.767.366-.26-.137-.546-.41-.441-.678-.225,1.679-.533,3.467-.758,5.146a8.845,8.845,0,0,1-1.269,4.115,6.274,6.274,0,0,1-2.683,1.956,7.7,7.7,0,0,1-7.292-.379,2.674,2.674,0,0,1-1-1.106,3.3,3.3,0,0,1-.159-1.392,46.383,46.383,0,0,1,1.163-8.908c.524-2.282,1.322-4.657,3.106-6.168A15.264,15.264,0,0,1,68.329,63.444Z" transform="translate(9.757 10.839)" fill="#fff"/>
        <path id="Caminho_596" data-name="Caminho 596" d="M66.169,50.787a5.194,5.194,0,0,0-3.837,1.657,10.349,10.349,0,0,0-2.176,3.683,13.527,13.527,0,0,1-1.56,3.467c-1.022,1.383-2.643,2.159-4.1,3.084s-2.881,2.2-3.084,3.93c-.11.952.189,1.917.075,2.864-.141,1.154-.881,2.326-.414,3.4a2.375,2.375,0,0,0,.815.956,4.238,4.238,0,0,0,4.9,0c1.516-1.128,2.1-3.159,3.5-4.428,1.538-1.392,3.789-1.652,5.525-2.78A6.512,6.512,0,0,0,68.734,61a7.9,7.9,0,0,1,0-2.432c.22-.784.78-1.357.969-2.11a7.846,7.846,0,0,0-.476-3.551A3.408,3.408,0,0,0,66.169,50.787Z" transform="translate(9.626 10.565)" fill="#3e3e54"/>
        <path id="Caminho_597" data-name="Caminho 597" d="M73.844,65.347a1.762,1.762,0,0,1-.308-.608.441.441,0,0,1,.3-.537,1.238,1.238,0,0,0,.313-.031.44.44,0,0,0,.145-.115.78.78,0,0,1,.661-.176.771.771,0,0,1,.533.441.383.383,0,0,1,.357.15.833.833,0,0,1,.15.37.507.507,0,0,0,.079.229c.04.053.1.079.145.128a.551.551,0,0,1,.07.441l-.119.912a.264.264,0,0,1-.026.1c-.062.106-.22.084-.339.048a4.459,4.459,0,0,0-.965-.159C74.069,66.506,74.188,65.916,73.844,65.347Z" transform="translate(10.115 10.848)" fill="url(#linear-gradient-8)"/>
        <path id="Caminho_598" data-name="Caminho 598" d="M59.877,111.336a1.291,1.291,0,0,0,.079.551c.216.485.881.6,1.472.634a24.233,24.233,0,0,0,3.441-.07,1.194,1.194,0,0,0,.731-.242.639.639,0,0,0-.062-.881,2.234,2.234,0,0,0-.9-.5,2.432,2.432,0,0,1-.916-.48,1.524,1.524,0,0,1-.388-1.1,8.8,8.8,0,0,0,0-1.181.234.234,0,0,0-.084-.181.286.286,0,0,0-.163-.035c-.736-.022-2.551-.326-3.084.286S59.886,110.587,59.877,111.336Z" transform="translate(9.816 11.798)" fill="#3e3e54"/>
        <path id="Caminho_599" data-name="Caminho 599" d="M43.957,88.987a1.322,1.322,0,0,0-.577-.211,1.265,1.265,0,0,0-.762.339,10.834,10.834,0,0,0-2.428,2.643,2.158,2.158,0,0,0-.441,1.89,4.325,4.325,0,0,0,2.877,0,8.08,8.08,0,0,1,.93-.48,1.423,1.423,0,0,1,1.15.128c.33.189.643.524,1.009.476a1.027,1.027,0,0,0,.582-.4c.52-.626,1.146-1.934.643-2.714S44.675,89.388,43.957,88.987Z" transform="translate(9.382 11.387)" fill="#3e3e54"/>
        <path id="Caminho_600" data-name="Caminho 600" d="M53.529,101.307l11.97-.194v25.633H29.363v-9.728h8.186v-6.331h11.27v-9.42Z" transform="translate(9.912 23.189)" fill="#086c7b"/>
      </g>
    </g>
  </g>
</svg>
