<svg xmlns="http://www.w3.org/2000/svg" xmlns:xlink="http://www.w3.org/1999/xlink" width="122" height="117" viewBox="0 0 122 117">
  <defs>
    <clipPath id="clip-path">
      <rect id="Retângulo_246" data-name="Retângulo 246" width="122" height="117" transform="translate(490 3337)" fill="#fff" stroke="#707070" stroke-width="1"/>
    </clipPath>
    <clipPath id="clip-path-2">
      <path id="Polígono_8" data-name="Polígono 8" d="M52.672,60.842c14.42-26.326,52.235-26.326,66.655,0l21.857,39.9C155.056,126.068,136.731,157,107.857,157H64.143c-28.874,0-47.2-30.932-33.328-56.256Z" transform="translate(465 3297)" fill="#80ced7" opacity="0.13"/>
    </clipPath>
    <linearGradient id="linear-gradient" x1="0.486" y1="1.834" x2="0.623" y2="-10.667" gradientUnits="objectBoundingBox">
      <stop offset="0" stop-color="#010101" stop-opacity="0"/>
      <stop offset="0.95" stop-color="#010101"/>
    </linearGradient>
    <linearGradient id="linear-gradient-2" x1="0.069" y1="1.072" x2="0.811" y2="0.011" gradientUnits="objectBoundingBox">
      <stop offset="0" stop-color="#010101" stop-opacity="0"/>
      <stop offset="1" stop-color="#010101"/>
    </linearGradient>
    <linearGradient id="linear-gradient-3" x1="0.204" y1="0.713" x2="0.883" y2="0.251" xlink:href="#linear-gradient-2"/>
    <linearGradient id="linear-gradient-4" x1="0.967" y1="0.447" x2="-0.39" y2="0.601" xlink:href="#linear-gradient-2"/>
    <linearGradient id="linear-gradient-5" x1="0.308" y1="0.965" x2="0.876" y2="-0.237" xlink:href="#linear-gradient-2"/>
    <linearGradient id="linear-gradient-6" x1="0.482" y1="-0.832" x2="0.514" y2="1.696" xlink:href="#linear-gradient-2"/>
    <linearGradient id="linear-gradient-7" x1="0.49" y1="-0.528" x2="0.513" y2="1.557" xlink:href="#linear-gradient-2"/>
    <linearGradient id="linear-gradient-8" x1="0.126" y1="0.445" x2="1.05" y2="0.559" xlink:href="#linear-gradient-2"/>
    <linearGradient id="linear-gradient-9" x1="0.149" y1="0.548" x2="1.012" y2="0.451" xlink:href="#linear-gradient-2"/>
    <linearGradient id="linear-gradient-10" x1="-0.183" y1="-0.362" x2="0.879" y2="0.939" xlink:href="#linear-gradient-2"/>
    <linearGradient id="linear-gradient-11" x1="0.186" y1="-0.507" x2="0.622" y2="0.924" xlink:href="#linear-gradient-2"/>
    <linearGradient id="linear-gradient-12" x1="-1.003" y1="0.529" x2="2.951" y2="0.453" xlink:href="#linear-gradient-2"/>
    <linearGradient id="linear-gradient-13" x1="1.13" y1="1.256" x2="-0.673" y2="-1.547" xlink:href="#linear-gradient-2"/>
    <linearGradient id="linear-gradient-14" x1="1.212" y1="1.247" x2="-2.088" y2="-1.511" xlink:href="#linear-gradient-2"/>
    <linearGradient id="linear-gradient-15" x1="-3.129" y1="0.511" x2="13.705" y2="0.457" xlink:href="#linear-gradient-2"/>
    <linearGradient id="linear-gradient-16" x1="0.358" y1="0.452" x2="1.125" y2="0.712" xlink:href="#linear-gradient-2"/>
    <linearGradient id="linear-gradient-17" x1="0" y1="0.5" x2="0.999" y2="0.5" xlink:href="#linear-gradient-2"/>
    <linearGradient id="linear-gradient-18" x1="0" y1="0.5" x2="1.001" y2="0.5" xlink:href="#linear-gradient-2"/>
    <linearGradient id="linear-gradient-19" x1="0.515" y1="-0.272" x2="0.486" y2="1.197" xlink:href="#linear-gradient-2"/>
  </defs>
  <g id="Grupo_de_máscara_38" data-name="Grupo de máscara 38" transform="translate(-490 -3337)" clip-path="url(#clip-path)">
    <g id="Illustration" clip-path="url(#clip-path-2)">
      <g id="business_man_1_" data-name="business_man (1)" transform="translate(489.684 3296.998)">
        <path id="Caminho_601" data-name="Caminho 601" d="M100.538.871C89.494.549,77.828,3.816,70.405,12c-6.7,7.383-9.156,17.7-14.993,25.79C46.771,49.737,30.89,56.726,26.8,70.909c-3.7,12.809,3.873,25.973,4.944,39.26.829,10.411-2.391,20.79-1.881,31.22A44.452,44.452,0,0,0,46.64,173.773c9.454,7.395,21.682,10.622,33.682,10.793s23.865-2.51,35.368-5.94a252.937,252.937,0,0,0,27.909-10.1,58.319,58.319,0,0,0,13.4-7.438c11.678-9.3,15.71-26.993,9.207-40.432-3.426-7.072-9.283-12.789-12.419-20-5.327-12.235-1.956-26.316-2.908-39.627-1.2-16.734-9.3-31.391-17.072-45.858C127.383,3.214,113.742,1.258,100.538.871Z" transform="translate(-31.473 28.428)" fill="#086c7b" opacity="0.24"/>
        <path id="Caminho_602" data-name="Caminho 602" d="M53.351,136.6c-.824.15-1.8.453-2,1.267-.269,1.147,1.219,1.839,2.383,2.043,15.842,2.775,32.065,2.019,48.125,1.185a34.319,34.319,0,0,0,7.6-.97,1.968,1.968,0,0,0,1.464-1.038,1.831,1.831,0,0,0-.62-1.7c-2.325-2.448-6.1-2.615-9.482-2.615-8.4,0-16.809.044-25.211-.02-3.463-.024-6.809-.078-10.289.225C61.352,135.328,57.3,136.445,53.351,136.6Z" transform="translate(-21.794 34.152)" fill="url(#linear-gradient)"/>
        <rect id="Retângulo_206" data-name="Retângulo 206" width="24.493" height="19.72" rx="3.217" transform="translate(28.023 111.891)" fill="#606161"/>
        <path id="Caminho_603" data-name="Caminho 603" d="M99.116,44.727s-2.359,1.427-4.627-2.022-8.512-14.048-8.512-14.048l3.844-.518S102.32,38.605,101.8,41.2A5.046,5.046,0,0,1,99.116,44.727Z" transform="translate(-21.794 34.152)" fill="#ba816c"/>
        <path id="Caminho_604" data-name="Caminho 604" d="M82.243,32.249a6.11,6.11,0,0,1,3.095-.266c1.392.361,15.382,6.833,16.5,9.615s-.586,5.247-1.617,5.338-5.107-.191-6.04-.909-6.854-2.312-6.854-2.312Z" transform="translate(-21.794 34.152)" fill="#086c7b"/>
        <path id="Caminho_605" data-name="Caminho 605" d="M81.933,32.045a6.119,6.119,0,0,1,3.1-.266c1.4.361,15.382,6.83,16.5,9.611s-.589,5.25-1.621,5.338-5.107-.187-6.036-.906-6.857-2.312-6.857-2.312Z" transform="translate(-21.794 34.152)" fill="url(#linear-gradient-2)"/>
        <path id="Caminho_606" data-name="Caminho 606" d="M88.218,31.292a1.362,1.362,0,0,0-.432.742,1.28,1.28,0,0,0,.092.49,31.422,31.422,0,0,0,5.26,9.588c1.341,1.668,4.991,5.274,7.085,4.824,1.525-.34,1.886-2.424,2.356-3.912a2.591,2.591,0,0,0,.078-1.7,17.088,17.088,0,0,0-1.947-3.194,79.127,79.127,0,0,0-6.217-6.908c-.766-.729-2.475-2.775-3.541-2.925S88.916,30.523,88.218,31.292Z" transform="translate(-21.794 34.152)" fill="#086c7b"/>
        <path id="Caminho_607" data-name="Caminho 607" d="M88.14,31.292a1.362,1.362,0,0,0-.432.742,1.222,1.222,0,0,0,.1.49,31.35,31.35,0,0,0,5.26,9.588c1.341,1.668,4.988,5.274,7.082,4.824,1.525-.34,1.886-2.424,2.359-3.912a2.567,2.567,0,0,0,.075-1.7,16.735,16.735,0,0,0-1.947-3.194,79.639,79.639,0,0,0-6.213-6.908c-.769-.729-2.479-2.775-3.544-2.925S88.838,30.523,88.14,31.292Z" transform="translate(-21.794 34.152)" fill="url(#linear-gradient-3)"/>
        <path id="Caminho_608" data-name="Caminho 608" d="M72.574,30.642s-5.931,2.571-6.629,3.153c-.623.521,1.066,36.151,1.2,37.89s9.625,2.022,13.734,1.239a44.56,44.56,0,0,0,8.008-2.451s-1.685-33.73-2.1-35.63c-.681-3.1-6.074-4.91-6.074-4.91Z" transform="translate(-21.794 34.152)" fill="#086c7b"/>
        <path id="Caminho_609" data-name="Caminho 609" d="M88.93,70.476a.112.112,0,0,1-.041.02,44.6,44.6,0,0,1-7.957,2.431,39,39,0,0,1-10,.184,7.335,7.335,0,0,1-3.524-1.021A.637.637,0,0,1,67.2,71.7c-.078-1.062-.746-14.7-1.107-25.314-.228-6.809-.34-12.376-.1-12.573a70.481,70.481,0,0,1,6.632-3.17l8.144-.712s4.586,1.811,5.059,4.821C86.819,41.135,88.93,70.476,88.93,70.476Z" transform="translate(-21.794 34.152)" fill="url(#linear-gradient-4)"/>
        <path id="Caminho_610" data-name="Caminho 610" d="M80.319,31.187l2.155,2.363-.616,1.59,1.021,1.232L79.233,47.723s1.542-12.172.926-13.942a6.721,6.721,0,0,1-.388-3.064Z" transform="translate(-21.794 34.152)" fill="#086c7b"/>
        <path id="Caminho_611" data-name="Caminho 611" d="M83.611,129.578s-.575,4.688-.262,5.223,2.142.357,3.268.051,1.4-2.1,1.4-2.1l.075-1.478Z" transform="translate(-21.794 34.152)" fill="#fff"/>
        <path id="Caminho_612" data-name="Caminho 612" d="M64.379,127.6s-.865,5.567-.579,6.05,2.407-.7,3.609-.851,1.307-2.073,1.307-2.073l.2-1.246Z" transform="translate(-21.794 34.152)" fill="#fff"/>
        <path id="Caminho_613" data-name="Caminho 613" d="M72.311,27.145s.524,3.8.109,5.2,2.434,3.609,5.281,3.2c2.693-.385,2.383-1.934,2.445-2.506s-.783-.936-.368-2.342S72.754,25.457,72.311,27.145Z" transform="translate(-21.794 34.152)" fill="#ba816c"/>
        <path id="Caminho_614" data-name="Caminho 614" d="M73.8,34.421s2.363,1.181,4.058.565a4.113,4.113,0,0,0,2.291-1.941l-.187,6.666-.681,8.423-1.9-2.519Z" transform="translate(-21.794 34.152)" fill="#fff"/>
        <path id="Caminho_615" data-name="Caminho 615" d="M79.778,30.7a2.217,2.217,0,0,0,.289,1.968,3.616,3.616,0,0,1-2.441.831A6.73,6.73,0,0,1,72.55,29l-.044-.146c-.078-.96-.184-1.7-.184-1.7C72.754,25.457,80.193,29.3,79.778,30.7Z" transform="translate(-21.794 34.152)" fill="#a6634c"/>
        <path id="Caminho_616" data-name="Caminho 616" d="M80.009,36.287a6.918,6.918,0,0,0,.255-5.151.984.984,0,0,0-.572.681,3.644,3.644,0,0,0-.024.528,2.8,2.8,0,0,1-.735,1.617,6.516,6.516,0,0,1-.742.681c-.375.313-.388.381.075.569A4.355,4.355,0,0,1,80.009,36.287Z" transform="translate(-21.794 34.152)" fill="#fff"/>
        <path id="Caminho_617" data-name="Caminho 617" d="M60.943,51.781" transform="translate(-21.794 34.152)" fill="none" stroke="#000" stroke-miterlimit="10" stroke-width="0.252"/>
        <path id="Caminho_618" data-name="Caminho 618" d="M67.429,71.7l-1.181,24.05-2.261,33.325s1.3,1.563,5.046,1.61L75.767,96.77,78.93,79.533l2.724,16.816,1.137,35.02s2.645.054,6.077.361L91.095,97.2l-2.21-26.723Z" transform="translate(-21.794 34.152)" fill="#086c7b"/>
        <path id="Caminho_619" data-name="Caminho 619" d="M91.088,97.193l-2.227,34.537c-.855-.075-1.661-.129-2.383-.184-2.2-.143-3.7-.177-3.7-.177L81.644,96.352,78.92,79.529,75.757,96.767l-6.731,33.924a9.38,9.38,0,0,1-3.612-.681,3.936,3.936,0,0,1-1.433-.933l2.254-33.332,1.178-23.679.02-.361,3.623-.208L88.9,70.459v.017Z" transform="translate(-21.794 34.152)" fill="url(#linear-gradient-5)"/>
        <path id="Caminho_620" data-name="Caminho 620" d="M82.5,19.7s-.1,7.49-.851,9.441-2.625,3.514-4.341,3.36A6.7,6.7,0,0,1,72.233,28c-.912-2.679-.916-9.022-.552-9.856s2.332-3.381,6.864-2.553C81.667,16.165,82.6,18.555,82.5,19.7Z" transform="translate(-21.794 34.152)" fill="#ba816c"/>
        <path id="Caminho_621" data-name="Caminho 621" d="M71.814,23.063s-.129-1.743-1.328-1.273-.048,3.745.5,4.086a1.655,1.655,0,0,0,.834.32" transform="translate(-21.794 34.152)" fill="#ba816c"/>
        <path id="Caminho_622" data-name="Caminho 622" d="M85.991,28.657A9.255,9.255,0,0,1,83.9,26.982c-.266-.538-1.634-4.937-.609-5.165s4.7,1.549,4.961,1.661a38.638,38.638,0,0,1,1.58,4.661Z" transform="translate(-21.794 34.152)" fill="#ba816c"/>
        <path id="Caminho_623" data-name="Caminho 623" d="M35.674,56.786,36.338,68.5,33.6,72.829,30.138,56.551Z" transform="translate(4 35)" fill="#ba816c"/>
        <path id="Caminho_624" data-name="Caminho 624" d="M66.231,33.607s-3.864,2.206-4.528,5.131-7.987,16.945-5.842,18.8l.722.64a2.775,2.775,0,0,0,3.33.262l1.61-1.021,1.535-4.109,4.6-9.353S68.093,35.568,66.231,33.607Z" transform="translate(-21.794 34.152)" fill="#086c7b"/>
        <path id="Caminho_625" data-name="Caminho 625" d="M64.879,75.842c-.439.306-2.2,1.161-2.649.81a14.753,14.753,0,0,1-1.181-1.192c-.266-.262-.528-.548-.756-.81-.5-.538-.9-.974-.9-.974s1.072-4.957,2.724-4.324a9.938,9.938,0,0,1,1.661.637c.276.174.81,2.339,1.052,3.994a10.214,10.214,0,0,1,.119,1.127C65,75.5,64.964,75.777,64.879,75.842Z" transform="translate(-21.794 34.152)" fill="#ba816c"/>
        <path id="Caminho_626" data-name="Caminho 626" d="M82.321,21.02,85.916,24a1.021,1.021,0,0,1,.255.875c-.051.616-.718,3.745-.718,3.745L82.168,26.1Z" transform="translate(-21.794 34.152)" fill="#606161"/>
        <path id="Caminho_627" data-name="Caminho 627" d="M60.293,74.65c.228.262.49.548.756.81a2.724,2.724,0,0,0-1.314,2.329h-1.1A3.81,3.81,0,0,1,60.293,74.65Z" transform="translate(-21.794 34.152)" fill="#606161"/>
        <path id="Caminho_628" data-name="Caminho 628" d="M68.26,77.789h-1.1a2.724,2.724,0,0,0-2.2-2.679,10.216,10.216,0,0,0-.119-1.127A3.84,3.84,0,0,1,68.26,77.789Z" transform="translate(-21.794 34.152)" fill="#606161"/>
        <path id="Caminho_629" data-name="Caminho 629" d="M60.293,74.65c.228.262.49.548.756.81a2.724,2.724,0,0,0-1.314,2.329h-1.1A3.81,3.81,0,0,1,60.293,74.65Z" transform="translate(-21.794 34.152)" fill="url(#linear-gradient-6)"/>
        <path id="Caminho_630" data-name="Caminho 630" d="M64.845,73.983a3.84,3.84,0,0,1,3.4,3.806" transform="translate(-21.794 34.152)" fill="url(#linear-gradient-7)"/>
        <path id="Caminho_631" data-name="Caminho 631" d="M58.138,70.681a.661.661,0,0,0,.16.388.63.63,0,0,0,.368.136,5.233,5.233,0,0,0,2.87-.446,1.92,1.92,0,0,0,.974-.848,2.557,2.557,0,0,0-.058-1.638c-.912-3.83-.072-7.885-.725-11.77.034.221-5-1.427-5.39-1.386-1.7.184-.313,3.762-.089,5.015Z" transform="translate(-21.794 34.152)" fill="#086c7b"/>
        <path id="Caminho_632" data-name="Caminho 632" d="M67.657,44.066l-4.6,9.359-1.29,3.466c.569,3.8-.208,7.739.681,11.48a2.548,2.548,0,0,1,.065,1.641,1.93,1.93,0,0,1-.974.844,5.24,5.24,0,0,1-2.877.449.592.592,0,0,1-.361-.133.637.637,0,0,1-.163-.395q-.94-5.264-1.893-10.554a31.87,31.87,0,0,1-.725-3.272,2.692,2.692,0,0,0-.02-.34c-.242-3.783,5.611-15.164,6.2-17.776.681-2.921,4.532-5.134,4.532-5.134C68.073,35.674,67.657,44.066,67.657,44.066Z" transform="translate(-21.794 34.152)" fill="url(#linear-gradient-8)"/>
        <path id="Caminho_633" data-name="Caminho 633" d="M73.129,38.633" transform="translate(-21.794 34.152)" fill="#086c7b"/>
        <path id="Caminho_634" data-name="Caminho 634" d="M72.574,30.642l6.717,17.5-6.213-7.037.463-3.183-2.159-1.747-.511-4.93S72.226,29.563,72.574,30.642Z" transform="translate(-21.794 34.152)" fill="#086c7b"/>
        <path id="Caminho_635" data-name="Caminho 635" d="M72.536,30.594l6.755,17.541L73.077,41.1l.426-3.221L71.344,36.13l-.528-4.93S72.179,29.522,72.536,30.594Z" transform="translate(-21.794 34.152)" fill="url(#linear-gradient-9)"/>
        <path id="Caminho_636" data-name="Caminho 636" d="M50.637,34.241,50.522,35.9l.807.654-.116,6.816L53.5,47.284l.361-5.134-1.6-5.56.5-1.192-.695-1.26Z" transform="translate(4 35)" fill="#606161"/>
        <path id="Caminho_637" data-name="Caminho 637" d="M50.637,34.241,50.522,35.9l.807.654-.116,6.816L53.5,47.284l.361-5.134-1.6-5.56.5-1.192-.695-1.26Z" transform="translate(4 35)" fill="url(#linear-gradient-10)"/>
        <path id="Caminho_638" data-name="Caminho 638" d="M75.7,36.168" transform="translate(-21.794 34.152)" fill="#606161"/>
        <path id="Caminho_639" data-name="Caminho 639" d="M77.136,35.116a4.618,4.618,0,0,0-2.125,1.243,6.012,6.012,0,0,0-.79,1.433,11.74,11.74,0,0,1-1.4-4.957,15.028,15.028,0,0,1-.235-1.985c.34.119.521.919.681,1.243a9.791,9.791,0,0,0,.865,1.331A9.431,9.431,0,0,0,75.2,34.6,5.933,5.933,0,0,0,77.136,35.116Z" transform="translate(-21.794 34.152)" fill="#fff"/>
        <path id="Caminho_640" data-name="Caminho 640" d="M82.484,15.345a2.462,2.462,0,0,1,.184,1.873.882.882,0,0,1-.531.609,1.1,1.1,0,0,1-.647-.092l-1.1-.392a4.045,4.045,0,0,0-1.137-.286,3.173,3.173,0,0,0-1.151.2c-1.164.392-2.288,1.1-3.514,1.021a2.528,2.528,0,0,0-1.3.034,1.44,1.44,0,0,0-.657,1.062c-.2,1.021,0,2.107-.136,3.153-.017.126-.065.283-.191.3a.3.3,0,0,1-.17-.037,8.655,8.655,0,0,1-1.021-.8.681.681,0,0,0-.97.068c-.34-1.062-1.154-2.145-1.4-3.238a2.848,2.848,0,0,1,.912-3.023.718.718,0,0,0,.214-.177.647.647,0,0,0,.054-.412A3.69,3.69,0,0,1,72.236,11.9a9.01,9.01,0,0,1,4.212-.518,6.523,6.523,0,0,1,3.095.746,6.289,6.289,0,0,1,1.515,1.617C81.552,14.34,82.147,14.684,82.484,15.345Z" transform="translate(-21.794 34.152)" fill="#606161"/>
        <path id="Caminho_641" data-name="Caminho 641" d="M82.484,15.345a2.462,2.462,0,0,1,.184,1.873.882.882,0,0,1-.531.609,1.1,1.1,0,0,1-.647-.092l-1.1-.392a4.045,4.045,0,0,0-1.137-.286,3.173,3.173,0,0,0-1.151.2c-1.164.392-2.288,1.1-3.514,1.021a2.528,2.528,0,0,0-1.3.034,1.44,1.44,0,0,0-.657,1.062c-.2,1.021,0,2.107-.136,3.153-.017.126-.065.283-.191.3a.3.3,0,0,1-.17-.037,8.655,8.655,0,0,1-1.021-.8.681.681,0,0,0-.97.068c-.34-1.062-1.154-2.145-1.4-3.238a2.848,2.848,0,0,1,.912-3.023.718.718,0,0,0,.214-.177.647.647,0,0,0,.054-.412A3.69,3.69,0,0,1,72.236,11.9a9.01,9.01,0,0,1,4.212-.518,6.523,6.523,0,0,1,3.095.746,6.289,6.289,0,0,1,1.515,1.617C81.552,14.34,82.147,14.684,82.484,15.345Z" transform="translate(-21.794 34.152)" fill="url(#linear-gradient-11)"/>
        <path id="Caminho_642" data-name="Caminho 642" d="M71.256,23.88c-.031-.279.17-.552.123-.827a.565.565,0,0,0-.6-.422.358.358,0,0,0-.146.037c-.167.085-.2.31-.194.5a2.993,2.993,0,0,0,.623,1.954.49.49,0,0,0,.34.211c.187,0,.32-.2.34-.385s.072-.5-.085-.616S71.287,24.173,71.256,23.88Z" transform="translate(-21.794 34.152)" fill="url(#linear-gradient-12)"/>
        <path id="Caminho_643" data-name="Caminho 643" d="M86.9,95.64l-.419,35.905c-2.2-.143-3.7-.177-3.7-.177L81.644,96.352,78.92,79.529s3.643.494,4.671,2.55S86.9,95.64,86.9,95.64Z" transform="translate(-21.794 34.152)" fill="url(#linear-gradient-13)"/>
        <path id="Caminho_644" data-name="Caminho 644" d="M71.072,71.137s0,.119-.024.361c-.02.317-.065.865-.119,1.6-.722,9.894-3.994,54.039-5.505,56.919a3.936,3.936,0,0,1-1.433-.933l2.254-33.332,1.168-23.683a.637.637,0,0,1-.208-.392c-.078-1.062-.746-14.7-1.107-25.314l1.566-2.3Z" transform="translate(-21.794 34.152)" fill="url(#linear-gradient-14)"/>
        <path id="Caminho_645" data-name="Caminho 645" d="M53.5,47.284l1.028,23.06.821-.208-1.386-24.6Z" transform="translate(4 35)" fill="url(#linear-gradient-15)"/>
        <rect id="Retângulo_207" data-name="Retângulo 207" width="24.493" height="19.72" rx="3.217" transform="translate(32.337 111.891)" fill="#606161"/>
        <rect id="Retângulo_208" data-name="Retângulo 208" width="24.493" height="19.72" rx="3.217" transform="translate(32.337 111.891)" fill="url(#linear-gradient-16)"/>
        <path id="Caminho_646" data-name="Caminho 646" d="M87.183,30.955a.647.647,0,0,0-.1.228.681.681,0,0,0,.245.5c.191.208.48.432.722.289a.681.681,0,0,0,.2-.235,21.049,21.049,0,0,1,1.205-1.777c.34-.449,1.27-.946,1.413-1.5.075-.283-.368-.579-.735-.511-.429.082-1.141.94-1.461,1.239a8.308,8.308,0,0,0-1.491,1.77Z" transform="translate(-21.794 34.152)" fill="#fff"/>
        <path id="Caminho_647" data-name="Caminho 647" d="M58.982,71.784a4.365,4.365,0,0,0,1.651-.17c.228-.072.449-.157.681-.245A3.754,3.754,0,0,0,63,70.32a.262.262,0,0,0,.068-.153.269.269,0,0,0-.051-.14l-.34-.609a1.563,1.563,0,0,1-.8.957,4.671,4.671,0,0,1-1.215.4l-1.515.34c-.153.034-.361.048-.395.228S58.832,71.784,58.982,71.784Z" transform="translate(-21.794 34.152)" fill="#fff"/>
        <path id="Caminho_648" data-name="Caminho 648" d="M83.346,137.742a23.474,23.474,0,0,1,3.783.756,1.7,1.7,0,0,1,.238-1.042c.34.681,1.26.786,2.026.807l5.447.153a1.362,1.362,0,0,0,.94-.2,1.277,1.277,0,0,0,.34-.943c.071-1.634-.528-3.49-2.043-4.147a6.067,6.067,0,0,0-2.836-.214c-2.332.157-4.869-.616-7.116-.385-1.328.14-1.147-.02-1.222,1.471A16.418,16.418,0,0,0,83.346,137.742Z" transform="translate(-21.794 34.152)" fill="#606161"/>
        <path id="Caminho_649" data-name="Caminho 649" d="M62.23,136.887a2.969,2.969,0,0,0,.579,1.665,3.473,3.473,0,0,0,2.043,1,13.319,13.319,0,0,0,3.371.245,3.607,3.607,0,0,0,2.611-.977,2.455,2.455,0,0,0,.49-2.043A3.857,3.857,0,0,0,70.3,134.9c-.507-.541-1.188-1.1-1.188-1.832a3.442,3.442,0,0,0,.034-.722.981.981,0,0,0-1.021-.657,4.879,4.879,0,0,0-1.26.313,4.426,4.426,0,0,1-2.244.075c-.63-.153-.919-.545-1.4-.034a6.37,6.37,0,0,0-.749,2.295,8.062,8.062,0,0,0-.249,2.55Z" transform="translate(-21.794 34.152)" fill="#606161"/>
        <path id="Caminho_650" data-name="Caminho 650" d="M83.346,137.742a23.474,23.474,0,0,1,3.783.756,1.7,1.7,0,0,1,.238-1.042c.34.681,1.26.786,2.026.807l5.447.153a1.362,1.362,0,0,0,.94-.2,1.277,1.277,0,0,0,.34-.943c.071-1.634-.528-3.49-2.043-4.147a6.067,6.067,0,0,0-2.836-.214c-2.332.157-4.869-.616-7.116-.385-1.328.14-1.147-.02-1.222,1.471A16.418,16.418,0,0,0,83.346,137.742Z" transform="translate(-21.794 34.152)" fill="url(#linear-gradient-17)"/>
        <path id="Caminho_651" data-name="Caminho 651" d="M62.23,136.887a2.969,2.969,0,0,0,.579,1.665,3.473,3.473,0,0,0,2.043,1,13.319,13.319,0,0,0,3.371.245,3.607,3.607,0,0,0,2.611-.977,2.455,2.455,0,0,0,.49-2.043A3.857,3.857,0,0,0,70.3,134.9c-.507-.541-1.188-1.1-1.188-1.832a3.442,3.442,0,0,0,.034-.722.981.981,0,0,0-1.021-.657,4.879,4.879,0,0,0-1.26.313,4.426,4.426,0,0,1-2.244.075c-.63-.153-.919-.545-1.4-.034a6.37,6.37,0,0,0-.749,2.295,8.062,8.062,0,0,0-.249,2.55Z" transform="translate(-21.794 34.152)" fill="url(#linear-gradient-18)"/>
        <rect id="Retângulo_209" data-name="Retângulo 209" width="24.493" height="19.72" rx="3.217" transform="translate(28.023 111.891)" fill="#606161"/>
        <rect id="Retângulo_210" data-name="Retângulo 210" width="24.493" height="19.72" rx="3.217" transform="translate(28.023 111.891)" fill="url(#linear-gradient-19)"/>
      </g>
    </g>
  </g>
</svg>
