<svg xmlns="http://www.w3.org/2000/svg" xmlns:xlink="http://www.w3.org/1999/xlink" width="122" height="117" viewBox="0 0 122 117">
  <defs>
    <clipPath id="clip-path">
      <rect id="Retângulo_245" data-name="Retângulo 245" width="122" height="117" transform="translate(1020 3335)" fill="#fff" stroke="#707070" stroke-width="1"/>
    </clipPath>
    <clipPath id="clip-path-2">
      <path id="Polígono_9" data-name="Polígono 9" d="M52.672,60.842c14.42-26.326,52.235-26.326,66.655,0l21.857,39.9C155.056,126.068,136.731,157,107.857,157H64.143c-28.874,0-47.2-30.932-33.328-56.256Z" transform="translate(995 3295)" fill="#e9d985" opacity="0.21"/>
    </clipPath>
    <linearGradient id="linear-gradient" x1="0.495" y1="-1.689" x2="0.513" y2="6.48" gradientUnits="objectBoundingBox">
      <stop offset="0" stop-color="#010101" stop-opacity="0"/>
      <stop offset="0.95" stop-color="#010101"/>
    </linearGradient>
    <linearGradient id="linear-gradient-2" x1="0.495" y1="-1.689" x2="0.513" y2="6.479" xlink:href="#linear-gradient"/>
    <linearGradient id="linear-gradient-3" x1="0.675" y1="1.499" x2="0.2" y2="-0.72" xlink:href="#linear-gradient"/>
    <linearGradient id="linear-gradient-4" x1="0.282" y1="0.135" x2="0.578" y2="4.561" xlink:href="#linear-gradient"/>
    <linearGradient id="linear-gradient-5" x1="0.599" y1="0.886" x2="0.382" y2="-0.152" xlink:href="#linear-gradient"/>
    <linearGradient id="linear-gradient-6" x1="0.593" y1="0.561" x2="-0.454" y2="-0.133" xlink:href="#linear-gradient"/>
    <linearGradient id="linear-gradient-7" x1="0.645" y1="0.132" x2="0.245" y2="1.147" xlink:href="#linear-gradient"/>
    <linearGradient id="linear-gradient-8" x1="0.508" y1="0.202" x2="0.435" y2="1.977" xlink:href="#linear-gradient"/>
    <linearGradient id="linear-gradient-9" x1="0.496" y1="-0.532" x2="0.517" y2="5.355" xlink:href="#linear-gradient"/>
    <linearGradient id="linear-gradient-10" x1="0.492" y1="-0.021" x2="0.706" y2="2.901" xlink:href="#linear-gradient"/>
    <linearGradient id="linear-gradient-11" x1="0.127" y1="-0.09" x2="1.521" y2="1.951" xlink:href="#linear-gradient"/>
    <linearGradient id="linear-gradient-12" x1="0.162" y1="-0.308" x2="1.259" y2="2.114" xlink:href="#linear-gradient"/>
    <linearGradient id="linear-gradient-13" x1="0.415" y1="-0.476" x2="0.741" y2="3.301" xlink:href="#linear-gradient"/>
    <linearGradient id="linear-gradient-14" x1="0.796" y1="-0.185" x2="-0.365" y2="1.887" xlink:href="#linear-gradient"/>
    <linearGradient id="linear-gradient-15" x1="-0.761" y1="0.307" x2="1.605" y2="0.67" xlink:href="#linear-gradient"/>
    <linearGradient id="linear-gradient-16" x1="0.5" y1="-1.069" x2="0.5" y2="1.444" xlink:href="#linear-gradient"/>
    <linearGradient id="linear-gradient-17" y1="0.5" x2="1" y2="0.5" gradientUnits="objectBoundingBox">
      <stop offset="0" stop-color="#fff" stop-opacity="0"/>
      <stop offset="0.13" stop-color="#fff" stop-opacity="0.231"/>
      <stop offset="0.23" stop-color="#fff" stop-opacity="0.412"/>
      <stop offset="0.35" stop-color="#fff" stop-opacity="0.588"/>
      <stop offset="0.48" stop-color="#fff" stop-opacity="0.741"/>
      <stop offset="0.6" stop-color="#fff" stop-opacity="0.851"/>
      <stop offset="0.72" stop-color="#fff" stop-opacity="0.929"/>
      <stop offset="0.84" stop-color="#fff" stop-opacity="0.98"/>
      <stop offset="0.95" stop-color="#fff"/>
    </linearGradient>
  </defs>
  <g id="Grupo_de_máscara_40" data-name="Grupo de máscara 40" transform="translate(-1020 -3335)" clip-path="url(#clip-path)">
    <g id="Illustration" clip-path="url(#clip-path-2)">
      <g id="transfer_money_2" transform="translate(994.998 3323.843)">
        <path id="Caminho_652" data-name="Caminho 652" d="M172.833,75.418q-.062,1.1-.163,2.183a109.142,109.142,0,0,1-3.124,15.964c-2.617,10.454-5.605,21.345-12.726,29.152-8.582,9.39-21.665,12.591-34.044,13.031s-24.8-1.43-37.137-.172c-12.5,1.279-24.712,5.756-37.254,5.286a48.034,48.034,0,0,1-17.963-4.246,37.239,37.239,0,0,1-14.685-11.324c-5.922-7.881-7.595-17.769-8.323-27.258a21.111,21.111,0,0,0-.406-2.767h0c-.055-.289-.123-.575-.2-.864C5.673,89.989,3.382,86.173,2.02,81.955c-.24-.75-.461-1.51-.633-2.3a18.735,18.735,0,0,1-.375-5.8c.51-5.335,2.46-10.417,4.458-15.408.886-2.22,1.8-4.449,2.789-6.641,2.392-5.286,5.258-10.331,9.409-14.427,8.323-8.207,20.6-11.331,32.362-12.831S73.933,22.8,85.1,18.876c11.561-4.065,21.874-11.967,34.13-13.148,8.957-.855,17.944,2.075,25.644,6.583,17.01,9.928,26.391,33.967,27.86,54.024A70.487,70.487,0,0,1,172.833,75.418Z" transform="translate(-0.932 -5.581)" fill="#086c7b" opacity="0.24"/>
        <ellipse id="Elipse_30" data-name="Elipse 30" cx="22.962" cy="4.391" rx="22.962" ry="4.391" transform="translate(29.382 92.698)" opacity="0.26" fill="url(#linear-gradient)"/>
        <ellipse id="Elipse_31" data-name="Elipse 31" cx="28.534" cy="5.621" rx="28.534" ry="5.621" transform="translate(90.54 90.238)" opacity="0.26" fill="url(#linear-gradient-2)"/>
        <path id="Caminho_653" data-name="Caminho 653" d="M45.8,85.429a35.786,35.786,0,0,1-4.053-.384,3.89,3.89,0,0,0-1.033-.068,4.369,4.369,0,0,0-1.23.421,12.607,12.607,0,0,1-7.466.806,1.4,1.4,0,0,1-1.461-1.393A11.952,11.952,0,0,1,30.5,82.4a3.222,3.222,0,0,1,.307-1.307,2.552,2.552,0,0,1,1.067-.965c1.608-.861,3.548-.615,5.372-.56,2.152.077,4.382-.108,6.457.483a6.266,6.266,0,0,1,3.717,2.678C48.369,84.307,47.659,85.5,45.8,85.429Z" transform="translate(-0.932 -5.581)" fill="#fdb386"/>
        <path id="Caminho_654" data-name="Caminho 654" d="M45.8,85.429a35.786,35.786,0,0,1-4.053-.384,3.89,3.89,0,0,0-1.033-.068,4.369,4.369,0,0,0-1.23.421,12.607,12.607,0,0,1-7.466.806,1.4,1.4,0,0,1-1.461-1.393A11.952,11.952,0,0,1,30.5,82.4a3.222,3.222,0,0,1,.307-1.307,2.552,2.552,0,0,1,1.067-.965c1.608-.861,3.548-.615,5.372-.56,2.152.077,4.382-.108,6.457.483a6.266,6.266,0,0,1,3.717,2.678C48.369,84.307,47.659,85.5,45.8,85.429Z" transform="translate(-0.932 -5.581)" fill="url(#linear-gradient-3)"/>
        <path id="Caminho_655" data-name="Caminho 655" d="M93.156,86.324l10.823,7.665,35.723.271-10.015-7.124Z" fill="#086c7b"/>
        <path id="Caminho_656" data-name="Caminho 656" d="M97.215,86.619l8.33,5.9,27.482.209-7.705-5.482Z" fill="#fff"/>
        <path id="Caminho_657" data-name="Caminho 657" d="M89.264,67.337s8.794-4.329,11.77-11.229l9.473,2.976S100.36,72.614,96.434,73.02Z" transform="translate(-0.932 -5.581)" fill="#086c7b"/>
        <path id="Caminho_658" data-name="Caminho 658" d="M98.328,75.3c.541-.338,8.523-2.976,11.841-9.267l8.05,4.262S110.3,80.989,103.2,81.328Z" transform="translate(-0.932 -5.581)" fill="#086c7b"/>
        <path id="Caminho_659" data-name="Caminho 659" d="M125.9,80.55l5.953,6.768-21.917,2.524-2.8-4.963Z" fill="#086c7b"/>
        <path id="Caminho_660" data-name="Caminho 660" d="M111.027,89.842,125.232,87.1a3.076,3.076,0,0,0,2.026.615l2.512,2.912s-.747,1-.323,1.617l-15.734,2.223a5.007,5.007,0,0,0-2.257-.71l-1.845-2.684S111.282,90.89,111.027,89.842Z" transform="translate(-0.932 -5.581)" fill="url(#linear-gradient-4)"/>
        <path id="Caminho_661" data-name="Caminho 661" d="M76.426,77.567l-.581-2.272c-.366-1.31-1.371-.169-2.6.421L38.813,92.32a2.183,2.183,0,0,0-1.178,2.441l.443,1.965a2.168,2.168,0,0,0,.793,1.245l5.741,4.434a2.18,2.18,0,0,0,2.684-.018L75.679,79.855A2.177,2.177,0,0,0,76.426,77.567Z" transform="translate(-0.932 -5.581)" fill="#086c7b"/>
        <path id="Caminho_662" data-name="Caminho 662" d="M76.426,77.567l-.581-2.272c-.366-1.31-1.371-.169-2.6.421L38.813,92.32a2.183,2.183,0,0,0-1.178,2.441l.443,1.965a2.168,2.168,0,0,0,.793,1.245l5.741,4.434a2.18,2.18,0,0,0,2.684-.018L75.679,79.855A2.177,2.177,0,0,0,76.426,77.567Z" transform="translate(-0.932 -5.581)" fill="url(#linear-gradient-5)"/>
        <path id="Caminho_663" data-name="Caminho 663" d="M38.392,92.148l25.45-20.872a1.135,1.135,0,0,1,1.067-.2l10.193,3.3a1.132,1.132,0,0,1,.347,1.968L46.592,98.866a1.132,1.132,0,0,1-1.362.022l-6.8-4.95a1.135,1.135,0,0,1-.043-1.79Z" transform="translate(-0.932 -5.581)" fill="#086c7b"/>
        <path id="Caminho_664" data-name="Caminho 664" d="M38.392,92.148l25.45-20.872a1.135,1.135,0,0,1,1.067-.2l10.193,3.3a1.132,1.132,0,0,1,.347,1.968L46.592,98.866a1.132,1.132,0,0,1-1.362.022l-6.8-4.95a1.135,1.135,0,0,1-.043-1.79Z" transform="translate(-0.932 -5.581)" fill="url(#linear-gradient-6)"/>
        <path id="Caminho_665" data-name="Caminho 665" d="M72.884,71.03l-.7.547L47.173,91.062l-7.5-4.95-.461-.307L61.581,67.377Z" fill="#fff"/>
        <path id="Caminho_666" data-name="Caminho 666" d="M72.183,71.578,47.173,91.062l-7.5-4.95L61.514,68.128Z" fill="#086c7b" opacity="0.13"/>
        <path id="Caminho_667" data-name="Caminho 667" d="M53.962,85.408,45.842,81.2l2.491-2.189,8.12,4.209Z" fill="#086c7b"/>
        <path id="Caminho_668" data-name="Caminho 668" d="M53.962,85.408,45.842,81.2l2.491-2.189,8.12,4.209Z" fill="url(#linear-gradient-7)"/>
        <path id="Caminho_669" data-name="Caminho 669" d="M71.891,70.262l-.886-.378a17.9,17.9,0,0,1,.922-1.756l.833.483a16.136,16.136,0,0,0-.87,1.651Z" transform="translate(-0.932 -5.581)" fill="#086c7b"/>
        <path id="Caminho_670" data-name="Caminho 670" d="M74.622,65.846l-.756-.593a22.332,22.332,0,0,1,2.352-2.57l.655.7a21.2,21.2,0,0,0-2.251,2.46ZM79.5,61.36l-.51-.815a15.5,15.5,0,0,1,3.164-1.537l.307.922A14.787,14.787,0,0,0,79.5,61.36Zm9.476-2.069a14.835,14.835,0,0,0-3.3-.065l-.092-.956a16.029,16.029,0,0,1,3.511.065Z" transform="translate(-0.932 -5.581)" fill="#086c7b"/>
        <path id="Caminho_671" data-name="Caminho 671" d="M93.993,60.684c-.587-.246-1.181-.467-1.765-.655l.307-.922c.615.2,1.23.427,1.845.686Z" transform="translate(-0.932 -5.581)" fill="#086c7b"/>
        <path id="Caminho_672" data-name="Caminho 672" d="M93.427,89.39l-.271-3.066,10.823,7.665,35.723.271-.7,1.919-36.058.2Z" fill="#086c7b"/>
        <path id="Caminho_673" data-name="Caminho 673" d="M93.427,89.39l-.271-3.066,10.823,7.665,35.723.271-.7,1.919-36.058.2Z" fill="url(#linear-gradient-8)"/>
        <path id="Caminho_674" data-name="Caminho 674" d="M157.935,72.315c-.04,1.211-.108,2.42-.184,3.631-.037.692-.086,1.374-.145,2.066-.037.51-.132,1.107-.575,1.347a.845.845,0,0,1-.194.077,2.42,2.42,0,0,1-.652.028l-3.01-.2a15,15,0,0,0-2.949,0c-1.943.249-3.73,1.248-5.67,1.47a14.43,14.43,0,0,1-2.577-.018l-7.893-.52a5.744,5.744,0,0,1-1.977-.375,1.934,1.934,0,0,1-1.23-1.488c-.049-.474.132-.944.1-1.424a.129.129,0,0,0,0-.058c-.135-1.279-1.817-2.315-1.307-3.5.114-.277.354-.517.363-.815a1.171,1.171,0,0,0-.258-.664,3.311,3.311,0,0,1-.683-2.365c.135-.587.557-1.116.538-1.71-.028-.683-.615-1.23-.692-1.9a1.848,1.848,0,0,1,1.1-1.7,5.227,5.227,0,0,1,2.115-.354l3.788-.117a2.65,2.65,0,0,0,1.777-.489,2.036,2.036,0,0,0,.307-2.125c-.24-.71-.692-1.347-.922-2.066a3.763,3.763,0,0,1,.673-3.431,1.23,1.23,0,0,1,.489-.394c.683-.249,1.251.557,1.537,1.23a22.243,22.243,0,0,0,4.5,6.651,17.689,17.689,0,0,0,8.649,4.612c.95.209,2.334.077,3.431.231a2.9,2.9,0,0,1,.922.258C158.569,68.816,157.972,71.209,157.935,72.315Z" transform="translate(-0.932 -5.581)" fill="#fdb386"/>
        <path id="Caminho_675" data-name="Caminho 675" d="M172.833,75.418c0,.252-.031.5-.049.75-.028.48-.068.962-.114,1.433a3.428,3.428,0,0,1-.759,1.248,4.586,4.586,0,0,1-3.318.922q-5.593.074-11.186-.307a5.67,5.67,0,0,1-.569-.049,3.022,3.022,0,0,1-1.43-.48,4.335,4.335,0,0,1-1.3-3.019,17.063,17.063,0,0,1-.135-6.555,2.413,2.413,0,0,1,.221-.643,1.337,1.337,0,0,1,.4-.52,1.928,1.928,0,0,1,1.085-.258h.723c2.727-.031,5.458.24,8.188.181a22.049,22.049,0,0,0,4.557-.52c.729-.163,2.564-1.2,3.573-1.279A70.486,70.486,0,0,1,172.833,75.418Z" transform="translate(-0.932 -5.581)" fill="#fdb386"/>
        <path id="Caminho_676" data-name="Caminho 676" d="M172.783,76.168c-.028.48-.068.962-.114,1.433a3.428,3.428,0,0,1-.759,1.248,4.586,4.586,0,0,1-3.318.922q-5.593.074-11.186-.307a5.67,5.67,0,0,1-.569-.049,2.42,2.42,0,0,1-.652.028l-3.01-.2a15,15,0,0,0-2.949,0c-1.943.249-3.73,1.248-5.67,1.47a14.431,14.431,0,0,1-2.577-.018l-7.893-.52a5.744,5.744,0,0,1-1.977-.375,1.934,1.934,0,0,1-1.23-1.488c-.049-.474.132-.944.1-1.424a.129.129,0,0,0,0-.058c1.633,1.424,4.025,1.433,6.208,1.365a52.03,52.03,0,0,0,11.275-1.162A3.278,3.278,0,0,1,149,73.65c.344-.394.787-.692,1.162-1.055.8-.79,1.248-1.845,1.98-2.712a3.161,3.161,0,0,1,2.057-1.162,1.8,1.8,0,0,1,.892.163c1.156.557,1.27,2.134,1.2,3.413s-.028,2.826,1.085,3.468a1.822,1.822,0,0,0,.375.163,4.744,4.744,0,0,0,1.288.163c3.49.089,6.98.077,10.476-.018a20.67,20.67,0,0,1,3.268.1Z" transform="translate(-0.932 -5.581)" fill="url(#linear-gradient-9)"/>
        <path id="Caminho_677" data-name="Caminho 677" d="M34.634,74.852a16.638,16.638,0,0,1,6.239.307,14.319,14.319,0,0,1,4.265,2.017,24.432,24.432,0,0,1,8.3,9.458c.28.572.483,1.384-.043,1.743-.452.307-1.052,0-1.5-.307-1.959-1.341-8.514-7.994-13.206-5.827-.129,1.009,1.175,3,1.331,4a2.071,2.071,0,0,1-1.436,2.075,5.861,5.861,0,0,1-2.7.145c-2.6-.271-5.181.018-7.791-.043C22,88.28,18.212,83.892,18.565,81.6,18.888,79.713,23.676,76.208,34.634,74.852Z" transform="translate(-0.932 -5.581)" fill="#fdb386"/>
        <path id="Caminho_678" data-name="Caminho 678" d="M103.438,81.183l16.779-5.5,5.412,6.764-19.076,4.6Z" fill="#086c7b"/>
        <path id="Caminho_679" data-name="Caminho 679" d="M23.54,85.233a8.453,8.453,0,0,1-1.4,3.219,4.975,4.975,0,0,0-2.377.1,16.681,16.681,0,0,0-3.382,1.491,82.068,82.068,0,0,1-8.016,3.776c-.507.212-1.036.415-1.574.587A49.672,49.672,0,0,0,3.9,86.779a50.79,50.79,0,0,1-1.894-4.824c-.24-.75-.461-1.51-.633-2.3,4.4-1.808,11.537-.47,15.272-1.251a28.937,28.937,0,0,0,3.112-.892,23.455,23.455,0,0,1,3.327-.922C23.627,79.418,24.128,82.5,23.54,85.233Z" transform="translate(-0.932 -5.581)" fill="#086c7b"/>
        <path id="Caminho_680" data-name="Caminho 680" d="M23.54,85.233a8.453,8.453,0,0,1-1.4,3.219c-1.989-.443-3.96.615-5.75,1.587a82.066,82.066,0,0,1-8.016,3.776c-.507.212-1.036.415-1.574.587a49.672,49.672,0,0,0-2.884-7.622,13.5,13.5,0,0,0,5.31.732,55.477,55.477,0,0,0,7.687-1.23C19.11,85.848,21.33,85.54,23.54,85.233Z" transform="translate(-0.932 -5.581)" fill="url(#linear-gradient-10)"/>
        <path id="Caminho_681" data-name="Caminho 681" d="M102.433,57.4l4.634,1.556s-.615,1.454.135,2.131c0,0-5.31,7.813-9.775,9.707,0,0-.643-.71-2.672-.507l-3.182-2.4s1.187-.575.922-1.488c0,0,6.392-3.247,8.151-7.576C100.64,58.82,102.433,59.091,102.433,57.4Z" transform="translate(-0.932 -5.581)" fill="url(#linear-gradient-11)"/>
        <path id="Caminho_682" data-name="Caminho 682" d="M111.393,67.977l3.911,1.885s-.7,1.23-.114,1.9c0,0-5.553,6.322-9.707,7.5,0,0-.492-.7-2.306-.741l-2.546-2.46s1.11-.378.972-1.23c0,0,6.005-2.152,8.037-5.8C109.652,69.035,111.205,69.471,111.393,67.977Z" transform="translate(-0.932 -5.581)" fill="url(#linear-gradient-12)"/>
        <path id="Caminho_683" data-name="Caminho 683" d="M107.371,86.625l11.773-3.72a2.321,2.321,0,0,0,1.759.406l2.368,2.638s-.541,1.082-.135,1.623l-13.1,3.361a3.662,3.662,0,0,0-1.965-.474l-1.78-2.481S107.675,87.631,107.371,86.625Z" transform="translate(-0.932 -5.581)" fill="url(#linear-gradient-13)"/>
        <path id="Caminho_684" data-name="Caminho 684" d="M23.54,85.233a8.453,8.453,0,0,1-1.4,3.219,4.975,4.975,0,0,0-2.377.1V77.515a23.455,23.455,0,0,1,3.327-.922C23.627,79.418,24.128,82.5,23.54,85.233Z" transform="translate(-0.932 -5.581)" fill="url(#linear-gradient-14)"/>
        <rect id="Retângulo_211" data-name="Retângulo 211" width="4.803" height="12.668" rx="1.144" transform="translate(150.875 61.459) rotate(4.12)" fill="#086c7b"/>
        <rect id="Retângulo_212" data-name="Retângulo 212" width="4.803" height="12.668" rx="1.144" transform="translate(150.875 61.459) rotate(4.12)" fill="url(#linear-gradient-15)"/>
        <circle id="Elipse_32" data-name="Elipse 32" cx="3.957" cy="3.957" r="3.957" transform="translate(148.656 64.066)" fill="#086c7b"/>
        <circle id="Elipse_33" data-name="Elipse 33" cx="3.957" cy="3.957" r="3.957" transform="translate(148.656 64.066)" fill="url(#linear-gradient-16)"/>
        <circle id="Elipse_34" data-name="Elipse 34" cx="3.391" cy="3.391" r="3.391" transform="translate(149.194 64.656)" fill="#086c7b"/>
        <circle id="Elipse_35" data-name="Elipse 35" cx="3.391" cy="3.391" r="3.391" transform="translate(149.194 64.656)" fill="url(#linear-gradient-17)"/>
        <path id="Caminho_685" data-name="Caminho 685" d="M146.485,53.891V52.757a3.244,3.244,0,0,1-1.716-.492l.268-.75a3.01,3.01,0,0,0,1.63.48c.8,0,1.334-.458,1.334-1.1s-.44-1-1.267-1.334c-1.147-.449-1.845-.965-1.845-1.94a1.811,1.811,0,0,1,1.691-1.808V44.683h.7v1.088a2.983,2.983,0,0,1,1.457.39l-.28.741a2.709,2.709,0,0,0-1.414-.381c-.864,0-1.19.517-1.19.965,0,.584.415.873,1.393,1.279,1.153.47,1.737,1.055,1.737,2.051a1.947,1.947,0,0,1-1.771,1.906v1.168Z" transform="translate(-0.932 -5.581)" fill="#086c7b"/>
        <path id="Caminho_686" data-name="Caminho 686" d="M124.8,59.727v-.615a1.746,1.746,0,0,1-.922-.264l.145-.4a1.6,1.6,0,0,0,.867.258c.427,0,.716-.246.716-.587s-.237-.538-.683-.716c-.615-.243-.99-.52-.99-1.042a.987.987,0,0,1,.907-.969v-.615h.372v.584a1.62,1.62,0,0,1,.784.212l-.151.4a1.433,1.433,0,0,0-.759-.206c-.461,0-.636.277-.636.52,0,.307.221.467.744.686.615.252.922.566.922,1.1a1.045,1.045,0,0,1-.95,1.021V59.7Z" transform="translate(-0.932 -5.581)" fill="#086c7b"/>
        <path id="Caminho_687" data-name="Caminho 687" d="M145.47,90.051v-.615a1.759,1.759,0,0,1-.922-.264l.145-.4a1.6,1.6,0,0,0,.867.258c.427,0,.716-.246.716-.59s-.237-.535-.68-.716c-.615-.24-.993-.517-.993-1.039a.987.987,0,0,1,.907-.972v-.615h.375v.584a1.62,1.62,0,0,1,.781.209l-.151.4a1.466,1.466,0,0,0-.756-.2c-.464,0-.64.277-.64.517,0,.307.221.47.747.686.615.252.922.566.922,1.1a1.045,1.045,0,0,1-.95,1.024v.615Z" transform="translate(-0.932 -5.581)" fill="#086c7b"/>
      </g>
    </g>
  </g>
</svg>
