<svg width="44" height="61" viewBox="0 0 44 61" fill="none" xmlns="http://www.w3.org/2000/svg">
<path d="M2.51 27.21C2.92 28.74 1.86 31.12 2.95 32.99C4.04 34.86 6.68 35.19 7.73 36.25C8.39342 37.1902 8.95965 38.1954 9.42 39.25L4.12 54.72C3.87014 55.5247 4.15135 56.3996 4.82324 56.908C5.49512 57.4164 6.41357 57.4492 7.12 56.99L10.44 54.64L11.61 58.53C11.857 59.3646 12.6155 59.9437 13.4858 59.9619C14.356 59.9802 15.1381 59.4335 15.42 58.61L20.6 43.7C21.4946 44.0801 22.5054 44.0801 23.4 43.7L28.54 58.65C28.8219 59.4735 29.604 60.0202 30.4742 60.0019C31.3445 59.9837 32.103 59.4046 32.35 58.57L33.52 54.68L36.84 57C37.5464 57.4592 38.4649 57.4264 39.1368 56.918C39.8086 56.4096 40.0899 55.5347 39.84 54.73L34.58 39.29C35.0421 38.2382 35.6047 37.2336 36.26 36.29C37.35 35.17 40 34.87 41.05 33C42.1 31.13 41.1 28.7 41.49 27.22C41.88 25.74 44 24.19 44 22C44 19.81 41.86 18.18 41.49 16.78C41.12 15.38 42.14 12.87 41.05 11C39.96 9.13 37.32 8.8 36.27 7.74C35.22 6.68 34.89 4 33 2.94C31.11 1.88 28.7 2.94 27.22 2.51C25.74 2.08 24.2 0 22 0C19.8 0 18.19 2.13 16.78 2.51C15.22 2.92 12.88 1.85 11 2.94C9.12 4.03 8.81 6.66 7.74 7.73C6.67 8.8 4 9.11 3 11C2 12.89 3 15.3 2.56 16.78C2.12 18.26 0 19.79 0 22C0 24.21 2.13 25.79 2.51 27.21ZM13.57 58L12.4 54.09C12.2024 53.4804 11.7246 53.0023 11.1151 52.8044C10.5055 52.6065 9.83804 52.7127 9.32 53.09L6 55.41C11.36 39.8 10.9 41 11 41C12.84 42.07 15.3 41 16.78 41.43C17.5012 41.7396 18.1747 42.1504 18.78 42.65L13.57 58ZM34.68 53C34.1483 52.625 33.4674 52.5321 32.8546 52.7509C32.2419 52.9698 31.7739 53.473 31.6 54.1L30.43 58L25.17 42.69C25.7704 42.1861 26.445 41.7779 27.17 41.48C28.74 41.06 31.07 42.13 32.95 41.04C33.05 40.98 32.6 39.82 37.95 55.4L34.68 53ZM3.12 19.7C4.55 17.7 4.75 17.04 4.52 14.45C4.29 11.86 4.43 11.68 6.76 10.61C9.09 9.54 9.55 9.07 10.61 6.75C11.67 4.43 12 4.29 14.46 4.52C16.92 4.75 17.69 4.52 19.71 3.12C21.73 1.72 22.18 1.63 24.29 3.12C26.4 4.61 27 4.74 29.54 4.52C32.08 4.3 32.32 4.43 33.39 6.75C34.46 9.07 34.94 9.54 37.24 10.61C39.54 11.68 39.71 11.95 39.48 14.45C39.25 16.95 39.48 17.69 40.88 19.7C42.28 21.71 42.37 22.17 40.88 24.28C39.39 26.39 39.25 26.94 39.48 29.53C39.71 32.12 39.57 32.3 37.24 33.38C34.91 34.46 34.46 34.91 33.39 37.23C32.32 39.55 32.05 39.69 29.54 39.47C27.03 39.25 26.31 39.47 24.29 40.86C22.27 42.25 21.82 42.35 19.71 40.86C18.6677 39.9174 17.3153 39.3907 15.91 39.38C14.47 39.38 12.84 39.79 12 39.31C10.85 38.64 10.54 36.22 9.15 34.84C7.76 33.46 5.33 33.12 4.68 32C4.03 30.88 4.95 28.6 4.44 26.71C3.93 24.82 2 23.33 2 22C2.15146 21.1439 2.53942 20.3472 3.12 19.7Z" fill="#79BA44"/>
<path d="M22 37C30.2843 37 37 30.2843 37 22C37 13.7157 30.2843 7 22 7C13.7157 7 7 13.7157 7 22C7 30.2843 13.7157 37 22 37ZM22 9C29.1797 9 35 14.8203 35 22C35 29.1797 29.1797 35 22 35C14.8203 35 9 29.1797 9 22C9 18.5522 10.3696 15.2456 12.8076 12.8076C15.2456 10.3696 18.5522 9 22 9Z" fill="#79BA44"/>
<path d="M15.0502 25.23C15.5829 25.2033 16.0009 24.7633 16.0002 24.23C15.9532 22.4576 16.6494 20.7463 17.9202 19.51C19.4302 18.01 21.2102 17.61 23.4002 17.24C24.9115 16.9801 26.3561 16.4227 27.6503 15.6C28.9503 20.6 26.5803 26.8 21.6502 28.44C20.4945 28.8204 19.2869 29.0194 18.0702 29.03C19.5215 26.3244 21.5742 23.9878 24.0702 22.2C24.2855 22.0439 24.4298 21.8084 24.4711 21.5457C24.5123 21.283 24.4473 21.0146 24.2903 20.8C23.9657 20.3579 23.3455 20.2597 22.9002 20.58C19.6594 22.8261 17.1241 25.9475 15.5902 29.58C15.4873 29.8692 15.523 30.1897 15.6869 30.4492C15.8508 30.7088 16.1249 30.8786 16.4302 30.91C21.6603 31.47 26.3603 29.35 28.6903 24.31C30.2497 20.9451 30.4009 17.0968 29.1103 13.62C28.9958 13.3352 28.7569 13.1188 28.4622 13.033C28.1675 12.9471 27.8498 13.0013 27.6003 13.18C26.2708 14.2197 24.7099 14.923 23.0502 15.23C20.6002 15.64 18.4202 16.14 16.4902 18.05C14.8294 19.6855 13.9268 21.9402 14.0002 24.27C14.0106 24.5371 14.1275 24.7889 14.3247 24.9693C14.522 25.1497 14.7833 25.2436 15.0502 25.23Z" fill="#79BA44"/>
</svg>
