<svg width="289" height="515" viewBox="0 0 289 515" fill="none" xmlns="http://www.w3.org/2000/svg">
<g opacity="0.6">
<path d="M77.9571 27.0189C80.6964 27.42 81.9367 27.9822 83.5425 25.4298L84.5056 20.3183L86.2894 14.1122L86.9401 8.43339L86.5205 5.2849L85.5297 2.2925L82.7458 1.81043L81.3629 2.28176L77.3751 7.56756L75.9567 10.1619L72.3356 23.7697L71.8002 23.7918C72.8712 26.2339 74.7182 26.5059 77.9571 27.0189ZM81.6763 12.2966C83.8444 11.8593 85.0485 7.5831 84.8252 5.6862C86.2351 6.85468 85.031 10.6336 84.0586 12.0493C82.6936 13.9453 81.2481 13.4082 79.2405 13.2422C79.0441 11.9906 78.7048 10.2808 78.7226 9.21927C79.6774 10.854 79.4457 12.7199 81.6763 12.2966Z" fill="#ED1A3B"/>
<path d="M62.3627 54.3315C62.6843 57.6002 63.55 58.0784 67.4676 59.0277C68.9043 59.3498 70.1716 59.5628 71.644 59.7508C74.9993 60.0768 76.0792 60.7451 77.7833 58.0725L81.5922 44.5061L85.8381 27.0595L84.4102 25.4607C83.3756 30.8407 74.9691 27.1092 71.9794 25.1603C71.9794 24.6631 71.9972 24.0988 72.0149 23.5345L70.6764 23.5896L68.8831 27.5918L63.7006 48.3092L62.3627 54.3315Z" fill="#D83D96"/>
<path d="M68.0445 64.9002C69.278 65.1762 70.8917 65.3163 72.2457 65.3982C75.6586 65.4987 77.3 64.7606 79.034 62.1273L79.5253 58.9949L78.8389 57.957C76.8364 64.4358 65.2896 59.4939 61.8301 56.7301C61.9227 55.8665 62.0525 54.8639 62.2286 53.9453L60.9859 54.4779L59.6137 58.5922C61.6265 62.1376 63.6114 63.9819 68.0445 64.9002Z" fill="#D83D96"/>
<path d="M79.4496 62.1783C77.7991 66.5609 72.5905 66.5553 68.3395 65.755C64.0247 64.9405 60.7131 62.9098 59.5723 58.8426L58.724 59.2299L54.2566 75.3634L55.6527 78.4799L57.9154 81.1412L66.9829 83.1552L70.2942 82.6674L72.8572 81.4377L75.1649 79.6477L79.8784 62.8492L79.4496 62.1783Z" fill="#D83D96"/>
<path d="M156.581 196.694C158.746 199.437 159.901 200.159 162.644 202.035C164.376 203.19 165.675 204.923 166.397 206.944C167.119 205.211 167.841 203.335 168.707 201.602C169.14 200.592 171.45 197.993 171.45 196.838C171.45 195.684 169.573 193.662 169.14 192.796C167.552 189.909 165.82 187.888 163.51 185.434C161.344 182.98 160.334 180.814 157.302 180.526C155.137 180.237 149.507 180.526 147.774 181.825C153.549 185.001 156.003 190.487 156.581 196.694Z" fill="#50B848"/>
<path d="M171.883 197.705C169.862 205.789 168.563 212.863 158.746 212.429C149.651 212.141 144.743 202.902 142 195.25C143.877 204.345 147.053 213.873 157.447 215.894C160.19 216.472 161.056 216.76 163.365 215.75C165.242 214.884 169.573 212.285 170.584 210.553C172.027 208.387 173.76 199.581 171.883 197.705Z" fill="#50B848"/>
<path d="M143.155 193.085C146.764 199.004 150.806 208.676 158.313 209.398C160.19 209.542 162.066 210.12 163.799 208.82C166.397 206.944 165.242 209.398 164.232 206.655C162.932 202.613 158.457 203.19 155.859 200.448C151.817 196.117 154.271 187.022 148.496 183.846C146.187 182.547 145.176 184.279 143.588 186.733C141.856 189.476 142.144 189.332 143.155 193.085Z" fill="#50B848"/>
<path d="M136.651 427.773C136.376 425.757 136.743 423.832 136.101 421.908C135.093 418.7 132.711 415.859 130.328 413.477C125.562 408.711 119.605 405.504 114.473 401.288C109.616 397.256 106.134 391.849 101.277 387.817C96.8781 384.151 93.3956 381.218 88.0803 379.11C85.1477 377.919 82.1235 377.003 79.0076 376.269C76.2583 375.628 73.2341 374.253 70.4848 373.887C67.2772 373.52 63.1533 374.345 59.9458 374.803C55.1803 375.445 48.9487 376.728 44.9164 379.477C42.442 381.218 39.7843 382.776 37.4932 384.792C35.3854 386.625 31.903 389.1 30.5284 391.482C28.7871 394.598 28.8788 400.097 29.1537 403.396C29.7036 410.086 30.3451 418.059 33.2777 424.107C34.3774 426.307 36.1186 429.148 37.6766 431.072C39.7844 433.638 44.5498 434.28 47.7573 435.288C55.2721 437.67 62.7868 440.145 70.2099 442.802C77.9079 445.643 85.6059 448.668 92.9373 452.425C97.1529 454.533 100.36 456.641 105.034 457.099C108.333 457.465 112.641 458.382 115.848 457.832C118.964 457.374 122.721 454.624 125.654 453.25C128.678 451.875 130.145 449.767 131.519 446.56C132.802 443.627 133.169 439.87 133.994 436.754C134.91 434.096 136.468 430.706 136.651 427.773ZM125.746 441.428C122.446 443.627 119.056 445.185 114.932 444.727C110.075 444.177 105.309 442.253 100.635 440.786C90.5546 437.579 80.3822 434.28 70.4848 430.431C61.2288 426.857 52.2478 422.366 44.0916 416.776C37.8599 412.56 30.895 407.52 31.2615 399.18C31.5365 392.032 35.8437 388.916 41.8921 386.259C45.4662 384.701 47.6657 381.493 51.3314 379.752C54.9055 378.102 58.8462 377.644 62.7868 377.461C71.9511 376.911 80.6572 377.736 89.0884 381.676C98.161 385.892 105.034 393.773 112.457 400.28C119.422 406.328 129.961 411.186 134.177 419.617C138.209 427.773 132.436 437.029 125.746 441.428Z" fill="#F37021"/>
<path d="M254.596 383.051C252.671 377.827 251.388 370.863 247.906 366.464C243.782 361.332 239.292 355.925 233.701 352.442C228.294 349.051 223.071 345.661 217.297 343.095C212.99 341.17 208.683 339.337 204.284 337.413C202.359 336.588 200.343 335.397 198.327 334.938C194.295 334.022 189.713 334.114 185.589 333.747C182.015 333.38 178.44 333.106 174.866 332.739C176.516 333.472 178.44 334.938 180.182 335.213C181.373 335.488 183.114 335.03 184.397 335.03C187.147 335.213 190.079 335.947 191.912 338.146C189.254 337.871 186.413 336.771 183.847 337.23C191.545 341.72 199.702 345.477 207.125 350.334C208.408 351.159 210.149 353.359 211.524 353.725C212.623 354 214.731 353.267 215.923 353.359C219.13 353.45 222.429 354.642 224.262 357.391C222.521 356.933 220.688 355.925 218.947 355.558C217.297 355.192 215.373 355.833 213.54 355.925C218.672 361.698 226.003 369.854 226.095 378.011C223.071 374.07 220.78 369.396 217.664 365.547C216.289 363.806 214.548 362.34 212.99 360.69C211.799 359.316 210.699 357.116 209.324 356.108C208.041 355.1 204.284 355.008 202.451 354.642C199.885 354.092 198.144 353.909 195.578 354.55C193.378 355.1 191.179 355.741 188.979 356.291C186.78 356.841 185.222 357.941 183.114 358.766C196.036 369.305 203.184 388.091 202.726 404.496C201.535 402.021 201.168 398.997 200.801 396.339C200.343 393.04 198.51 390.016 197.136 386.992C194.203 380.393 191.912 373.612 187.605 367.838C186.047 365.822 184.764 363.623 183.206 361.607C182.106 360.232 181.556 359.865 179.998 359.499C178.715 359.224 177.341 359.224 176.058 359.041C169.368 357.758 162.495 361.515 155.805 360.782C162.77 357.391 170.284 355.283 178.074 356.383C174.5 352.992 170.376 348.135 165.885 345.936C163.686 344.836 161.211 344.286 158.92 343.37C156.354 342.362 153.972 342.362 151.131 342.636C146.64 343.003 141.325 344.194 137.109 345.752C133.444 347.035 129.228 348.685 125.287 348.502C132.802 344.011 141.142 340.804 149.939 340.437C145.999 339.521 141.417 338.604 138.117 336.13C144.074 336.771 150.031 337.504 155.805 339.246C156.813 339.521 158.462 340.529 159.47 340.529C160.845 340.437 162.861 339.062 164.144 338.513C167.168 337.321 170.284 336.313 173.492 335.763C170.559 334.48 168.176 332.464 164.877 332.464C163.136 332.464 161.395 332.372 159.654 332.464C155.988 332.739 152.23 333.472 148.656 334.022C144.991 334.572 141.142 334.755 137.476 335.58C134.36 336.313 131.153 337.779 128.128 338.879C121.622 341.17 115.207 343.461 108.7 345.661C105.218 346.852 101.368 347.86 97.9777 349.326C94.8618 350.701 91.9293 352.809 88.9967 354.55C85.8808 356.383 83.6813 358.582 81.0237 361.148C79.5574 362.523 77.1748 364.081 76.0751 365.822C75.3419 367.105 75.1586 368.846 74.8836 370.313C82.3984 361.607 90.4629 354.55 102.102 352.442C113.924 350.334 126.204 353.267 137.201 357.849C147.74 362.34 157.271 368.663 165.061 377.094C172.117 384.701 179.174 393.498 184.489 402.479C188.704 409.536 194.295 422.366 186.138 428.873C186.78 427.681 188.063 426.215 188.521 424.932C188.979 423.374 188.43 420.808 188.155 419.25C187.513 415.218 186.872 411.369 184.764 407.978C178.074 397.256 170.009 386.992 161.67 377.553C153.88 368.663 143.799 361.332 132.527 357.483C127.67 355.833 121.163 354.092 116.031 354.367C111.174 354.642 105.401 354 100.819 355.375C97.7028 356.383 94.1287 357.024 91.2878 358.582C89.0884 359.865 86.9805 361.515 84.9644 363.073C82.3067 365.089 79.6491 367.105 76.9915 369.213C75.067 370.771 74.792 371.229 74.2422 373.612C74.792 373.703 77.5413 374.528 77.9079 374.253C78.0912 374.162 78.5493 372.329 78.641 372.237C79.1909 370.863 79.8324 369.671 80.7488 368.571C83.1316 365.731 86.6139 363.439 89.7298 361.607C96.6947 357.299 105.584 357.024 113.557 357.483C129.686 358.307 144.166 365.731 156.079 376.361C169.734 388.641 198.785 419.8 173.675 435.379C167.81 439.045 160.387 442.253 153.33 442.436C149.756 442.528 146.182 442.161 142.7 441.703C140.958 441.428 138.851 440.695 137.109 440.695C137.109 440.695 135.735 440.236 135.643 440.328C135.093 440.695 134.452 444.085 134.177 444.819C145.082 446.285 155.713 446.377 166.802 446.285C175.874 446.193 185.314 446.468 194.295 444.727C205.933 442.436 217.022 439.778 228.386 436.479C232.693 435.196 235.717 431.622 239.017 428.781C242.224 426.032 247.264 423.282 248.914 419.342C250.38 415.859 251.572 412.285 252.855 408.711C253.771 406.328 255.421 403.488 255.696 400.922C256.062 398.355 255.237 395.148 255.054 392.582C255.054 389.1 254.871 386.075 254.596 383.051Z" fill="#F37021"/>
<path d="M154.796 440.145C159.012 438.404 163.778 437.029 167.81 435.013C170.284 433.73 172.667 431.622 174.958 429.973C177.157 428.506 179.998 423.558 180.457 420.808C180.823 418.242 180.273 413.568 179.357 411.277C178.166 408.07 175.874 404.404 174.042 401.472C170.926 396.431 167.168 391.757 163.869 386.9C157.637 377.919 148.015 368.113 137.476 364.723C134.91 363.898 132.252 363.073 129.686 362.248C126.845 361.332 123.913 361.24 120.888 361.057C116.031 360.69 111.174 359.591 106.317 360.232C104.026 360.507 101.735 360.965 99.3523 361.057C98.5276 361.057 97.5196 360.965 96.6948 361.057C95.2285 361.24 93.7622 362.157 92.2959 362.798C89.18 364.173 86.614 365.822 83.8647 367.838C81.1154 369.763 80.2906 371.596 78.2744 374.253C87.1638 376.178 95.0451 380.027 102.01 385.801C107.875 390.658 111.541 397.531 117.773 401.838C123.913 406.145 130.328 410.727 134.818 416.868C136.926 419.8 138.576 423.099 138.759 426.673C138.942 431.072 137.018 435.288 135.826 439.412C141.875 439.32 149.115 438.22 154.796 440.145ZM169.185 411.186C167.901 410.453 166.527 409.17 166.069 408.253C168.635 406.604 171.109 408.253 169.185 411.186ZM168.268 425.299C166.985 424.566 165.61 423.283 165.152 422.366C167.81 420.717 170.193 422.458 168.268 425.299ZM162.678 391.024C161.395 390.291 160.02 389.008 159.562 388.092C162.22 386.442 164.602 388.092 162.678 391.024ZM88.5385 375.078C87.2555 374.345 85.8808 373.062 85.4226 372.146C88.0803 370.496 90.463 372.146 88.5385 375.078ZM102.743 367.38C101.46 366.647 100.086 365.364 99.6273 364.448C102.285 362.798 104.668 364.448 102.743 367.38ZM111.724 382.776C110.441 382.043 109.067 380.76 108.608 379.844C111.174 378.194 113.649 379.844 111.724 382.776ZM114.29 368.388C113.007 367.655 111.633 366.372 111.174 365.456C113.832 363.806 116.215 365.456 114.29 368.388ZM125.196 398.172C123.913 397.439 122.538 396.156 122.08 395.24C124.738 393.59 127.12 395.24 125.196 398.172ZM133.81 377.369C132.527 376.636 131.153 375.353 130.694 374.437C133.26 372.787 135.643 374.437 133.81 377.369ZM144.349 407.153C147.007 405.504 149.39 407.245 147.465 410.086C146.182 409.353 144.807 408.07 144.349 407.153ZM150.031 436.571C148.748 435.838 147.373 434.555 146.915 433.638C149.573 431.989 151.956 433.638 150.031 436.571ZM150.214 397.806C148.931 397.073 147.557 395.79 147.099 394.873C149.756 393.224 152.139 394.965 150.214 397.806ZM146.549 374.345C145.266 373.612 143.891 372.329 143.433 371.413C146.09 369.763 148.473 371.413 146.549 374.345Z" fill="#FEDF00"/>
<path d="M172.85 337.321C168.727 338.329 165.061 339.337 161.12 340.895C165.061 342.545 168.452 344.928 171.476 347.86C173.034 349.418 174.592 351.068 176.15 352.626C177.249 353.725 179.357 356.566 180.915 356.841C182.198 357.116 185.222 355.283 186.597 354.825C188.705 354.184 190.813 353.817 193.012 353.45C197.594 352.809 202.176 352.809 206.758 353.267C201.443 349.327 196.311 345.661 190.354 342.637C187.513 341.17 184.581 339.796 181.557 338.696C178.716 337.596 175.783 337.78 172.85 337.321Z" fill="#F37021"/>
<path d="M124.921 412.652C110.808 401.563 99.0774 384.792 81.1153 380.027C73.4173 378.011 66.1774 379.294 58.3877 380.21C50.6897 381.127 45.9243 387.908 39.1427 391.207C40.9755 391.574 40.5173 393.59 39.7841 394.782C38.7761 394.232 37.768 393.407 37.0348 392.399C36.3933 394.232 35.4769 395.973 35.0187 397.897C34.4689 400.097 35.2937 401.746 35.8435 403.946C36.485 406.054 36.6683 407.245 38.4095 408.62C39.9674 409.903 41.5254 411.094 43.175 412.285C49.1318 416.593 55.3635 421.175 62.0535 424.291C76.1665 430.981 90.3712 437.029 105.309 441.428C104.851 440.97 104.393 440.511 104.118 439.87C104.943 439.32 106.592 438.77 107.417 439.687C108.058 440.328 107.325 441.703 107.6 442.069C108.517 443.078 112.549 443.261 113.923 443.536C116.398 444.086 116.673 444.36 119.055 443.077C121.805 441.611 124.463 440.511 126.479 438.129C129.869 434.096 135.276 430.339 133.627 424.474C132.252 419.342 128.311 416.318 124.921 412.652ZM49.2234 403.579C47.9404 402.846 46.5658 401.563 46.1075 400.647C48.7652 398.997 51.1479 400.738 49.2234 403.579ZM53.8056 416.776C52.5226 416.043 51.1479 414.76 50.6897 413.843C53.2557 412.194 55.7301 413.843 53.8056 416.776ZM60.5872 388.367C59.3042 387.633 57.9295 386.35 57.4713 385.434C60.129 383.784 62.5117 385.434 60.5872 388.367ZM71.676 396.614C70.393 395.881 69.0183 394.598 68.5601 393.682C71.1261 392.032 73.6005 393.682 71.676 396.614ZM76.0749 424.932C74.7919 424.199 73.4172 422.916 72.959 422C75.525 420.35 77.9994 422.091 76.0749 424.932ZM74.8835 386.809C77.5412 385.159 79.9239 386.9 77.9994 389.741C76.7164 389.1 75.3417 387.817 74.8835 386.809ZM81.2069 413.293C79.9239 412.56 78.5492 411.277 78.091 410.361C80.7487 408.62 83.1314 410.361 81.2069 413.293ZM87.1637 388.916C89.8214 387.267 92.2041 389.008 90.2796 391.849C89.0883 391.116 87.6219 389.924 87.1637 388.916ZM92.5707 432.722C91.2877 431.989 89.913 430.706 89.4548 429.789C92.0208 428.14 94.4036 429.881 92.5707 432.722ZM96.4197 410.361C95.1367 409.628 93.762 408.345 93.3038 407.428C95.9614 405.779 98.3442 407.428 96.4197 410.361ZM103.385 399.089C106.042 397.439 108.425 399.18 106.5 402.021C105.217 401.288 103.843 400.097 103.385 399.089ZM107.6 427.865C106.317 427.132 104.943 425.849 104.484 424.932C107.142 423.283 109.525 424.932 107.6 427.865ZM116.673 412.285C115.39 411.552 114.015 410.269 113.557 409.353C116.215 407.703 118.597 409.353 116.673 412.285ZM123.363 432.722C122.08 431.989 120.705 430.706 120.247 429.789C122.905 428.14 125.287 429.881 123.363 432.722ZM131.427 424.382C130.144 423.649 128.77 422.366 128.312 421.45C130.969 419.8 133.352 421.45 131.427 424.382Z" fill="#FEDF00"/>
<path d="M181.006 357.024C181.19 357.024 181.373 356.933 181.556 356.933C181.648 357.024 180.64 356.749 181.006 357.024Z" fill="#FDED00"/>
<path d="M173.4 358.308C173.583 358.399 173.766 358.399 174.041 358.308C173.858 358.308 173.583 358.308 173.4 358.308Z" fill="#FDED00"/>
<path d="M218.03 355.191C218.214 355.375 218.397 355.375 218.58 355.283C218.397 355.283 218.214 355.283 218.03 355.191Z" fill="#FDED00"/>
<path d="M73.9673 371.504C74.6088 370.954 74.9753 370.954 75.067 370.221C74.7004 370.679 74.3339 371.046 73.9673 371.504Z" fill="#FDED00"/>
<path d="M177.066 428.598C176.791 428.689 176.608 428.873 176.516 429.239C176.699 428.964 176.883 428.781 177.066 428.598Z" fill="#FDED00"/>
<path d="M179.723 411.552C179.723 411.736 179.723 412.01 179.906 412.194C179.906 412.01 179.815 411.827 179.723 411.552Z" fill="#FDED00"/>
<path d="M180.732 420.441C180.549 420.716 180.457 420.991 180.549 421.266C180.64 420.991 180.64 420.716 180.732 420.441Z" fill="#FDED00"/>
<path d="M34.3774 399.638C34.5607 399.272 34.6524 398.997 34.3774 398.63C34.3774 398.997 34.3774 399.272 34.3774 399.638Z" fill="#FDED00"/>
<path d="M134.269 425.024C134.086 425.299 134.177 425.574 134.36 425.849C134.36 425.574 134.269 425.299 134.269 425.024Z" fill="#FDED00"/>
<path d="M49.3156 383.784C49.4989 383.601 49.5906 383.418 49.7738 383.234C49.4989 383.509 48.4908 384.242 49.3156 383.784Z" fill="#FDED00"/>
<path d="M37.0352 407.703C37.0352 407.337 36.8519 407.062 36.4854 406.97C36.6686 407.154 36.8519 407.428 37.0352 407.703Z" fill="#FDED00"/>
<path d="M44.8247 385.067C44.5498 385.159 44.3665 385.251 44.2749 385.526C44.4582 385.342 44.6415 385.159 44.8247 385.067Z" fill="#FDED00"/>
<path d="M133.26 430.614C133.077 430.797 132.985 430.98 132.985 431.164C133.077 430.98 133.169 430.797 133.26 430.614Z" fill="#FDED00"/>
<path d="M37.3102 391.482C36.7603 391.666 36.6686 391.941 36.9436 392.216C37.2185 392.124 37.4018 391.849 37.3102 391.482Z" fill="#FDED00"/>
<path d="M44.8025 242.414C43.3146 242.496 42.3227 242.662 40.9175 243.158C43.3973 244.232 44.8853 244.976 47.4478 244.315C46.5385 243.901 45.6292 243.406 44.6372 242.992C44.8852 242.827 45.1332 242.744 45.3812 242.579C45.2159 242.414 45.0505 242.414 44.8025 242.414Z" fill="#50B848"/>
<path d="M45.8764 249.853C44.8845 249.274 43.9752 248.861 43.3139 247.952C42.4873 246.96 42.6527 245.72 42.074 244.811C41.1648 243.488 38.1889 242.579 36.5356 241.917C36.0397 243.24 39.5115 246.795 40.3382 248.034C38.9329 247.125 37.445 245.885 35.9571 245.224C34.6345 244.645 33.1466 244.728 31.6587 244.645C32.9813 245.389 34.1385 246.299 35.2957 247.208C33.2292 246.96 31.7413 246.96 29.6748 247.29C32.4026 248.696 34.0559 248.944 37.1143 249.109C35.2958 250.101 33.8079 250.266 31.7413 250.432C32.1546 252.167 35.8744 252.746 37.2796 252.168C38.2716 251.837 39.0156 250.68 40.0075 250.349C40.8341 250.101 41.4954 250.349 42.4873 250.514C40.0902 250.928 38.4369 251.754 37.6929 254.151C39.4288 254.813 40.2555 252.663 41.5781 251.837C42.818 251.01 44.4712 250.514 45.8764 249.853Z" fill="#50B848"/>
<path d="M50.5062 245.472C49.9276 245.554 47.6131 246.05 47.5304 246.96C47.4477 248.613 49.8449 248.117 50.5888 247.952C51.5808 247.704 52.3248 246.96 53.3167 246.712C54.474 246.381 55.7966 246.546 57.0365 246.629C56.3752 245.72 54.8046 246.298 53.73 246.298C52.5728 246.216 51.6635 245.968 50.5062 245.472Z" fill="#50B848"/>
<path d="M45.877 245.968C44.8024 245.555 43.8104 245.141 42.7358 244.728C43.1491 247.539 45.6291 250.018 48.6049 249.688C47.6956 248.448 46.7863 247.208 45.877 245.968Z" fill="#50B848"/>
<path d="M33.891 215.218C32.8164 214.557 31.8244 213.978 30.5845 213.482C30.7498 216.21 35.1309 218.607 37.0322 220.508C35.5443 220.012 34.0563 219.516 32.4858 219.186C33.5604 221.335 36.5361 221.831 37.6934 224.063C37.7761 223.897 37.8588 223.732 37.9414 223.567C38.6854 224.559 39.7599 225.633 40.2559 226.79C40.7518 228.03 40.7519 229.022 41.6612 230.18C39.8426 230.18 39.5947 226.129 38.2721 224.724C37.7761 226.294 38.52 229.518 39.8426 230.593C40.5865 231.254 41.7438 231.006 42.4878 231.502C43.3144 232.081 44.0583 233.651 44.7196 234.478C43.149 234.395 38.8507 234.643 38.0241 232.742C37.5281 231.585 39.016 230.675 37.8588 229.436C37.2801 228.857 35.7922 228.774 34.9656 228.692C35.9576 229.849 36.7015 231.337 37.4455 232.659C35.7922 231.833 34.8003 231.254 32.8991 231.502C31.7418 231.667 27.774 231.75 28.518 233.155C29.1793 234.478 32.6511 234.313 33.7257 234.23C36.0402 234.065 37.1148 233.238 39.264 234.478C37.7761 234.974 36.3708 235.47 34.8829 235.883C36.3708 236.627 36.7841 236.627 38.1893 235.883C39.9252 234.974 40.0906 234.809 42.0745 235.222C41.5785 235.718 39.76 236.958 41.2479 236.875C42.3225 236.792 42.7357 235.47 43.4797 235.222C46.1249 234.313 47.6954 238.032 46.7035 240.016C48.0261 240.099 49.266 240.016 50.5886 240.099C51.8285 240.182 52.9857 241.173 54.3083 240.926C53.0684 240.099 50.9193 240.347 49.4314 239.19C48.1088 238.198 47.4474 236.462 46.8688 234.891C49.1007 235.139 48.6048 232.577 48.1915 231.337C47.2822 231.915 46.8689 232.659 46.5382 233.651C45.4636 232.081 46.2075 231.75 46.4555 230.014C46.7035 228.196 46.0422 227.286 45.2156 225.798C44.3889 226.79 44.3064 228.113 44.0584 229.353C43.8104 227.782 43.9757 226.956 44.0584 225.468C44.141 224.724 44.0584 222.161 43.3144 221.748C41.1652 220.756 41.8264 227.038 41.9091 227.948C40.9172 225.798 39.512 224.063 38.2721 221.996C39.3467 221.913 41.2479 222.161 42.0745 221.5C42.9838 220.839 43.2317 218.855 43.5623 217.78C42.5704 217.78 41.9091 218.276 40.9998 218.69C42.1571 217.036 42.4878 216.292 42.6531 214.226C41.4958 214.97 40.3386 215.796 39.1813 216.54C40.1733 213.482 40.2559 211.002 38.3547 208.357C38.1894 210.754 37.9414 212.325 37.1148 214.556C36.8668 211.25 36.4535 209.845 33.891 207.53C32.8164 209.101 32.7337 210.175 33.643 211.911C34.5522 213.647 35.0482 214.804 35.5442 216.788C34.9656 216.375 34.3869 215.796 33.891 215.218Z" fill="#50B848"/>
<path d="M56.7067 240.347C56.5414 240.595 56.1281 240.429 56.5414 240.843C56.5414 240.677 56.624 240.512 56.7067 240.347Z" fill="#50B848"/>
<path d="M46.6207 222.823C47.8606 224.641 49.1005 225.302 50.919 226.542C49.0178 225.881 47.778 225.55 45.7114 225.468C47.4473 227.617 48.8526 227.948 51.4977 228.526C49.5965 228.609 48.1912 229.188 46.4553 229.932C50.0097 230.675 54.8868 230.51 53.3162 225.468C52.655 223.319 51.5803 223.401 50.1751 221.996C49.9271 221.748 49.0179 219.681 49.0179 221.5C49.0179 222.327 50.0924 223.236 50.5884 223.897C49.0178 223.071 48.3566 222.823 46.6207 222.823Z" fill="#50B848"/>
<path d="M54.9695 236.296C55.7961 232.99 56.0441 231.502 54.1429 228.609C52.2417 231.75 52.3243 234.395 53.4815 237.867C51.911 237.04 49.4312 234.974 47.6126 235.552C48.1912 237.371 49.3485 238.611 51.0017 239.272C52.9856 240.016 54.1428 239.438 55.1348 241.421C53.1509 241.835 52.2417 240.925 50.3405 240.843C48.7699 240.76 47.53 241.917 46.29 242.744C48.3566 243.736 50.0925 244.48 52.3244 243.405C52.9857 243.075 53.9776 241.917 54.8042 242C56.0441 242.083 56.1268 243.24 56.6227 244.397C55.6308 243.901 54.7215 243.157 53.7296 243.323C52.8203 243.488 51.4977 244.397 50.5884 244.645C52.159 245.307 53.151 245.389 54.8042 245.307C57.1187 245.224 57.1187 245.389 58.4412 247.29C55.5481 247.125 53.7296 247.042 51.1671 248.365C53.4816 249.936 56.2094 246.546 58.3586 247.621C61.4171 249.109 55.5482 249.688 54.8042 250.432C55.5482 250.514 56.7054 251.01 57.4493 250.845C58.028 250.762 58.4413 250.018 59.0199 249.853C61.2518 249.026 61.3344 251.837 63.3183 251.671C61.4997 249.44 62.2437 250.018 63.153 247.704C63.897 245.72 63.2356 244.728 62.4917 242.909C60.8384 245.059 61.2518 246.794 61.4171 249.44C60.2599 248.778 60.0119 248.53 59.3506 247.456C58.3587 245.885 58.6066 245.885 59.8465 244.728C61.4998 243.157 62.4917 241.504 63.4837 239.603C60.7558 239.19 59.1026 243.323 58.276 245.224C57.8626 244.397 56.9534 243.405 57.2841 242.413C57.6974 241.173 57.9453 241.917 59.1852 241.421C60.9211 240.677 62.409 238.859 63.2356 237.288C59.4332 237.123 57.6974 239.272 56.4574 242.496C55.9615 241.669 55.5481 240.843 55.0521 240.016C56.6227 239.438 58.5239 238.363 59.1026 236.958C59.5985 235.552 59.3506 233.403 58.6066 232.081C56.9534 233.817 56.7054 238.611 54.8042 239.52C54.0603 238.032 54.1429 237.95 54.9695 236.296Z" fill="#50B848"/>
<path d="M45.5468 239.851C46.4561 238.776 45.8775 235.966 44.1416 236.131C41.9924 236.296 44.8855 239.272 45.5468 239.851Z" fill="#50B848"/>
<path d="M58.3589 243.57C58.6069 243.24 58.6896 242.744 58.8549 242.331C58.0283 242.413 57.9456 242.909 58.3589 243.57Z" fill="#50B848"/>
<path d="M60.6732 248.117C60.5906 247.125 60.5079 246.216 60.5906 245.224C59.1854 245.968 59.9293 247.208 60.6732 248.117Z" fill="#50B848"/>
<path d="M49.7627 251.589C53.8131 252.25 57.8636 253.159 61.914 253.821C65.4685 254.482 71.4201 256.466 75.0572 254.978C76.8758 254.234 77.2891 251.671 77.9504 249.935C78.1157 249.522 78.6943 248.448 78.5289 248.034C78.281 247.456 76.1318 246.629 75.5532 246.298C71.8334 244.149 68.1136 242.083 64.3939 240.016C63.7326 241.256 63.2365 241.587 63.8152 242.661C64.2285 243.405 65.5511 244.232 66.1297 244.893C67.9483 247.042 70.2628 247.869 72.8253 249.192C70.6761 248.944 69.1055 248.365 67.039 247.786C66.4604 247.621 64.7244 246.877 64.2285 247.125C64.1458 247.208 63.1539 249.605 62.9886 249.853C66.7083 250.927 70.0975 252.829 73.8999 253.49C67.9483 253.986 61.3353 252.498 55.4664 251.423C50.0107 250.514 41.7446 249.357 38.9341 255.887C43.0672 257.54 46.4563 254.151 49.7627 251.589Z" fill="#50B848"/>
<path d="M34.6355 252.829C33.8915 252.581 32.5689 252.416 31.9903 251.92C31.329 251.424 31.2463 250.68 30.7503 249.936C29.9237 248.696 28.4359 248.034 27.1133 247.291C27.8573 248.117 27.9399 249.026 28.1052 250.101C26.7 248.696 26.204 248.53 24.2202 248.117C24.3855 249.274 24.9641 250.101 25.5427 251.093C22.4842 250.101 20.2524 249.688 17.3592 251.176C19.3431 252.002 21.327 252.416 23.3935 252.911C20.583 253.242 19.0124 253.49 16.6152 255.061C18.0205 256.549 18.7644 257.127 20.831 256.301C22.6495 255.557 23.4762 255.226 25.6254 255.061C23.9721 256.383 22.5669 257.706 21.1616 259.276C24.3854 259.69 26.6173 257.21 28.6838 255.061C28.0225 256.135 27.8572 257.045 27.6093 258.202C28.7665 257.375 30.0064 256.631 30.9984 255.557C32.4863 253.903 32.321 253.242 34.6355 252.829Z" fill="#50B848"/>
<path d="M12.0686 240.76C13.3911 240.843 14.3831 240.926 15.5404 240.264C16.615 239.686 16.9456 238.694 18.3508 238.611C18.0202 239.19 17.6896 239.768 17.3589 240.347C18.8468 239.851 20.5 239.438 21.6573 238.28C22.1532 237.784 22.4012 236.545 22.8146 236.131C23.3105 235.718 24.0545 235.553 24.8811 235.387C23.3932 236.462 23.8065 238.198 24.6332 239.52C25.9557 238.611 26.4517 236.71 26.121 235.222C27.4436 235.635 28.7662 236.049 30.0888 236.462C30.0888 235.883 30.0888 235.47 30.0888 234.891C29.1795 234.809 27.3609 234.065 26.2037 233.734C24.2198 233.238 23.7238 233.486 22.4839 232.081C22.0706 231.585 21.74 231.172 21.3267 230.676C20.4174 229.601 20.7481 230.676 20.5001 229.436C20.1694 228.196 21.0787 228.609 20.3347 227.369C20.0041 226.708 19.4254 226.212 18.6815 225.964C18.5162 226.625 18.3508 227.204 18.1855 227.865C17.5242 226.047 17.2763 225.633 15.7057 224.559C15.7883 225.22 15.7883 225.964 15.871 226.625C14.7964 225.964 13.7218 225.385 12.8125 224.559C12.8125 226.377 14.4658 226.377 14.3831 227.948C15.2924 226.873 17.2763 229.849 18.1029 230.345C20.0041 231.419 20.6654 230.593 21.5746 233.073C20.5 232.907 17.2762 232.825 16.6149 232.163C16.119 231.667 15.623 226.542 13.9698 229.353C13.8045 228.774 13.8045 227.782 13.4739 227.204C13.2259 226.708 12.3993 226.873 12.2339 225.799C12.3166 226.294 12.1512 226.873 12.1512 227.369C11.3246 227.038 10.498 226.79 9.58871 226.46C9.8367 228.361 10.9113 228.857 12.5645 229.353C12.2339 229.353 11.8206 229.601 11.49 229.601C12.3992 230.758 13.7218 231.337 15.0443 231.998C13.5564 231.585 12.4818 231.419 11.3246 230.51C10.4153 229.766 9.9194 228.609 9.01012 227.782C9.09278 228.444 9.17538 229.105 9.25805 229.766C8.51409 228.444 7.6875 228.278 6.28225 227.865C6.77822 228.94 7.19159 230.014 7.68756 231.006C5.86901 229.353 5.37296 229.188 3.05843 228.94C3.5544 229.601 4.05041 230.262 4.54638 230.924C3.47178 230.593 2.31452 230.428 1.23992 230.18C2.06654 231.502 2.97577 231.833 4.29836 232.411C2.89311 232.742 1.48791 232.99 0 233.321C1.57057 234.643 3.88507 233.734 5.86895 233.486C5.62096 233.899 5.4557 234.478 5.20771 234.891C6.86094 234.478 8.01814 233.734 9.58871 233.155C10.9113 232.659 12.6472 232.907 14.1351 232.825C13.0605 233.899 11.6552 232.907 10.8286 234.395C10.994 234.561 11.242 234.726 11.4073 234.809C10.8287 235.222 10.25 235.635 9.58871 235.966C11.8206 235.553 14.0525 235.057 16.119 234.313C17.5242 233.817 17.9375 233.238 19.4254 233.321C20.748 233.321 22.2359 233.651 23.5585 233.899C21.988 235.057 20.8307 233.569 19.0121 233.982C19.2601 234.478 19.5081 234.974 19.8388 235.47C18.5988 234.974 17.6896 234.974 16.367 235.057C16.7803 235.47 17.0282 235.966 17.4416 236.297C15.871 235.635 14.631 236.049 12.9778 236.379C13.3085 237.288 14.1352 237.784 15.1271 237.867C13.7218 238.611 13.1432 239.52 12.0686 240.76Z" fill="#50B848"/>
<path d="M27.6917 245.555C28.105 244.48 28.1877 243.075 29.5929 243.405C29.3449 244.397 29.0969 245.307 28.849 246.299C31.3288 246.712 30.5848 244.645 31.1634 243.323C31.6594 242.331 33.6433 241.504 34.6353 241.091C35.2139 242 32.5687 242.744 31.99 243.901C34.2219 243.819 36.0405 243.488 35.9578 240.926C38.0244 241.752 39.0163 240.926 41.3308 241.174C40.5042 241.422 39.347 241.504 38.6857 242.083C40.2563 243.24 41.4134 242.083 43.1493 241.835C44.8026 241.587 46.3732 242.414 47.6131 241.174C45.8772 240.678 43.0667 240.678 42.1574 239.355C41.9095 239.024 42.0748 238.28 41.7441 237.95C41.3308 237.619 40.8349 238.115 40.4216 237.784C39.7603 237.371 38.8509 236.545 40.2562 235.718C35.7925 235.718 40.3388 239.438 41.4961 240.347C40.4215 240.099 39.1816 240.016 38.1896 239.603C36.9497 239.024 36.7844 238.198 35.7098 237.288C34.5525 236.297 32.2381 235.635 30.8329 235.057C30.2542 237.867 33.5606 239.355 35.5445 240.595C34.8006 240.678 33.0647 241.174 32.4861 240.843C32.3208 240.76 31.8247 239.438 31.5767 239.024C30.3368 237.289 28.601 236.875 26.7824 236.131C27.1957 238.528 28.4357 239.686 30.0062 241.587C28.9316 241.174 27.361 240.182 26.2037 240.099C24.7985 240.099 22.98 241.174 21.5747 241.587C23.3933 242.579 24.3026 243.075 26.3691 243.157C25.2945 244.645 24.7985 245.307 24.5505 247.125C25.7078 246.795 26.9477 246.629 27.6917 245.555Z" fill="#50B848"/>
<path d="M82.0007 243.157C79.6862 244.562 79.025 248.943 78.1157 251.423C77.1238 254.151 74.8092 256.548 74.3959 259.359C73.9 262.252 76.3798 266.798 78.777 268.452C82.1661 270.849 86.7124 272.502 90.6802 273.825C98.2024 276.387 106.469 277.296 114.156 279.28C120.273 280.851 126.142 283 132.342 284.323C136.392 285.149 140.442 285.81 144.493 286.224C147.965 286.637 151.189 287.464 154.66 287.464C156.479 287.464 158.215 287.381 160.033 287.298C161.025 287.298 164.91 288.456 165.489 287.96C167.225 286.637 159.537 283.496 158.38 282.835C154.412 280.52 151.189 276.718 147.221 274.155C142.84 271.345 138.624 268.286 134.077 265.724C130.027 263.492 126.142 261.012 122.092 258.78C116.471 255.722 110.436 253.325 104.815 250.266C101.592 248.53 98.6985 246.298 95.5573 244.48C91.8376 242.496 86.2165 240.595 82.0007 243.157Z" fill="#F37021"/>
<path d="M51.002 202.157C50.5887 201.744 50.0928 201.413 49.6795 201C49.1835 202.901 49.5141 203.232 50.5061 205.05C49.8448 204.306 49.0182 203.81 48.1089 203.315C48.4395 205.546 48.8528 206.704 50.1754 208.605C48.8528 207.2 48.2742 207.2 46.373 206.952C47.0343 207.53 47.6956 208.109 48.3569 208.77C47.8609 208.77 47.2823 208.935 46.7863 208.935C48.8529 210.258 51.4981 211.994 51.9114 214.639C49.5969 212.573 48.4396 210.423 45.3811 209.349C45.8771 210.175 46.373 211.085 46.869 211.911C46.4557 211.829 46.0423 212.077 45.629 211.994C46.7036 213.73 49.1008 214.061 50.9194 214.556C49.9275 214.804 49.0182 215.052 48.0262 215.3C49.1008 216.127 51.1674 216.044 52.0767 216.954C52.986 217.946 52.9033 220.177 52.9033 221.417C51.0847 220.177 51.1674 219.186 50.0928 217.532C49.3488 216.458 47.613 215.796 46.2904 214.97C46.869 214.804 47.4476 214.639 47.9436 214.556C46.621 213.978 45.2984 212.49 43.8932 212.407C44.9678 213.317 44.7198 214.804 45.7944 215.631C45.1331 215.631 44.5545 215.631 43.8932 215.548C44.2238 217.202 46.2077 217.78 47.6129 218.359C45.9597 218.607 44.9677 219.02 43.5625 219.847C44.3891 220.425 45.9598 221.252 46.9517 221.169C48.1916 221.169 48.7703 219.599 49.8449 219.764C50.3408 219.847 51.25 221.5 51.8286 221.996C53.0686 222.988 53.6472 223.236 54.1432 224.972C54.4739 225.881 54.3912 226.956 54.8045 227.865C55.3005 229.022 56.3751 229.932 56.6231 231.171C57.0364 233.238 54.5565 236.958 55.3005 238.363C56.0444 235.47 57.2017 232.99 59.1029 230.593C59.6815 231.833 60.6734 234.395 61.748 235.139C61.748 234.643 61.9134 234.065 61.8308 233.569C62.5747 233.982 63.4013 234.313 64.1452 234.726C63.8972 234.395 63.8973 233.899 63.6493 233.486C65.1372 234.23 65.7985 234.561 67.4517 234.395C65.8811 232.99 64.5585 232.494 62.492 231.998C62.988 231.502 63.484 231.089 63.9799 230.593C62.8227 230.758 61.6654 230.841 60.5081 231.006C63.4839 229.436 65.3026 228.609 65.9638 225.22C64.4759 226.046 63.6493 226.625 62.492 227.948C63.5666 225.054 63.6493 223.484 61.9961 220.756C60.4255 221.417 60.8388 223.401 60.7561 224.806C60.1775 224.145 59.6815 223.484 59.1029 222.823C59.0202 224.807 59.1856 225.633 59.9295 227.452C59.4335 227.369 58.9375 227.534 58.4416 227.452C59.4335 229.518 59.7642 229.436 57.7803 230.593C57.6977 230.014 57.9457 227.038 57.7803 226.708C57.119 225.633 55.8791 226.873 55.2179 227.452C55.0525 225.302 54.8045 225.55 56.7057 225.22C58.5243 224.889 58.359 224.724 58.1936 222.905C57.119 222.988 56.2098 223.236 55.3005 223.897C55.5485 221.5 56.2097 222.161 57.9456 220.839C59.1855 220.012 60.7561 218.194 59.6815 216.623C59.1855 216.954 58.7723 217.284 58.2763 217.615C58.9376 216.127 61.3348 213.647 60.6735 212.159C59.4336 209.183 57.9456 213.895 57.615 214.97C57.5323 213.978 57.0364 213.069 56.1271 212.655C55.6311 214.308 55.4658 214.97 56.0445 216.623C55.4658 216.458 54.8871 216.375 54.2259 216.21C54.5565 217.119 54.8872 218.111 55.2179 219.02C52.1594 219.186 53.8125 216.21 54.2259 214.391C54.8045 212.159 55.7965 210.093 56.4578 207.861C54.6392 208.688 54.7218 209.183 54.1432 211.167C53.9779 210.671 53.7299 210.341 53.5646 209.845C52.9033 211.002 53.482 213.151 52.3247 213.73C52.1594 211.746 52.0767 210.919 52.8206 209.183C53.4819 207.613 53.4819 206.704 53.234 205.133C52.986 205.546 52.5727 205.794 52.4073 206.208C52.5727 205.216 53.3166 203.48 53.0686 202.488C52.8206 201.413 51.994 201 51.002 202.157Z" fill="#50B848"/>
<path d="M41.248 232.742C41.8266 233.073 42.4052 233.321 42.9838 233.651C41.9092 232.164 41.3306 231.998 39.5947 231.337C40.1734 231.833 40.752 232.246 41.248 232.742Z" fill="#50B848"/>
<path d="M37.7757 228.609C37.6104 227.947 37.3624 224.889 35.7092 225.964C34.1386 227.038 37.0318 228.443 37.7757 228.609Z" fill="#50B848"/>
<path d="M30.5845 228.279C31.3284 228.94 32.0724 229.766 32.9817 230.262C33.8083 230.676 34.6349 230.593 35.4615 231.006C34.9656 229.849 33.9736 229.27 33.7256 227.948C34.2216 228.031 34.7175 227.948 35.1309 228.113C34.6349 227.204 32.4856 226.295 31.5764 226.377C31.8244 226.956 32.1551 227.452 32.4857 228.031C31.9071 228.113 31.2458 228.196 30.5845 228.279Z" fill="#50B848"/>
<path d="M37.2808 234.312C35.6275 234.726 34.3876 234.974 32.7344 235.056C33.9743 235.883 35.9582 234.808 37.2808 234.312Z" fill="#50B848"/>
<path d="M38.3549 238.859C37.8589 238.363 37.6109 237.702 37.6109 237.041C37.5283 237.041 36.7843 237.289 36.7017 237.371C37.0323 238.032 37.6109 238.694 38.3549 238.859Z" fill="#50B848"/>
<path d="M20.3345 225.716C22.0704 226.212 23.393 226.708 25.1289 225.881C26.2861 225.303 28.1873 222.657 29.4272 224.063C27.278 225.055 26.7821 226.708 26.5341 229.022C28.3526 228.444 30.4192 227.452 30.5019 225.22C31.9071 225.633 33.3123 225.964 34.8002 226.625C35.1309 225.22 31.5765 224.145 30.5845 223.319C29.0139 222.079 28.518 220.178 27.3607 218.442C29.5926 216.954 30.5845 216.458 29.9232 213.73C28.7659 214.061 28.1046 215.135 27.3607 216.045C27.9393 213.895 28.766 213.069 27.1128 211.498C26.6995 212.077 26.3688 212.738 25.9555 213.317C25.2942 212.242 24.7983 211.25 24.2196 210.093C23.5583 211.085 24.1369 212.738 23.889 213.978C24.1369 213.73 24.4676 213.565 24.7156 213.317C25.1289 215.135 25.5422 216.541 26.4514 218.028C27.1954 219.268 27.9393 220.674 28.6006 222.162C27.3607 221.17 25.4595 220.343 24.3849 219.268C22.7317 217.615 25.0462 216.458 24.2196 214.557C23.7237 214.887 23.2276 215.301 22.7317 215.631C22.9797 214.226 23.7236 212.407 22.897 211.085C22.649 211.581 22.4837 212.159 22.2357 212.655C22.0704 211.416 21.3264 210.424 20.6651 209.349C20.2518 211.085 20.2518 212.242 21.1611 213.895C20.9958 213.73 20.7478 213.647 20.5825 213.482C20.4998 214.805 21.2437 215.962 22.0703 216.954C19.3425 215.466 20.4172 213.482 19.3426 210.92C19.0119 211.333 18.5986 211.746 18.2679 212.159C18.3506 211.085 18.02 210.341 17.3587 209.514C17.1934 210.424 17.1107 211.333 16.9454 212.242C15.7881 211.002 15.6228 209.514 13.9696 208.853C13.8869 209.68 13.8042 210.506 13.6389 211.333C12.9776 210.01 12.2337 209.928 10.9938 209.514C11.1591 210.258 11.4071 211.085 11.5724 211.829C10.6631 211.664 9.75386 211.416 8.92725 211.25C10.0845 213.317 11.2417 213.565 13.5563 214.143C13.0603 214.143 12.5643 214.391 12.0683 214.474C12.7296 216.458 15.2922 215.962 16.7801 215.879C18.6813 215.714 19.5079 216.541 21.0784 217.698C19.9212 218.111 18.3506 217.037 17.1107 216.871C17.6893 218.276 15.7881 218.028 14.7962 218.111C18.268 220.095 25.7074 218.607 27.4433 222.74C26.2034 222.41 23.889 220.012 24.7156 223.236C23.889 222.492 23.0623 221.748 22.3184 221.087C22.2357 221.583 21.9051 222.079 21.8224 222.575C21.4918 221.666 20.7478 219.764 19.2599 220.426C18.4333 220.756 18.9293 222.079 19.3426 222.823C17.6893 222.575 17.0281 222.492 15.5402 223.153C16.5321 223.732 17.6067 224.641 18.8466 224.641C20.4172 224.641 20.7478 223.732 22.1531 224.807C21.4918 225.22 20.9131 225.468 20.3345 225.716Z" fill="#50B848"/>
<path d="M310.394 387.944L309.528 381.88L307.796 377.405L305.919 373.508L302.743 370.765L299.134 368.022L293.504 366.29L287.874 365.423L282.532 366.145L276.614 367.3L268.674 370.909L262.755 374.374L257.125 379.138L251.928 384.768L248.608 390.109L246.298 396.605L244.999 403.102L245.287 409.309L246.442 414.073L248.752 419.126L251.495 422.735L255.826 426.055L260.878 428.509L267.519 429.664L274.015 429.375L278.779 428.509L283.254 426.921L289.75 423.312L294.081 419.992L297.835 416.238L302.599 410.608L306.208 404.69L308.373 399.204L309.961 393.718L310.394 387.944ZM304.187 384.19L302.599 381.447C302.165 380.581 301.588 379.859 301.01 379.138C300.433 378.416 299.856 377.694 299.278 376.828L297.257 374.374C298.412 374.374 299.567 374.662 300.577 375.24C301.588 375.817 302.454 376.683 303.032 377.55C303.753 378.56 304.186 379.571 304.331 380.726C304.62 382.025 304.62 383.18 304.187 384.19Z" fill="#FFC20E"/>
<path d="M126.699 124.909L123.235 120.867L119.914 119.423L113.129 121.011C113.129 121.011 108.077 124.043 107.788 124.043C107.499 124.043 101.436 128.518 101.436 128.518L97.2498 132.127L91.6197 140.5L87 152.193L87.8663 162.443L91.9083 168.362L99.2707 169.95L106.2 167.496L112.985 163.309L119.626 155.658L124.39 148.151L126.411 141.799L127.132 131.117L126.699 124.909ZM102.735 143.676L102.447 147.141L98.8377 148.584L97.8271 152.338L97.1053 148.729L94.9398 147.574C94.9398 147.574 94.9399 143.243 94.7955 142.954C94.7955 142.665 97.1053 139.49 97.1053 139.49L101.581 136.747C101.581 136.747 101.581 133.859 101.581 133.571C101.581 133.282 104.756 134.148 104.756 134.148L106.633 131.983L108.799 127.796C108.799 127.796 105.767 129.962 105.478 129.962C105.19 129.962 103.602 128.951 103.602 128.951C103.602 128.951 106.056 126.641 106.056 126.353C106.056 126.064 109.809 123.899 109.809 123.899L113.707 122.311L117.316 122.022L120.925 121.589C120.925 121.589 119.337 123.321 119.048 123.321C118.76 123.321 116.594 124.909 116.594 124.909C116.594 124.909 113.851 125.053 113.562 125.053C113.274 125.053 112.985 126.641 112.985 126.641C112.985 126.641 110.82 129.529 110.531 129.817C110.242 130.106 110.82 132.56 110.82 132.56L108.654 134.148L107.788 136.314L106.489 138.335C106.489 138.335 104.468 139.49 104.179 139.634C103.89 139.778 105.045 141.366 105.045 141.366L102.735 143.676ZM109.953 152.338L107.211 153.493L106.2 151.038L105.19 148.584V146.13L106.056 143.243L107.499 144.975L109.087 146.13L110.531 149.739L109.953 152.338ZM116.883 149.595C116.883 149.883 115.584 150.461 115.584 150.461C115.584 150.461 114.14 150.172 113.707 150.172C113.129 150.172 114.429 149.017 114.429 149.017L114.573 147.285L116.738 146.996C116.594 147.285 117.027 149.306 116.883 149.595ZM124.245 143.676C124.245 143.965 121.502 143.965 121.502 143.965C121.502 143.965 119.337 145.841 118.904 146.13C118.471 146.419 117.171 144.253 117.171 144.253L117.893 141.944L119.77 140.644L121.358 138.623L124.101 139.923C123.956 139.778 124.245 143.387 124.245 143.676ZM124.967 128.518C124.823 128.807 122.946 130.972 122.946 130.972L121.502 132.849L119.914 134.004L119.048 137.468L117.171 140.211L115.872 142.232L115.006 145.264C115.006 145.264 111.253 145.408 110.964 145.408C110.675 145.408 109.52 142.665 109.52 142.665L111.397 141.366L111.541 139.345L113.418 137.902C113.418 137.902 113.851 136.602 113.851 136.314C113.851 136.025 115.295 136.602 115.295 136.602L117.46 134.437L115.872 131.405L117.46 129.962L118.615 128.951L120.203 129.817L121.935 128.518C121.935 128.518 123.235 124.765 123.235 124.476C123.235 124.187 124.534 125.775 124.534 125.775C124.534 125.775 124.967 128.229 124.967 128.518Z" fill="#F37021"/>
<path d="M103.89 139.779C104.179 139.634 106.2 138.479 106.2 138.479L107.499 136.458L108.365 134.293L110.531 132.705C110.531 132.705 109.953 130.251 110.242 129.962C110.531 129.673 112.696 126.786 112.696 126.786C112.696 126.786 112.985 125.198 113.274 125.198C113.562 125.198 116.305 125.054 116.305 125.054C116.305 125.054 118.471 123.466 118.759 123.466C119.048 123.466 120.636 121.733 120.636 121.733L117.027 122.166L113.418 122.455L109.52 124.043C109.52 124.043 105.767 126.209 105.767 126.497C105.767 126.786 103.313 129.096 103.313 129.096C103.313 129.096 104.901 130.106 105.19 130.106C105.478 130.106 108.51 127.941 108.51 127.941L106.344 132.127L104.468 134.293C104.468 134.293 101.292 133.427 101.292 133.715C101.292 134.004 101.292 136.891 101.292 136.891L96.8166 139.634C96.8166 139.634 94.5068 142.81 94.5068 143.099C94.5068 143.388 94.6512 147.718 94.6512 147.718L96.8166 148.873L97.5384 152.482L98.5488 148.729L102.158 147.285L102.447 143.821L104.468 141.511C104.756 141.511 103.602 139.923 103.89 139.779Z" fill="#FFC20E"/>
<path d="M107.499 145.12L105.911 143.387L105.189 146.274V148.584L106.2 151.183L107.21 153.492L109.953 152.338L110.531 149.739L109.087 146.274L107.499 145.12Z" fill="#FFC20E"/>
<path d="M123.09 124.187C123.09 124.476 121.791 128.229 121.791 128.229L120.059 129.529L118.471 128.663L117.316 129.673L115.728 131.117L117.316 134.148L115.15 136.314C115.15 136.314 113.707 135.736 113.707 136.025C113.707 136.314 113.274 137.613 113.274 137.613L111.397 139.057L111.253 141.078L109.376 142.377C109.376 142.377 110.531 145.12 110.82 145.12C111.108 145.12 114.862 144.975 114.862 144.975L115.728 141.944L117.027 139.923L118.904 137.18L119.77 133.715L121.358 132.56L122.802 130.684C122.802 130.684 124.678 128.663 124.823 128.229C124.967 127.796 124.245 125.198 124.245 125.198C124.245 125.198 123.09 123.899 123.09 124.187Z" fill="#FFC20E"/>
<path d="M114.429 147.43L114.284 149.162C114.284 149.162 113.129 150.317 113.563 150.317C114.14 150.317 115.439 150.605 115.439 150.605C115.439 150.605 116.739 150.028 116.739 149.739C116.739 149.451 116.45 147.285 116.45 147.285L114.429 147.43Z" fill="#FFC20E"/>
<path d="M121.214 138.479L119.626 140.5L117.749 141.799L117.027 144.109C117.027 144.109 118.327 146.13 118.76 145.986C119.193 145.697 121.358 143.82 121.358 143.82C121.358 143.82 124.101 143.82 124.101 143.532C124.101 143.243 123.812 139.778 123.812 139.778L121.214 138.479Z" fill="#FFC20E"/>
<path d="M364.493 456.758C360.061 447.442 351.921 439.755 343.148 437.041C335.369 434.599 325.782 437.041 322.707 437.855C322.707 438.036 322.617 438.217 322.617 438.308L322.526 442.558L322.436 446.809C322.888 447.804 323.34 448.799 323.792 449.884C324.154 449.342 324.606 448.89 324.968 448.347C325.149 446.99 325.33 445.634 325.511 444.277C325.511 443.192 325.601 442.106 325.601 440.93L325.692 438.579L326.506 440.84L327.32 443.101L328.134 445.362V445.453V445.543V445.814C329.038 445 329.852 444.096 330.757 443.282C330.937 443.101 331.118 442.83 331.209 442.649C331.299 442.378 331.209 442.197 331.028 441.925C330.757 441.473 330.124 441.202 329.581 440.93C328.948 440.659 328.405 440.207 327.953 439.845C327.41 439.393 326.958 439.031 326.506 438.579L325.511 437.674L326.867 437.855C327.772 438.036 328.676 438.127 329.581 438.398C330.033 438.488 330.485 438.579 330.938 438.76C331.118 438.85 331.39 438.941 331.661 439.031C331.842 439.122 332.204 439.302 332.294 439.483C333.018 440.116 333.651 440.84 334.103 441.744C334.555 442.649 334.465 443.825 334.194 444.639C334.013 445.091 333.832 445.453 333.651 445.905C333.38 446.357 333.108 446.719 332.837 447.081C332.294 447.804 331.751 448.528 331.118 449.251C330.033 450.608 328.857 451.965 327.862 453.412C327.862 453.502 327.862 453.502 327.862 453.593C328.315 453.05 328.857 452.507 329.309 451.965C329.943 451.332 330.485 450.698 331.118 450.065C331.932 449.523 332.746 448.98 333.56 448.528C334.374 447.985 335.188 447.533 336.093 447.081C335.369 447.714 334.646 448.347 333.922 448.98C333.199 449.613 332.475 450.156 331.661 450.699C331.118 451.332 330.485 451.965 329.943 452.598C329.4 453.231 328.767 453.864 328.224 454.407C327.862 455.221 327.41 456.035 326.958 456.849C326.596 457.663 326.144 458.386 325.692 459.11C326.234 459.019 326.867 458.929 327.501 458.929C327.862 458.929 328.315 458.929 328.586 459.11C328.948 459.291 329.219 459.472 329.49 459.743C329.219 459.472 328.857 459.291 328.586 459.2C328.224 459.11 327.862 459.11 327.501 459.11C326.777 459.2 326.053 459.381 325.33 459.562C324.606 459.743 323.973 460.014 323.25 460.286C322.617 460.647 321.983 461.009 321.35 461.461C320.717 461.914 320.174 462.366 319.451 462.728C318.727 463.089 318.004 463.27 317.19 463.27C316.828 464.084 316.466 464.898 316.014 465.622C315.562 466.436 315.11 467.25 314.657 468.064C314.567 468.607 314.476 469.059 314.476 469.601C314.386 470.144 314.296 470.687 314.205 471.229C314.024 472.315 313.753 473.4 313.391 474.486C313.301 473.4 313.391 472.224 313.482 471.139C313.482 470.596 313.572 470.054 313.663 469.511C313.753 468.968 313.753 468.426 313.843 467.883V467.793L313.934 467.702C314.476 466.888 315.019 466.074 315.562 465.351C316.105 464.627 316.647 463.994 317.19 463.361C316.828 463.27 316.376 463.18 316.014 462.999L315.019 462.366L313.12 461.19H313.029L312.939 461.1C312.848 461.009 312.668 460.828 312.577 460.738C311.854 460.647 311.221 460.647 310.587 460.647C309.683 460.738 308.778 460.828 307.874 460.919C306.97 461.009 306.065 461.19 305.161 461.371C304.256 461.552 303.352 461.642 302.447 461.733C304.075 460.919 305.884 460.376 307.784 460.014C308.688 459.924 309.683 459.833 310.587 459.924C311.13 460.014 311.673 460.105 312.215 460.286C311.582 459.743 310.949 459.2 310.316 458.748C309.321 458.115 308.145 457.753 306.97 457.211C306.427 456.939 305.794 456.577 305.342 456.125C304.799 455.673 304.528 454.859 304.437 454.226C304.256 452.96 304.437 451.784 304.618 450.608L303.442 449.613L301.181 447.171C301.091 446.99 301 446.9 301 446.719L298.739 448.347L297.111 450.699C297.473 450.699 297.744 450.608 298.106 450.608C298.558 450.608 299.01 450.608 299.463 450.518C300.367 450.518 301.272 450.518 302.176 450.699C301.272 450.97 300.367 451.151 299.463 451.332C299.01 451.422 298.558 451.513 298.106 451.513C297.654 451.603 297.201 451.603 296.749 451.603C296.478 451.693 296.116 451.784 295.845 451.874L290.509 455.311C290.509 455.311 282.821 467.883 283.002 473.4C283.273 478.917 284.449 485.52 285.805 488.052C287.072 490.585 295.483 505.599 300.277 507.769C305.07 509.849 312.125 515.186 324.878 513.829C337.54 512.472 345.137 511.568 351.288 505.508C357.347 499.448 364.312 494.112 366.935 486.153C369.557 477.922 369.015 466.074 364.493 456.758Z" fill="#ED1A3B"/>
<path d="M299.179 325.536C298.23 325.22 296.543 325.009 295.805 324.376C294.961 323.743 294.856 322.794 294.223 321.845C293.169 320.264 291.271 319.42 289.584 318.471C290.533 319.526 290.638 320.685 290.849 322.056C289.056 320.264 288.424 320.053 285.893 319.526C286.104 321.002 286.842 322.056 287.58 323.322C283.679 322.056 280.832 321.529 277.141 323.427C279.672 324.481 282.203 325.009 284.839 325.641C281.254 326.063 279.25 326.379 276.192 328.383C277.985 330.281 278.934 331.019 281.57 329.964C283.89 329.015 284.944 328.594 287.686 328.383C285.577 330.07 283.784 331.757 281.992 333.76C286.104 334.288 288.951 331.124 291.587 328.383C290.743 329.754 290.533 330.913 290.216 332.39C291.693 331.335 293.274 330.386 294.539 329.015C296.437 326.907 296.227 326.063 299.179 325.536Z" fill="#50B848"/>
<path d="M270.393 310.141C272.08 310.247 273.346 310.352 274.822 309.509C276.193 308.771 276.614 307.505 278.407 307.4C277.985 308.138 277.563 308.876 277.142 309.614C279.039 308.982 281.148 308.454 282.624 306.978C283.257 306.345 283.574 304.764 284.101 304.237C284.733 303.709 285.682 303.498 286.737 303.288C284.839 304.658 285.366 306.873 286.421 308.56C288.108 307.4 288.74 304.975 288.318 303.077C290.006 303.604 291.693 304.131 293.38 304.658C293.38 303.92 293.38 303.393 293.38 302.655C292.22 302.55 289.9 301.601 288.424 301.179C285.893 300.546 285.261 300.862 283.679 299.07C283.152 298.437 282.73 297.91 282.203 297.277C281.043 295.907 281.465 297.277 281.148 295.696C280.727 294.114 281.886 294.641 280.937 293.06C280.516 292.216 279.778 291.583 278.829 291.267C278.618 292.111 278.407 292.849 278.196 293.692C277.352 291.373 277.036 290.845 275.033 289.475C275.138 290.318 275.138 291.267 275.244 292.111C273.873 291.267 272.502 290.529 271.342 289.475C271.342 291.794 273.451 291.794 273.346 293.798C274.505 292.427 277.036 296.223 278.091 296.856C280.516 298.226 281.359 297.172 282.519 300.335C281.148 300.124 277.036 300.019 276.193 299.175C275.56 298.543 274.927 292.005 272.818 295.59C272.608 294.852 272.608 293.587 272.186 292.849C271.869 292.216 270.815 292.427 270.604 291.056C270.71 291.689 270.499 292.427 270.499 293.06C269.444 292.638 268.39 292.322 267.23 291.9C267.546 294.325 268.917 294.958 271.026 295.59C270.604 295.59 270.077 295.907 269.655 295.907C270.815 297.383 272.502 298.121 274.189 298.964C272.291 298.437 270.92 298.226 269.444 297.066C268.284 296.118 267.652 294.641 266.492 293.587C266.597 294.43 266.703 295.274 266.808 296.117C265.859 294.43 264.805 294.22 263.012 293.692C263.645 295.063 264.172 296.434 264.805 297.699C262.485 295.59 261.852 295.379 258.9 295.063C259.533 295.907 260.165 296.75 260.798 297.594C259.427 297.172 257.951 296.961 256.58 296.645C257.635 298.332 258.794 298.754 260.482 299.492C258.689 299.913 256.897 300.23 254.999 300.652C257.002 302.339 259.954 301.179 262.485 300.862C262.169 301.39 261.958 302.128 261.641 302.655C263.75 302.128 265.226 301.179 267.23 300.441C268.917 299.808 271.131 300.124 273.029 300.019C271.658 301.39 269.866 300.124 268.812 302.022C269.022 302.233 269.339 302.444 269.55 302.55C268.812 303.077 268.073 303.604 267.23 304.026C270.077 303.498 272.924 302.866 275.56 301.917C277.352 301.284 277.88 300.546 279.778 300.652C281.465 300.652 283.363 301.073 285.05 301.39C283.046 302.866 281.57 300.968 279.25 301.495C279.567 302.128 279.883 302.76 280.305 303.393C278.723 302.76 277.563 302.76 275.876 302.866C276.403 303.393 276.72 304.026 277.247 304.447C275.244 303.604 273.662 304.131 271.553 304.553C271.975 305.713 273.029 306.345 274.295 306.451C272.502 307.4 271.764 308.56 270.393 310.141Z" fill="#50B848"/>
<path d="M290.322 316.257C290.849 314.886 290.955 313.094 292.747 313.515C292.431 314.781 292.114 315.941 291.798 317.206C294.961 317.733 294.012 315.097 294.75 313.41C295.383 312.145 297.914 311.09 299.179 310.563C299.917 311.723 296.543 312.672 295.805 314.148C298.652 314.043 300.972 313.621 300.866 310.352C303.502 311.407 304.767 310.352 307.72 310.668C306.665 310.985 305.189 311.09 304.346 311.828C306.349 313.305 307.825 311.828 310.04 311.512C312.148 311.196 314.152 312.25 315.734 310.668C313.519 310.036 309.934 310.036 308.774 308.349C308.458 307.927 308.669 306.978 308.247 306.556C307.72 306.134 307.087 306.767 306.56 306.345C305.717 305.818 304.557 304.764 306.349 303.709C300.655 303.709 306.455 308.454 307.931 309.614C306.56 309.298 304.978 309.192 303.713 308.665C302.131 307.927 301.92 306.873 300.55 305.713C299.074 304.447 296.121 303.604 294.329 302.866C293.591 306.451 297.808 308.349 300.339 309.93C299.39 310.036 297.176 310.668 296.438 310.247C296.227 310.141 295.594 308.454 295.278 307.927C293.696 305.713 291.482 305.185 289.162 304.236C289.689 307.294 291.271 308.771 293.274 311.196C291.904 310.668 289.9 309.403 288.424 309.298C286.631 309.298 284.312 310.668 282.519 311.196C284.839 312.461 285.999 313.094 288.635 313.199C287.264 315.097 286.631 315.941 286.315 318.26C287.791 317.839 289.373 317.628 290.322 316.257Z" fill="#50B848"/>
<path d="M280.938 290.951C283.152 291.583 284.839 292.216 287.053 291.162C288.53 290.424 290.955 287.049 292.536 288.842C289.795 290.107 289.162 292.216 288.846 295.168C291.166 294.43 293.802 293.165 293.907 290.318C295.7 290.845 297.492 291.267 299.39 292.111C299.812 290.318 295.278 288.947 294.013 287.893C292.009 286.311 291.377 283.886 289.9 281.672C292.747 279.774 294.013 279.141 293.169 275.662C291.693 276.083 290.849 277.454 289.9 278.614C290.638 275.872 291.693 274.818 289.584 272.815C289.057 273.553 288.635 274.396 288.108 275.134C287.264 273.764 286.632 272.498 285.894 271.022C285.05 272.287 285.788 274.396 285.472 275.978C285.788 275.662 286.21 275.451 286.526 275.134C287.053 277.454 287.581 279.247 288.741 281.145C289.69 282.726 290.638 284.519 291.482 286.417C289.9 285.151 287.475 284.097 286.104 282.726C283.996 280.617 286.948 279.141 285.894 276.716C285.261 277.138 284.628 277.665 283.996 278.087C284.312 276.294 285.261 273.974 284.206 272.287C283.89 272.92 283.679 273.658 283.363 274.291C283.152 272.709 282.203 271.444 281.36 270.073C280.832 272.287 280.832 273.764 281.992 275.872C281.781 275.662 281.465 275.556 281.254 275.345C281.149 277.032 282.098 278.508 283.152 279.774C279.672 277.876 281.043 275.345 279.672 272.076C279.251 272.604 278.723 273.131 278.302 273.658C278.407 272.287 277.985 271.338 277.142 270.284C276.931 271.444 276.826 272.604 276.615 273.764C275.138 272.182 274.928 270.284 272.819 269.44C272.713 270.495 272.608 271.549 272.397 272.604C271.553 270.917 270.604 270.811 269.023 270.284C269.234 271.233 269.55 272.287 269.761 273.236C268.601 273.025 267.441 272.709 266.387 272.498C267.863 275.134 269.339 275.451 272.291 276.189C271.659 276.189 271.026 276.505 270.393 276.611C271.237 279.141 274.506 278.509 276.404 278.403C278.829 278.192 279.883 279.247 281.887 280.723C280.411 281.25 278.407 279.879 276.825 279.668C277.564 281.461 275.138 281.145 273.873 281.25C278.302 283.781 287.792 281.883 290.006 287.155C288.424 286.733 285.472 283.675 286.526 287.787C285.472 286.838 284.417 285.889 283.468 285.046C283.363 285.679 282.941 286.311 282.836 286.944C282.414 285.784 281.465 283.359 279.567 284.202C278.513 284.624 279.145 286.311 279.672 287.26C277.564 286.944 276.72 286.838 274.822 287.682C276.087 288.42 277.458 289.58 279.04 289.58C281.043 289.58 281.465 288.42 283.258 289.791C282.414 290.318 281.676 290.634 280.938 290.951Z" fill="#50B848"/>
<path d="M158.161 50.2144C158.449 50.6474 159.46 52.5241 160.037 53.2459C158.449 53.8234 156.861 54.4008 155.273 54.9783C156.284 53.3903 157.15 51.8023 158.161 50.2144Z" fill="#FFC20E"/>
<path d="M175.195 35.9229C175.34 35.2011 175.773 32.3138 176.35 32.0251C176.928 31.7364 179.67 33.0356 179.815 33.18C179.959 33.3244 180.104 36.2116 180.392 36.789C181.114 38.9544 181.98 38.8101 183.135 40.2537C183.713 41.1199 185.156 40.9755 184.146 42.2747C183.713 42.7078 181.114 42.5635 180.681 42.4191C177.216 41.4086 176.206 38.6657 175.195 35.9229Z" fill="#FFC20E"/>
<path d="M161.192 50.9363C159.027 46.4612 158.161 45.3063 161.481 41.2642C161.337 47.183 164.08 50.0702 168.266 54.1123C167.977 54.6897 164.513 54.401 163.935 54.2566C162.925 53.6792 161.914 51.8025 161.192 50.9363Z" fill="#FFC20E"/>
<path d="M185.156 38.954C178.66 36.2112 183.568 26.1059 189.776 29.5706C196.272 33.3239 188.909 44.151 185.156 38.954Z" fill="#FFC20E"/>
<path d="M175.773 47.1829C171.731 42.8521 163.358 33.7574 173.896 31.3032C172.886 34.9122 171.875 37.3664 174.329 40.831C175.628 42.7077 179.238 45.7393 181.692 45.0175C179.238 47.7604 179.67 48.3378 175.773 47.1829Z" fill="#FFC20E"/>
<path d="M158.161 32.4578C160.038 33.1796 161.77 33.757 163.647 34.4788C160.471 37.0773 158.45 40.8307 154.985 42.2743C151.809 43.5735 148.633 43.7179 145.313 43.7179C143.003 43.7179 138.961 44.2953 136.94 43.4292C135.352 42.7074 131.021 38.6653 130.444 37.0773C129.289 33.6126 130.443 31.0141 133.186 29.7149C135.785 28.56 139.683 26.6833 142.57 26.3946C147.911 25.8172 153.974 29.2818 158.161 32.4578Z" fill="#00ABE6"/>
<path d="M166.39 27.4053C166.39 28.4158 166.967 32.891 166.245 33.4685C159.749 31.1587 151.52 26.8279 155.274 18.1662C156.862 14.2685 160.615 14.9903 163.358 17.4444C166.967 20.3316 166.534 23.2188 166.39 27.4053Z" fill="#00ABE6"/>
<path d="M166.534 49.2039C163.791 45.0175 161.77 40.2536 166.1 36.6445C168.555 42.5633 171.297 48.3378 177.649 50.2145C176.35 51.6581 174.329 53.1017 172.308 53.1017C169.71 53.246 168.555 51.0806 166.534 49.2039Z" fill="#FFC20E"/>
<path d="M274.76 144.764C274.904 139.423 274.615 134.804 278.802 131.05C283.277 127.008 288.763 127.874 293.238 131.05C297.28 133.937 300.889 138.701 303.054 143.321C304.065 145.631 304.642 148.374 305.364 150.828C305.797 152.271 306.23 157.468 306.952 158.19C309.695 161.077 319.078 155.88 321.821 154.148C328.029 149.961 328.173 143.177 329.328 136.392C329.905 132.927 331.638 125.131 336.546 128.596C339.289 130.473 343.331 140.001 347.951 135.381C352.57 130.906 349.25 122.966 346.796 118.491C345.641 116.325 344.775 113.149 343.187 111.417C340.733 108.674 336.113 107.664 332.793 106.509C333.082 106.798 333.37 107.086 333.659 107.375C328.173 106.509 324.709 104.199 318.79 104.632C319.945 105.21 320.955 105.787 322.11 106.509C314.314 106.365 307.385 102.755 300.312 108.819C300.889 108.819 301.467 108.963 302.188 108.963C296.125 110.695 291.072 111.995 286.453 116.037C287.896 115.892 289.196 115.892 290.639 115.748C283.277 118.635 277.647 119.79 274.182 127.586C271.295 134.226 273.172 140.145 275.337 146.641C275.048 146.064 274.904 145.342 274.76 144.764ZM346.363 119.79C346.651 121.234 346.94 122.677 347.229 124.121C344.63 120.801 343.908 118.78 342.754 114.593C343.908 116.325 345.208 118.058 346.363 119.79ZM334.67 116.325C336.691 119.934 337.99 122.966 339.289 126.864C335.68 122.1 332.793 117.192 328.751 112.716C330.772 113.871 332.648 115.026 334.67 116.325ZM316.047 116.181C316.769 117.192 317.491 118.202 318.357 119.068C315.469 117.769 313.448 116.614 310.994 114.593C312.582 115.171 314.314 115.604 316.047 116.181ZM305.797 124.265C308.829 129.462 311.139 133.793 312.871 139.423C308.54 132.927 304.642 126.431 300.6 119.79C302.333 121.234 304.065 122.822 305.797 124.265Z" fill="#FFC20E"/>
<path d="M298.724 166.275C301.755 164.687 304.643 163.82 305.076 160.067C305.365 157.035 303.632 152.993 302.766 150.25C301.034 144.332 298.146 138.557 293.382 134.515C288.041 129.896 279.957 130.473 277.358 137.98C275.482 143.321 277.214 151.261 280.245 155.881C282.122 158.768 284.721 162.666 287.752 164.542C290.784 166.13 295.259 166.13 298.724 166.275Z" fill="#F37021"/>
</g>
</svg>
