<svg xmlns="http://www.w3.org/2000/svg" xmlns:xlink="http://www.w3.org/1999/xlink" width="30" height="30" viewBox="0 0 30 30">
  <defs>
    <clipPath id="clip-path">
      <rect id="Retângulo_68" data-name="Retângulo 68" width="30" height="30" transform="translate(1378 6554)" fill="#fff" stroke="#707070" stroke-width="1"/>
    </clipPath>
  </defs>
  <g id="ic-instagram" transform="translate(-1378 -6554)" clip-path="url(#clip-path)">
    <g id="_ionicons_svg_logo-instagram" transform="translate(1373 6549)">
      <path id="Caminho_169" data-name="Caminho 169" d="M26.25,7.5a6.268,6.268,0,0,1,6.25,6.25v12.5a6.268,6.268,0,0,1-6.25,6.25H13.75A6.268,6.268,0,0,1,7.5,26.25V13.75A6.268,6.268,0,0,1,13.75,7.5h12.5m0-2.5H13.75A8.776,8.776,0,0,0,5,13.75v12.5A8.776,8.776,0,0,0,13.75,35h12.5A8.776,8.776,0,0,0,35,26.25V13.75A8.776,8.776,0,0,0,26.25,5Z" fill="#fff"/>
      <path id="Caminho_170" data-name="Caminho 170" d="M28.125,13.75A1.875,1.875,0,1,1,30,11.875,1.871,1.871,0,0,1,28.125,13.75ZM20,15a5,5,0,1,1-5,5,5,5,0,0,1,5-5m0-2.5A7.5,7.5,0,1,0,27.5,20,7.5,7.5,0,0,0,20,12.5Z" fill="#fff"/>
    </g>
  </g>
</svg>
