<svg xmlns="http://www.w3.org/2000/svg" xmlns:xlink="http://www.w3.org/1999/xlink" width="30" height="30" viewBox="0 0 30 30">
  <defs>
    <clipPath id="clip-path">
      <rect id="Retângulo_69" data-name="Retângulo 69" width="30" height="30" transform="translate(1378 6612)" fill="#fff" stroke="#707070" stroke-width="1"/>
    </clipPath>
  </defs>
  <g id="ic-linkedin" transform="translate(-1378 -6612)" clip-path="url(#clip-path)">
    <path id="_ionicons_svg_logo-linkedin" d="M32.6,5H7.564A2.447,2.447,0,0,0,5,7.338V32.43A2.64,2.64,0,0,0,7.564,35h25.03A2.506,2.506,0,0,0,35,32.43V7.338A2.3,2.3,0,0,0,32.6,5ZM14.3,30.008H10V16.645h4.3Zm-2-15.395h-.031A2.206,2.206,0,0,1,10,12.308,2.22,2.22,0,0,1,12.324,10a2.214,2.214,0,0,1,2.3,2.305A2.219,2.219,0,0,1,12.3,14.613ZM30.008,30.008h-4.3V22.7c0-1.75-.625-2.946-2.18-2.946a2.352,2.352,0,0,0-2.2,1.586,2.894,2.894,0,0,0-.148,1.055v7.611h-4.3V16.645h4.3V18.5a4.351,4.351,0,0,1,3.876-2.172c2.821,0,4.954,1.86,4.954,5.869Z" transform="translate(1372.999 6606.999)" fill="#fff"/>
  </g>
</svg>
