<svg xmlns="http://www.w3.org/2000/svg" xmlns:xlink="http://www.w3.org/1999/xlink" width="124" height="113" viewBox="0 0 124 133">
  <defs>
    <clipPath id="clip-path">
      <rect id="Retângulo_82" data-name="Retângulo 82" width="124" height="133" transform="translate(1302 1792)" fill="#dedede"/>
    </clipPath>
    <linearGradient id="linear-gradient" x1="0.496" y1="-3.722" x2="0.521" y2="23.242" gradientUnits="objectBoundingBox">
      <stop offset="0" stop-color="#010101" stop-opacity="0"/>
      <stop offset="0.95" stop-color="#010101"/>
    </linearGradient>
    <linearGradient id="linear-gradient-2" x1="0.492" y1="0.5" x2="1.492" y2="0.5" gradientUnits="objectBoundingBox">
      <stop offset="0" stop-color="#fff" stop-opacity="0"/>
      <stop offset="0.14" stop-color="#fff" stop-opacity="0.22"/>
      <stop offset="0.3" stop-color="#fff" stop-opacity="0.451"/>
      <stop offset="0.45" stop-color="#fff" stop-opacity="0.651"/>
      <stop offset="0.6" stop-color="#fff" stop-opacity="0.8"/>
      <stop offset="0.73" stop-color="#fff" stop-opacity="0.91"/>
      <stop offset="0.85" stop-color="#fff" stop-opacity="0.98"/>
      <stop offset="0.94" stop-color="#fff"/>
    </linearGradient>
    <linearGradient id="linear-gradient-3" x1="0.156" y1="0.5" x2="1.156" y2="0.5" xlink:href="#linear-gradient-2"/>
    <linearGradient id="linear-gradient-4" x1="0.156" y1="0.5" x2="1.156" y2="0.5" xlink:href="#linear-gradient-2"/>
    <linearGradient id="linear-gradient-5" x1="-0.314" y1="0.749" x2="1.753" y2="0.121" xlink:href="#linear-gradient"/>
    <linearGradient id="linear-gradient-6" x1="0.495" y1="0.115" x2="0.525" y2="2.561" xlink:href="#linear-gradient"/>
    <linearGradient id="linear-gradient-7" x1="-0.435" y1="0.424" x2="4.094" y2="0.74" xlink:href="#linear-gradient"/>
    <linearGradient id="linear-gradient-8" x1="0.198" y1="-0.861" x2="1.607" y2="3.449" xlink:href="#linear-gradient"/>
    <linearGradient id="linear-gradient-9" x1="0.524" y1="-0.733" x2="0.444" y2="3.323" xlink:href="#linear-gradient"/>
    <linearGradient id="linear-gradient-10" x1="0.525" y1="-0.732" x2="0.444" y2="3.324" xlink:href="#linear-gradient"/>
    <linearGradient id="linear-gradient-11" x1="0.418" y1="0.061" x2="0.814" y2="1.567" xlink:href="#linear-gradient"/>
    <linearGradient id="linear-gradient-12" x1="1.039" y1="0.265" x2="-1.383" y2="1.015" xlink:href="#linear-gradient"/>
    <linearGradient id="linear-gradient-13" x1="-0.263" y1="1.292" x2="2.596" y2="-1.735" xlink:href="#linear-gradient"/>
    <linearGradient id="linear-gradient-14" x1="0.156" y1="0.5" x2="1.156" y2="0.5" xlink:href="#linear-gradient-2"/>
  </defs>
  <g id="Grupo_de_máscara_26" data-name="Grupo de máscara 26" transform="translate(-1302 -1792)" clip-path="url(#clip-path)">
    <g id="transfer_money" transform="translate(1302.042 1792)">
      <path id="Caminho_271" data-name="Caminho 271" d="M140.972,84.806c.282,12.988-10.408,23.252-20.287,31.723a.822.822,0,0,1-.107.1l-13.364,11.283a25.435,25.435,0,0,1-5.537,3.671c-8.784,4.334-19.824,3.939-29.93,3.261-8.135-.565-17.382-1.714-22.08-8.392-1.525-2.185-2.4-4.786-4.057-6.875-2.372-3.013-6.057-4.617-9.394-6.494a40.724,40.724,0,0,1-11.7-10c-6.195-7.759-9.346-17.628-6.243-26.824.048-.155.107-.313.167-.472,1.892-5.2,5.562-9.546,8.146-14.44C34.9,45.668,32.471,24.317,45.572,12.311c6.35-5.817,15.165-8.075,23.7-9.2,8.9-1.18,18.071-1.33,26.767.867,17.837,4.47,32.5,19.437,37.048,37.195a44.478,44.478,0,0,1,1.045,5.249c.827,6.017.59,12.184,1.841,18.13.344,1.607.788,3.182,1.282,4.758C138.846,74.427,140.865,79.469,140.972,84.806Z" transform="translate(-17.062 -2.258)" fill="#086c7b" opacity="0.24"/>
      <path id="Caminho_272" data-name="Caminho 272" d="M120.558,67.9H33.327v3.741h88.341Z" transform="translate(0.009 -0.002)" fill="url(#linear-gradient)"/>
      <path id="Caminho_273" data-name="Caminho 273" d="M137.251,69.3l-.246.847H52.016V41.168h81.068a44.478,44.478,0,0,1,1.045,5.249c.827,6.017.59,12.184,1.841,18.13C136.314,66.153,136.757,67.729,137.251,69.3Z" transform="translate(-17.062 -2.258)" fill="url(#linear-gradient-2)"/>
      <rect id="Retângulo_84" data-name="Retângulo 84" width="9.261" height="1.931" transform="translate(73.154 48.25)" fill="url(#linear-gradient-3)"/>
      <rect id="Retângulo_85" data-name="Retângulo 85" width="9.261" height="6.717" transform="translate(73.154 56.364)" fill="url(#linear-gradient-4)"/>
      <path id="Caminho_274" data-name="Caminho 274" d="M60.057,59.295c.906-1.943,1.482-4.035,2.5-5.93,2-3.738,5.647-6.531,7.034-10.54,1.669.669,2.228,2.8,2.044,4.585s-.878,3.527-.793,5.322a25.5,25.5,0,0,1,16.831-5.814,5.927,5.927,0,0,1,4.105,1.321,6.538,6.538,0,0,1,1.364,2.733c.791,2.5,1.59,5.142,1.07,7.714a8.538,8.538,0,0,0-.376,2.394c.1,1.1.847,2.236.384,3.241a11.876,11.876,0,0,0-.638,1.053c-.248.72.237,1.471.339,2.225.209,1.516-1.129,2.79-2.459,3.541-3.953,2.225-8.646,2.64-12.926,4.145-13.779,4.84-19,1.957-19.161,1.463-1.081-3.326-3.306-7.508-3.546-10.984C55.661,63.4,59.038,61.48,60.057,59.295Z" transform="translate(-17.062 -2.258)" fill="#feba7b"/>
      <path id="Caminho_275" data-name="Caminho 275" d="M67.215,69.8c-.678,1.107.9,2.42,1.581,3.524a2.64,2.64,0,0,0,3.01,1.643,8.119,8.119,0,0,0,3.4-.644c1.6-.822,2.465-2.578,3.134-4.249,1.977-4.924,3.174-10.447,1.553-15.51a5.266,5.266,0,0,0-2.7-3.515,5.8,5.8,0,0,0-4.3.528c-.791.339-2.3.743-2.742,1.533C69.762,53.809,71.843,62.246,67.215,69.8Z" transform="translate(-17.062 -2.259)" fill="url(#linear-gradient-5)"/>
      <path id="Caminho_276" data-name="Caminho 276" d="M60.52,81.517a1.9,1.9,0,0,1-.827.728c-6.124,3.645-23.585,11.69-29.021,16.289a33.077,33.077,0,0,1-6.147,4.54q-.847-1.062-1.624-2.185a.223.223,0,0,0-.031-.04c-5.082-7.367-7.406-16.261-4.588-24.593,1.841-.175,5.523-2.824,6.943-3.484,5.218-2.4,22.236-8.313,27.753-9.947a2.059,2.059,0,0,1,1.465-.068,2.177,2.177,0,0,1,.8.915A42.368,42.368,0,0,1,60.069,76.8c.237,1.211.412,2.442.542,3.671a1.9,1.9,0,0,1-.09,1.045Z" transform="translate(-17.062 -2.259)" fill="#086c7b"/>
      <rect id="Retângulo_86" data-name="Retângulo 86" width="21.86" height="39.541" rx="2.982" transform="translate(53.163 35.628)" fill="#086c7b"/>
      <rect id="Retângulo_87" data-name="Retângulo 87" width="19.652" height="32.962" transform="translate(54.264 38.127)" fill="#fff"/>
      <circle id="Elipse_28" data-name="Elipse 28" cx="6.412" cy="6.412" r="6.412" transform="translate(57.277 40.716)" fill="#086c7b" opacity="0.16"/>
      <rect id="Retângulo_88" data-name="Retângulo 88" width="13.776" height="4.393" rx="1.028" transform="translate(56.625 62.065)" fill="#086c7b"/>
      <path id="Caminho_277" data-name="Caminho 277" d="M75.691,67.057a1.978,1.978,0,0,0,.014.282h-.4a1.959,1.959,0,0,0,.014-.282v-.918h-.494v-.347a2.207,2.207,0,0,0,.282,0h.8a2.455,2.455,0,0,0,.282,0v.347a2.525,2.525,0,0,0-.282,0H75.7Z" transform="translate(-17.062 -2.259)" fill="#fff"/>
      <path id="Caminho_278" data-name="Caminho 278" d="M77.242,67.331a1.871,1.871,0,0,0-.09-.282c-.056-.161-.079-.2-.124-.24a.2.2,0,0,0-.141-.051H76.7v.3a1.841,1.841,0,0,0,.014.282h-.392a1.671,1.671,0,0,0,.017-.282v-.985a1.862,1.862,0,0,0-.017-.268h.757a.41.41,0,0,1,.466.415.4.4,0,0,1-.107.3.46.46,0,0,1-.172.09c.093.028.136.071.192.2.028.056.054.119.136.316.02.051.042.1.088.192Zm-.26-.884a.161.161,0,0,0,.175-.169c0-.1-.059-.155-.172-.155H76.7v.325Z" transform="translate(-17.062 -2.259)" fill="#fff"/>
      <path id="Caminho_279" data-name="Caminho 279" d="M78.851,67.331a1.5,1.5,0,0,0-.042-.195l-.051-.155h-.52l-.048.155a1.02,1.02,0,0,0-.045.195h-.426a1.5,1.5,0,0,0,.088-.22l.392-1.1a.994.994,0,0,0,.059-.195h.474a1.729,1.729,0,0,0,.062.195l.4,1.1c.034.1.065.169.088.22Zm-.356-1.2-.169.545h.344Z" transform="translate(-17.062 -2.259)" fill="#fff"/>
      <path id="Caminho_280" data-name="Caminho 280" d="M80.274,66.56a2.205,2.205,0,0,1,.13.217v-.683a1.851,1.851,0,0,0-.017-.282h.39a1.927,1.927,0,0,0-.014.282v.966a2.38,2.38,0,0,0,.014.282h-.4a1.89,1.89,0,0,0-.136-.232L79.9,66.6a2.119,2.119,0,0,1-.133-.223,2.122,2.122,0,0,1,.014.282v.409a1.942,1.942,0,0,0,0,.282H79.4a1.825,1.825,0,0,0,0-.282v-.957a1.942,1.942,0,0,0,0-.282h.4a1.13,1.13,0,0,0,.127.226Z" transform="translate(-17.062 -2.259)" fill="#fff"/>
      <path id="Caminho_281" data-name="Caminho 281" d="M81.319,66.837a.24.24,0,0,0,.045.136.265.265,0,0,0,.215.088c.138,0,.223-.062.223-.167a.136.136,0,0,0-.076-.127,1.59,1.59,0,0,0-.282-.073.76.76,0,0,1-.282-.1.418.418,0,0,1-.175-.35c0-.282.226-.457.584-.457a.593.593,0,0,1,.505.206.514.514,0,0,1,.09.22l-.384.042c-.023-.119-.088-.169-.226-.169s-.195.062-.195.144a.124.124,0,0,0,.088.116,1.073,1.073,0,0,0,.251.062.869.869,0,0,1,.282.1.409.409,0,0,1,.2.373.466.466,0,0,1-.127.336.672.672,0,0,1-.48.152.867.867,0,0,1-.407-.088.424.424,0,0,1-.195-.234.63.63,0,0,1-.042-.169Z" transform="translate(-17.062 -2.259)" fill="#fff"/>
      <path id="Caminho_282" data-name="Caminho 282" d="M82.765,67.015a2.064,2.064,0,0,0,.014.316h-.392a1.693,1.693,0,0,0,.017-.311v-.949a1.766,1.766,0,0,0,0-.265H83.2a2.054,2.054,0,0,0,.3,0v.347a2.572,2.572,0,0,0-.3-.014h-.418v.3h.342a1.932,1.932,0,0,0,.282,0v.339a2.436,2.436,0,0,0-.282-.014h-.342Z" transform="translate(-17.062 -2.259)" fill="#fff"/>
      <path id="Caminho_283" data-name="Caminho 283" d="M84.781,67.345a1.9,1.9,0,0,0-.3,0h-.833a1.654,1.654,0,0,0,0-.265V66.072a1.858,1.858,0,0,0,0-.265h.85a2.348,2.348,0,0,0,.282,0v.342a2.346,2.346,0,0,0-.282,0h-.474v.268H84.7v.336a2.326,2.326,0,0,0-.282-.014h-.392v.308h.469a2.515,2.515,0,0,0,.3,0Z" transform="translate(-17.062 -2.259)" fill="#fff"/>
      <path id="Caminho_284" data-name="Caminho 284" d="M85.887,67.331a2.118,2.118,0,0,0-.088-.282c-.059-.161-.082-.2-.127-.24a.2.2,0,0,0-.141-.051h-.186v.3a1.841,1.841,0,0,0,.014.282h-.392a1.671,1.671,0,0,0,.017-.282v-.985a1.864,1.864,0,0,0-.017-.268h.754c.3,0,.466.152.466.415a.4.4,0,0,1-.107.3.441.441,0,0,1-.172.09c.093.028.136.071.192.2.028.056.054.119.136.316.02.051.042.1.088.192Zm-.257-.884a.158.158,0,0,0,.172-.169c0-.1-.059-.155-.172-.155h-.282v.325Z" transform="translate(-17.062 -2.259)" fill="#fff"/>
      <rect id="Retângulo_89" data-name="Retângulo 89" width="13.776" height="4.393" rx="1.028" transform="translate(56.625 62.065)" fill="url(#linear-gradient-6)"/>
      <path id="Caminho_285" data-name="Caminho 285" d="M87.3,59.815c.22.342.584.593.709.98.223.7-.452,1.355-.621,2.075-.263,1.129.734,2.194.632,3.335-.073.867-.771,1.669-.565,2.51-.847-1.237-2.979-.709-3.73.593s-.536,2.92-.282,4.4c.282,1.547.788,3.335,2.259,3.88a4.706,4.706,0,0,0,3.408-.551q-.793-2.905-1.446-5.848a7.717,7.717,0,0,1,3.755.918,15.14,15.14,0,0,0,.477-4.585l.014-10.58V51.479c0-1.09.675-1.169-.127-1.849-1.039,1.714-4.221.81-4.382,2.843-.11,1.369.847,2.372.505,3.8C87.669,57.392,86.557,58.654,87.3,59.815Z" transform="translate(-17.062 -2.259)" fill="url(#linear-gradient-7)"/>
      <path id="Caminho_286" data-name="Caminho 286" d="M110.935,106.779a1.463,1.463,0,0,1-.491.4c-1.714,1-3.546,2.047-5.537,2.039-2.922-.02-3.346,2.442-5.337.3-2.629-2.824-7.83-8.649-10.261-11.653a13.633,13.633,0,0,1-3-8.389,7.158,7.158,0,0,1,.257-3.2c.215-.565,1.319-2.866,1.576-3.428a4.276,4.276,0,0,0,.155-.4,6.227,6.227,0,0,0-.234-4.086h0a14.211,14.211,0,0,0-1.129-2.383c-1.231-2.1-2.759-4.165-2.937-6.579a2.551,2.551,0,0,1,.415-1.782,2.127,2.127,0,0,1,2.609-.344,6.077,6.077,0,0,1,1.991,2.01c1.525,2.194,2.953,4.45,4.264,6.777a3.186,3.186,0,0,1,3.21-1.053,5.224,5.224,0,0,1,2.894,1.96,5.461,5.461,0,0,0,1.607,1.711,10.286,10.286,0,0,0,1.821.5c2.185.652,3.151,3.123,4.176,5.161a40.247,40.247,0,0,1,2.259,4.56,16.71,16.71,0,0,1,.737,4.746c.178,4.009-.1,8.1.966,11.966A1.465,1.465,0,0,1,110.935,106.779Z" transform="translate(-17.062 -2.259)" fill="#feba7b"/>
      <path id="Caminho_287" data-name="Caminho 287" d="M94.409,103.738c1.1,1.09,3.476,3.933,4.574,5.023a4.152,4.152,0,0,0,1.694,1.2c.565.158-.127-1.674.446-1.77,2.773-.463,7.274-1.223,9.854-2.338l-.449-2.078c-.875-.466-4.583.257-5.647.311q-2.677.133-5.365.037C98.6,104.088,95.058,104.382,94.409,103.738Z" transform="translate(-17.062 -2.259)" fill="url(#linear-gradient-8)"/>
      <path id="Caminho_288" data-name="Caminho 288" d="M120.685,116.529a.823.823,0,0,1-.107.1l-12.223,10.3-1.129.966a25.434,25.434,0,0,1-5.537,3.671c-3.041-7.779-4.933-22.484-4.933-22.484l1.626-.483,14.77-4.343Z" transform="translate(-17.062 -2.259)" fill="#086c7b"/>
      <rect id="Retângulo_90" data-name="Retângulo 90" width="28.719" height="15.002" transform="translate(82.364 48.218)" fill="#086c7b"/>
      <path id="Caminho_289" data-name="Caminho 289" d="M126.431,55.13v6.009a2.72,2.72,0,0,0-2.31,2.953,1.261,1.261,0,0,0,0,.206H104.063a1.261,1.261,0,0,0,0-.206c0-1.629-1.045-2.953-2.332-2.953a1.976,1.976,0,0,0-.5.073V55.06a1.976,1.976,0,0,0,.5.073c1.288,0,2.321-1.307,2.332-2.939H124.11A2.74,2.74,0,0,0,126.431,55.13Z" transform="translate(-17.062 -2.258)" fill="url(#linear-gradient-9)"/>
      <rect id="Retângulo_91" data-name="Retângulo 91" width="28.719" height="15.002" transform="translate(84.722 43.074)" fill="#086c7b"/>
      <path id="Caminho_290" data-name="Caminho 290" d="M128.786,49.977v6.011a2.718,2.718,0,0,0-2.31,2.953,1.013,1.013,0,0,0,.014.206H106.42a1.263,1.263,0,0,0,0-.206c0-1.632-1.045-2.953-2.332-2.953a1.844,1.844,0,0,0-.5.073v-6.15a1.844,1.844,0,0,0,.5.073c1.288,0,2.321-1.307,2.332-2.939h20.047C126.5,48.664,127.521,49.957,128.786,49.977Z" transform="translate(-17.062 -2.258)" fill="url(#linear-gradient-10)"/>
      <path id="Caminho_291" data-name="Caminho 291" d="M72.583,49.475a8.457,8.457,0,0,0,.127-4.741,5.706,5.706,0,0,0-1.395-2.824,1.07,1.07,0,0,0-.706-.376c-.517,0-.819.565-.994,1.05q-1.1,3.052-2,6.175a9.787,9.787,0,0,0-.52,2.976c.051,1.734,1.005,3.081,2.564,1.714A10.138,10.138,0,0,0,72.583,49.475Z" transform="translate(-17.062 -2.258)" fill="#feba7b"/>
      <path id="Caminho_292" data-name="Caminho 292" d="M89.284,48.65A2.366,2.366,0,0,0,87.627,50.8a2.418,2.418,0,0,0,1.282,1.883,7.178,7.178,0,0,0,2.259.709,4.351,4.351,0,0,0-3.219,2.338,2.5,2.5,0,0,0,.178,2.793,2.589,2.589,0,0,0,.881.565,5.286,5.286,0,0,0,1.77.4,2.713,2.713,0,0,0-2.773,2.428,2.432,2.432,0,0,0,2.6,2.465,2.182,2.182,0,0,0-2.332,1.626,2.784,2.784,0,0,0,1.031,2.767,3.874,3.874,0,0,0,2.953.683,1.872,1.872,0,0,0,1.338-.72,2.327,2.327,0,0,0,.15-1.516c-.666-5.752,1.621-11.509.186-17.179-.189-.74-1.477-1.327-2.2-1.536A4.382,4.382,0,0,0,89.284,48.65Z" transform="translate(-17.062 -2.258)" fill="#feba7b"/>
      <path id="Caminho_293" data-name="Caminho 293" d="M60.52,81.517a1.9,1.9,0,0,1-.827.728c-6.124,3.645-23.585,11.69-29.021,16.289a33.077,33.077,0,0,1-6.147,4.54,14.876,14.876,0,0,1-1.624-2.185.222.222,0,0,0-.031-.04,64.809,64.809,0,0,1-3.162-5.879c6.246.689,39.66-18.221,39.66-18.221a2.282,2.282,0,0,1,.7.04c.237,1.211.412,2.442.542,3.671a1.9,1.9,0,0,1-.09,1.056Z" transform="translate(-17.062 -2.259)" fill="url(#linear-gradient-11)"/>
      <path id="Caminho_294" data-name="Caminho 294" d="M108.355,126.928l-1.129.966a25.434,25.434,0,0,1-5.537,3.671c-3.041-7.779-4.933-22.484-4.933-22.484l1.626-.483a18.562,18.562,0,0,1,2.075-.333c1.223,2.708,2.434,5.416,3.408,8.234.582,1.694,1.084,3.405,1.734,5.082a29.642,29.642,0,0,0,2.493,4.518,1.977,1.977,0,0,1,.263.83Z" transform="translate(-17.062 -2.259)" fill="url(#linear-gradient-12)"/>
      <path id="Caminho_295" data-name="Caminho 295" d="M91.543,88.875a.985.985,0,0,1-.186.689c-.325.333-.875.088-1.259-.178a4.2,4.2,0,0,1-2.07-2.355,4.413,4.413,0,0,1,.071-1.525c.127-.847.206-1.725.254-2.6a1.815,1.815,0,0,0-.059-.455,6.227,6.227,0,0,0-.234-4.086c1.073,2.087,2.273,5.229,2.5,5.8A13.209,13.209,0,0,1,91.543,88.875Z" transform="translate(-17.062 -2.259)" fill="url(#linear-gradient-13)"/>
      <path id="Caminho_296" data-name="Caminho 296" d="M61.528,57.172H64.8l-.6-.872h.745l1.177,1.44H61.6Z" transform="translate(0.009 -0.002)" fill="#086c7b"/>
      <path id="Caminho_297" data-name="Caminho 297" d="M66.122,58.767h-3.27l.6.872h-.745l-1.18-1.44h4.523Z" transform="translate(0.009 -0.002)" fill="#086c7b"/>
      <path id="Caminho_298" data-name="Caminho 298" d="M80.554,53.507v-.988a2.84,2.84,0,0,1-1.508-.435l.237-.658a2.637,2.637,0,0,0,1.412.424c.7,0,1.175-.407,1.175-.966s-.384-.878-1.129-1.175c-1.005-.4-1.626-.847-1.626-1.694A1.6,1.6,0,0,1,80.6,46.428v-1h.613v.957a2.646,2.646,0,0,1,1.282.344l-.248.652a2.369,2.369,0,0,0-1.24-.336c-.76,0-1.045.455-1.045.847,0,.514.364.768,1.22,1.129,1.016.415,1.53.926,1.53,1.8A1.712,1.712,0,0,1,81.155,52.5v1.025Z" transform="translate(-17.062 -2.258)" fill="#086c7b"/>
      <path id="Caminho_299" data-name="Caminho 299" d="M115.936,56.638v-.994a2.883,2.883,0,0,1-1.508-.435l.234-.661a2.632,2.632,0,0,0,1.412.424c.7,0,1.175-.4,1.175-.966s-.384-.878-1.115-1.172c-1.005-.4-1.626-.847-1.626-1.694A1.6,1.6,0,0,1,116,49.551v-.994h.618v.957a2.6,2.6,0,0,1,1.282.344l-.248.649a2.369,2.369,0,0,0-1.24-.336c-.76,0-1.048.455-1.048.847,0,.511.367.768,1.223,1.129,1.016.412,1.53.926,1.53,1.8a1.714,1.714,0,0,1-1.559,1.674v1.025Z" transform="translate(-17.062 -2.258)" fill="#086c7b"/>
      <rect id="Retângulo_92" data-name="Retângulo 92" width="9.261" height="10.78" transform="translate(75.466 43.08)" opacity="0.48" fill="url(#linear-gradient-14)"/>
      <rect id="Retângulo_93" data-name="Retângulo 93" width="9.261" height="7.296" transform="translate(75.466 50.977)" opacity="0.48" fill="url(#linear-gradient-14)"/>
    </g>
  </g>
</svg>
