<svg xmlns="http://www.w3.org/2000/svg" width="141.994" height="50.4" viewBox="0 0 271.994 50.4">
  <g id="Logo" transform="translate(-120.612 -219.6)">
    <path id="Caminho_1" data-name="Caminho 1" d="M162.476,220.459h8.478v.821c0,7.853-.03,15.705.019,23.558a24.165,24.165,0,0,1-.92,6.9,24.8,24.8,0,0,1-3.861,7.873,25.055,25.055,0,0,1-10.972,8.567,25.2,25.2,0,0,1-34.276-27.305,25.141,25.141,0,0,1,28.9-20.915,38.516,38.516,0,0,1,3.856.918.741.741,0,0,1,.446.532c.028,2.865.02,5.731.02,8.693-.738-.324-1.413-.627-2.093-.918a15.778,15.778,0,0,0-9.571-.9A16.832,16.832,0,0,0,132.2,254.7a15.985,15.985,0,0,0,9.23,6.355c7.529,1.882,14.624-.776,18.658-7.677a18.487,18.487,0,0,0,2.148-5.1,6.716,6.716,0,0,0,.183-1.516q.017-12.656.011-25.312c0-.318.029-.636.046-.988m3.01,2.909c0,1.275-.01,2.481,0,3.687.05,5.243.165,10.486.14,15.729a23.363,23.363,0,0,1-1.739,9.74,19.324,19.324,0,0,1-14.518,11.594,18.418,18.418,0,0,1-12.134-1.652,19.051,19.051,0,0,1-10.8-14.414,18.487,18.487,0,0,1,3.816-15.257c4.789-6.039,11.105-8.508,18.769-7.4.725.1,1.442.263,2.223.408v-1.58c0-1.113,0-1.129-1.061-1.348a22.19,22.19,0,0,0-9.7.175,20.84,20.84,0,0,0-7.926,3.735,22,22,0,0,0-9.056,17.089,21.105,21.105,0,0,0,3.527,13.026,21.8,21.8,0,0,0,18.072,10.214,21.548,21.548,0,0,0,14.337-4.612,21.889,21.889,0,0,0,7.2-9.579,16.85,16.85,0,0,0,1.385-6.074c.019-7.575.008-15.151.006-22.727,0-.245-.022-.49-.034-.753Z" transform="translate(0)" fill="#53a96b"/>
    <path id="Caminho_2" data-name="Caminho 2" d="M173.929,221.374c0,1.115.006,2.113,0,3.11q-.079,11.5-.165,23a11.093,11.093,0,0,1-1.716,5.432,14.1,14.1,0,0,1-8.306,6.615,13.773,13.773,0,0,1-7.316.225A14.3,14.3,0,0,1,146.655,252a12.648,12.648,0,0,1-1.291-5.6c.814,0,1.644-.025,2.47.024.141.008.356.328.378.522a11.134,11.134,0,0,0,4.912,8.247,11.4,11.4,0,0,0,16.591-4.064,11.544,11.544,0,0,0,1.349-5.481c0-7.806.024-15.612,0-23.418,0-.732.214-.934.9-.87.62.057,1.25.012,1.96.012" transform="translate(-13.796 -0.977)" fill="#015a68"/>
    <path id="Caminho_3" data-name="Caminho 3" d="M274.854,236.719v24.827c0,6.755-4.325,10.606-10.961,10.606h-1.955v-5.57H263.6c3.081,0,4.859-1.9,4.859-5.036V236.719Z" transform="translate(-78.831 -9.549)" fill="#015a68"/>
    <path id="Caminho_4" data-name="Caminho 4" d="M324.83,255.746v15.938c0,7.051-5.037,11.5-12.325,11.5-7.347,0-12.384-4.444-12.384-11.5V255.746h6.162v15.761a6.192,6.192,0,1,0,12.383,0V255.746Z" transform="translate(-100.13 -20.162)" fill="#015a68"/>
    <path id="Caminho_5" data-name="Caminho 5" d="M383.054,274.411c0,5.57-4.089,8.355-10.132,8.355h-11.2v-5.214h11.021c2.844,0,4.029-1.066,4.029-2.962s-.593-3.022-3.022-3.022h-2.666c-5.807,0-9.6-2.607-9.6-7.881,0-5.451,3.91-7.94,9.9-7.94h10.487v5.214H371.8c-2.845,0-4.029.77-4.029,2.725,0,1.9,1.007,2.548,3.615,2.548h2.726c6.043,0,8.947,2.785,8.947,8.177" transform="translate(-134.358 -20.162)" fill="#015a68"/>
    <path id="Caminho_6" data-name="Caminho 6" d="M446.785,242.3l-4.681,3.792a12.27,12.27,0,0,0-21.864,7.525c0,7.228,5.273,12.739,12.146,12.739a12.151,12.151,0,0,0,10.073-4.74l4.681,4.088a19.1,19.1,0,0,1-14.754,6.34c-10.369,0-18.783-7.762-18.783-18.427s8.71-17.776,18.783-17.835a18.317,18.317,0,0,1,14.4,6.518" transform="translate(-163.429 -9.026)" fill="#53a96b"/>
    <path id="Caminho_7" data-name="Caminho 7" d="M506.285,261.8a4.5,4.5,0,0,0-3.378-1.3c-2.311,0-3.555,1.007-3.555,3.911v17.835h-6.162V261.147c1.481-3.732,4.5-6.339,9.717-6.339a9.13,9.13,0,0,1,6.637,2.548Z" transform="translate(-207.822 -19.639)" fill="#53a96b"/>
    <path id="Caminho_8" data-name="Caminho 8" d="M554.969,270.924H533.875a8.091,8.091,0,0,0,8.058,6.4,11.117,11.117,0,0,0,6.755-2.311l3.141,4.444a15.605,15.605,0,0,1-9.9,3.2c-8,0-14.576-5.688-14.576-14.1,0-8.592,6.518-13.746,14.042-13.746,8.829,0,13.806,6.221,13.806,13.569a12.386,12.386,0,0,1-.237,2.548m-6.044-5.1a7.277,7.277,0,0,0-7.466-5.688c-3.97,0-6.754,2.133-7.584,5.688Z" transform="translate(-226.88 -19.639)" fill="#53a96b"/>
    <path id="Caminho_9" data-name="Caminho 9" d="M617.079,247.283V234.732h6.162v26.12a14.646,14.646,0,0,1-5.807,8.058,17.56,17.56,0,0,1-9.481,2.548c-7.939,0-14.813-5.57-14.813-13.925,0-8.295,6.873-13.924,14.813-13.924a12.9,12.9,0,0,1,9.125,3.673m0,10.25a8.774,8.774,0,1,0-8.769,8.473,8.431,8.431,0,0,0,8.769-8.473" transform="translate(-263.574 -8.44)" fill="#53a96b"/>
    <path id="Caminho_10" data-name="Caminho 10" d="M671.128,235.473c-2.607,0-4.029-1.422-4.029-4.029s1.422-3.97,4.029-3.97,4.029,1.362,4.029,3.97-1.422,4.029-4.029,4.029M674.209,267h-6.163V239.976h6.163Z" transform="translate(-304.827 -4.392)" fill="#53a96b"/>
    <path id="Caminho_11" data-name="Caminho 11" d="M710.885,260.068v1.837c0,6.4-3.732,9.9-9.836,9.9-6.162,0-9.836-3.5-9.836-9.9V235.346h6.162v11.569h11.435v5.333H697.376v9.658c0,3.022.889,4.444,3.673,4.444,2.726,0,3.673-1.422,3.673-4.444v-1.837Z" transform="translate(-318.278 -8.783)" fill="#53a96b"/>
  </g>
</svg>


