<svg width="58" height="58" viewBox="0 0 58 58" fill="none" xmlns="http://www.w3.org/2000/svg">
<path d="M56.8672 27.8672H52.1622C54.1867 26.7027 55.5539 24.519 55.5539 22.0206C55.5539 19.4269 54.0824 17.1182 51.8406 15.9947C52.2273 15.1349 52.4279 14.2012 52.4279 13.2366C52.4279 9.51936 49.4038 6.49509 45.6864 6.49509C44.5144 6.49509 43.3889 6.79076 42.3858 7.3566C41.0697 6.42905 39.4958 5.9262 37.8711 5.9262C37.7608 5.9262 37.6515 5.93005 37.5423 5.93458C36.3455 2.44574 33.0082 0.0054375 29.2496 0.0054375C25.8602 0.0054375 22.7932 1.96849 21.3482 4.97645C21.0771 4.9513 20.8048 4.93861 20.5327 4.93861C16.9706 4.93861 13.8068 7.08971 12.4561 10.2973C12.2164 10.2241 11.9725 10.1602 11.7249 10.1048C11.8548 8.65695 12.314 7.54702 13.0976 6.80073C13.7801 6.15061 14.4657 6.01591 14.4946 6.01048L14.4788 6.01308L14.4786 6.01184C14.7181 5.97661 14.9447 5.86616 15.1168 5.69329C15.3274 5.48259 15.4487 5.19145 15.4487 4.89352C15.4487 4.59446 15.3275 4.30333 15.1168 4.09149C14.9061 3.88079 14.6138 3.75958 14.3159 3.75958C14.2524 3.75958 14.1893 3.76626 14.127 3.77691L14.1266 3.77498C13.454 3.8809 12.534 4.2579 11.6855 5.02391V1.13281C11.6855 0.50716 11.1783 0 10.5527 0H7.83396C7.20843 0 6.70115 0.50716 6.70115 1.13281V5.36851C5.39796 3.77136 3.99113 2.8377 3.88204 2.76644C3.35879 2.42512 2.65894 2.57262 2.31671 3.09507C1.97438 3.61764 2.12063 4.31941 2.6424 4.66277C2.67989 4.68735 6.10722 6.98243 6.61642 10.284C2.78309 11.4355 0 14.8046 0 18.7723C0 20.4208 0.940121 24.379 1.8628 27.8672H1.13281C0.507273 27.8672 0 28.3743 0 29V56.8672C0 57.4928 0.507273 58 1.13281 58H56.8672C57.4927 58 58 57.4928 58 56.8672V29C58 28.3743 57.4927 27.8672 56.8672 27.8672ZM20.5327 7.20423C20.9685 7.20423 21.4048 7.24785 21.83 7.33394C22.3832 7.44586 22.9344 7.13377 23.1226 6.60158C24.0394 4.0114 26.5016 2.27106 29.2496 2.27106C31.9275 2.27106 34.3174 3.94071 35.2874 6.36527C32.2276 7.43589 30.0261 10.3503 30.0261 13.7709C30.0261 14.3966 30.5334 14.9037 31.1589 14.9037C31.7845 14.9037 32.2917 14.3966 32.2917 13.7709C32.2917 10.6945 34.7946 8.19182 37.8709 8.19182C39.2352 8.19182 40.549 8.6906 41.5701 9.59639C41.9729 9.95357 42.5715 9.97793 43.002 9.65485C43.7811 9.06986 44.7093 8.76072 45.6862 8.76072C48.1542 8.76072 50.1621 10.7686 50.1621 13.2366C50.1621 14.2068 49.8568 15.13 49.2789 15.9059C49.053 16.2094 48.9935 16.6058 49.1204 16.9623C49.2474 17.3188 49.5438 17.5884 49.9108 17.6809C51.8994 18.1823 53.2882 19.9668 53.2882 22.0206C53.2882 24.4886 51.2803 26.4965 48.8123 26.4965C48.5312 26.4965 48.2457 26.4691 47.9637 26.415C47.4147 26.3095 46.871 26.6208 46.6832 27.1473C46.5945 27.3962 46.4822 27.6371 46.3503 27.8672H44.9202L49.559 21.2176C49.7333 20.9677 49.7996 20.658 49.7428 20.3586C49.6861 20.0592 49.511 19.7952 49.2574 19.6264L45.9547 17.4285C45.6974 17.2573 45.3811 17.1985 45.0797 17.2661C44.7782 17.3336 44.5172 17.5213 44.3574 17.7859L42.7059 20.5206L44.0578 13.6819C44.1783 13.0714 43.7841 12.4779 43.1747 12.3526L40.2922 11.7598C39.9944 11.6984 39.6842 11.7596 39.4318 11.9293C39.1795 12.099 39.0059 12.3631 38.9503 12.662L38.5804 14.6484H35.9368C35.3112 14.6484 34.804 15.1556 34.804 15.7812V22.2999C34.0511 18.445 30.6496 15.5263 26.5778 15.5263C24.743 15.5263 23.0003 16.1085 21.5383 17.2099C20.3326 18.1181 19.3857 19.3542 18.8159 20.7439C18.9602 19.8932 19.0314 19.2407 19.0314 18.7724C19.0314 17.2362 18.6141 15.7895 17.8804 14.5264C18.4756 12.907 20.0229 11.807 21.7731 11.807C22.0512 11.807 22.3299 11.8349 22.6015 11.89C23.1551 12.0026 23.707 11.6896 23.895 11.1568C24.1381 10.4683 24.5611 9.85241 25.1184 9.37572C25.5937 8.96904 25.6495 8.2539 25.2428 7.77846C24.8362 7.30302 24.1212 7.24739 23.6455 7.65396C23.0232 8.18638 22.5093 8.83186 22.1306 9.55131C22.0116 9.54463 21.8923 9.54134 21.7732 9.54134C19.5185 9.54134 17.4817 10.7217 16.3326 12.5628C15.7945 12.0447 15.1904 11.5877 14.5324 11.2036C15.527 8.8109 17.881 7.20423 20.5327 7.20423ZM41.4181 27.0351L45.685 19.9704L47.0383 20.871L42.158 27.8672H41.2536L41.4181 27.0351ZM40.0011 22.52V19.3745C40.0071 19.3507 40.0137 19.3271 40.0182 19.3027L40.9662 14.2114L41.617 14.3453L40.0011 22.52ZM37.0614 25.9021C37.0663 25.8592 37.0696 25.8157 37.0696 25.7715V16.9139H37.7356V27.8672H37.3781C37.3811 27.7963 37.3828 27.7252 37.3828 27.654C37.3828 27.0365 37.2682 26.4461 37.0614 25.9021ZM21.5234 20.6172C21.4899 20.6172 21.4569 20.6193 21.4234 20.6197C22.531 18.9001 24.4717 17.7918 26.5777 17.7918C29.5708 17.7918 32.0671 19.9534 32.5918 22.7971C31.0243 22.8082 29.6353 23.5969 28.7757 24.8037C27.3233 22.3034 24.6175 20.6172 21.5234 20.6172ZM27.5338 27.8672H15.6914H15.5132C16.0462 25.0338 18.5377 22.8828 21.5236 22.8828C24.5094 22.8828 27.0008 25.0338 27.5338 27.8672ZM32.625 25.0619C33.9992 25.0619 35.1172 26.2247 35.1172 27.654C35.1172 27.7255 35.1138 27.7965 35.1082 27.8672H30.1416C30.1361 27.7965 30.1327 27.7255 30.1327 27.654C30.1328 26.2247 31.2508 25.0619 32.625 25.0619ZM8.96678 2.26562H9.4199V9.86193C9.26799 9.8634 9.11687 9.86748 8.96678 9.87552V2.26562ZM2.33325 17.8769C2.40394 17.8907 2.47689 17.8984 2.55155 17.8984H8.15195C8.77748 17.8984 9.28476 17.3913 9.28476 16.7656C9.28476 16.14 8.77748 15.6328 8.15195 15.6328H3.12724C4.35181 13.5467 6.75575 12.1253 9.51562 12.1253C13.5133 12.1253 16.7656 15.1071 16.7656 18.7723C16.7656 19.0678 16.7184 19.6132 16.5384 20.6172H12.039C11.4134 20.6172 10.9062 21.1243 10.9062 21.75C10.9062 22.3757 11.4134 22.8828 12.039 22.8828H15.8006C14.4261 24.1696 13.4849 25.912 13.2194 27.8672H4.20738C2.96978 23.2469 2.26562 19.9547 2.26562 18.7723C2.26562 18.4686 2.28998 18.1701 2.33325 17.8769ZM55.7344 37.1562H45.7656C45.1401 37.1562 44.6328 37.6634 44.6328 38.2891C44.6328 38.9147 45.1401 39.4219 45.7656 39.4219H55.7344V46.4453H20.0061C19.3806 46.4453 18.8733 46.9525 18.8733 47.5781C18.8733 48.2038 19.3806 48.7109 20.0061 48.7109H55.7344V55.7344H2.26562V48.7109H12.2344C12.8599 48.7109 13.3672 48.2038 13.3672 47.5781C13.3672 46.9525 12.8599 46.4453 12.2344 46.4453H2.26562V39.4219H37.9939C38.6194 39.4219 39.1267 38.9147 39.1267 38.2891C39.1267 37.6634 38.6194 37.1562 37.9939 37.1562H2.26562V30.1328H3.33987H55.7344V37.1562Z" fill="#ED1A3B"/>
</svg>
