<svg width="43" height="52" viewBox="0 0 43 52" fill="none" xmlns="http://www.w3.org/2000/svg">
<path d="M25.3033 2.60631C24.9528 2.22797 24.623 1.84964 24.3344 1.42926C23.6541 0.525465 22.644 0 21.5103 0C20.3971 0 19.3664 0.525465 18.6861 1.42926C18.3357 1.89167 17.944 2.35408 17.5317 2.77445C17.0164 3.29992 16.2124 3.97251 15.0168 4.58205C13.9861 5.19159 11.6567 5.84317 11.6567 5.84317C10.0076 6.26354 7.98739 6.5578 5.51369 6.57882L3.16368 6.59984C1.74131 6.62086 0.586914 7.81892 0.586914 9.29022V12.3169L0.772441 28.3751C1.10227 31.0234 1.84438 33.6297 2.99877 36.0259C4.56544 39.3048 6.89484 42.2053 9.71898 44.4543L17.4699 50.5918C18.6243 51.4956 20.0467 52 21.5103 52C22.9739 52 24.3962 51.4956 25.5506 50.5918L29.6735 47.3339C30.3537 46.8084 30.4774 45.7995 29.9414 45.1269C29.4261 44.4333 28.4366 44.3072 27.777 44.8537L23.6541 48.1116C23.0357 48.595 22.2936 48.8472 21.5309 48.8472C20.7682 48.8472 20.0054 48.595 19.4076 48.1116L11.6567 41.9741C9.20362 40.0404 7.18344 37.4972 5.82291 34.6597C4.46237 31.8222 3.67903 28.6063 3.67903 25.4325V14.2086C3.67903 14.1665 3.67903 14.1455 3.67903 14.1035V9.77365L5.55492 9.75263C13.9036 9.68957 18.0265 6.74697 19.7374 5.02344C20.2528 4.49798 20.7475 3.93048 21.1804 3.34196C21.2835 3.19483 21.4278 3.17381 21.5103 3.17381C21.5927 3.17381 21.737 3.19483 21.8401 3.34196C22.273 3.9515 22.7677 4.519 23.2831 5.04446C24.6642 6.45271 28.8077 9.71059 37.4656 9.79466L39.3415 9.81568V25.4325C39.3415 28.6063 38.62 31.7801 37.2595 34.6176C36.2288 36.7615 34.8476 38.6952 33.1779 40.3767C32.5594 40.9863 32.5594 41.9952 33.1573 42.6047C33.7551 43.2142 34.7445 43.2352 35.3424 42.6257C37.2801 40.692 38.8674 38.464 40.0424 36.0049C41.609 32.726 42.4542 29.0687 42.4542 25.4115V9.29022C42.4542 7.83994 41.2998 6.64188 39.8568 6.62086L37.5068 6.59984C33.2603 6.57882 30.3125 5.69604 28.3954 4.7502C27.1998 4.24576 25.3033 2.60631 25.3033 2.60631ZM0.586914 15.5327V25.2013V15.5327Z" fill="#00ABE6"/>
<path d="M29.7356 39.9984C34.2295 36.4463 36.7856 31.0865 36.7856 25.3064V14.4608C36.7856 13.3048 35.9404 12.3379 34.8067 12.2118C32.1062 11.8965 29.5707 11.308 27.3237 10.4673C25.8189 9.89977 24.4584 9.24819 23.304 8.49152C22.2114 7.79791 20.789 7.79791 19.6965 8.49152C18.5215 9.24819 17.161 9.89977 15.6767 10.4673C13.4092 11.308 10.8943 11.8965 8.1938 12.2118C7.06002 12.3379 6.21484 13.3048 6.21484 14.4608V25.3064C6.21484 31.0865 8.79161 36.4463 13.2649 39.9984L20.1294 45.4422C20.5417 45.7575 21.0158 45.9256 21.4899 45.9256C21.964 45.9256 22.4588 45.7575 22.8505 45.4422L29.7356 39.9984ZM15.1614 37.5182C11.4302 34.5756 9.30696 30.1197 9.30696 25.3064V15.2385C11.9662 14.8812 14.4605 14.2716 16.7281 13.4309C18.439 12.8003 19.9851 12.0226 21.3456 11.1609C21.4487 11.0978 21.5518 11.0978 21.6548 11.1609C23.0154 12.0226 24.5614 12.8003 26.2724 13.4309C28.54 14.2716 31.0343 14.8812 33.6935 15.2385V25.3064C33.6935 30.1197 31.5496 34.5546 27.8391 37.5182L21.5105 42.5416L15.1614 37.5182Z" fill="#00ABE6"/>
<path d="M30.4154 17.7818C29.7351 17.2353 28.7663 17.3614 28.2509 18.034L20.5412 28.0179L16.7895 23.0154C16.2741 22.3218 15.3052 22.1957 14.625 22.7212C13.9447 23.2466 13.821 24.2345 14.3364 24.9281L19.3044 31.528C19.593 31.9063 20.0465 32.1375 20.5206 32.1375H20.5412C21.0154 32.1375 21.4689 31.9063 21.7575 31.528L30.6834 20.0098C31.1987 19.3162 31.0957 18.3283 30.4154 17.7818Z" fill="#00ABE6"/>
</svg>
