<svg xmlns="http://www.w3.org/2000/svg" xmlns:xlink="http://www.w3.org/1999/xlink" width="157" height="123" viewBox="0 0 124 173">
  <defs>
    <clipPath id="clip-path">
      <rect id="Ret칙ngulo_81" data-name="Ret칙ngulo 81" width="157" height="133" transform="translate(768 1792)" fill="#dedede"/>
    </clipPath>
    <linearGradient id="linear-gradient" x1="3.338" y1="-25.196" x2="4.338" y2="-25.196" gradientUnits="objectBoundingBox">
      <stop offset="0" stop-color="#183866"/>
      <stop offset="1" stop-color="#1a7fc1"/>
    </linearGradient>
    <linearGradient id="linear-gradient-2" x1="7.284" y1="-201.077" x2="8.285" y2="-201.077" gradientUnits="objectBoundingBox">
      <stop offset="0"/>
      <stop offset="0.99" stop-opacity="0"/>
    </linearGradient>
    <linearGradient id="linear-gradient-3" x1="1.761" y1="-24.138" x2="3.104" y2="-22.881" xlink:href="#linear-gradient-2"/>
    <linearGradient id="linear-gradient-4" x1="10.658" y1="-2.58" x2="3.082" y2="-2.773" xlink:href="#linear-gradient-2"/>
    <linearGradient id="linear-gradient-5" x1="1.561" y1="-15.554" x2="0.081" y2="-17.374" xlink:href="#linear-gradient-2"/>
    <linearGradient id="linear-gradient-6" x1="23.611" y1="-165.848" x2="21.627" y2="-166.474" xlink:href="#linear-gradient-2"/>
    <linearGradient id="linear-gradient-7" x1="2.414" y1="-20.035" x2="1.331" y2="-19.437" xlink:href="#linear-gradient-2"/>
    <linearGradient id="linear-gradient-8" x1="1.068" y1="-0.742" x2="-0.373" y2="-0.889" xlink:href="#linear-gradient-2"/>
    <linearGradient id="linear-gradient-9" x1="0.142" y1="-0.413" x2="1.142" y2="-0.413" xlink:href="#linear-gradient"/>
    <linearGradient id="linear-gradient-10" x1="0.404" y1="-1.383" x2="0.714" y2="3.729" xlink:href="#linear-gradient-2"/>
    <linearGradient id="linear-gradient-11" x1="-0.125" y1="-0.312" x2="0.937" y2="1.047" xlink:href="#linear-gradient-2"/>
    <linearGradient id="linear-gradient-12" x1="0.537" y1="0.191" x2="0.437" y2="1.724" xlink:href="#linear-gradient-2"/>
    <linearGradient id="linear-gradient-13" x1="1.909" y1="-13.673" x2="1.022" y2="-13.739" xlink:href="#linear-gradient-2"/>
    <linearGradient id="linear-gradient-14" x1="1.686" y1="-13.577" x2="1.115" y2="-13.632" xlink:href="#linear-gradient-2"/>
    <linearGradient id="linear-gradient-15" x1="0.57" y1="-23.698" x2="0.281" y2="-31.426" xlink:href="#linear-gradient-2"/>
    <linearGradient id="linear-gradient-16" x1="1.632" y1="-0.776" x2="0.934" y2="0.229" xlink:href="#linear-gradient-2"/>
    <linearGradient id="linear-gradient-17" x1="29.723" y1="-14.736" x2="26.535" y2="-13.702" xlink:href="#linear-gradient-2"/>
    <linearGradient id="linear-gradient-18" x1="0.591" y1="-0.864" x2="1.289" y2="-0.019" xlink:href="#linear-gradient-2"/>
    <linearGradient id="linear-gradient-19" x1="0.921" y1="3.587" x2="1.922" y2="3.587" gradientUnits="objectBoundingBox">
      <stop offset="0" stop-color="#ecc4d7"/>
      <stop offset="0.42" stop-color="#efd4d1"/>
      <stop offset="1" stop-color="#f2eac9"/>
    </linearGradient>
    <linearGradient id="linear-gradient-20" x1="0.99" y1="-1.633" x2="1.99" y2="-1.633" xlink:href="#linear-gradient-19"/>
    <linearGradient id="linear-gradient-21" x1="1.243" y1="-0.846" x2="2.243" y2="-0.846" xlink:href="#linear-gradient-19"/>
    <linearGradient id="linear-gradient-22" x1="1.289" y1="1.38" x2="0.23" y2="2.311" xlink:href="#linear-gradient-2"/>
    <linearGradient id="linear-gradient-23" x1="6.518" y1="0.398" x2="-0.168" y2="1.724" xlink:href="#linear-gradient-2"/>
    <linearGradient id="linear-gradient-24" x1="39.909" y1="-342.252" x2="38.744" y2="-342.683" xlink:href="#linear-gradient-2"/>
  </defs>
  <g id="Grupo_de_m치scara_25" data-name="Grupo de m치scara 25" transform="translate(-768 -1792)" clip-path="url(#clip-path)">
    <g id="working_with_computer" transform="translate(767.924 1795.644)">
      <path id="Caminho_216" data-name="Caminho 216" d="M116.292,22.478c-4.8-5.456-8.51-11.97-14.243-16.423-9.005-7.009-21.966-7.692-32.5-3.289S50.821,16.044,45.415,26.094c-2.844,5.288-5.078,11.055-9.245,15.376-3.523,3.65-8.153,5.98-12.543,8.516-7.078,4.079-13.895,9.007-18.475,15.77S-1.477,81.4,1.451,89.021C3.426,94.164,7.4,98.256,11.477,101.96c4.794,4.355,9.948,8.434,15.9,11.029,7.446,3.229,15.711,3.923,23.817,4.252a305.988,305.988,0,0,0,43.07-1.3c11.717-1.181,23.789-3.2,33.592-9.721,13.733-9.137,20.813-25.878,22.407-42.294.649-6.566.484-13.389-2.05-19.481C142.146,29.876,125.79,33.285,116.292,22.478Z" transform="translate(-0.002)" fill="#086c7b" opacity="0.18"/>
      <path id="Caminho_217" data-name="Caminho 217" d="M58.144,51.734s-5.435-.956-6.957,2.811,0,16.777,0,16.777L71.463,85.678Z" transform="translate(-0.002)" fill="#3f3d56"/>
      <path id="Caminho_218" data-name="Caminho 218" d="M83.693,109.676l-7.865,2.329a2.163,2.163,0,0,1-2.682-1.458h0a2.163,2.163,0,0,1,1.458-2.682l7.855-2.331a2.163,2.163,0,0,1,2.682,1.455h0a2.163,2.163,0,0,1-1.447,2.686Z" transform="translate(-0.002)" fill="#086c7b"/>
      <circle id="Elipse_22" data-name="Elipse 22" cx="3.625" cy="3.625" r="3.625" transform="translate(79.623 111.032)" fill="#25233a"/>
      <circle id="Elipse_23" data-name="Elipse 23" cx="1.812" cy="1.812" r="1.812" transform="translate(80.782 113.175)" fill="#3f3d56"/>
      <circle id="Elipse_24" data-name="Elipse 24" cx="3.625" cy="3.625" r="3.625" transform="translate(65.092 107.451)" fill="#25233a"/>
      <path id="Caminho_219" data-name="Caminho 219" d="M69.88,111.4a1.812,1.812,0,1,1-1.812-1.812A1.812,1.812,0,0,1,69.88,111.4Z" transform="translate(-0.002)" fill="url(#linear-gradient)"/>
      <circle id="Elipse_25" data-name="Elipse 25" cx="3.625" cy="3.625" r="3.625" transform="translate(64.043 112.408)" fill="#25233a"/>
      <path id="Caminho_220" data-name="Caminho 220" d="M70.533,116.153a1.812,1.812,0,1,1-1.812-1.812,1.812,1.812,0,0,1,1.812,1.812Z" transform="translate(-0.002)" fill="#3f3d56"/>
      <path id="Caminho_221" data-name="Caminho 221" d="M83.978,113.232,67.4,109.886a2.163,2.163,0,0,1-1.687-2.543h0a2.163,2.163,0,0,1,2.541-1.687L84.832,109a2.163,2.163,0,0,1,1.687,2.543h0A2.163,2.163,0,0,1,83.978,113.232Z" transform="translate(-0.002)" fill="#086c7b"/>
      <path id="Caminho_222" data-name="Caminho 222" d="M73.76,87.19h4.526v19.063a2.262,2.262,0,0,1-2.262,2.262h0a2.262,2.262,0,0,1-2.262-2.262V87.19Z" transform="translate(-0.002)" fill="#086c7b"/>
      <path id="Caminho_223" data-name="Caminho 223" d="M75.384,111.98l-7.863,2.333a2.163,2.163,0,0,1-2.684-1.458h0a2.163,2.163,0,0,1,1.458-2.682l7.863-2.327a2.163,2.163,0,0,1,2.682,1.455h0A2.163,2.163,0,0,1,75.384,111.98Z" transform="translate(-0.002)" fill="#086c7b"/>
      <path id="Caminho_224" data-name="Caminho 224" d="M76.686,111.748l-.865.257a2.15,2.15,0,0,1-.8.08l.361-.106a2.106,2.106,0,0,0,.694-.353Z" transform="translate(-0.002)" fill="url(#linear-gradient-2)"/>
      <path id="Caminho_225" data-name="Caminho 225" d="M85.23,107.609a2.147,2.147,0,0,1-.489,1.362l-6.877-1.391a2.225,2.225,0,0,0,.368-.787l4.237-1.254a2.163,2.163,0,0,1,2.677,1.479A2.189,2.189,0,0,1,85.23,107.609Z" transform="translate(-0.002)" fill="url(#linear-gradient-3)"/>
      <path id="Caminho_226" data-name="Caminho 226" d="M73.818,106.768a2.29,2.29,0,0,1-.058-.515V87.19h1.572v20.545a.753.753,0,0,0,.015.3,2.048,2.048,0,0,0-.753-.167,3.88,3.88,0,0,0-.549,0l.112-.032A10.045,10.045,0,0,0,73.818,106.768Z" transform="translate(-0.002)" opacity="0.31" fill="url(#linear-gradient-4)"/>
      <path id="Caminho_227" data-name="Caminho 227" d="M85.434,113a2.124,2.124,0,0,1-1.032.266,2.241,2.241,0,0,1-.433-.043l-7.292-1.473-.608-.121a2.106,2.106,0,0,1-.694.353l-.361.106-7.493,2.227a2.163,2.163,0,0,1-2.684-1.458,1.847,1.847,0,0,0,2.351.134c.915-.634,4.557-1.585,6.62-2.091a2.535,2.535,0,0,0,1.9-2,1.447,1.447,0,0,1,.026-.173,4.745,4.745,0,0,0,2.117,1.144A55.436,55.436,0,0,0,85.23,111.3,1.347,1.347,0,0,1,85.434,113Z" transform="translate(-0.002)" opacity="0.31" fill="url(#linear-gradient-5)"/>
      <path id="Caminho_228" data-name="Caminho 228" d="M86.216,112.271a2.124,2.124,0,0,1-.538.573C85.823,112.7,86.009,112.5,86.216,112.271Z" transform="translate(-0.002)" fill="url(#linear-gradient-6)"/>
      <path id="Caminho_229" data-name="Caminho 229" d="M73.818,106.768a2.249,2.249,0,0,0,.545,1.025c-.067.013-.136.03-.205.05l-6.817,2.018a2.163,2.163,0,0,1,.484-4.258,2.24,2.24,0,0,1,.433.043Z" transform="translate(-0.002)" fill="url(#linear-gradient-7)"/>
      <path id="Caminho_233" data-name="Caminho 233" d="M84.32,14.941S84.231,8.22,78.844,8.8,73.87,7.154,71.569,7.4s-4.974,2.515-4.206,5.32-2.031,3.432-3.869,5.56.433,3.869,3.529,5.949-.192,1.542,1.644,4.831,8.051-.913,8.051-.913Z" transform="translate(-0.002)" fill="#3f3d56"/>
      <path id="Caminho_234" data-name="Caminho 234" d="M40.378,127.4l3.821.13V97.012s.192-7.891,7.64-8.683,74.995-10.569,74.995-10.569,2.677-.283,4.219,4.851,3.043,25.322,3.043,25.322l20.733,2.792s.547-35.661-6.94-37.629-105.4,8.06-105.4,8.06S35.229,119.032,40.378,127.4Z" transform="translate(-0.002)" fill="#086c7b"/>
      <path id="Caminho_235" data-name="Caminho 235" d="M40.378,127.4l3.821.13V97.012s.192-7.891,7.64-8.683,74.995-10.569,74.995-10.569,2.677-.283,4.219,4.851,3.043,25.322,3.043,25.322l20.733,2.792s.547-35.661-6.94-37.629-105.4,8.06-105.4,8.06S35.229,119.032,40.378,127.4Z" transform="translate(-0.002)" fill="url(#linear-gradient-8)"/>
      <path id="Caminho_236" data-name="Caminho 236" d="M20.214,84.9s1.873-10.363,15.045-13.079l92.983-10.653s9.128-.378,13.3,2.15,10.136,4.624,12.58,16.064,3.028,30.984,3.028,30.984l-2.312.359s-3.374-35.389-6.948-37.629S47.666,84.6,47.666,84.6s-6.7,1.334-7.288,11.269,0,31.526,0,31.526l-20.164-8.14Z" transform="translate(-0.002)" fill="#086c7b"/>
      <path id="Caminho_237" data-name="Caminho 237" d="M115.877,65.157a86.956,86.956,0,0,0-14.511-.9c-3.644.143-7.264.649-10.878,1.153l-31.87,4.457a1.829,1.829,0,0,0-1.427.675c-.519.908.7,1.8,1.689,2.15,10.6,3.715,21.918,7.478,32.826,4.829,4.987-1.211,9.619-3.726,14.678-4.6s10.251-.069,15.3-.893c4.745-.774,9.262-2.974,14.072-3a13.8,13.8,0,0,0,4.392-.277c1.4-.467,2.636-1.894,2.249-3.317-4.516-.158-9.585-.993-14.014-.087C124,66.249,120.267,65.157,115.877,65.157Z" transform="translate(-0.002)" opacity="0.19" fill="url(#linear-gradient-9)"/>
      <path id="Caminho_238" data-name="Caminho 238" d="M87.056,70.589l.186.712s5.506,3.423,5.471,3.534,22.839-5.465,22.839-5.465l.532-1.6Z" transform="translate(-0.002)" fill="#086c7b"/>
      <path id="Caminho_239" data-name="Caminho 239" d="M87.056,70.589l.186.712s5.506,3.423,5.471,3.534,22.839-5.465,22.839-5.465l.532-1.6Z" transform="translate(-0.002)" fill="url(#linear-gradient-10)"/>
      <path id="Caminho_240" data-name="Caminho 240" d="M87.568,70.589l20.121-4.535,8.389,1.715L93.219,73.52Z" fill="#086c7b"/>
      <path id="Caminho_241" data-name="Caminho 241" d="M87.568,70.589l20.121-4.535,8.389,1.715L93.219,73.52Z" fill="url(#linear-gradient-11)"/>
      <path id="Caminho_242" data-name="Caminho 242" d="M81.236,74.177l4.777.16s1.213.071,1.527-.85-1.946-2.865-2.189-2.9-6.529,1.633-5.623,3.3Z" transform="translate(-0.002)" fill="#086c7b"/>
      <path id="Caminho_243" data-name="Caminho 243" d="M81.236,74.177l4.777.16s1.213.071,1.527-.85-1.946-2.865-2.189-2.9-6.529,1.633-5.623,3.3Z" transform="translate(-0.002)" fill="url(#linear-gradient-12)"/>
      <path id="Caminho_244" data-name="Caminho 244" d="M26.018,121.233l-2.325,7.059a18.732,18.732,0,0,1-12.476,0l-1.667-7.4S17.96,123.677,26.018,121.233Z" transform="translate(-0.002)" fill="#086c7b"/>
      <path id="Caminho_245" data-name="Caminho 245" d="M26.018,121.233l-2.325,7.059a18.732,18.732,0,0,1-12.476,0l-1.667-7.4S17.96,123.677,26.018,121.233Z" transform="translate(-0.002)" fill="url(#linear-gradient-13)"/>
      <path id="Caminho_246" data-name="Caminho 246" d="M28.654,114.661l-.746,5.58-1.89.99c-8.051,2.444-16.468-.342-16.468-.342L8.1,119.808l-.677-5.147Z" transform="translate(-0.002)" fill="#086c7b"/>
      <path id="Caminho_247" data-name="Caminho 247" d="M28.654,114.661l-.746,5.58-1.89.99c-8.051,2.444-16.468-.342-16.468-.342L8.1,119.808l-.677-5.147Z" transform="translate(-0.002)" fill="url(#linear-gradient-14)"/>
      <ellipse id="Elipse_26" data-name="Elipse 26" cx="10.614" cy="1.91" rx="10.614" ry="1.91" transform="translate(7.42 112.752)" fill="#086c7b"/>
      <ellipse id="Elipse_27" data-name="Elipse 27" cx="10.614" cy="1.91" rx="10.614" ry="1.91" transform="translate(7.42 112.752)" fill="url(#linear-gradient-15)"/>
      <path id="Caminho_248" data-name="Caminho 248" d="M12.986,72.054a14.951,14.951,0,0,1-3.064-1.585C8.105,69,7.645,66.483,7.076,64.221s-1.67-4.749-3.912-5.4A2.589,2.589,0,0,0,.7,59.275,2.772,2.772,0,0,0,.078,61.85a15.239,15.239,0,0,0,.977,2.6,11.931,11.931,0,0,1,.711,6.339c-.283,1.754-.96,3.532-.526,5.251.737,2.917,4.412,4.628,4.513,7.634.069,2.029-1.6,3.906-1.222,5.9.279,1.477,1.639,2.63,1.713,4.131.082,1.7-1.527,3.142-1.449,4.844s1.778,2.839,2.887,4.178a6.957,6.957,0,0,1,1.581,3.968A10.273,10.273,0,0,0,9.5,109.4a9.85,9.85,0,0,0,.984,1.73,17.328,17.328,0,0,0,1.094,1.84,4.5,4.5,0,0,0,4.823,1.514c.344-2.262.043-4.57.138-6.855.188-4.429,1.864-8.893.792-13.192a30.239,30.239,0,0,1-1.285-4.691,16.273,16.273,0,0,1,.534-4.3,34.452,34.452,0,0,0,.318-8.962C16.721,74.123,15.06,73.035,12.986,72.054Z" transform="translate(-0.002)" fill="#086c7b"/>
      <path id="Caminho_249" data-name="Caminho 249" d="M19.615,83.654c-.017,1.974.433,4.016-.2,5.891-.478,1.421-1.529,2.584-2.072,3.981-1.252,3.224.433,6.84.089,10.283a36.762,36.762,0,0,1-.936,4.174,16.717,16.717,0,0,0-.277,5.37,1.358,1.358,0,0,0,1.081,1.414,16.869,16.869,0,0,0,3.276.885A8.689,8.689,0,0,1,21.7,109.6c1.715-2.811,5.048-4.706,5.668-7.935.42-2.186-.558-4.405-.489-6.631a7.137,7.137,0,0,1,1.458-4.087c.807-1.051,1.9-1.864,2.649-2.954,1.8-2.628,1.241-6.14.705-9.282s-.848-6.758,1.272-9.139c.67-.753,1.544-1.317,2.152-2.122a4.893,4.893,0,0,0-.562-6.157,6.18,6.18,0,0,0-6.25-1.341A4.507,4.507,0,0,0,26.02,61.5c-1.081,1.535-.649,3.633-.19,5.458a9.033,9.033,0,0,1,.175,5.013c-.409,1.189-1.445,1.834-2.325,2.662A12.681,12.681,0,0,0,19.615,83.654Z" transform="translate(-0.002)" fill="#086c7b"/>
      <path id="Caminho_250" data-name="Caminho 250" d="M17.381,101.149c-.307,2.145-.75,4.308-.841,6.46v.216a.569.569,0,0,1-.037.156,16.717,16.717,0,0,0-.283,5.37,2.035,2.035,0,0,0,.216.835c-.011.091-.024.18-.037.27a4.5,4.5,0,0,1-4.823-1.514,19.83,19.83,0,0,1-1.094-1.84,9.348,9.348,0,0,1-.984-1.73,10.289,10.289,0,0,1-.238-2.71,6.957,6.957,0,0,0-1.581-3.968c-1.109-1.33-2.811-2.446-2.887-4.176s1.531-3.142,1.449-4.844c-.074-1.5-1.434-2.654-1.713-4.131-.378-2,1.3-3.873,1.222-5.9-.1-3.006-3.776-4.717-4.513-7.634-.433-1.719.242-3.5.526-5.251a11.931,11.931,0,0,0-.7-6.332,15.171,15.171,0,0,1-.977-2.6,2.776,2.776,0,0,1,.625-2.578A2.594,2.594,0,0,1,3.168,58.8c2.245.649,3.341,3.144,3.912,5.407s1.029,4.782,2.846,6.248a14.633,14.633,0,0,0,3.064,1.585c2.076.982,3.737,2.07,3.914,4.41a34.931,34.931,0,0,1-.318,8.962,16.454,16.454,0,0,0-.534,4.3,21.458,21.458,0,0,0,1.155,4.213c.045.158.091.318.13.478A17.571,17.571,0,0,1,17.381,101.149Z" transform="translate(-0.002)" fill="url(#linear-gradient-16)"/>
      <path id="Caminho_251" data-name="Caminho 251" d="M16.447,114.185a2.035,2.035,0,0,1-.227-.833,16.717,16.717,0,0,1,.288-5.37c.011-.052.024-.1.037-.156C16.466,109.951,16.713,112.092,16.447,114.185Z" transform="translate(-0.002)" fill="url(#linear-gradient-17)"/>
      <path id="Caminho_252" data-name="Caminho 252" d="M35.082,67.436c-.608.8-1.481,1.369-2.152,2.122-2.119,2.379-1.808,6-1.272,9.139s1.1,6.654-.705,9.282c-.75,1.081-1.843,1.9-2.649,2.954a7.137,7.137,0,0,0-1.458,4.087c-.069,2.225.908,4.444.489,6.631-.621,3.229-3.953,5.128-5.668,7.935a8.7,8.7,0,0,0-1.112,6.055,16.785,16.785,0,0,1-3.268-.885,1.76,1.76,0,0,1-.761-.461.814.814,0,0,1-.08-.112,2.035,2.035,0,0,1-.227-.83,16.717,16.717,0,0,1,.288-5.37c.011-.052.024-.1.037-.156a33.131,33.131,0,0,0,.9-4.018,13.019,13.019,0,0,0-.052-2.66,17.363,17.363,0,0,0-.05-6.732c-.039-.16-.084-.32-.13-.478.041-.138.089-.277.143-.413.543-1.4,1.594-2.561,2.072-3.981.629-1.875.182-3.916.2-5.891a12.711,12.711,0,0,1,4.035-9.031c.88-.828,1.916-1.473,2.325-2.662a9.113,9.113,0,0,0-.175-5.013c-.461-1.825-.9-3.923.19-5.458a4.47,4.47,0,0,1,2.279-1.551,6.183,6.183,0,0,1,6.25,1.341A4.9,4.9,0,0,1,35.082,67.436Z" transform="translate(-0.002)" fill="url(#linear-gradient-18)"/>
      <path id="Caminho_253" data-name="Caminho 253" d="M97.135-3.644" transform="translate(-0.002)" fill="none" stroke="#6c62ff" stroke-miterlimit="10" stroke-width="0.402"/>
      <path id="Caminho_254" data-name="Caminho 254" d="M73.414,33.52a18.7,18.7,0,0,0-13.306,11.31c-4.208,9.92-2.02,22.21-1.946,23.291s12.9,5.772,16.561,5.772a4.616,4.616,0,0,0,4.429-3.631l-6.477-2.727,19.68-2.247h3.534l-1.946,3.244s3.841.4,6.408.489,4.31-4.929,4.6-7.424S93.608,37.2,91.872,35.9,85.423,31.431,73.414,33.52Z" transform="translate(-0.002)" fill="#086c7b"/>
      <path id="Caminho_255" data-name="Caminho 255" d="M84.32,14.941s1.611.919,1.466,3.893-1.053,7.448-1.97,8.607-4.124,1.613-4.124,1.613,1.75,4.215,3.051,5.3-1.308,5.1-3.847,3.78a25.014,25.014,0,0,1-5.482-4.617s2.117-3.977,1.4-6.07S71.366,18.01,73.414,16,79.878,11.12,84.32,14.941Z" transform="translate(-0.002)" fill="url(#linear-gradient-19)"/>
      <path id="Caminho_256" data-name="Caminho 256" d="M69.729,47.8,68.3,65.289l4.36,2.247,3.545-.608-4.423-5.339Z" fill="#fff" opacity="0.25"/>
      <path id="Caminho_257" data-name="Caminho 257" d="M92.713,46.928s5.7,13.562,3.173,18.371l-1.946-.374Z" transform="translate(-0.002)" fill="#fff" opacity="0.25"/>
      <path id="Caminho_258" data-name="Caminho 258" d="M76.783,69.636s-2.176,1.946-1.2,3.46,2.13,1.471,3.1.794,2.865-2.284,5.128-1.546a9.715,9.715,0,0,1,2.811,1.207s1.192-.781.882-1.564a14.14,14.14,0,0,0-3.361-3.648c-.686-.329-3.532.681-3.532.681A4.927,4.927,0,0,0,76.783,69.636Z" transform="translate(-0.002)" fill="url(#linear-gradient-20)"/>
      <path id="Caminho_259" data-name="Caminho 259" d="M96.532,65.983s-2.072.238-2.6,1.553a5.252,5.252,0,0,1-.712,1.475s1.17.216,1.657-.4a.814.814,0,0,1,.993-.355l-.145.785s3.179.463,4.615-.035a6.047,6.047,0,0,0,2.052-1.081l.562-1.328a7.2,7.2,0,0,0-2.379-1.1A20.177,20.177,0,0,0,96.532,65.983Z" transform="translate(-0.002)" fill="url(#linear-gradient-21)"/>
      <path id="Caminho_260" data-name="Caminho 260" d="M107.049,80.6s7.057,5.372,6.429,12.638S111.93,111.3,111.93,111.3s-2.846,1.2-4.732,0-3.028-17.593-3.962-19.158-6.555-8.624-12.56-9.232Z" transform="translate(-0.002)" fill="#25233a"/>
      <path id="Caminho_261" data-name="Caminho 261" d="M71.463,85.669a19.186,19.186,0,0,0,9.466,4.262c6.064,1.019,8.89,1.868,10.744,7.083S95.3,113.45,95.885,114.7s3.056.614,3.056.614,1.4-1.6,1.4-10.528c0-12.439.865-14.989-2.251-18.114A15.9,15.9,0,0,0,92.138,82.7Z" transform="translate(-0.002)" fill="#3f3d56"/>
      <path id="Caminho_262" data-name="Caminho 262" d="M95.885,114.7l.577,4.552h1.081s6.964.381,7.182.216-.335-3.605-2.974-3.508-2.811-.649-2.811-.649Z" transform="translate(-0.002)" fill="#25233a"/>
      <path id="Caminho_263" data-name="Caminho 263" d="M108.048,111.672l1.125,4.481,12.288-1.687s.433-2.943-3.46-2.651c-1.027.076-1.793.8-3.028.8a3.83,3.83,0,0,1-3.041-1.321h0Z" transform="translate(-0.002)" fill="#25233a"/>
      <path id="Caminho_264" data-name="Caminho 264" d="M150.9,55.3l-46.511,2.491a2.041,2.041,0,0,1-2.145-1.929c0-.035,0-.071,0-.106V22.8a2.455,2.455,0,0,1,2.4-2.452l46.321-.956a2.24,2.24,0,0,1,2.286,2.2V52.822A2.487,2.487,0,0,1,150.9,55.3Z" transform="translate(-0.002)" fill="#086c7b"/>
      <path id="Caminho_265" data-name="Caminho 265" d="M153.041,55.3,106.53,57.793a2.042,2.042,0,0,1-2.143-1.931V22.8a2.45,2.45,0,0,1,2.4-2.452l46.325-.956a2.24,2.24,0,0,1,2.282,2.193V52.822A2.487,2.487,0,0,1,153.041,55.3Z" transform="translate(-0.002)" fill="#086c7b"/>
      <path id="Caminho_266" data-name="Caminho 266" d="M153.041,55.3,106.53,57.793a2.042,2.042,0,0,1-2.143-1.931V22.8a2.45,2.45,0,0,1,2.4-2.452l46.325-.956a2.24,2.24,0,0,1,2.282,2.193V52.822A2.487,2.487,0,0,1,153.041,55.3Z" transform="translate(-0.002)" fill="url(#linear-gradient-22)"/>
      <path id="Caminho_267" data-name="Caminho 267" d="M139.5,67.752l-11.81,1.259s-3.6-.727-3.4-1.259,3.955-1.045,3.955-1.045V45.263h0a3.64,3.64,0,0,0-1.884-1.081h0a6.811,6.811,0,0,0-.8-.186,2.357,2.357,0,0,1-.67-.2c-.807-.417.084-1.144,1.336-1.176a3.127,3.127,0,0,1,.586.035h9.083s3.439.969,3.605,5.8S139.5,67.752,139.5,67.752Z" transform="translate(-0.002)" fill="#086c7b"/>
      <path id="Caminho_268" data-name="Caminho 268" d="M129.888,67.8l-2.206,1.213s-3.6-.727-3.4-1.259,3.962-1.045,3.962-1.045V45.263h0a4.939,4.939,0,0,0-1.884-1.081h0a9.563,9.563,0,0,0-1.471-.389c-.807-.417.084-1.144,1.336-1.176,1.066.145,3.166,1.313,3.3,1.979S129.888,67.8,129.888,67.8Z" transform="translate(-0.002)" fill="#086c7b"/>
      <path id="Caminho_269" data-name="Caminho 269" d="M129.888,67.8l-2.206,1.213s-3.6-.727-3.4-1.259,3.962-1.045,3.962-1.045V45.263h0a4.939,4.939,0,0,0-1.884-1.081h0a9.563,9.563,0,0,0-1.471-.389c-.807-.417.084-1.144,1.336-1.176,1.066.145,3.166,1.313,3.3,1.979S129.888,67.8,129.888,67.8Z" transform="translate(-0.002)" fill="url(#linear-gradient-23)"/>
      <path id="Caminho_270" data-name="Caminho 270" d="M85.678,112.845c-.275.281-.4.385-.24.154A1.73,1.73,0,0,0,85.678,112.845Z" transform="translate(-0.002)" fill="url(#linear-gradient-24)"/>
    </g>
  </g>
</svg>


