<svg xmlns="http://www.w3.org/2000/svg" xmlns:xlink="http://www.w3.org/1999/xlink" width="1024" height="379" viewBox="0 0 1942 689">
  <defs>
    <filter id="Retângulo_14" x="0" y="0" width="744" height="692" filterUnits="userSpaceOnUse">
      <feOffset dy="2" input="SourceAlpha"/>
      <feGaussianBlur stdDeviation="39" result="blur"/>
      <feFlood flood-color="#1b289b" flood-opacity="0.122"/>
      <feComposite operator="in" in2="blur"/>
      <feComposite in="SourceGraphic"/>
    </filter>
    <clipPath id="clip-path">
      <rect id="Retângulo_216" data-name="Retângulo 216" width="207" height="133" transform="translate(211 1795)" fill="#fff" stroke="#707070" stroke-width="1"/>
    </clipPath>
    <linearGradient id="linear-gradient" x1="1.531" y1="6.476" x2="-0.2" y2="5.243" gradientUnits="objectBoundingBox">
      <stop offset="0" stop-opacity="0"/>
      <stop offset="1"/>
    </linearGradient>
    <linearGradient id="linear-gradient-2" x1="2.007" y1="9.541" x2="2.261" y2="-13.114" xlink:href="#linear-gradient"/>
    <linearGradient id="linear-gradient-3" x1="2.066" y1="14.996" x2="2.32" y2="-7.659" xlink:href="#linear-gradient"/>
    <linearGradient id="linear-gradient-4" x1="2.03" y1="11.785" x2="2.284" y2="-10.87" xlink:href="#linear-gradient"/>
    <linearGradient id="linear-gradient-5" x1="0.579" y1="-18.132" x2="0.594" y2="-32.376" xlink:href="#linear-gradient"/>
    <linearGradient id="linear-gradient-6" x1="4.231" y1="6.256" x2="-2.65" y2="5.77" xlink:href="#linear-gradient"/>
    <linearGradient id="linear-gradient-7" x1="3.959" y1="23.037" x2="4.303" y2="22.339" gradientUnits="objectBoundingBox">
      <stop offset="0" stop-color="#ecc4d7"/>
      <stop offset="0.42" stop-color="#efd4d1"/>
      <stop offset="1" stop-color="#f2eac9"/>
    </linearGradient>
    <linearGradient id="linear-gradient-8" x1="2.598" y1="16.621" x2="2.773" y2="16.205" xlink:href="#linear-gradient-7"/>
    <linearGradient id="linear-gradient-9" x1="0.166" y1="10.53" x2="3.972" y2="9.091" xlink:href="#linear-gradient"/>
    <linearGradient id="linear-gradient-10" x1="4.855" y1="21.272" x2="5.857" y2="21.272" xlink:href="#linear-gradient-7"/>
    <linearGradient id="linear-gradient-11" x1="2.44" y1="23.607" x2="3.44" y2="23.607" xlink:href="#linear-gradient-7"/>
    <filter id="Retângulo_33" x="550" y="1" width="744" height="692" filterUnits="userSpaceOnUse">
      <feOffset dy="2" input="SourceAlpha"/>
      <feGaussianBlur stdDeviation="39" result="blur-2"/>
      <feFlood flood-color="#1b289b" flood-opacity="0.122"/>
      <feComposite operator="in" in2="blur-2"/>
      <feComposite in="SourceGraphic"/>
    </filter>
    <filter id="Caminho_164" x="1100" y="4" width="744" height="692" filterUnits="userSpaceOnUse">
      <feOffset dy="2" input="SourceAlpha"/>
      <feGaussianBlur stdDeviation="39" result="blur-3"/>
      <feFlood flood-color="#1b289b" flood-opacity="0.122"/>
      <feComposite operator="in" in2="blur-3"/>
      <feComposite in="SourceGraphic"/>
    </filter>
    <clipPath id="clip-path-2">
      <rect id="Retângulo_82" data-name="Retângulo 82" width="124" height="133" transform="translate(1302 1792)" fill="#dedede"/>
    </clipPath>
    <linearGradient id="linear-gradient-12" x1="0.496" y1="-3.722" x2="0.521" y2="23.242" gradientUnits="objectBoundingBox">
      <stop offset="0" stop-color="#010101" stop-opacity="0"/>
      <stop offset="0.95" stop-color="#010101"/>
    </linearGradient>
    <linearGradient id="linear-gradient-13" x1="0.492" y1="0.5" x2="1.492" y2="0.5" gradientUnits="objectBoundingBox">
      <stop offset="0" stop-color="#fff" stop-opacity="0"/>
      <stop offset="0.14" stop-color="#fff" stop-opacity="0.22"/>
      <stop offset="0.3" stop-color="#fff" stop-opacity="0.451"/>
      <stop offset="0.45" stop-color="#fff" stop-opacity="0.651"/>
      <stop offset="0.6" stop-color="#fff" stop-opacity="0.8"/>
      <stop offset="0.73" stop-color="#fff" stop-opacity="0.91"/>
      <stop offset="0.85" stop-color="#fff" stop-opacity="0.98"/>
      <stop offset="0.94" stop-color="#fff"/>
    </linearGradient>
    <linearGradient id="linear-gradient-14" x1="0.156" y1="0.5" x2="1.156" y2="0.5" xlink:href="#linear-gradient-13"/>
    <linearGradient id="linear-gradient-15" x1="0.156" y1="0.5" x2="1.156" y2="0.5" xlink:href="#linear-gradient-13"/>
    <linearGradient id="linear-gradient-16" x1="-0.314" y1="0.749" x2="1.753" y2="0.121" xlink:href="#linear-gradient-12"/>
    <linearGradient id="linear-gradient-17" x1="0.495" y1="0.115" x2="0.525" y2="2.561" xlink:href="#linear-gradient-12"/>
    <linearGradient id="linear-gradient-18" x1="-0.435" y1="0.424" x2="4.094" y2="0.74" xlink:href="#linear-gradient-12"/>
    <linearGradient id="linear-gradient-19" x1="0.198" y1="-0.861" x2="1.607" y2="3.449" xlink:href="#linear-gradient-12"/>
    <linearGradient id="linear-gradient-20" x1="0.524" y1="-0.733" x2="0.444" y2="3.323" xlink:href="#linear-gradient-12"/>
    <linearGradient id="linear-gradient-21" x1="0.525" y1="-0.732" x2="0.444" y2="3.324" xlink:href="#linear-gradient-12"/>
    <linearGradient id="linear-gradient-22" x1="0.418" y1="0.061" x2="0.814" y2="1.567" xlink:href="#linear-gradient-12"/>
    <linearGradient id="linear-gradient-23" x1="1.039" y1="0.265" x2="-1.383" y2="1.015" xlink:href="#linear-gradient-12"/>
    <linearGradient id="linear-gradient-24" x1="-0.263" y1="1.292" x2="2.596" y2="-1.735" xlink:href="#linear-gradient-12"/>
    <linearGradient id="linear-gradient-25" x1="0.156" y1="0.5" x2="1.156" y2="0.5" xlink:href="#linear-gradient-13"/>
    <clipPath id="clip-path-3">
      <rect id="Retângulo_215" data-name="Retângulo 215" width="207" height="133" transform="translate(193 1795)" fill="#505050" stroke="#707070" stroke-width="1"/>
    </clipPath>
    <linearGradient id="linear-gradient-27" x1="0.545" y1="-11.538" x2="1.544" y2="-11.538" gradientUnits="objectBoundingBox">
      <stop offset="0" stop-color="#183866"/>
      <stop offset="1" stop-color="#1a7fc1"/>
    </linearGradient>
    <linearGradient id="linear-gradient-28" x1="2.144" y1="-0.401" x2="-3.666" y2="-0.309" gradientUnits="objectBoundingBox">
      <stop offset="0" stop-opacity="0"/>
      <stop offset="0.97"/>
      <stop offset="0.97" stop-color="#0c0c11"/>
      <stop offset="0.98" stop-color="#312f43"/>
      <stop offset="0.99" stop-color="#3f3d56"/>
    </linearGradient>
    <linearGradient id="linear-gradient-29" x1="0.715" y1="-1.549" x2="5.434" y2="-1.884" xlink:href="#linear-gradient-28"/>
    <linearGradient id="linear-gradient-30" x1="0.695" y1="-1.498" x2="5.731" y2="-1.586" gradientUnits="objectBoundingBox">
      <stop offset="0" stop-opacity="0"/>
      <stop offset="0.29" stop-opacity="0.29"/>
      <stop offset="0.97"/>
      <stop offset="0.97" stop-color="#0c0c11"/>
      <stop offset="0.98" stop-color="#312f43"/>
      <stop offset="0.99" stop-color="#3f3d56"/>
    </linearGradient>
    <linearGradient id="linear-gradient-31" x1="1.786" y1="-1.209" x2="0.71" y2="-2.648" gradientUnits="objectBoundingBox">
      <stop offset="0" stop-opacity="0"/>
      <stop offset="0.84" stop-opacity="0.659"/>
      <stop offset="0.97"/>
    </linearGradient>
    <linearGradient id="linear-gradient-32" x1="1.885" y1="-2.506" x2="0.41" y2="-2.398" gradientUnits="objectBoundingBox">
      <stop offset="0" stop-opacity="0"/>
      <stop offset="0.87" stop-opacity="0.659"/>
      <stop offset="1"/>
    </linearGradient>
    <linearGradient id="linear-gradient-33" x1="0.611" y1="-13.159" x2="0.625" y2="8.682" gradientUnits="objectBoundingBox">
      <stop offset="0" stop-opacity="0"/>
      <stop offset="0.5" stop-opacity="0.38"/>
      <stop offset="0.97"/>
      <stop offset="0.97" stop-color="#0c0c11"/>
      <stop offset="0.98" stop-color="#312f43"/>
      <stop offset="0.99" stop-color="#3f3d56"/>
    </linearGradient>
    <linearGradient id="linear-gradient-34" x1="0.493" y1="-0.382" x2="0.515" y2="2.265" xlink:href="#linear-gradient-33"/>
    <linearGradient id="linear-gradient-35" x1="0.493" y1="-0.396" x2="0.515" y2="2.251" xlink:href="#linear-gradient-33"/>
    <linearGradient id="linear-gradient-36" x1="0.493" y1="-0.41" x2="0.515" y2="2.237" xlink:href="#linear-gradient-33"/>
    <linearGradient id="linear-gradient-37" x1="1.196" y1="-3.335" x2="0.798" y2="-0.809" gradientUnits="objectBoundingBox">
      <stop offset="0.01"/>
      <stop offset="0.99" stop-opacity="0"/>
    </linearGradient>
    <linearGradient id="linear-gradient-38" x1="1.366" y1="-6.259" x2="1.349" y2="-4.703" xlink:href="#linear-gradient-37"/>
    <linearGradient id="linear-gradient-39" x1="1.722" y1="-4.951" x2="4.437" y2="-3.111" gradientUnits="objectBoundingBox">
      <stop offset="0.01"/>
      <stop offset="0.15" stop-opacity="0.522"/>
      <stop offset="0.99" stop-opacity="0"/>
    </linearGradient>
    <linearGradient id="linear-gradient-40" x1="1.469" y1="-2.293" x2="-0.358" y2="-3.304" gradientUnits="objectBoundingBox">
      <stop offset="0.01"/>
      <stop offset="0.16" stop-opacity="0.522"/>
      <stop offset="1" stop-opacity="0"/>
    </linearGradient>
    <linearGradient id="linear-gradient-41" x1="0.708" y1="-2.085" x2="2.807" y2="-2.511" xlink:href="#linear-gradient-39"/>
    <linearGradient id="linear-gradient-42" x1="0.997" y1="-2.651" x2="3.279" y2="-3.717" xlink:href="#linear-gradient-39"/>
    <linearGradient id="linear-gradient-43" x1="1.168" y1="-5.613" x2="3.689" y2="-4.844" xlink:href="#linear-gradient-39"/>
    <linearGradient id="linear-gradient-44" x1="-28.436" y1="9.721" x2="-27.464" y2="9.721" xlink:href="#linear-gradient-7"/>
    <linearGradient id="linear-gradient-45" x1="1.662" y1="-7.47" x2="4.391" y2="-8.465" gradientUnits="objectBoundingBox">
      <stop offset="0.01"/>
      <stop offset="0.03" stop-opacity="0.929"/>
      <stop offset="0.51" stop-opacity="0.051"/>
      <stop offset="0.58" stop-opacity="0.031"/>
      <stop offset="0.99" stop-opacity="0"/>
    </linearGradient>
    <linearGradient id="linear-gradient-46" x1="2.162" y1="-28.81" x2="4.512" y2="-29.259" xlink:href="#linear-gradient-39"/>
    <linearGradient id="linear-gradient-47" x1="-78.548" y1="34.226" x2="-75.277" y2="35.396" xlink:href="#linear-gradient-7"/>
    <linearGradient id="linear-gradient-48" x1="2.88" y1="-13.644" x2="2.596" y2="-3.598" xlink:href="#linear-gradient-39"/>
    <linearGradient id="linear-gradient-49" x1="2.876" y1="-13.457" x2="2.592" y2="-3.41" xlink:href="#linear-gradient-39"/>
  </defs>
  <line id="Linha_1" data-name="Linha 1" x2="788" transform="translate(518.5 345.5)" fill="none" stroke="#086c7b" stroke-linecap="round" stroke-width="5" stroke-dasharray="4 12"/>
  <text id="_2." data-name="2." transform="translate(718 246)" fill="#fff" stroke="rgba(0,0,0,0)" stroke-width="1" font-size="45" font-family="Muli-Bold, Muli" font-weight="700"><tspan x="0" y="0">2.</tspan></text>
  <g transform="matrix(1, 0, 0, 1, 0, 0)" filter="url(#Retângulo_14)">
    <rect id="Retângulo_14-2" data-name="Retângulo 14" width="510" height="458" rx="30" transform="translate(117 115)" fill="#fff"/>
  </g>
  <text id="Rentabilidade" transform="translate(142 357)" fill="#395e66" font-size="33" font-family="Muli-SemiBold, Muli" font-weight="600"><tspan x="0" y="0">Rentabilidade</tspan></text>
  <text id="Maior_retorno_que_investimentos_tradicionais_Baixo_valor_inicial_de_investimento_Disponível_para_PF_e_PJ" data-name="Maior retorno que investimentos tradicionais
Baixo valor inicial de investimento
Disponível para PF e PJ" transform="translate(153 394)" fill="#395e66" font-size="20" font-family="Muli-Regular, Muli" opacity="0.5"><tspan x="0" y="20">Maior retorno que investimentos tradicionais</tspan><tspan x="0" y="55">Baixo valor inicial de investimento</tspan><tspan x="0" y="90">Disponível para PF e PJ</tspan></text>
  <g id="Grupo_de_máscara_33" data-name="Grupo de máscara 33" transform="translate(-69 -1633)" clip-path="url(#clip-path)">
    <g id="graphic_and_chart" transform="translate(236.221 1795)">
      <path id="Caminho_778" data-name="Caminho 778" d="M34.658,25.329c10.771-9.32,27.234-15.7,38.869-7.493C79.428,22,82.6,28.959,87.389,34.36s13.268,9.211,19.068,4.9c2.674-1.983,4.064-5.214,6.121-7.832,6.118-7.8,18.313-9.238,26.938-4.363s13.591,14.879,14.01,24.781c.446,10.949-3.982,21.481-5.269,32.363a57.091,57.091,0,0,0,4.712,30.207c1.428,3.135,3.171,6.239,3.529,9.657s-1.134,7.353-4.378,8.52a11.056,11.056,0,0,1-4.151.392L13.645,128.965c-2.772-.082-5.65-.194-8.108-1.475C-1.232,123.954-1,114.026,2.005,107.005S9.879,93.166,9.2,85.56C8.2,74.268-5.256,63.762,3.679,52.583c3.244-4.064,9.387-6.7,13.324-10.189C23.128,36.953,28.462,30.692,34.658,25.329Z" transform="translate(-24 -0.016)" fill="#086c7b" opacity="0.18"/>
      <path id="Caminho_779" data-name="Caminho 779" d="M143.713,13.663s1.807,8.707,3.342,9.374,3.22-2.07,3.342-2.045,1.782,1.827,1.782,1.827a6.345,6.345,0,0,1-3.906,3.759c-1.635.5-6.4-4.79-7.063-7.974a23.29,23.29,0,0,1-.223-8.139A4.471,4.471,0,0,1,143.713,13.663Z" transform="translate(-24 -0.016)" fill="#086c7b"/>
      <path id="Caminho_780" data-name="Caminho 780" d="M143.713,13.663s1.807,8.707,3.342,9.374,3.22-2.07,3.342-2.045,1.782,1.827,1.782,1.827a6.345,6.345,0,0,1-3.906,3.759c-1.635.5-6.4-4.79-7.063-7.974a23.29,23.29,0,0,1-.223-8.139A4.471,4.471,0,0,1,143.713,13.663Z" transform="translate(-24 -0.016)" fill="url(#linear-gradient)"/>
      <path id="Caminho_781" data-name="Caminho 781" d="M132,18.937l-32.568,25.4-40.035-27L10.92,60.75" transform="translate(-24)" fill="none" stroke="#3f3d56" stroke-miterlimit="10" stroke-width="0.891"/>
      <rect id="Retângulo_217" data-name="Retângulo 217" width="16.608" height="51.238" transform="translate(-12.946 78.612)" fill="#086c7b"/>
      <rect id="Retângulo_218" data-name="Retângulo 218" width="16.608" height="67.641" transform="translate(67.123 62.209)" fill="#086c7b"/>
      <rect id="Retângulo_219" data-name="Retângulo 219" width="16.608" height="90.782" transform="translate(27.088 39.068)" fill="#086c7b"/>
      <rect id="Retângulo_220" data-name="Retângulo 220" width="16.608" height="95.443" transform="translate(107.158 34.404)" fill="#086c7b"/>
      <circle id="Elipse_51" data-name="Elipse 51" cx="4.031" cy="4.031" r="4.031" transform="translate(-18.781 60.751) rotate(-45)" fill="#086c7b"/>
      <circle id="Elipse_52" data-name="Elipse 52" cx="4.031" cy="4.031" r="4.031" transform="translate(31.362 13.306)" fill="#086c7b"/>
      <circle id="Elipse_53" data-name="Elipse 53" cx="4.031" cy="4.031" r="4.031" transform="translate(71.394 39.634)" fill="#086c7b"/>
      <circle id="Elipse_54" data-name="Elipse 54" cx="4.031" cy="4.031" r="4.031" transform="translate(-18.781 60.751) rotate(-45)" fill="url(#linear-gradient-2)"/>
      <circle id="Elipse_55" data-name="Elipse 55" cx="4.031" cy="4.031" r="4.031" transform="translate(31.362 13.306)" fill="url(#linear-gradient-3)"/>
      <circle id="Elipse_56" data-name="Elipse 56" cx="4.031" cy="4.031" r="4.031" transform="translate(71.394 39.634)" fill="url(#linear-gradient-4)"/>
      <path id="Caminho_782" data-name="Caminho 782" d="M153.608,132.816H3.119a2.95,2.95,0,0,1-2.959-2.95h0a2.95,2.95,0,0,1,2.959-2.95H153.608a2.95,2.95,0,0,1,2.95,2.95h0a2.95,2.95,0,0,1-2.95,2.95Z" transform="translate(-24 -0.016)" fill="#086c7b"/>
      <path id="Caminho_783" data-name="Caminho 783" d="M153.608,132.816H3.119a2.95,2.95,0,0,1-2.959-2.95h0a2.95,2.95,0,0,1,2.959-2.95H153.608a2.95,2.95,0,0,1,2.95,2.95h0a2.95,2.95,0,0,1-2.95,2.95Z" transform="translate(-24 -0.016)" fill="url(#linear-gradient-5)"/>
      <path id="Caminho_784" data-name="Caminho 784" d="M135.975,10.918s-3.447.76-4.817,2.567S129.634,30.024,130.712,31,144,29.979,143.04,28.168c-1.814-3.436-.261-17.714-2.039-17.7S135.975,10.918,135.975,10.918Z" transform="translate(-24 -0.016)" fill="#086c7b"/>
      <path id="Caminho_785" data-name="Caminho 785" d="M134.355,16.308s-3.012,12.511-1.136,14.777c0,0-1.825.495-2.5-.089s-1.094-8.021.056-11.363S134.355,16.308,134.355,16.308Z" transform="translate(-24 -0.016)" fill="url(#linear-gradient-6)"/>
      <path id="Caminho_786" data-name="Caminho 786" d="M136.2,7.429s-.341,2.692-.368,3.516,2.558,2.135,3.142,1.321a2.005,2.005,0,0,0,.341-1.635l-.172-1.782Z" transform="translate(-24 -0.016)" fill="url(#linear-gradient-7)"/>
      <path id="Caminho_787" data-name="Caminho 787" d="M136.006,4.505s-.223,3.75,1.063,4.532,2.005,1.56,3.594-.25,1.415-4.813,1.067-5.252S137.1.475,136.006,4.505Z" transform="translate(-24 -0.016)" fill="url(#linear-gradient-8)"/>
      <path id="Caminho_788" data-name="Caminho 788" d="M134.627,2.005a5.958,5.958,0,0,0-.247,2.649h.365c-.071.472-.111,1.036.252,1.337.1.085.223.14.321.223.372.323.446,1.132.891,1.337q-.082-1-.172-2.005c-.029-.341-.082-.918.25-1,.076-.018.158-.013.223-.036a.64.64,0,0,0,.323-.274c.129-.194.256-.388.383-.584A1.493,1.493,0,0,1,137.871,3c.292-.109.7.062.706.374a2.334,2.334,0,0,1,2.228-.036,2.694,2.694,0,0,1,1,.648,1.306,1.306,0,0,1,.343,1.114c.519-1.8,1.1-5.74-2.772-5-.568.116-1.041.539-1.615.579.069,0-.18-.276-.223-.3-.2-.085-.356.031-.533.107a3.549,3.549,0,0,1-.847.172,2.208,2.208,0,0,0-1.535,1.337Z" transform="translate(-24 -0.016)" fill="#3f3d56"/>
      <path id="Caminho_789" data-name="Caminho 789" d="M131.938,12.7s2.879.813,2.406,3.605c0,0-3.806,3.888-3.431,4.679s7.281,4.922,7.281,4.922l-2.2,1.811s-8.2-2.937-8.768-5.57S128.023,15.43,131.938,12.7Z" transform="translate(-24 -0.016)" fill="#086c7b"/>
      <path id="Caminho_790" data-name="Caminho 790" d="M152.461,14.443l-2.406,8.814-6.335.486,1.927-9.612Z" transform="translate(-24)" fill="#086c7b"/>
      <path id="Caminho_791" data-name="Caminho 791" d="M152.461,14.443l-2.406,8.814-6.335.486,1.927-9.612Z" transform="translate(-24)" fill="url(#linear-gradient-9)"/>
      <path id="Caminho_792" data-name="Caminho 792" d="M150.632,21.033a.268.268,0,0,0,0,.145.343.343,0,0,0,.134.143c.379.3.539.869,1,1.02a4.5,4.5,0,0,0,.934-1.317,2.562,2.562,0,0,0,.223-1.809,2.121,2.121,0,0,0-1.041-1.21.833.833,0,0,0-.731-.1.757.757,0,0,0-.368.53c-.053.223-.062.446-.131.655a6.436,6.436,0,0,0-.29.729.6.6,0,0,0,.165.544c.08.085.116.049.154.156a1.662,1.662,0,0,1-.045.515Z" transform="translate(-24 -0.016)" fill="url(#linear-gradient-10)"/>
      <path id="Caminho_793" data-name="Caminho 793" d="M139.689,26.142a.365.365,0,0,1,.3.1.3.3,0,0,1-.049.35,1.4,1.4,0,0,0-.223.3,7.652,7.652,0,0,0,1.19.762c.292.154.637.348.651.668a.771.771,0,0,1-.4.613,3.8,3.8,0,0,1-2.293.537,2.473,2.473,0,0,1-1.35-.374,2.912,2.912,0,0,1-.628-.684l-.548-.74a.091.091,0,0,1-.018-.127l.018-.018.653-.717C137.762,25.969,138.611,26.131,139.689,26.142Z" transform="translate(-24 -0.016)" fill="url(#linear-gradient-11)"/>
      <path id="Caminho_794" data-name="Caminho 794" d="M148.958,48.591c-.586.495-1.083-.185-1.179-.74a11.981,11.981,0,0,1-.145-1.874q-.114-5.007-.223-10.013a1.036,1.036,0,0,0-1.25-1.239l-.624-.029-9.178-.434a9.148,9.148,0,0,1-3.342-.579,3.111,3.111,0,0,1-1.963-2.571c.018.617,8.021-1.094,8.7-1.323a10.759,10.759,0,0,1,3.625-1.007c1.5.029,3.05.3,4.545.428a6.249,6.249,0,0,1,3.627,1.1,5.212,5.212,0,0,1,1.451,3.728C153.312,39.449,151.4,43.756,148.958,48.591Z" transform="translate(-24 -0.016)" fill="#3f3d56"/>
      <path id="Caminho_795" data-name="Caminho 795" d="M148.352,48.486l-.891-.492a11.348,11.348,0,0,0,.18-2.016q-.114-5.007-.223-10.013a1.036,1.036,0,0,0-1.25-1.239l-.624-.029-1.15-2.228s3.852.013,4.728,1.263S148.352,48.486,148.352,48.486Z" transform="translate(-24 -0.016)" fill="#25233a"/>
      <path id="Caminho_796" data-name="Caminho 796" d="M146.884,37.655a6.844,6.844,0,0,1-.586,2.433c-.668,1.727-1.422,3.409-2.184,5.091q-1.237,2.723-2.471,5.452c-.145.319-.343.682-.691.733-.408.058-.651-.314-.76-.751a2.323,2.323,0,0,1-.069-.595q.033-5.154.423-10.3a1.225,1.225,0,0,0-.058-.6,1.17,1.17,0,0,0-.5-.446c-1.58-.922-3.293-1.582-4.9-2.451a10.43,10.43,0,0,1-4.1-3.534,1.025,1.025,0,0,1-.2-.717c.091-.432.617-.584,1.052-.653l8.961-1.437c2.005-.323,3.507,2.567,4.507,3.966A6.788,6.788,0,0,1,146.884,37.655Z" transform="translate(-24 -0.016)" fill="#3f3d56"/>
      <path id="Caminho_797" data-name="Caminho 797" d="M140.122,50.008l-.668,2.968a21.182,21.182,0,0,0,2.921,1.782,13.837,13.837,0,0,0,2.843,0s.343-.907-.813-1.312a13.484,13.484,0,0,0-2.228-.561,2.723,2.723,0,0,1-.668-1.876S140.643,51.166,140.122,50.008Z" transform="translate(-24 -0.016)" fill="#25233a"/>
      <path id="Caminho_798" data-name="Caminho 798" d="M147.543,47.593l-.668,2.966a20.964,20.964,0,0,0,2.921,1.782,14,14,0,0,0,2.843,0s.343-.907-.813-1.312a13.715,13.715,0,0,0-2.228-.564,2.714,2.714,0,0,1-.668-1.874S148.065,48.751,147.543,47.593Z" transform="translate(-24 -0.016)" fill="#25233a"/>
      <path id="Caminho_799" data-name="Caminho 799" d="M140.953,51.354l-.76-.751a2.323,2.323,0,0,1-.069-.595q.033-5.154.423-10.3a1.225,1.225,0,0,0-.058-.6,1.17,1.17,0,0,0-.5-.446c-1.58-.922-3.293-1.582-4.9-2.451a10.43,10.43,0,0,1-4.1-3.534,1.025,1.025,0,0,1-.2-.717c.091-.432.617-.584,1.052-.653,0,0,6.751,4.211,9.336,5.96S140.953,51.354,140.953,51.354Z" transform="translate(-24 -0.016)" fill="#25233a"/>
    </g>
  </g>
  <g transform="matrix(1, 0, 0, 1, 0, 0)" filter="url(#Retângulo_33)">
    <rect id="Retângulo_33-2" data-name="Retângulo 33" width="510" height="458" rx="30" transform="translate(667 116)" fill="#fff"/>
  </g>
  <text id="Segurança" transform="translate(686 357)" fill="#395e66" font-size="33" font-family="Muli-SemiBold, Muli" font-weight="600"><tspan x="0" y="0">Segurança</tspan></text>
  <g id="Grupo_201" data-name="Grupo 201" transform="translate(-51 -1633)">
    <g transform="matrix(1, 0, 0, 1, 51, 1633)" filter="url(#Caminho_164)">
      <path id="Caminho_164-2" data-name="Caminho 164" d="M30,0H480c16.569,0,30,10.926,30,24.4V433.6c0,13.478-13.431,24.4-30,24.4H30c-16.569,0-30-10.926-30-24.4V24.4C0,10.926,13.431,0,30,0Z" transform="translate(1217 119)" fill="#fff"/>
    </g>
    <text id="Liberação" transform="translate(1293 1990)" fill="#395e66" font-size="33" font-family="Muli-SemiBold, Muli" font-weight="600"><tspan x="0" y="0">Liberação</tspan></text>
    <text id="A_JusCredit_é_uma_instituição_autorizada_e_regulada_pelo_Banco_Central_do_Brasil_Bacen_atuando_como_correspondente_bancário." data-name="A JusCredit é uma instituição autorizada e regulada pelo Banco Central do Brasil (Bacen), atuando como correspondente bancário." transform="translate(1293 2031)" fill="#395e66" font-size="20" font-family="Muli-Regular, Muli" opacity="0.5"><tspan x="0" y="20">A JusCredit é uma instituição autorizada e </tspan><tspan x="0" y="55">regulada pelo Banco Central do Brasil (Bacen), </tspan><tspan x="0" y="90">atuando como correspondente bancário.</tspan></text>
    <g id="Grupo_de_máscara_26" data-name="Grupo de máscara 26" transform="translate(-9)" clip-path="url(#clip-path-2)">
      <g id="transfer_money" transform="translate(1302.042 1792)">
        <path id="Caminho_271" data-name="Caminho 271" d="M140.972,84.806c.282,12.988-10.408,23.252-20.287,31.723a.822.822,0,0,1-.107.1l-13.364,11.283a25.435,25.435,0,0,1-5.537,3.671c-8.784,4.334-19.824,3.939-29.93,3.261-8.135-.565-17.382-1.714-22.08-8.392-1.525-2.185-2.4-4.786-4.057-6.875-2.372-3.013-6.057-4.617-9.394-6.494a40.724,40.724,0,0,1-11.7-10c-6.195-7.759-9.346-17.628-6.243-26.824.048-.155.107-.313.167-.472,1.892-5.2,5.562-9.546,8.146-14.44C34.9,45.668,32.471,24.317,45.572,12.311c6.35-5.817,15.165-8.075,23.7-9.2,8.9-1.18,18.071-1.33,26.767.867,17.837,4.47,32.5,19.437,37.048,37.195a44.478,44.478,0,0,1,1.045,5.249c.827,6.017.59,12.184,1.841,18.13.344,1.607.788,3.182,1.282,4.758C138.846,74.427,140.865,79.469,140.972,84.806Z" transform="translate(-17.062 -2.258)" fill="#086c7b" opacity="0.24"/>
        <path id="Caminho_272" data-name="Caminho 272" d="M120.558,67.9H33.327v3.741h88.341Z" transform="translate(0.009 -0.002)" fill="url(#linear-gradient-12)"/>
        <path id="Caminho_273" data-name="Caminho 273" d="M137.251,69.3l-.246.847H52.016V41.168h81.068a44.478,44.478,0,0,1,1.045,5.249c.827,6.017.59,12.184,1.841,18.13C136.314,66.153,136.757,67.729,137.251,69.3Z" transform="translate(-17.062 -2.258)" fill="url(#linear-gradient-13)"/>
        <rect id="Retângulo_84" data-name="Retângulo 84" width="9.261" height="1.931" transform="translate(73.154 48.25)" fill="url(#linear-gradient-14)"/>
        <rect id="Retângulo_85" data-name="Retângulo 85" width="9.261" height="6.717" transform="translate(73.154 56.364)" fill="url(#linear-gradient-15)"/>
        <path id="Caminho_274" data-name="Caminho 274" d="M60.057,59.295c.906-1.943,1.482-4.035,2.5-5.93,2-3.738,5.647-6.531,7.034-10.54,1.669.669,2.228,2.8,2.044,4.585s-.878,3.527-.793,5.322a25.5,25.5,0,0,1,16.831-5.814,5.927,5.927,0,0,1,4.105,1.321,6.538,6.538,0,0,1,1.364,2.733c.791,2.5,1.59,5.142,1.07,7.714a8.538,8.538,0,0,0-.376,2.394c.1,1.1.847,2.236.384,3.241a11.876,11.876,0,0,0-.638,1.053c-.248.72.237,1.471.339,2.225.209,1.516-1.129,2.79-2.459,3.541-3.953,2.225-8.646,2.64-12.926,4.145-13.779,4.84-19,1.957-19.161,1.463-1.081-3.326-3.306-7.508-3.546-10.984C55.661,63.4,59.038,61.48,60.057,59.295Z" transform="translate(-17.062 -2.258)" fill="#feba7b"/>
        <path id="Caminho_275" data-name="Caminho 275" d="M67.215,69.8c-.678,1.107.9,2.42,1.581,3.524a2.64,2.64,0,0,0,3.01,1.643,8.119,8.119,0,0,0,3.4-.644c1.6-.822,2.465-2.578,3.134-4.249,1.977-4.924,3.174-10.447,1.553-15.51a5.266,5.266,0,0,0-2.7-3.515,5.8,5.8,0,0,0-4.3.528c-.791.339-2.3.743-2.742,1.533C69.762,53.809,71.843,62.246,67.215,69.8Z" transform="translate(-17.062 -2.259)" fill="url(#linear-gradient-16)"/>
        <path id="Caminho_276" data-name="Caminho 276" d="M60.52,81.517a1.9,1.9,0,0,1-.827.728c-6.124,3.645-23.585,11.69-29.021,16.289a33.077,33.077,0,0,1-6.147,4.54q-.847-1.062-1.624-2.185a.223.223,0,0,0-.031-.04c-5.082-7.367-7.406-16.261-4.588-24.593,1.841-.175,5.523-2.824,6.943-3.484,5.218-2.4,22.236-8.313,27.753-9.947a2.059,2.059,0,0,1,1.465-.068,2.177,2.177,0,0,1,.8.915A42.368,42.368,0,0,1,60.069,76.8c.237,1.211.412,2.442.542,3.671a1.9,1.9,0,0,1-.09,1.045Z" transform="translate(-17.062 -2.259)" fill="#086c7b"/>
        <rect id="Retângulo_86" data-name="Retângulo 86" width="21.86" height="39.541" rx="2.982" transform="translate(53.163 35.628)" fill="#086c7b"/>
        <rect id="Retângulo_87" data-name="Retângulo 87" width="19.652" height="32.962" transform="translate(54.264 38.127)" fill="#fff"/>
        <circle id="Elipse_28" data-name="Elipse 28" cx="6.412" cy="6.412" r="6.412" transform="translate(57.277 40.716)" fill="#086c7b" opacity="0.16"/>
        <rect id="Retângulo_88" data-name="Retângulo 88" width="13.776" height="4.393" rx="1.028" transform="translate(56.625 62.065)" fill="#086c7b"/>
        <path id="Caminho_277" data-name="Caminho 277" d="M75.691,67.057a1.978,1.978,0,0,0,.014.282h-.4a1.959,1.959,0,0,0,.014-.282v-.918h-.494v-.347a2.207,2.207,0,0,0,.282,0h.8a2.455,2.455,0,0,0,.282,0v.347a2.525,2.525,0,0,0-.282,0H75.7Z" transform="translate(-17.062 -2.259)" fill="#fff"/>
        <path id="Caminho_278" data-name="Caminho 278" d="M77.242,67.331a1.871,1.871,0,0,0-.09-.282c-.056-.161-.079-.2-.124-.24a.2.2,0,0,0-.141-.051H76.7v.3a1.841,1.841,0,0,0,.014.282h-.392a1.671,1.671,0,0,0,.017-.282v-.985a1.862,1.862,0,0,0-.017-.268h.757a.41.41,0,0,1,.466.415.4.4,0,0,1-.107.3.46.46,0,0,1-.172.09c.093.028.136.071.192.2.028.056.054.119.136.316.02.051.042.1.088.192Zm-.26-.884a.161.161,0,0,0,.175-.169c0-.1-.059-.155-.172-.155H76.7v.325Z" transform="translate(-17.062 -2.259)" fill="#fff"/>
        <path id="Caminho_279" data-name="Caminho 279" d="M78.851,67.331a1.5,1.5,0,0,0-.042-.195l-.051-.155h-.52l-.048.155a1.02,1.02,0,0,0-.045.195h-.426a1.5,1.5,0,0,0,.088-.22l.392-1.1a.994.994,0,0,0,.059-.195h.474a1.729,1.729,0,0,0,.062.195l.4,1.1c.034.1.065.169.088.22Zm-.356-1.2-.169.545h.344Z" transform="translate(-17.062 -2.259)" fill="#fff"/>
        <path id="Caminho_280" data-name="Caminho 280" d="M80.274,66.56a2.205,2.205,0,0,1,.13.217v-.683a1.851,1.851,0,0,0-.017-.282h.39a1.927,1.927,0,0,0-.014.282v.966a2.38,2.38,0,0,0,.014.282h-.4a1.89,1.89,0,0,0-.136-.232L79.9,66.6a2.119,2.119,0,0,1-.133-.223,2.122,2.122,0,0,1,.014.282v.409a1.942,1.942,0,0,0,0,.282H79.4a1.825,1.825,0,0,0,0-.282v-.957a1.942,1.942,0,0,0,0-.282h.4a1.13,1.13,0,0,0,.127.226Z" transform="translate(-17.062 -2.259)" fill="#fff"/>
        <path id="Caminho_281" data-name="Caminho 281" d="M81.319,66.837a.24.24,0,0,0,.045.136.265.265,0,0,0,.215.088c.138,0,.223-.062.223-.167a.136.136,0,0,0-.076-.127,1.59,1.59,0,0,0-.282-.073.76.76,0,0,1-.282-.1.418.418,0,0,1-.175-.35c0-.282.226-.457.584-.457a.593.593,0,0,1,.505.206.514.514,0,0,1,.09.22l-.384.042c-.023-.119-.088-.169-.226-.169s-.195.062-.195.144a.124.124,0,0,0,.088.116,1.073,1.073,0,0,0,.251.062.869.869,0,0,1,.282.1.409.409,0,0,1,.2.373.466.466,0,0,1-.127.336.672.672,0,0,1-.48.152.867.867,0,0,1-.407-.088.424.424,0,0,1-.195-.234.63.63,0,0,1-.042-.169Z" transform="translate(-17.062 -2.259)" fill="#fff"/>
        <path id="Caminho_282" data-name="Caminho 282" d="M82.765,67.015a2.064,2.064,0,0,0,.014.316h-.392a1.693,1.693,0,0,0,.017-.311v-.949a1.766,1.766,0,0,0,0-.265H83.2a2.054,2.054,0,0,0,.3,0v.347a2.572,2.572,0,0,0-.3-.014h-.418v.3h.342a1.932,1.932,0,0,0,.282,0v.339a2.436,2.436,0,0,0-.282-.014h-.342Z" transform="translate(-17.062 -2.259)" fill="#fff"/>
        <path id="Caminho_283" data-name="Caminho 283" d="M84.781,67.345a1.9,1.9,0,0,0-.3,0h-.833a1.654,1.654,0,0,0,0-.265V66.072a1.858,1.858,0,0,0,0-.265h.85a2.348,2.348,0,0,0,.282,0v.342a2.346,2.346,0,0,0-.282,0h-.474v.268H84.7v.336a2.326,2.326,0,0,0-.282-.014h-.392v.308h.469a2.515,2.515,0,0,0,.3,0Z" transform="translate(-17.062 -2.259)" fill="#fff"/>
        <path id="Caminho_284" data-name="Caminho 284" d="M85.887,67.331a2.118,2.118,0,0,0-.088-.282c-.059-.161-.082-.2-.127-.24a.2.2,0,0,0-.141-.051h-.186v.3a1.841,1.841,0,0,0,.014.282h-.392a1.671,1.671,0,0,0,.017-.282v-.985a1.864,1.864,0,0,0-.017-.268h.754c.3,0,.466.152.466.415a.4.4,0,0,1-.107.3.441.441,0,0,1-.172.09c.093.028.136.071.192.2.028.056.054.119.136.316.02.051.042.1.088.192Zm-.257-.884a.158.158,0,0,0,.172-.169c0-.1-.059-.155-.172-.155h-.282v.325Z" transform="translate(-17.062 -2.259)" fill="#fff"/>
        <rect id="Retângulo_89" data-name="Retângulo 89" width="13.776" height="4.393" rx="1.028" transform="translate(56.625 62.065)" fill="url(#linear-gradient-17)"/>
        <path id="Caminho_285" data-name="Caminho 285" d="M87.3,59.815c.22.342.584.593.709.98.223.7-.452,1.355-.621,2.075-.263,1.129.734,2.194.632,3.335-.073.867-.771,1.669-.565,2.51-.847-1.237-2.979-.709-3.73.593s-.536,2.92-.282,4.4c.282,1.547.788,3.335,2.259,3.88a4.706,4.706,0,0,0,3.408-.551q-.793-2.905-1.446-5.848a7.717,7.717,0,0,1,3.755.918,15.14,15.14,0,0,0,.477-4.585l.014-10.58V51.479c0-1.09.675-1.169-.127-1.849-1.039,1.714-4.221.81-4.382,2.843-.11,1.369.847,2.372.505,3.8C87.669,57.392,86.557,58.654,87.3,59.815Z" transform="translate(-17.062 -2.259)" fill="url(#linear-gradient-18)"/>
        <path id="Caminho_286" data-name="Caminho 286" d="M110.935,106.779a1.463,1.463,0,0,1-.491.4c-1.714,1-3.546,2.047-5.537,2.039-2.922-.02-3.346,2.442-5.337.3-2.629-2.824-7.83-8.649-10.261-11.653a13.633,13.633,0,0,1-3-8.389,7.158,7.158,0,0,1,.257-3.2c.215-.565,1.319-2.866,1.576-3.428a4.276,4.276,0,0,0,.155-.4,6.227,6.227,0,0,0-.234-4.086h0a14.211,14.211,0,0,0-1.129-2.383c-1.231-2.1-2.759-4.165-2.937-6.579a2.551,2.551,0,0,1,.415-1.782,2.127,2.127,0,0,1,2.609-.344,6.077,6.077,0,0,1,1.991,2.01c1.525,2.194,2.953,4.45,4.264,6.777a3.186,3.186,0,0,1,3.21-1.053,5.224,5.224,0,0,1,2.894,1.96,5.461,5.461,0,0,0,1.607,1.711,10.286,10.286,0,0,0,1.821.5c2.185.652,3.151,3.123,4.176,5.161a40.247,40.247,0,0,1,2.259,4.56,16.71,16.71,0,0,1,.737,4.746c.178,4.009-.1,8.1.966,11.966A1.465,1.465,0,0,1,110.935,106.779Z" transform="translate(-17.062 -2.259)" fill="#feba7b"/>
        <path id="Caminho_287" data-name="Caminho 287" d="M94.409,103.738c1.1,1.09,3.476,3.933,4.574,5.023a4.152,4.152,0,0,0,1.694,1.2c.565.158-.127-1.674.446-1.77,2.773-.463,7.274-1.223,9.854-2.338l-.449-2.078c-.875-.466-4.583.257-5.647.311q-2.677.133-5.365.037C98.6,104.088,95.058,104.382,94.409,103.738Z" transform="translate(-17.062 -2.259)" fill="url(#linear-gradient-19)"/>
        <path id="Caminho_288" data-name="Caminho 288" d="M120.685,116.529a.823.823,0,0,1-.107.1l-12.223,10.3-1.129.966a25.434,25.434,0,0,1-5.537,3.671c-3.041-7.779-4.933-22.484-4.933-22.484l1.626-.483,14.77-4.343Z" transform="translate(-17.062 -2.259)" fill="#086c7b"/>
        <rect id="Retângulo_90" data-name="Retângulo 90" width="28.719" height="15.002" transform="translate(82.364 48.218)" fill="#086c7b"/>
        <path id="Caminho_289" data-name="Caminho 289" d="M126.431,55.13v6.009a2.72,2.72,0,0,0-2.31,2.953,1.261,1.261,0,0,0,0,.206H104.063a1.261,1.261,0,0,0,0-.206c0-1.629-1.045-2.953-2.332-2.953a1.976,1.976,0,0,0-.5.073V55.06a1.976,1.976,0,0,0,.5.073c1.288,0,2.321-1.307,2.332-2.939H124.11A2.74,2.74,0,0,0,126.431,55.13Z" transform="translate(-17.062 -2.258)" fill="url(#linear-gradient-20)"/>
        <rect id="Retângulo_91" data-name="Retângulo 91" width="28.719" height="15.002" transform="translate(84.722 43.074)" fill="#086c7b"/>
        <path id="Caminho_290" data-name="Caminho 290" d="M128.786,49.977v6.011a2.718,2.718,0,0,0-2.31,2.953,1.013,1.013,0,0,0,.014.206H106.42a1.263,1.263,0,0,0,0-.206c0-1.632-1.045-2.953-2.332-2.953a1.844,1.844,0,0,0-.5.073v-6.15a1.844,1.844,0,0,0,.5.073c1.288,0,2.321-1.307,2.332-2.939h20.047C126.5,48.664,127.521,49.957,128.786,49.977Z" transform="translate(-17.062 -2.258)" fill="url(#linear-gradient-21)"/>
        <path id="Caminho_291" data-name="Caminho 291" d="M72.583,49.475a8.457,8.457,0,0,0,.127-4.741,5.706,5.706,0,0,0-1.395-2.824,1.07,1.07,0,0,0-.706-.376c-.517,0-.819.565-.994,1.05q-1.1,3.052-2,6.175a9.787,9.787,0,0,0-.52,2.976c.051,1.734,1.005,3.081,2.564,1.714A10.138,10.138,0,0,0,72.583,49.475Z" transform="translate(-17.062 -2.258)" fill="#feba7b"/>
        <path id="Caminho_292" data-name="Caminho 292" d="M89.284,48.65A2.366,2.366,0,0,0,87.627,50.8a2.418,2.418,0,0,0,1.282,1.883,7.178,7.178,0,0,0,2.259.709,4.351,4.351,0,0,0-3.219,2.338,2.5,2.5,0,0,0,.178,2.793,2.589,2.589,0,0,0,.881.565,5.286,5.286,0,0,0,1.77.4,2.713,2.713,0,0,0-2.773,2.428,2.432,2.432,0,0,0,2.6,2.465,2.182,2.182,0,0,0-2.332,1.626,2.784,2.784,0,0,0,1.031,2.767,3.874,3.874,0,0,0,2.953.683,1.872,1.872,0,0,0,1.338-.72,2.327,2.327,0,0,0,.15-1.516c-.666-5.752,1.621-11.509.186-17.179-.189-.74-1.477-1.327-2.2-1.536A4.382,4.382,0,0,0,89.284,48.65Z" transform="translate(-17.062 -2.258)" fill="#feba7b"/>
        <path id="Caminho_293" data-name="Caminho 293" d="M60.52,81.517a1.9,1.9,0,0,1-.827.728c-6.124,3.645-23.585,11.69-29.021,16.289a33.077,33.077,0,0,1-6.147,4.54,14.876,14.876,0,0,1-1.624-2.185.222.222,0,0,0-.031-.04,64.809,64.809,0,0,1-3.162-5.879c6.246.689,39.66-18.221,39.66-18.221a2.282,2.282,0,0,1,.7.04c.237,1.211.412,2.442.542,3.671a1.9,1.9,0,0,1-.09,1.056Z" transform="translate(-17.062 -2.259)" fill="url(#linear-gradient-22)"/>
        <path id="Caminho_294" data-name="Caminho 294" d="M108.355,126.928l-1.129.966a25.434,25.434,0,0,1-5.537,3.671c-3.041-7.779-4.933-22.484-4.933-22.484l1.626-.483a18.562,18.562,0,0,1,2.075-.333c1.223,2.708,2.434,5.416,3.408,8.234.582,1.694,1.084,3.405,1.734,5.082a29.642,29.642,0,0,0,2.493,4.518,1.977,1.977,0,0,1,.263.83Z" transform="translate(-17.062 -2.259)" fill="url(#linear-gradient-23)"/>
        <path id="Caminho_295" data-name="Caminho 295" d="M91.543,88.875a.985.985,0,0,1-.186.689c-.325.333-.875.088-1.259-.178a4.2,4.2,0,0,1-2.07-2.355,4.413,4.413,0,0,1,.071-1.525c.127-.847.206-1.725.254-2.6a1.815,1.815,0,0,0-.059-.455,6.227,6.227,0,0,0-.234-4.086c1.073,2.087,2.273,5.229,2.5,5.8A13.209,13.209,0,0,1,91.543,88.875Z" transform="translate(-17.062 -2.259)" fill="url(#linear-gradient-24)"/>
        <path id="Caminho_296" data-name="Caminho 296" d="M61.528,57.172H64.8l-.6-.872h.745l1.177,1.44H61.6Z" transform="translate(0.009 -0.002)" fill="#086c7b"/>
        <path id="Caminho_297" data-name="Caminho 297" d="M66.122,58.767h-3.27l.6.872h-.745l-1.18-1.44h4.523Z" transform="translate(0.009 -0.002)" fill="#086c7b"/>
        <path id="Caminho_298" data-name="Caminho 298" d="M80.554,53.507v-.988a2.84,2.84,0,0,1-1.508-.435l.237-.658a2.637,2.637,0,0,0,1.412.424c.7,0,1.175-.407,1.175-.966s-.384-.878-1.129-1.175c-1.005-.4-1.626-.847-1.626-1.694A1.6,1.6,0,0,1,80.6,46.428v-1h.613v.957a2.646,2.646,0,0,1,1.282.344l-.248.652a2.369,2.369,0,0,0-1.24-.336c-.76,0-1.045.455-1.045.847,0,.514.364.768,1.22,1.129,1.016.415,1.53.926,1.53,1.8A1.712,1.712,0,0,1,81.155,52.5v1.025Z" transform="translate(-17.062 -2.258)" fill="#086c7b"/>
        <path id="Caminho_299" data-name="Caminho 299" d="M115.936,56.638v-.994a2.883,2.883,0,0,1-1.508-.435l.234-.661a2.632,2.632,0,0,0,1.412.424c.7,0,1.175-.4,1.175-.966s-.384-.878-1.115-1.172c-1.005-.4-1.626-.847-1.626-1.694A1.6,1.6,0,0,1,116,49.551v-.994h.618v.957a2.6,2.6,0,0,1,1.282.344l-.248.649a2.369,2.369,0,0,0-1.24-.336c-.76,0-1.048.455-1.048.847,0,.511.367.768,1.223,1.129,1.016.412,1.53.926,1.53,1.8a1.714,1.714,0,0,1-1.559,1.674v1.025Z" transform="translate(-17.062 -2.258)" fill="#086c7b"/>
        <rect id="Retângulo_92" data-name="Retângulo 92" width="9.261" height="10.78" transform="translate(75.466 43.08)" opacity="0.48" fill="url(#linear-gradient-25)"/>
        <rect id="Retângulo_93" data-name="Retângulo 93" width="9.261" height="7.296" transform="translate(75.466 50.977)" opacity="0.48" fill="url(#linear-gradient-25)"/>
      </g>
    </g>
  </g>
  <g id="Grupo_de_máscara_32" data-name="Grupo de máscara 32" transform="translate(493 -1636)" clip-path="url(#clip-path-3)">
    <g id="security" transform="translate(192.758 1794.999)">
      <path id="Caminho_733" data-name="Caminho 733" d="M33.335,122.969a1.67,1.67,0,0,1-1.007,1.911,11.472,11.472,0,0,1-2.295.581,35.531,35.531,0,0,0-3.4,1.437,15.777,15.777,0,0,1-5,.713c-5.1.176-10.546.263-14.881-2.433a.829.829,0,0,1-.376-.374.668.668,0,0,1,.047-.483c.359-.826,1.388-1.078,2.279-1.219a107.852,107.852,0,0,1,12.745-1.4C23.663,121.632,32.5,120.741,33.335,122.969Z" opacity="0.19" fill="url(#linear-gradient-27)"/>
      <path id="Caminho_734" data-name="Caminho 734" d="M120.919,123.3a26.753,26.753,0,0,0-5.554,2l-7.229,3.2c4.032,2.17,8.926,1.274,13.507,1.212a1.82,1.82,0,0,1,1.152.249c.446.35.486,1.011.764,1.51.524.945,1.782,1.134,2.858,1.205a150.978,150.978,0,0,0,29.21-.931,2.767,2.767,0,0,0,1.323-.41c1.114-.831.33-2.749-.931-3.342s-2.742-.446-4.081-.829-2.631-1.8-2-3.05q-8.28.165-16.561-.178C129.206,123.764,125.078,122.452,120.919,123.3Z" fill="#1d2741" opacity="0.18"/>
      <path id="Caminho_735" data-name="Caminho 735" d="M147.536,75.147c.9-9.434,5.5-19.414.8-27.944a23.284,23.284,0,0,0-4.974-5.912c-2.611-2.341-5.585-4.455-8.185-6.815-4.6-4.179-7.231-9.176-10.775-13.758a34.132,34.132,0,0,0-4.983-5.286q-1.1-.929-2.228-1.829A64.694,64.694,0,0,0,96.21,2.1C85.027-1.337,71.732-.786,62.289,5.5A46.287,46.287,0,0,0,53.48,13.6c-2.143,2.4-4.213,4.863-6.5,7.113a33.47,33.47,0,0,1-6.857,5.362c-3.689,2.119-7.935,3.364-11.849,5.144a40.722,40.722,0,0,0-7.129,4.159,39.92,39.92,0,0,0-7.951,7.659A33.88,33.88,0,0,0,5.632,64.616c.029,1.2.127,2.4.165,3.607a17.5,17.5,0,0,1-.227,3.954,22.76,22.76,0,0,1-2.484,6.14C1.653,81.028.154,83.71.011,86.657c-.25,5.066,3.5,9.405,7.663,13.114.7.619,1.4,1.223,2.1,1.809,1.114.936,2.261,1.871,3.417,2.8l.223.178c.619.492,1.241.982,1.871,1.468,1.582,1.219,3.2,2.406,4.861,3.538q1.114.755,2.228,1.468a60.844,60.844,0,0,0,5.346,3.061,44.576,44.576,0,0,0,14.556,4.647c14.242,1.782,28.408-4.551,42.772-3.714,9.425.548,18.216,4.144,27.349,6.238s19.74,2.428,27.1-2.747c6.788-4.761,9.013-12.985,9.031-20.591S146.805,82.728,147.536,75.147Z" fill="#086c7b" opacity="0.18"/>
      <path id="Caminho_736" data-name="Caminho 736" d="M137.2,13.6H19.354a6.151,6.151,0,0,0-6.16,6.142h0v84.806H143.352v-84.8A6.151,6.151,0,0,0,137.2,13.6Z" fill="#086c7b"/>
      <path id="Caminho_737" data-name="Caminho 737" d="M36.779,90.852c-.223,2.323-2.308,4.03-4.455,4.761a11.764,11.764,0,0,0-3.252,1.281,2.54,2.54,0,0,0-.98,3.119,3.642,3.642,0,0,1,3.4,2.292,8.766,8.766,0,0,1-6.238,3.564,24.59,24.59,0,0,1-7.307-.459,4.088,4.088,0,0,1-2.352-.927,4.331,4.331,0,0,1-.927-2.372c-.02-.12-.042-.241-.065-.363H13.143V20.718h7.975V59.257c0,3.143-.143,6.313-.094,9.445.049,2.981,2.032,4.491,3.921,6.659A5.106,5.106,0,0,1,26.3,77.617c.185.933-.149,1.923.1,2.838.428,1.591,2.43,2.192,3.968,1.742s2.769-1.608,4.095-2.531a14.966,14.966,0,0,1,7.764-2.649c-.933,3.959-5.525,6.46-5.632,10.539C36.561,88.662,36.886,89.749,36.779,90.852Z" opacity="0.47" fill="url(#linear-gradient-28)"/>
      <path id="Caminho_738" data-name="Caminho 738" d="M7.525,94.345A25.541,25.541,0,0,1,3.718,83.672c-.245-2.31-.14-4.747-1.183-6.823C1.916,75.615.907,74.554.595,73.206c-.579-2.517,1.441-4.819,3.3-6.616a.858.858,0,0,1,.428-.276c.29-.053.55.187.726.425,1.063,1.432,1.147,3.342,1.419,5.095A8.366,8.366,0,0,0,8.831,76.98c1.45,1.272,3.685,1.831,4.4,3.627.635,1.6-.276,3.486.3,5.11s2.531,2.6,2.825,4.308c.2,1.136-.414,2.263-.4,3.415a11.5,11.5,0,0,0,.6,2.557c.459,1.831,0,7.193-2.782,5.625C11.257,100.208,9,96.735,7.525,94.345Z" fill="#086c7b"/>
      <path id="Caminho_739" data-name="Caminho 739" d="M7.525,94.345A25.541,25.541,0,0,1,3.718,83.672c-.245-2.31-.14-4.747-1.183-6.823C1.916,75.615.907,74.554.595,73.206c-.579-2.517,1.441-4.819,3.3-6.616a.858.858,0,0,1,.428-.276c.29-.053.55.187.726.425,1.063,1.432,1.147,3.342,1.419,5.095A8.366,8.366,0,0,0,8.831,76.98c1.45,1.272,3.685,1.831,4.4,3.627.635,1.6-.276,3.486.3,5.11s2.531,2.6,2.825,4.308c.2,1.136-.414,2.263-.4,3.415a11.5,11.5,0,0,0,.6,2.557c.459,1.831,0,7.193-2.782,5.625C11.257,100.208,9,96.735,7.525,94.345Z" fill="url(#linear-gradient-29)"/>
      <path id="Caminho_740" data-name="Caminho 740" d="M12.582,90.667a25.427,25.427,0,0,1,.223-11.33c.59-2.248,1.559-4.489,1.308-6.8-.143-1.374-.713-2.724-.526-4.092.35-2.56,3.052-4.01,5.422-5.026a.891.891,0,0,1,.5-.107c.292.053.446.37.528.655.488,1.715-.1,3.524-.474,5.268a8.388,8.388,0,0,0,.392,5.649c.9,1.7,2.8,3.016,2.834,4.948.029,1.722-1.49,3.166-1.528,4.885s1.448,3.324,1.114,5.03c-.223,1.132-1.19,1.969-1.579,3.052a11.4,11.4,0,0,0-.339,2.606c-.223,1.876-2.535,6.734-4.594,4.277C14.008,97.462,13.117,93.418,12.582,90.667Z" fill="#086c7b"/>
      <path id="Caminho_741" data-name="Caminho 741" d="M12.582,90.667a25.427,25.427,0,0,1,.223-11.33c.59-2.248,1.559-4.489,1.308-6.8-.143-1.374-.713-2.724-.526-4.092.35-2.56,3.052-4.01,5.422-5.026a.891.891,0,0,1,.5-.107c.292.053.446.37.528.655.488,1.715-.1,3.524-.474,5.268a8.388,8.388,0,0,0,.392,5.649c.9,1.7,2.8,3.016,2.834,4.948.029,1.722-1.49,3.166-1.528,4.885s1.448,3.324,1.114,5.03c-.223,1.132-1.19,1.969-1.579,3.052a11.4,11.4,0,0,0-.339,2.606c-.223,1.876-2.535,6.734-4.594,4.277C14.008,97.462,13.117,93.418,12.582,90.667Z" fill="url(#linear-gradient-30)"/>
      <path id="Caminho_742" data-name="Caminho 742" d="M17.719,91.284A25.643,25.643,0,0,1,25.344,82.9c1.925-1.3,4.123-2.357,5.465-4.255.8-1.127,1.261-2.517,2.3-3.424,1.949-1.7,4.932-1,7.391-.2a.871.871,0,0,1,.446.247.82.82,0,0,1-.033.842c-.762,1.611-2.4,2.58-3.827,3.649a8.375,8.375,0,0,0-3.428,4.507c-.441,1.876.118,4.115-1.132,5.589-1.114,1.314-3.206,1.4-4.369,2.673s-1.1,3.455-2.473,4.52c-.911.706-2.192.7-3.2,1.256a11.532,11.532,0,0,0-1.974,1.735c-1.4,1.268-6.342,3.4-6.271.192C14.3,97.35,16.3,93.712,17.719,91.284Z" fill="#086c7b"/>
      <path id="Caminho_743" data-name="Caminho 743" d="M17.719,91.284A25.643,25.643,0,0,1,25.344,82.9c1.925-1.3,4.123-2.357,5.465-4.255.8-1.127,1.261-2.517,2.3-3.424,1.949-1.7,4.932-1,7.391-.2a.871.871,0,0,1,.446.247.82.82,0,0,1-.033.842c-.762,1.611-2.4,2.58-3.827,3.649a8.375,8.375,0,0,0-3.428,4.507c-.441,1.876.118,4.115-1.132,5.589-1.114,1.314-3.206,1.4-4.369,2.673s-1.1,3.455-2.473,4.52c-.911.706-2.192.7-3.2,1.256a11.532,11.532,0,0,0-1.974,1.735c-1.4,1.268-6.342,3.4-6.271.192C14.3,97.35,16.3,93.712,17.719,91.284Z" fill="url(#linear-gradient-31)"/>
      <path id="Caminho_744" data-name="Caminho 744" d="M29.677,102.866l-.3,1.686-.256,1.468-.608,3.538-.243,1.468-.615,3.54-.256,1.466-1.528,8.795H9.98l-1.542-8.795-.256-1.466-.608-3.54-.258-1.468-.633-3.538-.252-1.468-.294-1.684a2.918,2.918,0,0,1,2.368-3.379h0a2.961,2.961,0,0,1,.506-.045H26.8a2.914,2.914,0,0,1,2.918,2.909,3.041,3.041,0,0,1-.045.512Z" fill="#086c7b"/>
      <path id="Caminho_745" data-name="Caminho 745" d="M29.677,102.866l-.3,1.686-.256,1.468-.608,3.538-.243,1.468-.615,3.54-.256,1.466-1.528,8.795H9.98l-1.542-8.795-.256-1.466-.608-3.54-.258-1.468-.633-3.538-.252-1.468-.294-1.684a2.918,2.918,0,0,1,2.368-3.379h0a2.961,2.961,0,0,1,.506-.045H26.8a2.914,2.914,0,0,1,2.918,2.909,3.041,3.041,0,0,1-.045.512Z" fill="url(#linear-gradient-32)"/>
      <path id="Caminho_746" data-name="Caminho 746" d="M143.352,19.755v.962H13.195V19.76A6.151,6.151,0,0,1,19.345,13.6H137.19a6.151,6.151,0,0,1,6.153,6.148Z" fill="url(#linear-gradient-33)"/>
      <circle id="Elipse_48" data-name="Elipse 48" cx="1.374" cy="1.374" r="1.374" transform="translate(18.399 15.52)" fill="url(#linear-gradient-34)"/>
      <circle id="Elipse_49" data-name="Elipse 49" cx="1.374" cy="1.374" r="1.374" transform="translate(23.012 15.52)" fill="url(#linear-gradient-35)"/>
      <circle id="Elipse_50" data-name="Elipse 50" cx="1.374" cy="1.374" r="1.374" transform="translate(27.623 15.52)" fill="url(#linear-gradient-36)"/>
      <path id="Caminho_747" data-name="Caminho 747" d="M92.937,50.569V76.02a3.259,3.259,0,0,1-3.255,3.252H64.24a3.259,3.259,0,0,1-3.255-3.252V50.569a3.252,3.252,0,0,1,3.252-3.252H89.683A3.252,3.252,0,0,1,92.937,50.569Z" fill="url(#linear-gradient-37)"/>
      <path id="Caminho_748" data-name="Caminho 748" d="M79.562,60.264a2.606,2.606,0,0,1-1.3,2.335.668.668,0,0,0-.334.59v5.569a.775.775,0,0,1-.775.775h-.379A.775.775,0,0,1,76,68.758h0V63.189a.682.682,0,0,0-.334-.593,2.6,2.6,0,1,1,3.9-2.328Z" fill="#086c7b"/>
      <path id="Caminho_749" data-name="Caminho 749" d="M29.386,104.552l-.256,1.468H6.688l-.256-1.468Z" fill="#086c7b"/>
      <path id="Caminho_750" data-name="Caminho 750" d="M28.512,109.558l-.254,1.468H7.565l-.258-1.468Z" fill="#086c7b"/>
      <path id="Caminho_751" data-name="Caminho 751" d="M27.643,114.566l-.256,1.466H8.439l-.256-1.466Z" fill="#086c7b"/>
      <path id="Caminho_752" data-name="Caminho 752" d="M110.095,68.143a9.229,9.229,0,0,0-4.306-3.119,1.614,1.614,0,0,0-1.19-.107,1.722,1.722,0,0,0-.639.613,7.3,7.3,0,0,0-1.733,3.694c-.116,2.094,1.544,4.324.479,6.131-.3.5-.769.878-1.114,1.35a4.71,4.71,0,0,0-.713,3.159c.1,1.321.274,3.088-.974,3.538a2.143,2.143,0,0,1-1.149.016c-1.094-.223-2.105-.746-3.177-1.058a3.961,3.961,0,0,0-3.239.223,3.083,3.083,0,0,0,2.016,2.7A23.817,23.817,0,0,1,97.631,86.7,5.5,5.5,0,0,1,99.812,91.4a10.862,10.862,0,0,1-1.66,5.088,7.983,7.983,0,0,0-1.065,2.272c-.341,1.64.577,3.25,1.457,4.678a1.835,1.835,0,0,0,2.176,1.149l15.625-1.337c.446-.038.965-.127,1.156-.53a1.181,1.181,0,0,0,0-.764c-.51-2.188-2.116-3.988-2.687-6.162a13.922,13.922,0,0,1-.321-3.119,69.636,69.636,0,0,0-1.181-12.921c-.461-2.114-1.6-4.09-2.047-6.151C110.848,71.685,111.423,70,110.095,68.143Z" fill="#1d2741" opacity="0.18"/>
      <path id="Caminho_753" data-name="Caminho 753" d="M85.575,47.323H82.81V43.609a5.848,5.848,0,0,0-11.7.029v3.685H68.348V43.536a8.614,8.614,0,0,1,17.225.051Z" fill="url(#linear-gradient-38)"/>
      <path id="Caminho_754" data-name="Caminho 754" d="M143.332,121.632l2.332,2.228-3.357,3.342-4.217.363a1.559,1.559,0,0,1,.771-1.9,7.351,7.351,0,0,1,2.493-.815l-.091-1.724Z" fill="#3f3d56"/>
      <path id="Caminho_755" data-name="Caminho 755" d="M117.4,121.456l.343,2.811-7.9,3.538a2.613,2.613,0,0,1,.024-2.851c1.011-1.325,3.8-2.257,3.8-2.257l.492-1.223Z" fill="#3f3d56"/>
      <path id="Caminho_756" data-name="Caminho 756" d="M119.42,78.094a8.459,8.459,0,0,0-3.161,5.4c-.3,3.281-.446,4.433-.446,4.433l-5.012-.405-.067,2.771s6.65,2.43,7.67,2.016a7.869,7.869,0,0,0,2.3-2.243Z" fill="#086c7b"/>
      <path id="Caminho_757" data-name="Caminho 757" d="M119.42,78.094a8.459,8.459,0,0,0-3.161,5.4c-.3,3.281-.446,4.433-.446,4.433l-5.012-.405-.067,2.771s6.65,2.43,7.67,2.016a7.869,7.869,0,0,0,2.3-2.243Z" fill="url(#linear-gradient-39)"/>
      <path id="Caminho_758" data-name="Caminho 758" d="M121.345,95.584s-10.47,8.639-10.555,11.584,2.573,14.464,2.573,14.464l4.059-.022.118-12.105s8.563-2.99,9.494-4.8S129.939,94.084,121.345,95.584Z" fill="#086c7b"/>
      <path id="Caminho_759" data-name="Caminho 759" d="M121.345,95.584s-10.47,8.639-10.555,11.584,2.573,14.464,2.573,14.464l4.059-.022.118-12.105s8.563-2.99,9.494-4.8S129.939,94.084,121.345,95.584Z" fill="url(#linear-gradient-40)"/>
      <path id="Caminho_760" data-name="Caminho 760" d="M121.345,95.584s.639,13.175,4.758,17.434,14.66,10.651,14.66,10.651l2.992-1.856-10.12-10.564s1.464-11.858-.267-13.936S121.345,95.584,121.345,95.584Z" fill="#086c7b"/>
      <path id="Caminho_761" data-name="Caminho 761" d="M121.345,95.584s.639,13.175,4.758,17.434,14.66,10.651,14.66,10.651l2.992-1.856-10.12-10.564s1.464-11.858-.267-13.936S121.345,95.584,121.345,95.584Z" fill="url(#linear-gradient-41)"/>
      <path id="Caminho_762" data-name="Caminho 762" d="M121.345,95.584l-3.578-15.137s2-5.772,9.951-3.914,5.643,20.78,5.643,20.78S124.441,100.271,121.345,95.584Z" fill="#086c7b"/>
      <path id="Caminho_763" data-name="Caminho 763" d="M121.345,95.584l-3.578-15.137s2-5.772,9.951-3.914,5.643,20.78,5.643,20.78S124.441,100.271,121.345,95.584Z" fill="url(#linear-gradient-42)"/>
      <path id="Caminho_764" data-name="Caminho 764" d="M127.449,78.86s-.477-2.52,2.081-1.847,6.538,9.356,6.391,10.564-12.589,1.7-12.589,1.7l-.3-2.9,6.541-1.094S127.175,81.175,127.449,78.86Z" fill="#086c7b"/>
      <path id="Caminho_765" data-name="Caminho 765" d="M127.449,78.86s-.477-2.52,2.081-1.847,6.538,9.356,6.391,10.564-12.589,1.7-12.589,1.7l-.3-2.9,6.541-1.094S127.175,81.175,127.449,78.86Z" fill="url(#linear-gradient-43)"/>
      <path id="Caminho_766" data-name="Caminho 766" d="M126.228,73.483a2.972,2.972,0,0,1-1.473,1.424,2.191,2.191,0,0,0-.314.136.6.6,0,0,0-.123.1c-.223.25-.067.619,0,.94a2,2,0,0,1-.909,1.9,3.787,3.787,0,0,1-1.114.483,2.448,2.448,0,0,1-1.573-.02c-.668-.314-.6-1.337-.748-1.963a18.506,18.506,0,0,1-.691-6.215,6.41,6.41,0,0,1,1.1-3.154,3.614,3.614,0,0,1,2.865-1.539,4.56,4.56,0,0,1,3,1.559,3.885,3.885,0,0,1,.7.942,4.983,4.983,0,0,1-.045,3.426A8.79,8.79,0,0,1,126.228,73.483Z" fill="url(#linear-gradient-44)"/>
      <path id="Caminho_767" data-name="Caminho 767" d="M127.123,68.555a12.894,12.894,0,0,0-5.362,1.176c-1.8,1.045-2.3,3.277-2.45,3.239-.341-.078-1.452-2.228-.985-2.7s.1-.477.1-.477a3.852,3.852,0,0,1-.267-2.491,25.616,25.616,0,0,1,.9-3.446s.14-.53,2.163,0,5.433,2.15,5.623,2.807a1.4,1.4,0,0,1,.033.958A.736.736,0,0,1,127.123,68.555Z" fill="#086c7b"/>
      <path id="Caminho_768" data-name="Caminho 768" d="M127.123,68.555a12.894,12.894,0,0,0-5.362,1.176c-1.8,1.045-2.3,3.277-2.45,3.239-.341-.078-1.452-2.228-.985-2.7s.1-.477.1-.477a3.852,3.852,0,0,1-.267-2.491,25.616,25.616,0,0,1,.9-3.446s.14-.53,2.163,0,5.433,2.15,5.623,2.807a1.4,1.4,0,0,1,.033.958A.736.736,0,0,1,127.123,68.555Z" fill="url(#linear-gradient-45)"/>
      <path id="Caminho_769" data-name="Caminho 769" d="M121.761,69.727a25.376,25.376,0,0,0,3.564.6,3.627,3.627,0,0,0,1.862-.274c.013-.114-.35,1.809-.35,1.809l-.818.287a2.243,2.243,0,0,1-.985.116l-5.1-.53A5.671,5.671,0,0,1,121.761,69.727Z" fill="#086c7b"/>
      <path id="Caminho_770" data-name="Caminho 770" d="M121.761,69.727a25.376,25.376,0,0,0,3.564.6,3.627,3.627,0,0,0,1.862-.274c.013-.114-.35,1.809-.35,1.809l-.818.287a2.243,2.243,0,0,1-.985.116l-5.1-.53A5.671,5.671,0,0,1,121.761,69.727Z" fill="url(#linear-gradient-46)"/>
      <path id="Caminho_771" data-name="Caminho 771" d="M123.86,70.711a.76.76,0,0,1,.446.013.432.432,0,0,1,.252.145.537.537,0,0,1,.076.189.178.178,0,0,1,0,.118.158.158,0,0,1-.156.051,2,2,0,0,1-.775-.149C123.5,70.974,123.688,70.772,123.86,70.711Z" fill="#fff"/>
      <path id="Caminho_772" data-name="Caminho 772" d="M126.21,70.821a.414.414,0,0,1,.31-.1.263.263,0,0,1,.2.074.572.572,0,0,1,.087.163.223.223,0,0,1,.022.116.116.116,0,0,1-.1.089,1.022,1.022,0,0,1-.559.056C126.012,71.166,126.1,70.921,126.21,70.821Z" fill="#fff"/>
      <path id="Caminho_773" data-name="Caminho 773" d="M123.4,77.983a3.788,3.788,0,0,1-1.114.483,2.52,2.52,0,0,1-.61-1.337,7.113,7.113,0,0,1-.118-1.043,1.225,1.225,0,0,1,.209-.864,1.027,1.027,0,0,1,.875-.258c.314.036.617.145.931.178a6.015,6.015,0,0,0,.869-.109.6.6,0,0,0-.123.1c-.223.25-.067.619,0,.94A2.036,2.036,0,0,1,123.4,77.983Z" fill="url(#linear-gradient-47)"/>
      <path id="Caminho_774" data-name="Caminho 774" d="M109.07,86.123a.944.944,0,0,0-.446-.194.334.334,0,0,0-.365.252.5.5,0,0,0,.109.312l.3.47a.312.312,0,0,1,.065.169c0,.156-.223.187-.381.167a11.548,11.548,0,0,0-2.936-.3.312.312,0,0,0-.2.082.223.223,0,0,0,.024.278.608.608,0,0,0,.263.149,11.285,11.285,0,0,0,1.682.472c-.065.16-.276.189-.446.2a9.358,9.358,0,0,0-1.41.16c-.265.049-.59.183-.593.446a.423.423,0,0,0,.319.374,1.348,1.348,0,0,0,.526.018,8.466,8.466,0,0,1,1.84.047,3.647,3.647,0,0,0-1.811.735.379.379,0,0,0-.116.129c-.06.129.053.285.189.33a.827.827,0,0,0,.423-.024,9.451,9.451,0,0,1,1.856-.241,4.493,4.493,0,0,0-1.043.668.753.753,0,0,0-.223.278.3.3,0,0,0,.058.336.423.423,0,0,0,.383.031,19.617,19.617,0,0,1,2.156-.793c.4-.06.855-.036,1.132-.327a1.187,1.187,0,0,0,.241-.5c.165-.573.506-1.782.16-2.339a2.958,2.958,0,0,0-.668-.57,12.946,12.946,0,0,0-1.087-.818Z" fill="#086c7b"/>
      <path id="Caminho_775" data-name="Caminho 775" d="M121.485,85.209a.945.945,0,0,0-.446-.194.334.334,0,0,0-.365.252.5.5,0,0,0,.109.312l.3.47a.312.312,0,0,1,.065.169c-.011.156-.223.187-.381.167a11.449,11.449,0,0,0-2.936-.3.31.31,0,0,0-.2.08.223.223,0,0,0,.025.281.608.608,0,0,0,.263.149,11.284,11.284,0,0,0,1.682.472c-.065.16-.276.187-.446.194a9.658,9.658,0,0,0-1.41.163c-.265.049-.59.18-.593.446a.423.423,0,0,0,.319.374,1.347,1.347,0,0,0,.526.018,8.466,8.466,0,0,1,1.84.047,3.638,3.638,0,0,0-1.809.735.379.379,0,0,0-.118.127.27.27,0,0,0,.185.33h0a.8.8,0,0,0,.423-.022,9.285,9.285,0,0,1,1.856-.241,4.494,4.494,0,0,0-1.043.668.753.753,0,0,0-.223.278.3.3,0,0,0,.058.336.428.428,0,0,0,.385.031,19.413,19.413,0,0,1,2.154-.793c.4-.06.855-.036,1.132-.327a1.187,1.187,0,0,0,.241-.5c.167-.573.506-1.782.16-2.341a2.95,2.95,0,0,0-.668-.568,12.92,12.92,0,0,0-1.083-.818Z" fill="#086c7b"/>
      <path id="Caminho_776" data-name="Caminho 776" d="M109.07,86.123a.944.944,0,0,0-.446-.194.334.334,0,0,0-.365.252.5.5,0,0,0,.109.312l.3.47a.312.312,0,0,1,.065.169c0,.156-.223.187-.381.167a11.548,11.548,0,0,0-2.936-.3.312.312,0,0,0-.2.082.223.223,0,0,0,.024.278.608.608,0,0,0,.263.149,11.285,11.285,0,0,0,1.682.472c-.065.16-.276.189-.446.2a9.358,9.358,0,0,0-1.41.16c-.265.049-.59.183-.593.446a.423.423,0,0,0,.319.374,1.348,1.348,0,0,0,.526.018,8.466,8.466,0,0,1,1.84.047,3.647,3.647,0,0,0-1.811.735.379.379,0,0,0-.116.129c-.06.129.053.285.189.33a.827.827,0,0,0,.423-.024,9.451,9.451,0,0,1,1.856-.241,4.493,4.493,0,0,0-1.043.668.753.753,0,0,0-.223.278.3.3,0,0,0,.058.336.423.423,0,0,0,.383.031,19.617,19.617,0,0,1,2.156-.793c.4-.06.855-.036,1.132-.327a1.187,1.187,0,0,0,.241-.5c.165-.573.506-1.782.16-2.339a2.958,2.958,0,0,0-.668-.57,12.946,12.946,0,0,0-1.087-.818Z" fill="url(#linear-gradient-48)"/>
      <path id="Caminho_777" data-name="Caminho 777" d="M121.485,85.209a.945.945,0,0,0-.446-.194.334.334,0,0,0-.365.252.5.5,0,0,0,.109.312l.3.47a.312.312,0,0,1,.065.169c-.011.156-.223.187-.381.167a11.449,11.449,0,0,0-2.936-.3.31.31,0,0,0-.2.08.223.223,0,0,0,.025.281.608.608,0,0,0,.263.149,11.284,11.284,0,0,0,1.682.472c-.065.16-.276.187-.446.194a9.658,9.658,0,0,0-1.41.163c-.265.049-.59.18-.593.446a.423.423,0,0,0,.319.374,1.347,1.347,0,0,0,.526.018,8.466,8.466,0,0,1,1.84.047,3.638,3.638,0,0,0-1.809.735.379.379,0,0,0-.118.127.27.27,0,0,0,.185.33h0a.8.8,0,0,0,.423-.022,9.285,9.285,0,0,1,1.856-.241,4.494,4.494,0,0,0-1.043.668.753.753,0,0,0-.223.278.3.3,0,0,0,.058.336.428.428,0,0,0,.385.031,19.413,19.413,0,0,1,2.154-.793c.4-.06.855-.036,1.132-.327a1.187,1.187,0,0,0,.241-.5c.167-.573.506-1.782.16-2.341a2.95,2.95,0,0,0-.668-.568,12.92,12.92,0,0,0-1.083-.818Z" fill="url(#linear-gradient-49)"/>
    </g>
  </g>
  <text id="Modelo_proprietário_de_análise_Empresas_saudáveis_sem_negativação_é_inclusas_no_banco_nacional_de_devedores_trabalhistas_Parceiro_de_escritório_especializado_em_direito_do_trabalho." data-name="Modelo proprietário de análise
Empresas saudáveis, sem negativação é inclusas no banco nacional de devedores trabalhistas
Parceiro de escritório especializado em direito do trabalho." transform="translate(703 394)" fill="#395e66" font-size="20" font-family="Muli-Regular, Muli" opacity="0.5"><tspan x="0" y="20">Modelo proprietário de análise</tspan><tspan x="0" y="55">Empresas saudáveis, sem negativação é inclusas </tspan><tspan x="0" y="90">no banco nacional de devedores trabalhistas</tspan><tspan x="0" y="125">Parceiro de escritório especializado em direito do </tspan><tspan x="0" y="160">trabalho.</tspan></text>
  <circle id="Elipse_62" data-name="Elipse 62" cx="3" cy="3" r="3" transform="translate(692 404)" fill="#395e66" opacity="0.5"/>
  <circle id="Elipse_61" data-name="Elipse 61" cx="3" cy="3" r="3" transform="translate(692 439)" fill="#395e66" opacity="0.5"/>
  <circle id="Elipse_60" data-name="Elipse 60" cx="3" cy="3" r="3" transform="translate(692 510)" fill="#395e66" opacity="0.5"/>
</svg>
