<svg version="1" xmlns="http://www.w3.org/2000/svg" width="2560" height="2560" viewBox="0 0 1920.000000 1920.000000"><path d="M917.5 356c-138.4 9-259 61.5-368.4 160.4-99.4 89.8-162.9 207.8-185.1 343.7-25.6 157.7 4.5 301.5 90.5 430.9 86.4 130.2 204.5 215.5 350 253 92.8 23.9 184.2 27.2 272 9.9 75.9-15 154-47 218.2-89.6 28.3-18.7 54.2-39.2 78.3-62.1 69-65.3 118.6-138.1 151.7-222.7 21.2-54 33.4-107 38.5-166.5 1.4-17.3 1.4-13.9 1.1-391.3L1564 376h-101.5c-55.8 0-101.6.1-101.7.2-.1.2-.5 146.5-.8 325.3l-.6 325-2.2 9.9c-9.3 42.7-27.6 86.6-55.5 133.2-31.1 52.1-72 96.8-117.8 128.7-75.3 52.5-168.8 74.8-266.5 63.6-94.9-10.8-172.3-46.2-235.8-107.9-60.6-59-102.2-133.8-118.1-212.4-20.3-101.3-2.5-204.7 50.1-290.4C666.4 665.3 740 606 831.2 576.1c71-23.2 143.1-27.9 210.7-13.6 27.9 5.9 48.9 13.2 89.9 31.1 15.6 6.8 28.6 12.4 28.8 12.4.2 0 .3-47.1.2-104.8-.3-102.6-.3-104.8-2.3-108.1-1.1-1.9-3.2-4.3-4.6-5.3-2.6-2-37.5-11.6-66.2-18.2-23-5.4-51.8-9.6-85.2-12.6-16.1-1.4-68.9-2.1-85-1zm70.5 67c39.5 2.5 89.9 10.7 97 15.8 5.7 4.1 6 6.1 6 37.1v28.3l-2.2-.5c-1.3-.3-10.6-2.2-20.8-4.1-142.3-27.3-264-5.7-367.8 65-50.9 34.7-102.2 87.1-137.9 140.9-41.4 62.3-64.7 126.5-73 200.7-2.3 21.1-2.3 68.2.1 90.3 16.3 154.3 84.9 272.5 204.1 352.2 97.1 64.8 202 92.7 307.4 81.7 58.7-6.1 124.7-25.1 175.9-50.8 62-31 114.6-74.9 157.2-131.1 18.8-24.7 37.4-55.3 53-87 29.3-59.7 43.2-117.1 48-198.5 1.6-26.1 1.3-181.6-.5-311-.8-59.1-1.5-129.9-1.5-157.3V445h60.7l.6 8.2c1.1 13.5.8 552.5-.3 569.8-1.6 25.5-5.1 46.1-12.6 73-10.1 35.9-28.4 82.2-45.1 114-42.1 80-101.8 145.6-179.8 197.8-54.4 36.2-113 61.9-173.3 75.7-73.1 16.7-154.6 17.4-233.2 1.9-139.8-27.6-254.7-106-339.5-231.9-72.1-107.1-99.4-227.7-82.4-364.5 18.2-146.1 92-270.2 216.9-364.4 47.8-36.1 100.7-62.5 160.4-80.1 59.7-17.5 124-25.1 182.6-21.5z"/><path d="M1246 374.1c-3.6.8-6.8 3.4-8.4 6.9-.8 1.8-1.2 81.6-1.7 301.5-.5 276.1-.6 299.9-2.2 310.9-4.9 33.6-12.5 58.2-27.2 88.1-13.7 28.1-30.4 51.4-52 73-21.1 21.1-44.7 38.1-71.3 51.3-28.8 14.3-55.9 22.6-89.7 27.4-13.9 2-55.2 1.7-70-.5-42.1-6.3-78.3-20-112.9-42.7-67.8-44.6-109.5-108.3-121.6-185.9-2.9-18.3-3.7-21.4-7-25.3l-2.8-3.3-30.7-.3-30.8-.3.6 16.3c1.4 42.5 16.1 92.9 38.8 133.1 23 40.6 53.5 77.1 87.4 104.6 61.2 49.7 147.7 78.5 228 75.8 36.1-1.2 64.7-6.6 100-18.8 51.1-17.6 93.8-44.1 131-81.4 17.4-17.3 28.9-31.3 42-51 33.3-50.1 51.3-96.4 54.4-140 .6-7.7 1.5-82.4 2.1-166 .5-83.6 1.5-224.1 2.1-312.3.7-88.1 1-160.4.8-160.6-.7-.7-55.7-1.1-58.9-.5z"/></svg>