<svg width="65" height="65" viewBox="0 0 65 65" fill="none" xmlns="http://www.w3.org/2000/svg">
<g clip-path="url(#clip0)">
<path d="M32.4494 1.41833C47.1127 1.41833 59.0456 12.8055 59.0456 26.845C59.0456 46.5775 32.4494 63.5817 32.4494 63.5817C32.4494 63.5817 5.85254 46.5775 5.85254 26.845C5.85254 12.8055 17.786 1.41833 32.4494 1.41833ZM51.8671 27.5453C51.8671 16.8214 43.1733 8.12752 32.4494 8.12752C21.7249 8.12752 13.031 16.8214 13.031 27.5453C13.031 38.2698 21.7249 46.9637 32.4494 46.9637C43.1733 46.9637 51.8671 38.2698 51.8671 27.5453Z" fill="white"/>
<path d="M32.4486 8.12756C43.1726 8.12756 51.8664 16.8214 51.8664 27.5454C51.8664 38.2699 43.1726 46.9637 32.4486 46.9637C21.7241 46.9637 13.0303 38.2699 13.0303 27.5454C13.0303 16.8214 21.7241 8.12756 32.4486 8.12756Z" fill="white"/>
<path d="M32.4488 0C17.0015 0 4.43359 12.0421 4.43359 26.845C4.43359 31.5956 5.89467 36.5639 8.77581 41.6126C11.0436 45.5858 14.1946 49.6227 18.1423 53.6109C24.8254 60.3627 31.4077 64.5996 31.6848 64.7769C32.1507 65.0745 32.7469 65.0745 33.2129 64.7769C33.4899 64.5996 40.0717 60.3627 46.7554 53.6109C50.7031 49.6227 53.8541 45.5858 56.1213 41.6126C59.003 36.5639 60.4635 31.5956 60.4635 26.845C60.4635 12.0426 47.8962 0 32.4488 0ZM53.6718 40.1814C51.5336 43.9341 48.5417 47.7682 44.7779 51.5758C40.9897 55.3767 36.8631 58.8241 32.4488 61.8753C28.049 58.8351 23.9356 55.401 20.1591 51.6146C16.3859 47.8026 13.3845 43.964 11.2403 40.2063C8.60626 35.5921 7.27041 31.0958 7.27041 26.845C7.27041 13.6067 18.5656 2.83682 32.4488 2.83682C46.3321 2.83682 57.6267 13.6067 57.6267 26.845C57.6267 31.0886 56.2964 35.5755 53.6718 40.1814Z" fill="#CECECE"/>
<path d="M32.4481 6.70923C20.959 6.70923 11.6113 16.0563 11.6113 27.5454C11.6113 39.0345 20.959 48.3822 32.4481 48.3822C43.9372 48.3822 53.2843 39.0345 53.2843 27.5454C53.2843 16.0563 43.9372 6.70923 32.4481 6.70923ZM32.4481 45.5454C22.507 45.5454 14.4481 37.4865 14.4481 27.5454C14.4481 17.6044 22.507 9.54605 32.4481 9.54605C42.3891 9.54605 50.4475 17.6044 50.4475 27.5454C50.4364 37.482 42.3841 45.5337 32.4481 45.5454Z" fill="#CECECE"/>
<path d="M22.5036 25.8567C22.7259 26.6863 22.1511 27.9768 22.7421 28.9907C23.3332 30.0047 24.7646 30.1836 25.334 30.7584C25.6937 31.2682 26.0007 31.8132 26.2503 32.385L23.3765 40.7732C23.2411 41.2095 23.3935 41.684 23.7578 41.9596C24.1222 42.2353 24.6202 42.2531 25.0032 42.0041L26.8034 40.7299L27.4378 42.8391C27.5717 43.2917 27.983 43.6056 28.4549 43.6155C28.9267 43.6254 29.3508 43.329 29.5037 42.8825L32.3124 34.7979C32.7975 35.0041 33.3455 35.0041 33.8306 34.7979L36.6176 42.9042C36.7705 43.3507 37.1945 43.6471 37.6664 43.6372C38.1383 43.6273 38.5495 43.3134 38.6835 42.8608L39.3179 40.7515L41.1181 42.0095C41.5011 42.2585 41.9991 42.2407 42.3634 41.965C42.7278 41.6894 42.8802 41.215 42.7448 40.7787L39.8927 32.4067C40.1432 31.8364 40.4483 31.2917 40.8036 30.7801C41.3946 30.1728 42.8315 30.0101 43.4008 28.9961C43.9702 27.9822 43.428 26.6646 43.6394 25.8621C43.8509 25.0596 45.0004 24.2192 45.0004 23.0317C45.0004 21.8442 43.84 20.9604 43.6394 20.2013C43.4388 19.4422 43.9919 18.0812 43.4008 17.0672C42.8098 16.0533 41.3783 15.8743 40.809 15.2996C40.2397 14.7248 40.0607 13.2717 39.0359 12.6969C38.0111 12.1222 36.7044 12.6969 35.9019 12.4638C35.0994 12.2306 34.2644 11.1028 33.0715 11.1028C31.8786 11.1028 31.0056 12.2577 30.2411 12.4638C29.3952 12.6861 28.1264 12.1059 27.107 12.6969C26.0877 13.2879 25.9196 14.714 25.3394 15.2942C24.7592 15.8743 23.3115 16.0424 22.7692 17.0672C22.227 18.092 22.7692 19.3988 22.5307 20.2013C22.2921 21.0038 21.1426 21.8334 21.1426 23.0317C21.1426 24.23 22.2975 25.0867 22.5036 25.8567ZM28.5005 42.5517L27.8661 40.4316C27.759 40.1011 27.4999 39.8419 27.1694 39.7346C26.8389 39.6273 26.477 39.6848 26.1961 39.8894L24.3959 41.1474C27.3022 32.6833 27.0528 33.3339 27.107 33.3339C28.1047 33.9141 29.4386 33.3339 30.2411 33.5671C30.6322 33.735 30.9973 33.9577 31.3255 34.2286L28.5005 42.5517ZM39.9469 39.8406C39.6586 39.6373 39.2894 39.5869 38.9571 39.7056C38.6249 39.8242 38.3711 40.0971 38.2768 40.4371L37.6424 42.5517L34.7903 34.2503C35.1159 33.9771 35.4817 33.7557 35.8748 33.5942C36.7261 33.3665 37.9895 33.9466 39.0088 33.3556C39.0631 33.3231 38.8191 32.6941 41.7199 41.142L39.9469 39.8406ZM22.8343 21.7846C23.6097 20.7001 23.7181 20.3423 23.5934 18.9379C23.4687 17.5336 23.5446 17.436 24.808 16.8558C26.0714 16.2756 26.3208 16.0207 26.8956 14.7628C27.4703 13.5048 27.6493 13.4289 28.9831 13.5536C30.317 13.6783 30.7345 13.5536 31.8298 12.7945C32.9251 12.0354 33.1691 11.9866 34.3132 12.7945C35.4573 13.6024 35.7826 13.6729 37.1599 13.5536C38.5371 13.4343 38.6672 13.5048 39.2474 14.7628C39.8276 16.0207 40.0879 16.2756 41.335 16.8558C42.5821 17.436 42.6743 17.5824 42.5496 18.9379C42.4248 20.2935 42.5496 20.6947 43.3087 21.7846C44.0678 22.8744 44.1166 23.1239 43.3087 24.268C42.5008 25.4121 42.4248 25.7103 42.5496 27.1146C42.6743 28.519 42.5984 28.6166 41.335 29.2022C40.0716 29.7878 39.8276 30.0318 39.2474 31.2898C38.6672 32.5477 38.5208 32.6236 37.1599 32.5043C35.7989 32.385 35.4085 32.5043 34.3132 33.258C33.2179 34.0117 32.9739 34.0659 31.8298 33.258C31.2646 32.7469 30.5313 32.4613 29.7693 32.4555C28.9885 32.4555 28.1047 32.6778 27.6493 32.4176C27.0257 32.0543 26.8576 30.7421 26.1039 29.9938C25.3502 29.2456 24.0326 29.0612 23.6802 28.4539C23.3277 27.8466 23.8266 26.6104 23.55 25.5856C23.2735 24.5608 22.227 23.7529 22.227 23.0317C22.3092 22.5675 22.5195 22.1355 22.8343 21.7846Z" fill="#79BA44"/>
<path d="M33.0708 31.1651C37.5628 31.1651 41.2042 27.5237 41.2042 23.0318C41.2042 18.5399 37.5628 14.8984 33.0708 14.8984C28.5789 14.8984 24.9375 18.5399 24.9375 23.0318C24.9375 27.5237 28.5789 31.1651 33.0708 31.1651ZM33.0708 15.9829C36.9638 15.9829 40.1198 19.1388 40.1198 23.0318C40.1198 26.9248 36.9638 30.0807 33.0708 30.0807C29.1778 30.0807 26.0219 26.9248 26.0219 23.0318C26.0219 21.1623 26.7646 19.3694 28.0865 18.0475C29.4084 16.7255 31.2014 15.9829 33.0708 15.9829Z" fill="#79BA44"/>
<path d="M29.303 24.783C29.5919 24.7685 29.8185 24.5299 29.8181 24.2408C29.7927 23.2797 30.1701 22.3518 30.8592 21.6815C31.678 20.8681 32.6431 20.6512 33.8306 20.4506C34.65 20.3097 35.4334 20.0074 36.135 19.5614C36.8399 22.2725 35.5549 25.6343 32.8817 26.5235C32.2551 26.7298 31.6002 26.8377 30.9405 26.8434C31.7274 25.3764 32.8404 24.1094 34.1939 23.14C34.3106 23.0554 34.3888 22.9277 34.4112 22.7853C34.4336 22.6428 34.3983 22.4973 34.3132 22.3809C34.1372 22.1412 33.8009 22.088 33.5595 22.2616C31.8022 23.4795 30.4275 25.172 29.5958 27.1417C29.54 27.2985 29.5594 27.4722 29.6482 27.613C29.7371 27.7537 29.8857 27.8458 30.0513 27.8628C32.8871 28.1665 35.4356 27.0169 36.699 24.2841C37.5445 22.4596 37.6265 20.373 36.9267 18.4878C36.8646 18.3334 36.7351 18.216 36.5753 18.1695C36.4155 18.1229 36.2432 18.1523 36.1079 18.2492C35.3871 18.813 34.5407 19.1943 33.6408 19.3608C32.3124 19.5831 31.1303 19.8542 30.0838 20.8898C29.1833 21.7766 28.6939 22.9992 28.7337 24.2624C28.7393 24.4073 28.8027 24.5438 28.9096 24.6416C29.0166 24.7394 29.1583 24.7903 29.303 24.783Z" fill="#79BA44"/>
</g>
<defs>
<clipPath id="clip0">
<rect width="65" height="65" fill="white"/>
</clipPath>
</defs>
</svg>
