<svg width="65" height="65" viewBox="0 0 65 65" fill="none" xmlns="http://www.w3.org/2000/svg">
<g clip-path="url(#clip0)">
<path d="M32.4494 1.41833C47.1127 1.41833 59.0456 12.8055 59.0456 26.845C59.0456 46.5775 32.4494 63.5817 32.4494 63.5817C32.4494 63.5817 5.85254 46.5775 5.85254 26.845C5.85254 12.8055 17.786 1.41833 32.4494 1.41833ZM51.8671 27.5453C51.8671 16.8214 43.1733 8.12752 32.4494 8.12752C21.7249 8.12752 13.031 16.8214 13.031 27.5453C13.031 38.2698 21.7249 46.9637 32.4494 46.9637C43.1733 46.9637 51.8671 38.2698 51.8671 27.5453Z" fill="white"/>
<path d="M32.4486 8.12756C43.1726 8.12756 51.8664 16.8214 51.8664 27.5454C51.8664 38.2699 43.1726 46.9637 32.4486 46.9637C21.7241 46.9637 13.0303 38.2699 13.0303 27.5454C13.0303 16.8214 21.7241 8.12756 32.4486 8.12756Z" fill="white"/>
<path d="M32.4488 0C17.0015 0 4.43359 12.0421 4.43359 26.845C4.43359 31.5956 5.89467 36.5639 8.77581 41.6126C11.0436 45.5858 14.1946 49.6227 18.1423 53.6109C24.8254 60.3627 31.4077 64.5996 31.6848 64.7769C32.1507 65.0745 32.7469 65.0745 33.2129 64.7769C33.4899 64.5996 40.0717 60.3627 46.7554 53.6109C50.7031 49.6227 53.8541 45.5858 56.1213 41.6126C59.003 36.5639 60.4635 31.5956 60.4635 26.845C60.4635 12.0426 47.8962 0 32.4488 0ZM53.6718 40.1814C51.5336 43.9341 48.5417 47.7682 44.7779 51.5758C40.9897 55.3767 36.8631 58.8241 32.4488 61.8753C28.049 58.8351 23.9356 55.401 20.1591 51.6146C16.3859 47.8026 13.3845 43.964 11.2403 40.2063C8.60626 35.5921 7.27041 31.0958 7.27041 26.845C7.27041 13.6067 18.5656 2.83682 32.4488 2.83682C46.3321 2.83682 57.6267 13.6067 57.6267 26.845C57.6267 31.0886 56.2964 35.5755 53.6718 40.1814Z" fill="#CECECE"/>
<path d="M32.4481 6.70923C20.959 6.70923 11.6113 16.0563 11.6113 27.5454C11.6113 39.0345 20.959 48.3822 32.4481 48.3822C43.9372 48.3822 53.2843 39.0345 53.2843 27.5454C53.2843 16.0563 43.9372 6.70923 32.4481 6.70923ZM32.4481 45.5454C22.507 45.5454 14.4481 37.4865 14.4481 27.5454C14.4481 17.6044 22.507 9.54605 32.4481 9.54605C42.3891 9.54605 50.4475 17.6044 50.4475 27.5454C50.4364 37.482 42.3841 45.5337 32.4481 45.5454Z" fill="rgba(29,161,242,1.00)"/>
<path d="M44.4476 27.4903H42.5076C43.3424 27.0101 43.9061 26.1097 43.9061 25.0796C43.9061 24.0102 43.2994 23.0582 42.375 22.595C42.5345 22.2405 42.6172 21.8555 42.6172 21.4577C42.6172 19.925 41.3703 18.6781 39.8375 18.6781C39.3543 18.6781 38.8902 18.8 38.4766 19.0333C37.9339 18.6508 37.285 18.4435 36.6151 18.4435C36.5696 18.4435 36.5246 18.4451 36.4795 18.447C35.9861 17.0084 34.61 16.0022 33.0602 16.0022C31.6627 16.0022 30.3981 16.8117 29.8023 18.0519C29.6906 18.0415 29.5783 18.0363 29.4661 18.0363C27.9973 18.0363 26.6929 18.9232 26.1359 20.2458C26.0371 20.2156 25.9365 20.1893 25.8345 20.1664C25.888 19.5695 26.0773 19.1118 26.4004 18.8041C26.6818 18.536 26.9645 18.4805 26.9764 18.4783L26.9699 18.4793L26.9698 18.4788C27.0686 18.4643 27.1621 18.4187 27.233 18.3475C27.3198 18.2606 27.3699 18.1406 27.3699 18.0177C27.3699 17.8944 27.3199 17.7744 27.233 17.687C27.1461 17.6001 27.0256 17.5502 26.9028 17.5502C26.8766 17.5502 26.8506 17.5529 26.8249 17.5573L26.8247 17.5565C26.5474 17.6002 26.168 17.7556 25.8182 18.0715V16.4671C25.8182 16.2091 25.609 16 25.3511 16H24.2301C23.9722 16 23.763 16.2091 23.763 16.4671V18.2136C23.2257 17.555 22.6456 17.17 22.6006 17.1407C22.3849 16.9999 22.0963 17.0607 21.9552 17.2762C21.8141 17.4916 21.8744 17.781 22.0895 17.9226C22.105 17.9327 23.5181 18.879 23.7281 20.2403C22.1475 20.7151 21 22.1043 21 23.7402C21 24.4199 21.3876 26.052 21.7681 27.4903H21.4671C21.2092 27.4903 21 27.6994 21 27.9573V39.4476C21 39.7056 21.2092 39.9147 21.4671 39.9147H44.4476C44.7055 39.9147 44.9147 39.7056 44.9147 39.4476V27.9573C44.9147 27.6994 44.7055 27.4903 44.4476 27.4903ZM29.4661 18.9705C29.6458 18.9705 29.8257 18.9884 30.001 19.0239C30.2291 19.0701 30.4563 18.9414 30.534 18.722C30.912 17.654 31.9272 16.9364 33.0602 16.9364C34.1644 16.9364 35.1498 17.6248 35.5498 18.6245C34.2882 19.066 33.3804 20.2677 33.3804 21.6781C33.3804 21.936 33.5896 22.1451 33.8475 22.1451C34.1054 22.1451 34.3146 21.936 34.3146 21.6781C34.3146 20.4096 35.3466 19.3777 36.615 19.3777C37.1775 19.3777 37.7193 19.5833 38.1403 19.9568C38.3063 20.1041 38.5532 20.1141 38.7307 19.9809C39.0519 19.7397 39.4346 19.6122 39.8374 19.6122C40.855 19.6122 41.6829 20.4401 41.6829 21.4577C41.6829 21.8578 41.5571 22.2384 41.3188 22.5584C41.2257 22.6835 41.2011 22.8469 41.2535 22.9939C41.3058 23.1409 41.428 23.2521 41.5793 23.2902C42.3993 23.497 42.9719 24.2328 42.9719 25.0796C42.9719 26.0972 42.144 26.9251 41.1264 26.9251C41.0105 26.9251 40.8928 26.9138 40.7765 26.8915C40.5501 26.848 40.326 26.9763 40.2485 27.1934C40.212 27.296 40.1657 27.3954 40.1112 27.4903H39.5216L41.4343 24.7485C41.5061 24.6454 41.5335 24.5177 41.5101 24.3943C41.4867 24.2708 41.4145 24.162 41.3099 24.0924L39.9481 23.1862C39.8421 23.1156 39.7117 23.0913 39.5874 23.1192C39.463 23.147 39.3554 23.2244 39.2896 23.3335L38.6086 24.4611L39.166 21.6413C39.2157 21.3896 39.0532 21.1449 38.8019 21.0933L37.6134 20.8488C37.4906 20.8235 37.3627 20.8488 37.2586 20.9187C37.1546 20.9887 37.083 21.0976 37.0601 21.2208L36.9076 22.0399H35.8175C35.5596 22.0399 35.3504 22.249 35.3504 22.5069V25.1947C35.04 23.6053 33.6375 22.4019 31.9586 22.4019C31.2021 22.4019 30.4835 22.6419 29.8807 23.096C29.3836 23.4705 28.9932 23.9802 28.7582 24.5532C28.8177 24.2024 28.8471 23.9334 28.8471 23.7403C28.8471 23.1069 28.675 22.5104 28.3725 21.9896C28.6179 21.3219 29.2559 20.8683 29.9775 20.8683C30.0922 20.8683 30.2071 20.8798 30.3191 20.9025C30.5474 20.9489 30.7749 20.8199 30.8524 20.6002C30.9527 20.3163 31.1271 20.0624 31.3569 19.8658C31.5529 19.6981 31.5759 19.4033 31.4082 19.2072C31.2405 19.0112 30.9457 18.9883 30.7496 19.1559C30.493 19.3754 30.2811 19.6416 30.1249 19.9382C30.0759 19.9355 30.0267 19.9341 29.9776 19.9341C29.0479 19.9341 28.2081 20.4208 27.7343 21.1799C27.5124 20.9663 27.2634 20.7778 26.992 20.6195C27.4021 19.6329 28.3727 18.9705 29.4661 18.9705ZM38.0776 27.1472L39.8369 24.2342L40.395 24.6056L38.3827 27.4903H38.0098L38.0776 27.1472ZM37.4933 25.2855V23.9885C37.4958 23.9787 37.4985 23.969 37.5004 23.9589L37.8913 21.8597L38.1596 21.9149L37.4933 25.2855ZM36.2813 26.68C36.2833 26.6623 36.2846 26.6444 36.2846 26.6262V22.974H36.5592V27.4903H36.4118C36.4131 27.461 36.4138 27.4317 36.4138 27.4024C36.4138 27.1477 36.3665 26.9043 36.2813 26.68ZM29.8746 24.5009C29.8608 24.5009 29.8472 24.5018 29.8333 24.502C30.29 23.7929 31.0902 23.336 31.9586 23.336C33.1927 23.336 34.222 24.2272 34.4383 25.3997C33.792 25.4043 33.2193 25.7295 32.8649 26.2271C32.266 25.1962 31.1503 24.5009 29.8746 24.5009ZM32.3528 27.4903H27.4699H27.3964C27.6162 26.322 28.6435 25.4351 29.8746 25.4351C31.1058 25.4351 32.133 26.322 32.3528 27.4903ZM34.452 26.3336C35.0186 26.3336 35.4796 26.813 35.4796 27.4024C35.4796 27.4318 35.4782 27.4611 35.4759 27.4903H33.4281C33.4258 27.4611 33.4244 27.4318 33.4244 27.4024C33.4244 26.813 33.8854 26.3336 34.452 26.3336ZM24.6972 16.9342H24.884V20.0663C24.8214 20.0669 24.7591 20.0686 24.6972 20.0719V16.9342ZM21.9621 23.371C21.9912 23.3767 22.0213 23.3799 22.0521 23.3799H24.3612C24.6192 23.3799 24.8283 23.1708 24.8283 22.9128C24.8283 22.6549 24.6192 22.4458 24.3612 22.4458H22.2894C22.7943 21.5856 23.7855 20.9995 24.9235 20.9995C26.5718 20.9995 27.9128 22.229 27.9128 23.7402C27.9128 23.8621 27.8934 24.0869 27.8191 24.5009H25.9639C25.706 24.5009 25.4968 24.71 25.4968 24.968C25.4968 25.226 25.706 25.4351 25.9639 25.4351H27.5149C26.9482 25.9657 26.5601 26.6841 26.4506 27.4903H22.7348C22.2245 25.5852 21.9342 24.2278 21.9342 23.7402C21.9342 23.615 21.9442 23.4919 21.9621 23.371ZM43.9805 31.3203H39.8702C39.6123 31.3203 39.4031 31.5295 39.4031 31.7874C39.4031 32.0454 39.6123 32.2545 39.8702 32.2545H43.9805V35.1504H29.249C28.9911 35.1504 28.7819 35.3596 28.7819 35.6175C28.7819 35.8755 28.9911 36.0846 29.249 36.0846H43.9805V38.9805H21.9342V36.0846H26.0445C26.3024 36.0846 26.5116 35.8755 26.5116 35.6175C26.5116 35.3596 26.3024 35.1504 26.0445 35.1504H21.9342V32.2545H36.6657C36.9236 32.2545 37.1328 32.0454 37.1328 31.7874C37.1328 31.5295 36.9236 31.3203 36.6657 31.3203H21.9342V28.4244H22.3771H43.9805V31.3203Z" fill="#ED1A3B"/>
</g>
<defs>
<clipPath id="clip0">
<rect width="65" height="65" fill="white"/>
</clipPath>
</defs>
</svg>
