<svg width="65" height="65" viewBox="0 0 65 65" fill="none" xmlns="http://www.w3.org/2000/svg">
<g clip-path="url(#clip0)">
<path d="M32.4494 1.41833C47.1127 1.41833 59.0456 12.8055 59.0456 26.845C59.0456 46.5775 32.4494 63.5817 32.4494 63.5817C32.4494 63.5817 5.85254 46.5775 5.85254 26.845C5.85254 12.8055 17.786 1.41833 32.4494 1.41833ZM51.8671 27.5453C51.8671 16.8214 43.1733 8.12752 32.4494 8.12752C21.7249 8.12752 13.031 16.8214 13.031 27.5453C13.031 38.2698 21.7249 46.9637 32.4494 46.9637C43.1733 46.9637 51.8671 38.2698 51.8671 27.5453Z" fill="white"/>
<path d="M32.4486 8.12756C43.1726 8.12756 51.8664 16.8214 51.8664 27.5454C51.8664 38.2699 43.1726 46.9637 32.4486 46.9637C21.7241 46.9637 13.0303 38.2699 13.0303 27.5454C13.0303 16.8214 21.7241 8.12756 32.4486 8.12756Z" fill="white"/>
<path d="M32.4488 0C17.0015 0 4.43359 12.0421 4.43359 26.845C4.43359 31.5956 5.89467 36.5639 8.77581 41.6126C11.0436 45.5858 14.1946 49.6227 18.1423 53.6109C24.8254 60.3627 31.4077 64.5996 31.6848 64.7769C32.1507 65.0745 32.7469 65.0745 33.2129 64.7769C33.4899 64.5996 40.0717 60.3627 46.7554 53.6109C50.7031 49.6227 53.8541 45.5858 56.1213 41.6126C59.003 36.5639 60.4635 31.5956 60.4635 26.845C60.4635 12.0426 47.8962 0 32.4488 0ZM53.6718 40.1814C51.5336 43.9341 48.5417 47.7682 44.7779 51.5758C40.9897 55.3767 36.8631 58.8241 32.4488 61.8753C28.049 58.8351 23.9356 55.401 20.1591 51.6146C16.3859 47.8026 13.3845 43.964 11.2403 40.2063C8.60626 35.5921 7.27041 31.0958 7.27041 26.845C7.27041 13.6067 18.5656 2.83682 32.4488 2.83682C46.3321 2.83682 57.6267 13.6067 57.6267 26.845C57.6267 31.0886 56.2964 35.5755 53.6718 40.1814Z" fill="#CECECE"/>
<path d="M32.4481 6.70923C20.959 6.70923 11.6113 16.0563 11.6113 27.5454C11.6113 39.0345 20.959 48.3822 32.4481 48.3822C43.9372 48.3822 53.2843 39.0345 53.2843 27.5454C53.2843 16.0563 43.9372 6.70923 32.4481 6.70923ZM32.4481 45.5454C22.507 45.5454 14.4481 37.4865 14.4481 27.5454C14.4481 17.6044 22.507 9.54605 32.4481 9.54605C42.3891 9.54605 50.4475 17.6044 50.4475 27.5454C50.4364 37.482 42.3841 45.5337 32.4481 45.5454Z" fill="rgba(29,161,242,1.00)"/>
<path d="M34.5049 16.1333C34.3313 15.9459 34.1679 15.7585 34.025 15.5503C33.6881 15.1027 33.1877 14.8424 32.6262 14.8424C32.0748 14.8424 31.5643 15.1027 31.2274 15.5503C31.0538 15.7794 30.8598 16.0084 30.6556 16.2166C30.4003 16.4769 30.0021 16.81 29.4099 17.1119C28.8994 17.4138 27.7456 17.7366 27.7456 17.7366C26.9288 17.9448 25.9282 18.0905 24.703 18.1009L23.539 18.1114C22.8345 18.1218 22.2627 18.7152 22.2627 19.4439V20.9431L22.3546 28.8968C22.518 30.2085 22.8855 31.4995 23.4573 32.6863C24.2333 34.3103 25.3871 35.747 26.7859 36.8609L30.625 39.9009C31.1967 40.3485 31.9012 40.5984 32.6262 40.5984C33.3511 40.5984 34.0556 40.3485 34.6274 39.9009L36.6695 38.2872C37.0064 38.0269 37.0677 37.5272 36.8022 37.1941C36.5469 36.8505 36.0568 36.7881 35.7301 37.0587L33.6881 38.6724C33.3817 38.9118 33.0142 39.0368 32.6364 39.0368C32.2586 39.0368 31.8808 38.9118 31.5847 38.6724L27.7456 35.6325C26.5306 34.6747 25.53 33.415 24.8561 32.0096C24.1822 30.6041 23.7942 29.0113 23.7942 27.4393V21.88C23.7942 21.8592 23.7942 21.8488 23.7942 21.828V19.6834L24.7234 19.673C28.8586 19.6417 30.9006 18.1842 31.7481 17.3306C32.0033 17.0703 32.2484 16.7892 32.4628 16.4977C32.5139 16.4248 32.5853 16.4144 32.6262 16.4144C32.667 16.4144 32.7385 16.4248 32.7895 16.4977C33.004 16.7996 33.249 17.0807 33.5043 17.341C34.1884 18.0385 36.2406 19.6521 40.529 19.6938L41.4581 19.7042V27.4393C41.4581 29.0113 41.1007 30.5833 40.4269 31.9888C39.9163 33.0506 39.2323 34.0084 38.4052 34.8413C38.0989 35.1432 38.0989 35.6429 38.395 35.9448C38.6911 36.2467 39.1812 36.2571 39.4773 35.9552C40.4371 34.9974 41.2233 33.8939 41.8053 32.6759C42.5812 31.0518 42.9999 29.2403 42.9999 27.4289V19.4439C42.9999 18.7256 42.4281 18.1322 41.7134 18.1218L40.5494 18.1114C38.4461 18.1009 36.986 17.6637 36.0364 17.1952C35.4442 16.9454 34.5049 16.1333 34.5049 16.1333ZM22.2627 22.5359V27.3248V22.5359Z" fill="#00ABE6"/>
<path d="M36.6998 34.6539C38.9256 32.8945 40.1917 30.2398 40.1917 27.3768V22.0049C40.1917 21.4324 39.7731 20.9535 39.2115 20.891C37.874 20.7348 36.6181 20.4433 35.5052 20.0269C34.7598 19.7458 34.0859 19.4231 33.5142 19.0483C32.973 18.7048 32.2685 18.7048 31.7274 19.0483C31.1454 19.4231 30.4715 19.7458 29.7363 20.0269C28.6132 20.4433 27.3675 20.7348 26.03 20.891C25.4684 20.9535 25.0498 21.4324 25.0498 22.0049V27.3768C25.0498 30.2398 26.3261 32.8945 28.5417 34.6539L31.9418 37.3502C32.146 37.5064 32.3808 37.5897 32.6157 37.5897C32.8505 37.5897 33.0955 37.5064 33.2895 37.3502L36.6998 34.6539ZM29.4811 33.4254C27.633 31.9679 26.5814 29.7609 26.5814 27.3768V22.3901C27.8985 22.2132 29.1339 21.9112 30.2571 21.4948C31.1045 21.1825 31.8703 20.7973 32.5442 20.3705C32.5952 20.3392 32.6463 20.3392 32.6973 20.3705C33.3712 20.7973 34.137 21.1825 34.9845 21.4948C36.1076 21.9112 37.343 22.2132 38.6602 22.3901V27.3768C38.6602 29.7609 37.5983 31.9575 35.7604 33.4254L32.6259 35.9136L29.4811 33.4254Z" fill="#00ABE6"/>
<path d="M37.0363 23.6497C36.6993 23.3791 36.2194 23.4415 35.9642 23.7747L32.1455 28.7197L30.2872 26.242C30.032 25.8984 29.5521 25.836 29.2152 26.0962C28.8782 26.3565 28.817 26.8458 29.0722 27.1894L31.5329 30.4583C31.6758 30.6457 31.9005 30.7602 32.1353 30.7602H32.1455C32.3804 30.7602 32.605 30.6457 32.7479 30.4583L37.169 24.7533C37.4243 24.4097 37.3732 23.9204 37.0363 23.6497Z" fill="#00ABE6"/>
</g>
<defs>
<clipPath id="clip0">
<rect width="65" height="65" fill="white"/>
</clipPath>
</defs>
</svg>
