<svg width="88" height="89" viewBox="0 0 88 89" fill="none" xmlns="http://www.w3.org/2000/svg">
<path d="M41.1759 34.0925H46.9042C49.2774 34.0925 51.2003 36.0161 51.2003 38.3887H54.0645C54.0603 34.4358 50.857 31.2333 46.9042 31.2284H45.4721V28.3643H42.608V31.2284H41.1759C37.2217 31.2284 34.0156 34.4344 34.0156 38.3887C34.0156 42.3429 37.2217 45.549 41.1759 45.549H46.9042C49.2774 45.549 51.2003 47.4726 51.2003 49.8452C51.2003 52.2177 49.2774 54.1414 46.9042 54.1414H41.1759C38.8034 54.1414 36.8797 52.2177 36.8797 49.8452H34.0156C34.0205 53.798 37.2238 57.0006 41.1759 57.0055H42.608V59.8696H45.4721V57.0055H46.9042C50.8591 57.0055 54.0645 53.7994 54.0645 49.8452C54.0645 45.8909 50.8591 42.6849 46.9042 42.6849H41.1759C38.8034 42.6849 36.8797 40.7612 36.8797 38.3887C36.8797 36.0161 38.8034 34.0925 41.1759 34.0925Z" fill="#4A9ABE" stroke="#4A9ABE" stroke-width="2"/>
<path d="M76.9775 67.0299C74.8161 67.0299 72.7127 67.7334 70.9863 69.0347L62.2114 60.2605C70.443 51.0696 70.443 37.158 62.2114 27.9678L65.2581 24.9275C69.485 28.0909 75.4377 27.4496 78.8948 23.4597C82.3519 19.4691 82.1379 13.4856 78.4046 9.75236C74.6713 6.01907 68.6879 5.8051 64.698 9.26219C60.7073 12.7193 60.0668 18.6727 63.2302 22.8996L60.1836 25.9456C50.9934 17.714 37.0818 17.714 27.8909 25.9456L19.1223 17.1714C22.2857 12.9444 21.6452 6.99102 17.6546 3.53394C13.6647 0.0768523 7.68123 0.290822 3.94794 4.02411C0.214651 7.7574 0.000680685 13.7409 3.45777 17.7315C6.91485 21.7214 12.8676 22.3626 17.0945 19.1992L25.8687 27.9734C18.8958 35.7532 17.7078 47.1321 22.9234 56.1846L18.6182 58.9921C15.1254 55.0455 9.17692 54.4693 4.99122 57.6712C0.804816 60.873 -0.195808 66.7649 2.69838 71.1688C5.59257 75.5733 11.3977 76.9928 15.9981 74.4217C20.5977 71.8498 22.4291 66.1615 20.1936 61.3891L24.5044 58.5767C28.5482 64.084 34.7303 67.6285 41.5263 68.3361C48.3223 69.0438 55.1015 66.8488 60.1941 62.2925L68.9585 71.0625C66.1867 74.7853 66.337 79.9241 69.3207 83.4784C72.3044 87.0326 77.3397 88.071 81.4862 85.9859C85.6321 83.9007 87.8018 79.2395 86.7285 74.7252C85.6544 70.2101 81.6184 67.025 76.9775 67.0299ZM11.1027 72.7582C7.1484 72.7582 3.94235 69.5521 3.94235 65.5979C3.94235 61.6436 7.1484 58.4376 11.1027 58.4376C15.0576 58.4376 18.263 61.6436 18.263 65.5979C18.2588 69.5507 15.0555 72.7533 11.1027 72.7582ZM71.2492 9.74746C75.2042 9.74746 78.4095 12.9535 78.4095 16.9078C78.4095 20.862 75.2042 24.0681 71.2492 24.0681C67.295 24.0681 64.0889 20.862 64.0889 16.9078C64.0938 12.9549 67.2971 9.75236 71.2492 9.74746ZM3.94235 11.1795C3.94235 7.22527 7.1484 4.01922 11.1027 4.01922C15.0576 4.01922 18.263 7.22527 18.263 11.1795C18.263 15.1338 15.0576 18.3398 11.1027 18.3398C7.1505 18.3349 3.94724 15.1324 3.94235 11.1795ZM22.5591 44.1169C22.5591 32.2535 32.1766 22.636 44.0401 22.636C55.9042 22.636 65.521 32.2535 65.521 44.1169C65.521 55.9804 55.9042 65.5979 44.0401 65.5979C32.1822 65.5846 22.5731 55.9748 22.5591 44.1169ZM76.9775 84.2147C73.0232 84.2147 69.8172 81.0086 69.8172 77.0544C69.8172 73.1001 73.0232 69.8941 76.9775 69.8941C80.9324 69.8941 84.1378 73.1001 84.1378 77.0544C84.1336 81.0072 80.9303 84.2098 76.9775 84.2147Z" fill="#4A9ABE" stroke="#4A9ABE" stroke-width="2"/>
</svg>
