<svg width="96" height="72" viewBox="0 0 96 72" fill="none" xmlns="http://www.w3.org/2000/svg">
<path d="M13.9546 49.2368L19.1084 52.6725L31.477 34.1185L26.3231 30.6828L13.9546 49.2368Z" fill="#4A9ABE"/>
<path d="M37.2554 33.7435L55.811 49.2073L59.7762 44.4494L41.2206 28.9856L37.2554 33.7435Z" fill="#4A9ABE"/>
<path d="M64.3599 43.3182L69.8364 46.2119L82.4242 22.3889L76.9477 19.4951L64.3599 43.3182Z" fill="#4A9ABE"/>
<path d="M12.3871 71.6131C5.57414 71.6131 0 66.0387 0 59.226C0 52.4132 5.57414 46.8389 12.3871 46.8389C19.2001 46.8389 24.7742 52.413 24.7742 59.226C24.7742 66.0389 19.2001 71.6131 12.3871 71.6131ZM12.3871 53.0324C8.98063 53.0324 6.19356 55.8195 6.19356 59.226C6.19356 62.6325 8.98063 65.4195 12.3871 65.4195C15.7936 65.4195 18.5807 62.6325 18.5807 59.226C18.5807 55.8195 15.7936 53.0324 12.3871 53.0324Z" fill="#4A9ABE"/>
<path d="M33.0321 36.5162C26.2192 36.5162 20.645 30.942 20.645 24.1291C20.645 17.3161 26.2192 11.7419 33.0321 11.7419C39.8451 11.7419 45.4192 17.3161 45.4192 24.1291C45.4192 30.942 39.8449 36.5162 33.0321 36.5162ZM33.0321 17.9355C29.6256 17.9355 26.8386 20.7226 26.8386 24.1291C26.8386 27.5355 29.6256 30.3226 33.0321 30.3226C36.4386 30.3226 39.2257 27.5355 39.2257 24.1291C39.2257 20.7226 36.4384 17.9355 33.0321 17.9355Z" fill="#4A9ABE"/>
<path d="M63.9999 66.4517C57.1869 66.4517 51.6128 60.8776 51.6128 54.0646C51.6128 47.2516 57.1869 41.6775 63.9999 41.6775C70.8129 41.6775 76.387 47.2516 76.387 54.0646C76.387 60.8776 70.8129 66.4517 63.9999 66.4517ZM63.9999 47.871C60.5934 47.871 57.8064 50.6581 57.8064 54.0646C57.8064 57.4711 60.5934 60.2582 63.9999 60.2582C67.4064 60.2582 70.1935 57.4711 70.1935 54.0646C70.1935 50.6581 67.4064 47.871 63.9999 47.871Z" fill="#4A9ABE"/>
<path d="M83.6127 25.1614C76.7997 25.1614 71.2256 19.5873 71.2256 12.7743C71.2256 5.96135 76.7997 0.387207 83.6127 0.387207C90.4257 0.387207 95.9998 5.96135 95.9998 12.7743C95.9998 19.5873 90.4255 25.1614 83.6127 25.1614ZM83.6127 6.58076C80.2062 6.58076 77.4191 9.36783 77.4191 12.7743C77.4191 16.1808 80.2062 18.9679 83.6127 18.9679C87.0192 18.9679 89.8063 16.1808 89.8063 12.7743C89.8063 9.36783 87.019 6.58076 83.6127 6.58076Z" fill="#4A9ABE"/>
</svg>
