<svg width="73" height="73" viewBox="0 0 73 73" fill="none" xmlns="http://www.w3.org/2000/svg">
<path d="M47.5147 34.3613C38.8787 34.3613 31.2508 38.7534 26.7462 45.4223V30.7735C26.7462 28.7947 28.3558 27.1851 30.334 27.1851C34.6715 27.1851 38.1998 23.6563 38.1998 19.3193V7.86575C38.1998 3.52825 34.6715 0 30.334 0H18.8804C16.8515 0 14.8259 0.769142 13.1768 2.16652C11.5282 3.56334 10.436 5.43468 10.1024 7.43634L0.531855 64.8602C0.180979 66.9627 0.726229 69.049 2.0267 70.5845C3.32717 72.1195 5.29541 73 7.42684 73H64.6954C69.0329 73 72.5611 69.4717 72.5611 65.1343V59.4072C72.5611 45.5972 61.3253 34.3613 47.5147 34.3613ZM68.2838 65.1343C68.2838 67.1131 66.6742 68.7227 64.6954 68.7227H7.42684C6.54241 68.7227 5.78385 68.4019 5.2904 67.8193C4.79695 67.2373 4.60536 66.4358 4.75072 65.5637L14.3218 8.13921C14.6705 6.04565 16.7579 4.27734 18.8804 4.27734H30.334C32.3129 4.27734 33.9224 5.88692 33.9224 7.86575V11.4541H26.7462V11.3021C26.7462 10.1208 25.7882 9.16343 24.6075 9.16343C23.4262 9.16343 22.4688 10.1208 22.4688 11.3021V13.5928C22.4688 14.7735 23.4262 15.7315 24.6075 15.7315H33.9224V19.3193C33.9224 21.2982 32.3129 22.9077 30.334 22.9077C25.9971 22.9077 22.4688 26.436 22.4688 30.7735V59.4072C22.4688 60.5885 23.4262 61.5459 24.6075 61.5459C25.7882 61.5459 26.7462 60.5885 26.7462 59.4072C26.7462 47.9558 36.0628 38.6387 47.5147 38.6387C58.9666 38.6387 68.2838 47.9558 68.2838 59.4072V65.1343Z" fill="#4A9ABE"/>
</svg>
