<svg width="78" height="76" viewBox="0 0 78 76" fill="none" xmlns="http://www.w3.org/2000/svg">
<path d="M77.8496 41.6031C77.1493 34.5589 74.0023 27.918 68.988 22.9035C64.7028 18.6185 59.4578 15.8648 53.9389 14.6404V10.7696C56.193 10.2088 57.8685 8.16844 57.8685 5.74324C57.8685 2.88706 55.5449 0.563477 52.6888 0.563477H41.7198C38.8637 0.563477 36.5401 2.88706 36.5401 5.74324C36.5401 8.16829 38.2156 10.2087 40.4695 10.7696V14.6512C34.9676 15.8808 29.7399 18.6307 25.4669 22.9037C24.5318 23.8388 23.6696 24.8197 22.8803 25.8392C22.842 25.8363 22.8038 25.8334 22.7648 25.8334H11.9084C11.0672 25.8334 10.385 26.5155 10.385 27.3569C10.385 28.1983 11.0672 28.8804 11.9084 28.8804H20.8073C19.6903 30.7504 18.7896 32.7143 18.1041 34.7359H1.52346C0.682206 34.7359 0 35.418 0 36.2594C0 37.1008 0.682206 37.7829 1.52346 37.7829H17.2431C16.8041 39.7102 16.5521 41.6716 16.4871 43.6386H9.75015C8.9089 43.6386 8.22669 44.3206 8.22669 45.162C8.22669 46.0034 8.9089 46.6855 9.75015 46.6855H16.5357C16.6642 48.6575 16.9813 50.6191 17.4869 52.5412H7.61731C6.77605 52.5412 6.09385 53.2233 6.09385 54.0647C6.09385 54.9061 6.77605 55.5882 7.61731 55.5882H18.4592C19.9537 59.5417 22.2893 63.2472 25.4669 66.4248C30.4861 71.444 37.1339 74.5918 44.1854 75.2885C45.1918 75.3878 46.199 75.437 47.2048 75.437C53.1496 75.437 59.0189 73.7166 63.9991 70.4734C64.7041 70.0143 64.9036 69.0705 64.4444 68.3654C63.9852 67.6604 63.0414 67.4609 62.3364 67.9201C51.4349 75.019 36.8352 73.4841 27.6214 64.2704C16.8106 53.4596 16.8106 35.8692 27.6214 25.0583C38.4321 14.2477 56.0224 14.2477 66.8333 25.0583C76.0349 34.26 77.5782 48.8473 70.5027 59.7434C70.0445 60.4491 70.2451 61.3927 70.9506 61.8508C71.6566 62.3091 72.5999 62.1084 73.058 61.4027C76.8384 55.5808 78.5401 48.5493 77.8496 41.6031ZM39.587 5.7434C39.587 4.56729 40.5437 3.61055 41.7198 3.61055H52.6888C53.8649 3.61055 54.8216 4.56729 54.8216 5.7434C54.8216 6.91951 53.8649 7.87624 52.6888 7.87624H52.4154H41.993H41.7198C40.5437 7.87624 39.587 6.91936 39.587 5.7434ZM43.5165 14.1275V10.9232H50.892V14.122C48.4429 13.8307 45.9651 13.8325 43.5165 14.1275Z" fill="#4A9ABE"/>
<path d="M67.9111 63.8235C67.5089 63.8235 67.1174 63.9865 66.8342 64.2699C66.5493 64.5532 66.3877 64.9463 66.3877 65.3469C66.3877 65.7476 66.5493 66.1406 66.8342 66.424C67.1174 66.7089 67.5091 66.8704 67.9111 66.8704C68.3118 66.8704 68.7033 66.7089 68.9882 66.424C69.2716 66.1406 69.4346 65.7476 69.4346 65.3469C69.4346 64.9463 69.2717 64.5532 68.9882 64.2699C68.7033 63.9865 68.3116 63.8235 67.9111 63.8235Z" fill="#4A9ABE"/>
<path d="M47.2275 21.0308C34.1962 21.0308 23.5942 31.6325 23.5942 44.6641C23.5942 57.6956 34.1962 68.2974 47.2275 68.2974C60.2589 68.2974 70.8608 57.6956 70.8608 44.6641C70.8608 31.6325 60.2589 21.0308 47.2275 21.0308ZM47.2275 65.2504C35.8761 65.2504 26.6412 56.0154 26.6412 44.6641C26.6412 33.3128 35.8761 24.0777 47.2275 24.0777C58.579 24.0777 67.8139 33.3128 67.8139 44.6641C67.8139 56.0154 58.579 65.2504 47.2275 65.2504Z" fill="#4A9ABE"/>
<path d="M56.8645 32.8728L49.3188 40.4184C48.6877 40.1064 47.978 39.9301 47.2277 39.9301C46.4772 39.9301 45.7676 40.1064 45.1366 40.4184L41.7595 37.0413C41.1644 36.4464 40.2001 36.4464 39.6049 37.0413C39.01 37.6362 39.01 38.6009 39.6049 39.1958L42.9819 42.5729C42.6698 43.2039 42.4937 43.9137 42.4937 44.664C42.4937 47.2743 44.6172 49.398 47.2277 49.398C49.8381 49.398 51.9617 47.2743 51.9617 44.664C51.9617 43.9137 51.7854 43.2039 51.4734 42.5729L58.7976 35.2487L59.0189 35.0273C59.6138 34.4324 59.6138 33.4677 59.0189 32.8728C58.424 32.2779 57.4597 32.2779 56.8645 32.8728ZM47.2277 46.3512C46.2974 46.3512 45.5406 45.5943 45.5406 44.6641C45.5406 43.7339 46.2974 42.977 47.2277 42.977C48.1579 42.977 48.9147 43.7339 48.9147 44.6641C48.9147 45.5943 48.1579 46.3512 47.2277 46.3512Z" fill="#4A9ABE"/>
<path d="M63.516 43.1592H62.1045C61.2632 43.1592 60.5811 43.8412 60.5811 44.6826C60.5811 45.524 61.2632 46.2061 62.1045 46.2061H63.516C64.3572 46.2061 65.0394 45.524 65.0394 44.6826C65.0394 43.8412 64.3572 43.1592 63.516 43.1592Z" fill="#4A9ABE"/>
<path d="M32.3503 43.1219H30.939C30.0977 43.1219 29.4155 43.804 29.4155 44.6454C29.4155 45.4868 30.0977 46.1688 30.939 46.1688H32.3503C33.1915 46.1688 33.8737 45.4868 33.8737 44.6454C33.8737 43.804 33.1915 43.1219 32.3503 43.1219Z" fill="#4A9ABE"/>
<path d="M47.2456 31.3101C48.0868 31.3101 48.769 30.6281 48.769 29.7867V28.3754C48.769 27.534 48.0868 26.8519 47.2456 26.8519C46.4044 26.8519 45.7222 27.534 45.7222 28.3754V29.7867C45.7222 30.6281 46.4044 31.3101 47.2456 31.3101Z" fill="#4A9ABE"/>
<path d="M47.209 58.0181C46.3677 58.0181 45.6855 58.7001 45.6855 59.5415V60.9528C45.6855 61.7942 46.3677 62.4763 47.209 62.4763C48.0502 62.4763 48.7324 61.7942 48.7324 60.9528V59.5415C48.7324 58.7001 48.0502 58.0181 47.209 58.0181Z" fill="#4A9ABE"/>
<path d="M1.52344 52.5405C1.12277 52.5405 0.729727 52.7035 0.446367 52.9869C0.163008 53.2703 0 53.6633 0 54.064C0 54.4662 0.162855 54.8577 0.446367 55.141C0.729879 55.4244 1.12277 55.5874 1.52344 55.5874C1.9241 55.5874 2.31715 55.4244 2.60036 55.141C2.88371 54.8577 3.04688 54.4646 3.04688 54.064C3.04688 53.6633 2.88387 53.2703 2.60036 52.9869C2.31715 52.7035 1.9241 52.5405 1.52344 52.5405Z" fill="#4A9ABE"/>
</svg>
